<svg width="629" height="662" viewBox="0 0 629 662" fill="none" xmlns="http://www.w3.org/2000/svg">
<g filter="url(#filter0_d_18_509)">
<g filter="url(#filter1_b_18_509)">
<path d="M412.798 154.261C408.001 156.18 402.708 157.239 397.183 157.338C396.885 157.338 396.587 157.338 396.29 157.338C373.529 157.338 355.103 138.911 355.103 116.151C355.103 108.112 357.021 100.635 360.693 94.2838C361.62 92.6297 362.711 91.0417 363.869 89.5861L365.292 87.8989L365.358 87.8328C372.471 79.9262 383.024 74.9639 396.323 74.9639C419.017 74.9969 437.444 93.4567 437.444 116.184C437.444 134.776 427.287 148.439 412.798 154.261Z" fill="#7BAEED"/>
</g>
<g filter="url(#filter2_b_18_509)">
<path d="M253.012 430.728L284.01 429.703V420.473H253.012V430.728Z" fill="#F674B4"/>
</g>
<g filter="url(#filter3_b_18_509)">
<path d="M392.651 264.954C391.129 264.193 389.805 266.476 391.327 267.237L406.148 274.614C407.67 275.375 408.993 273.092 407.471 272.331L392.651 264.954Z" fill="#F674B4"/>
</g>
<g filter="url(#filter4_b_18_509)">
<path d="M391.327 294.826C389.673 295.025 389.64 297.671 391.327 297.473L404.229 295.951C405.883 295.753 405.916 293.106 404.229 293.305L391.327 294.826Z" fill="#F674B4"/>
</g>
<g filter="url(#filter5_b_18_509)">
<path d="M162.93 304.553L175.302 295.455L162.93 293.305V304.553Z" fill="#F674B4"/>
</g>
<g filter="url(#filter6_b_18_509)">
<path d="M145.33 284.638C144.734 286.226 147.282 286.92 147.877 285.332C148.87 282.752 149.862 280.172 150.854 277.624C151.45 276.036 148.903 275.375 148.307 276.929C147.315 279.51 146.322 282.09 145.33 284.638Z" fill="#F674B4"/>
</g>
<g filter="url(#filter7_b_18_509)">
<path d="M410.879 344.252L411.442 345.046C412.765 343.524 414.154 342.101 415.544 340.679C415.709 340.116 416.04 339.521 416.536 338.991C420.639 334.559 424.476 329.828 429.67 326.553C433.673 324.038 437.378 329.199 435.327 332.474C435.128 333.202 434.798 333.897 434.268 334.492C432.548 336.444 431.192 338.859 429.703 341.076C429.67 341.77 429.405 342.498 428.81 343.127C425.799 346.303 423.252 349.809 420.738 353.382C420.903 353.349 421.035 353.283 421.201 353.25C426.362 352.654 430.993 355.136 433.772 359.37C437.444 359.8 439.76 362.711 440.951 365.986C443.002 368.765 444.656 371.776 446.012 374.919L481.774 374.687V289.402L409.126 285.729L410.879 344.252Z" fill="#FFCF58"/>
</g>
<g filter="url(#filter8_b_18_509)">
<path d="M437.509 294.132C437.145 294.098 436.715 294.297 436.45 294.595C436.185 294.892 436.086 295.289 436.152 295.686L440.42 320.895L434.928 326.651C435.557 327.412 435.921 328.438 435.755 329.629L442.769 322.251C443.067 321.953 443.199 321.523 443.1 321.126L438.997 296.877L458.681 297.638V327.18L447.136 351.165L428.676 341.273C428.047 341.935 427.452 342.63 426.823 343.291L447.103 354.142C447.301 354.242 447.5 354.308 447.731 354.308C447.863 354.308 447.996 354.275 448.128 354.242C448.459 354.142 448.757 353.878 448.922 353.547L461.195 328.041C461.295 327.875 461.328 327.677 461.328 327.478V296.381C461.361 295.62 460.798 295.025 460.071 294.992L437.509 294.132Z" fill="#000200"/>
</g>
<g filter="url(#filter9_b_18_509)">
<path d="M464.074 346.235V296.314H460.038V327.412L447.765 352.951L464.074 346.235Z" fill="#000200"/>
</g>
<g filter="url(#filter10_b_18_509)">
<path d="M447.764 354.242C447.381 354.242 447.058 354.097 446.805 353.812C446.438 353.411 446.345 352.813 446.573 352.323L458.714 327.082V296.282C458.714 295.553 459.308 294.959 460.038 294.959H464.074C464.803 294.959 465.397 295.553 465.397 296.282V346.203C465.397 346.737 465.065 347.229 464.57 347.427L448.227 354.143C448.095 354.242 447.927 354.242 447.764 354.242ZM461.361 297.639V327.412C461.361 327.642 461.318 327.826 461.229 327.975L450.444 350.371L462.75 345.31L462.75 297.639H461.361Z" fill="#000200"/>
</g>
<g filter="url(#filter11_b_18_509)">
<path d="M440.817 365.986C440.817 365.258 441.412 364.662 442.14 364.662L489.183 364.365V281.627L419.148 278.054L420.835 335.153C420.869 335.881 420.273 336.476 419.545 336.51C418.884 336.543 418.222 335.947 418.189 335.219L416.436 276.697C416.436 276.333 416.568 275.97 416.833 275.705C417.097 275.44 417.461 275.308 417.825 275.341L490.506 279.046C491.201 279.079 491.763 279.675 491.763 280.369V365.688C491.763 366.416 491.168 367.011 490.44 367.011L442.14 367.309C441.412 367.309 440.817 366.713 440.817 365.986Z" fill="#000200"/>
</g>
<g filter="url(#filter12_b_18_509)">
<path d="M440.817 365.986C440.817 365.258 441.412 364.662 442.14 364.662L489.183 364.365V281.627L419.148 278.054L420.835 335.153C420.869 335.881 420.273 336.476 419.545 336.51C418.884 336.543 418.222 335.947 418.189 335.219L416.436 276.697C416.436 276.333 416.568 275.97 416.833 275.705C417.097 275.44 417.461 275.308 417.825 275.341L490.506 279.046C491.201 279.079 491.763 279.675 491.763 280.369V365.688C491.763 366.416 491.168 367.011 490.44 367.011L442.14 367.309C441.412 367.309 440.817 366.713 440.817 365.986Z" fill="#000200"/>
</g>
<g filter="url(#filter13_b_18_509)">
<path d="M407.505 154.592C404.623 154.592 401.743 154.301 398.944 153.728C396.216 153.168 393.532 152.334 390.967 151.248C388.449 150.182 386.019 148.862 383.747 147.326C381.495 145.804 379.378 144.057 377.454 142.133C375.529 140.208 373.782 138.091 372.26 135.84C370.724 133.567 369.404 131.137 368.338 128.619C367.252 126.054 366.418 123.37 365.859 120.643C365.285 117.843 364.994 114.963 364.994 112.082C364.994 107.998 365.487 103.999 366.458 100.197C367.43 96.3933 368.874 92.8121 370.75 89.5528C371.716 87.8549 372.829 86.2188 374.058 84.6898L375.481 82.9695C379.414 78.5922 384.146 75.228 389.545 72.9704C394.939 70.7149 400.982 69.5713 407.505 69.5713C430.945 69.5713 450.015 88.6414 450.015 112.082C450.015 130.304 440.492 144.996 424.542 151.383C419.573 153.39 414.163 154.459 408.464 154.559C408.133 154.592 407.842 154.592 407.505 154.592ZM407.505 72.2179C395.217 72.2179 384.853 76.5078 377.532 84.6237L376.077 86.3438C374.963 87.7517 373.939 89.2655 373.033 90.8429C369.505 96.9752 367.641 104.308 367.641 112.049C367.641 114.747 367.914 117.445 368.453 120.068C368.978 122.624 369.761 125.14 370.78 127.544C371.781 129.905 373.02 132.183 374.462 134.315C375.89 136.426 377.53 138.412 379.335 140.218C381.141 142.023 383.127 143.663 385.238 145.091C387.37 146.533 389.648 147.772 392.009 148.773C394.414 149.792 396.929 150.576 399.485 151.101C402.108 151.639 404.806 151.913 407.505 151.913H408.365C413.676 151.814 418.785 150.801 423.549 148.902C427.236 147.422 430.606 145.444 433.565 143.023C436.484 140.634 439.004 137.815 441.054 134.644C443.104 131.472 444.682 127.951 445.745 124.18C446.822 120.356 447.368 116.275 447.368 112.049C447.368 109.354 447.096 106.66 446.558 104.04C446.034 101.487 445.252 98.9742 444.233 96.5719C443.234 94.2131 441.996 91.9371 440.556 89.8072C439.129 87.6972 437.491 85.7125 435.686 83.9082C433.882 82.1035 431.896 80.4647 429.786 79.0374C427.654 77.5959 425.376 76.3576 423.014 75.357C420.609 74.3376 418.092 73.5546 415.534 73.0297C412.908 72.491 410.207 72.2179 407.505 72.2179Z" fill="#000200"/>
</g>
<g filter="url(#filter14_b_18_509)">
<path d="M381.998 145.692C381.689 145.692 381.396 145.587 381.171 145.395C370.912 137.253 365.027 125.111 365.027 112.081C365.027 107.997 365.52 103.999 366.491 100.196C367.463 96.3927 368.907 92.8115 370.784 89.5522C371.243 88.7039 371.785 87.8867 372.206 87.2694C372.393 86.9576 372.748 86.7422 373.132 86.7073C373.177 86.7032 373.223 86.7012 373.268 86.7012C373.619 86.7012 373.947 86.8208 374.191 87.0381C375.764 88.4629 377.036 90.2051 378.078 92.3642C379.022 94.3195 379.689 96.4268 380.278 98.286C380.831 100.022 381.458 101.989 382.329 103.877C383.277 105.93 384.402 107.629 385.77 109.071C388.616 112.049 392.793 112.579 397.216 113.14C398.66 113.32 400.296 113.525 401.85 113.856C403.588 114.226 405.028 114.712 406.252 115.344C407.734 116.108 408.916 117.084 409.865 118.327C410.383 119.005 410.833 119.771 411.203 120.605C411.593 121.484 411.907 122.467 412.136 123.527C412.621 125.786 412.748 127.768 412.525 129.586C412.414 130.489 412.211 131.357 411.922 132.166C411.634 132.975 411.249 133.753 410.78 134.478C407.285 139.851 399.699 141.45 392.363 142.997L392.287 143.013L391.81 143.114C388.556 143.801 385.483 144.45 382.991 145.428L382.528 145.626C382.5 145.631 382.473 145.636 382.446 145.64L382.443 145.641C382.28 145.669 382.14 145.692 381.998 145.692ZM373.496 90.1146C373.321 90.3945 373.193 90.6221 373.066 90.8756C369.539 97.0076 367.674 104.34 367.674 112.081C367.674 115.044 368.001 118 368.646 120.866C369.283 123.7 370.237 126.467 371.478 129.089C372.719 131.71 374.257 134.203 376.048 136.5C377.856 138.819 379.936 140.955 382.23 142.847C384.974 141.802 388.153 141.12 391.725 140.399C395.097 139.699 398.584 138.974 401.604 137.852C403.211 137.255 404.531 136.603 405.639 135.859C406.885 135.022 407.831 134.095 408.53 133.022C410.022 130.735 410.346 127.813 409.522 124.09C408.04 117.204 402.904 116.551 396.958 115.795L396.885 115.786L396.813 115.777C392.156 115.187 387.34 114.576 383.851 110.923C380.391 107.299 379.064 103.179 377.779 99.1939L377.764 99.1459L377.684 98.9021C376.626 95.6612 375.627 92.6 373.496 90.1146Z" fill="#000200"/>
</g>
<g filter="url(#filter15_b_18_509)">
<path d="M446.276 128.16C446.049 128.16 445.86 128.115 445.714 128.027C443.839 127.139 442.147 126.015 440.686 124.686C436.881 121.213 434.594 116.672 432.383 112.281L432.343 112.203C429.748 107.046 427.297 102.174 422.557 99.0145C420.517 97.6508 418.273 96.7164 415.696 96.1577C413.588 95.7006 411.234 95.4877 408.287 95.4877C406.476 95.4877 404.627 95.565 402.84 95.6399L401.45 95.7063C400.856 95.7393 400.218 95.7728 399.602 95.8052L399.598 95.8054L399.438 95.8137C398.238 95.8761 396.997 95.9406 395.741 95.9406C393.69 95.9406 392.107 95.7661 390.759 95.3914C389.958 95.1689 389.241 94.87 388.628 94.5032C387.958 94.1027 387.386 93.6059 386.927 93.0266C385.303 90.9383 385.108 87.93 386.332 83.8298C387.657 79.423 391.758 75.0621 398.87 70.4977C399.035 70.3987 399.202 70.3319 399.366 70.2991C402.205 69.8317 404.856 69.6045 407.471 69.6045C430.911 69.6045 449.981 88.6746 449.981 112.115C449.981 117.449 449.147 122.558 447.5 127.3C447.375 127.643 447.124 127.918 446.772 128.093C446.65 128.124 446.483 128.16 446.276 128.16ZM408.232 92.8281C411.432 92.8281 414.009 93.0646 416.341 93.5724C419.238 94.203 421.769 95.2581 424.078 96.7978C429.403 100.37 432.144 105.817 434.795 111.085L434.797 111.089C435.847 113.191 436.934 115.364 438.179 117.371C439.56 119.595 440.934 121.299 442.505 122.734C443.378 123.542 444.402 124.277 445.548 124.918C446.778 120.832 447.401 116.513 447.401 112.082C447.401 109.379 447.128 106.678 446.59 104.053C446.066 101.494 445.284 98.9776 444.266 96.5721C443.266 94.2104 442.029 91.9323 440.588 89.8009C439.162 87.6899 437.523 85.7046 435.719 83.9001C433.914 82.0956 431.929 80.4573 429.818 79.0305C427.687 77.5901 425.409 76.3528 423.047 75.3531C420.641 74.3348 418.125 73.5528 415.566 73.0286C412.941 72.4907 410.24 72.218 407.537 72.218C405.154 72.218 402.73 72.4128 400.127 72.8135C393.795 76.9241 390.033 80.8643 388.945 84.5244C388.47 86.0969 388.242 87.4771 388.267 88.6267C388.292 89.7647 388.564 90.6774 389.077 91.3394C389.656 92.0678 390.569 92.5727 391.869 92.883C392.912 93.1318 394.215 93.2527 395.853 93.2527C397.059 93.2527 398.269 93.1906 399.439 93.1305L399.531 93.1258C400.189 93.0929 400.824 93.0596 401.417 93.0266L402.806 92.9602C404.481 92.8983 406.379 92.8281 408.232 92.8281Z" fill="#000200"/>
</g>
<g filter="url(#filter16_b_18_509)">
<path d="M524.648 341.472L491.665 340.811C490.937 340.778 490.375 340.149 490.408 339.421C490.441 338.693 491.004 338.098 491.798 338.164L523.358 338.76L521.34 207.226L411.21 204.215C410.515 204.182 409.953 203.653 409.92 202.958L407.075 153.302C407.042 152.574 407.604 151.946 408.332 151.913C409.06 151.879 409.688 152.442 409.721 153.17L412.5 201.602L522.663 204.612C523.358 204.645 523.953 205.208 523.953 205.902L526.004 340.116C526.004 340.48 525.872 340.844 525.607 341.075C525.376 341.34 525.045 341.472 524.714 341.472C524.681 341.472 524.681 341.472 524.648 341.472Z" fill="#000200"/>
</g>
<g filter="url(#filter17_b_18_509)">
<path d="M465.498 364.927C465.333 365.159 465.233 365.457 465.233 365.787L469.435 441.413C469.468 442.108 470.063 442.67 470.758 442.67C470.791 442.67 470.791 442.67 470.824 442.67C471.552 442.637 472.114 442.008 472.081 441.281L467.88 365.655C467.88 365.324 467.748 365.027 467.582 364.828C466.887 364.861 466.193 364.861 465.498 364.927Z" fill="#000200"/>
</g>
<g filter="url(#filter18_b_18_509)">
<path d="M489.78 224.362L459.046 189.825C458.55 189.262 458.616 188.435 459.146 187.972C459.675 187.476 460.535 187.542 460.998 188.071L491.731 222.609C492.228 223.171 492.162 223.999 491.632 224.462C491.401 224.693 491.103 224.792 490.772 224.792C490.408 224.792 490.044 224.627 489.78 224.362Z" fill="#F674B4"/>
</g>
<g filter="url(#filter19_b_18_509)">
<path d="M459.709 224.197C459.146 223.733 459.014 222.906 459.477 222.344L486.141 188.104C486.604 187.542 487.431 187.409 487.994 187.873C488.556 188.336 488.688 189.163 488.225 189.725L461.561 223.965C461.297 224.296 460.933 224.461 460.536 224.461C460.238 224.461 459.973 224.362 459.709 224.197Z" fill="#F674B4"/>
</g>
<g filter="url(#filter20_b_18_509)">
<path d="M512.374 553.661C511.067 553.661 509.848 553.169 508.942 552.275C508.04 551.387 507.544 550.199 507.544 548.93C507.544 548.07 507.755 547.247 508.172 546.482C508.243 546.341 508.33 546.217 508.421 546.086C508.459 546.033 508.498 545.977 508.536 545.92C508.553 545.903 508.603 545.844 508.652 545.787C508.701 545.73 508.751 545.671 508.768 545.655C509.181 545.192 509.696 544.831 510.298 544.58C510.904 544.327 511.569 544.199 512.275 544.199C513.539 544.199 514.727 544.691 515.62 545.585C516.513 546.478 517.005 547.666 517.005 548.93C517.005 549.905 516.741 550.828 516.24 551.597C515.739 552.369 515.019 552.956 514.16 553.297C513.625 553.505 513.041 553.624 512.374 553.661ZM512.275 546.846C511.596 546.846 511.073 547.057 510.72 547.474C510.66 547.549 510.621 547.603 510.589 547.647C510.55 547.701 510.525 547.736 510.488 547.772C510.294 548.096 510.191 548.497 510.191 548.93C510.191 549.49 510.406 550.014 510.798 550.406C511.19 550.798 511.715 551.014 512.275 551.014C512.667 551.014 512.959 550.924 513.135 550.849C513.892 550.552 514.326 549.853 514.326 548.93C514.326 548.384 514.111 547.864 513.722 547.466C513.331 547.066 512.817 546.846 512.275 546.846Z" fill="#000200"/>
</g>
<g filter="url(#filter21_b_18_509)">
<path d="M524.812 553.661C523.505 553.661 522.286 553.169 521.38 552.276C520.479 551.387 519.982 550.199 519.982 548.93C519.982 548.061 520.206 547.191 520.611 546.482C520.681 546.341 520.768 546.218 520.86 546.086C520.897 546.033 520.936 545.978 520.975 545.92C520.991 545.903 521.033 545.853 521.074 545.804C521.115 545.755 521.157 545.705 521.173 545.688C521.586 545.226 522.101 544.864 522.703 544.613C523.309 544.36 523.974 544.232 524.68 544.232C525.944 544.232 527.132 544.724 528.026 545.618C528.919 546.511 529.411 547.699 529.411 548.963C529.411 549.938 529.146 550.861 528.646 551.63C528.144 552.402 527.425 552.99 526.566 553.33C526.044 553.514 525.454 553.625 524.812 553.661ZM524.713 546.846C524.034 546.846 523.511 547.057 523.158 547.474L522.927 547.772C522.732 548.097 522.629 548.497 522.629 548.93C522.629 549.49 522.845 550.014 523.237 550.406C523.629 550.798 524.153 551.014 524.713 551.014C525.105 551.014 525.397 550.924 525.573 550.849C526.33 550.553 526.764 549.853 526.764 548.93C526.78 548.395 526.575 547.88 526.187 547.48C525.795 547.077 525.258 546.846 524.713 546.846Z" fill="#000200"/>
</g>
<g filter="url(#filter22_b_18_509)">
<path d="M557.067 566.761H428.477C428.118 566.761 427.75 566.596 427.518 566.331C427.217 566.03 427.154 565.625 427.154 565.338L434.168 442.439C434.201 441.746 434.794 441.182 435.491 441.182H552.899C553.62 441.182 554.189 441.736 554.222 442.472L558.391 565.371C558.391 565.727 558.265 566.059 558.027 566.331C557.814 566.604 557.464 566.761 557.067 566.761ZM436.814 443.861L429.9 564.114H555.744L551.675 443.861H436.814Z" fill="#000200"/>
</g>
<g filter="url(#filter23_b_18_509)">
<path d="M443.993 455.804C443.695 455.804 443.298 455.936 443.034 456.201C442.769 456.465 442.637 456.796 442.637 457.127V512.837C442.637 513.201 442.769 513.532 443.034 513.763C443.265 513.995 443.629 514.16 443.96 514.16L514.888 513.433C515.616 513.433 516.211 512.837 516.211 512.109V457.855C516.211 457.127 515.649 456.531 514.921 456.531L443.993 455.804Z" fill="#000200"/>
</g>
<g filter="url(#filter24_b_18_509)">
<path d="M538.574 565.438V442.538C538.574 441.81 539.17 441.215 539.897 441.215C540.625 441.215 541.221 441.81 541.221 442.538V565.438C541.221 566.166 540.625 566.761 539.897 566.761C539.17 566.761 538.574 566.166 538.574 565.438Z" fill="#000200"/>
</g>
<g filter="url(#filter25_b_18_509)">
<path d="M430.297 534.936C429.569 534.936 428.974 534.34 428.974 533.612C428.974 532.885 429.569 532.289 430.297 532.289H556.009C556.736 532.289 557.332 532.885 557.332 533.612C557.332 534.373 556.736 534.936 556.009 534.936H430.297Z" fill="#000200"/>
</g>
<g filter="url(#filter26_b_18_509)">
<path d="M474.263 542.247H443.96C443.232 542.247 442.637 542.843 442.637 543.57V551.378C442.637 552.105 443.232 552.701 443.96 552.701H470.591C471.087 552.701 471.583 552.403 471.782 551.94L475.454 544.133C475.686 543.736 475.653 543.24 475.388 542.876C475.156 542.479 474.726 542.247 474.263 542.247Z" fill="#000200"/>
</g>
<g filter="url(#filter27_b_18_509)">
<path d="M213.445 295.191C213.776 324.369 221.98 339.487 298.863 339.487C357.418 339.487 359.502 323.972 357.253 285.134C355.698 258.337 350.338 246.626 295.753 247.123C230.284 247.751 213.048 259.462 213.445 295.191Z" fill="#FFCF58"/>
</g>
<g filter="url(#filter28_b_18_509)">
<path d="M237.528 314.841L236.436 293.702C235.841 282.421 239.315 273.423 246.758 266.906C254.499 260.124 266.343 256.253 282.023 255.459C299.689 254.566 311.83 258.767 318.149 268.063C318.48 268.56 318.744 269.122 318.91 269.784C319.009 270.115 318.943 270.478 318.744 270.776C318.546 271.074 318.248 271.306 317.917 271.372C313.054 272.496 306.703 272.728 301.608 272.927C299.193 273.026 297.109 273.092 295.653 273.224C290.956 273.721 286.192 273.853 281.593 273.952C277.127 274.051 272.496 274.184 267.997 274.647C261.81 275.308 257.543 277.326 254.929 280.8C249.835 287.582 251.952 299.359 253.838 309.714C254.069 310.938 254.268 312.129 254.466 313.32C254.599 314.047 254.102 314.709 253.374 314.841C252.647 314.974 251.985 314.478 251.853 313.75C251.654 312.559 251.423 311.368 251.224 310.144C249.272 299.227 247.023 286.887 252.812 279.179C255.889 275.077 260.752 272.728 267.732 272C272.33 271.504 276.995 271.405 281.527 271.272C286.059 271.173 290.757 271.041 295.356 270.545C296.877 270.379 299.028 270.313 301.476 270.214C305.876 270.048 311.268 269.883 315.635 269.089C309.779 260.918 298.498 257.213 282.123 258.073C267.07 258.834 255.756 262.473 248.478 268.857C241.697 274.812 238.521 283.116 239.05 293.537L240.142 314.676C240.175 315.404 239.612 316.032 238.885 316.065C238.885 316.099 238.885 316.099 238.851 316.099C238.157 316.099 237.561 315.536 237.528 314.841Z" fill="#000200"/>
</g>
<g filter="url(#filter29_b_18_509)">
<path d="M233.162 327.941C232.699 326.883 232.434 325.725 232.368 324.534C232.236 321.987 233.162 319.539 235.014 317.587C238.389 314.047 244.476 312.228 253.176 312.228C253.904 312.228 254.5 312.823 254.5 313.551C254.5 314.279 253.904 314.874 253.176 314.874C243.285 314.874 238.885 317.322 236.933 319.406C235.213 321.226 234.948 323.112 235.014 324.402C235.048 325.295 235.246 326.122 235.61 326.916C235.908 327.578 235.577 328.372 234.915 328.669C234.75 328.702 234.551 328.735 234.386 328.735C233.89 328.735 233.393 328.438 233.162 327.941Z" fill="#000200"/>
</g>
<g filter="url(#filter30_b_18_509)">
<path d="M299.293 324.501C299.293 323.773 299.889 323.178 300.616 323.178C303.098 323.178 305.116 322.516 306.075 321.391C306.604 320.763 306.77 320.002 306.637 319.076C306.307 316.992 301.642 315.834 299.459 315.569C298.797 315.503 298.268 314.94 298.268 314.246V302.138C298.268 301.41 298.863 300.814 299.591 300.814C300.319 300.814 300.914 301.41 300.914 302.138V313.121C303.362 313.551 308.622 314.907 309.251 318.646C309.549 320.366 309.152 321.888 308.093 323.112C306.604 324.865 303.958 325.824 300.616 325.824C299.889 325.824 299.293 325.229 299.293 324.501Z" fill="#000200"/>
</g>
<g filter="url(#filter31_b_18_509)">
<path d="M311.699 309.449C311.335 312.823 316.595 313.386 316.959 310.011L317.223 307.398C317.587 304.023 312.327 303.461 311.963 306.835L311.699 309.449Z" fill="#000200"/>
</g>
<g filter="url(#filter32_b_18_509)">
<path d="M276.069 310.309C275.705 313.684 280.965 314.246 281.329 310.872L281.594 308.258C281.957 304.884 276.697 304.321 276.333 307.696L276.069 310.309Z" fill="#000200"/>
</g>
<g filter="url(#filter33_b_18_509)">
<path d="M275.771 296.679C274.15 297.175 275.242 299.59 276.863 299.094C278.716 298.532 280.635 298.267 282.553 298.068C284.274 297.87 283.843 295.289 282.123 295.455C279.973 295.686 277.856 296.05 275.771 296.679Z" fill="#000200"/>
</g>
<g filter="url(#filter34_b_18_509)">
<path d="M316.164 293.934C314.841 292.908 312.955 294.794 314.312 295.82C315.801 296.944 317.455 297.738 319.009 298.731C320.465 299.69 321.755 297.374 320.333 296.448C318.976 295.555 317.455 294.926 316.164 293.934Z" fill="#000200"/>
</g>
<g filter="url(#filter35_b_18_509)">
<path d="M323.509 333.632C323.443 323.41 322.55 311.137 321.557 296.911C321.293 293.074 320.995 289.071 320.73 284.969C319.44 265.616 306.836 256.816 282.19 258.106C265.351 258.966 253.243 263.366 246.196 271.207C241.036 276.93 238.654 284.473 239.15 293.57C239.183 294.298 238.621 294.926 237.893 294.96C237.099 294.993 236.537 294.43 236.503 293.702C235.974 283.844 238.588 275.673 244.245 269.42C251.787 261.05 264.524 256.353 282.09 255.46C308.126 254.136 322.02 263.962 323.41 284.77C323.674 288.906 323.972 292.875 324.237 296.713C325.262 310.971 326.123 323.278 326.222 333.599C326.156 334.36 325.56 334.956 324.832 334.956C324.105 334.956 323.509 334.36 323.509 333.632Z" fill="#000200"/>
</g>
<g filter="url(#filter36_b_18_509)">
<path d="M373.132 396.753C368.831 390.897 368.93 388.482 369.625 369.592C370.088 356.922 370.816 337.8 370.816 305.446C370.816 270.842 365.258 249.273 353.316 237.562C340.579 225.057 321.987 224.428 295.124 224.958C246.593 225.719 218.01 228.497 205.968 241.102C196.143 251.423 196.176 268.427 197.168 297.573C198.062 325.196 195.316 345.178 188.766 358.642C188.435 359.304 187.674 359.568 187.012 359.238C186.351 358.907 186.086 358.113 186.417 357.484C192.669 344.582 195.415 324.468 194.555 297.639C193.563 267.766 193.529 250.332 204.116 239.216C216.852 225.851 244.74 223.006 295.124 222.245C318.579 221.815 340.711 221.385 355.201 235.61C367.673 247.85 373.496 270.015 373.496 305.38C373.496 337.767 372.801 356.955 372.305 369.625C371.61 388.581 371.643 390.136 375.282 395.132C375.712 395.727 375.58 396.554 374.984 396.984C374.753 397.216 374.488 397.282 374.19 397.282C373.793 397.282 373.396 397.083 373.132 396.753Z" fill="#000200"/>
</g>
<g filter="url(#filter37_b_18_509)">
<path d="M332.673 275.639C331.416 276.764 333.268 278.65 334.558 277.525C337.205 275.143 339.818 272.794 342.465 270.412C343.722 269.254 341.836 267.369 340.579 268.526L332.673 275.639Z" fill="white"/>
</g>
<g filter="url(#filter38_b_18_509)">
<path d="M240.572 492.095C240.572 492.062 240.605 492.029 240.605 491.996C240.638 491.929 240.638 491.863 240.671 491.83C240.671 491.797 240.671 491.764 240.705 491.731C240.705 491.698 240.705 491.698 240.705 491.665C241.73 482.104 242.061 472.973 241.763 464.306C241.73 463.777 241.73 463.28 241.697 462.751C241.664 462.321 241.664 461.891 241.631 461.461C240.142 431.456 231.276 406.975 219.267 388.35C210.699 375.084 200.543 364.828 190.321 357.749C188.964 356.789 187.211 356.492 185.226 356.889C182.745 357.385 179.966 358.94 177.22 361.388C174.441 363.836 171.662 367.111 169.115 371.048C164.054 378.888 159.687 385.67 162.433 392.452C162.466 392.518 162.499 392.617 162.565 392.683C162.565 392.683 162.565 392.683 162.565 392.716C162.796 393.047 163.16 393.279 163.557 393.279C163.657 393.279 163.723 393.279 163.822 393.246C163.921 393.246 164.054 393.213 164.153 393.18C164.186 393.18 164.219 393.147 164.252 393.113C164.285 393.113 164.285 393.08 164.318 393.08C164.351 393.047 164.384 393.047 164.417 393.014C164.484 392.981 164.517 392.915 164.583 392.882C164.682 392.816 164.748 392.716 164.814 392.617C165.542 391.327 166.27 390.103 167.031 388.945C170.637 383.387 173.879 378.954 176.095 376.043C177.749 375.745 179.701 376.341 181.951 377.863C196.474 387.589 216.753 430 221.12 470.095L221.352 472.279C221.352 472.411 221.385 472.51 221.451 472.643L221.583 472.94C221.749 473.304 221.881 473.668 222.013 473.933C222.212 474.429 222.443 474.892 222.675 475.355C223.27 476.579 223.998 477.803 224.924 479.127C225.156 479.457 225.388 479.788 225.652 480.218C226.612 481.542 227.538 482.7 228.53 483.791C228.96 484.287 229.424 484.817 229.92 485.313C230.416 485.809 230.879 486.272 231.375 486.769C232.401 487.761 233.493 488.754 234.816 489.812L236.305 490.97C236.966 491.466 237.694 492.029 238.488 492.558C238.554 492.624 238.72 492.69 238.786 492.756C238.819 492.756 238.852 492.79 238.885 492.79C238.918 492.79 238.951 492.823 239.017 492.823C239.083 492.823 239.117 492.856 239.183 492.856C239.216 492.856 239.216 492.856 239.249 492.856C239.282 492.856 239.315 492.856 239.348 492.856H239.381C239.447 492.856 239.547 492.856 239.613 492.823C239.646 492.823 239.646 492.823 239.679 492.823C239.745 492.823 239.778 492.79 239.844 492.79C239.877 492.79 239.877 492.79 239.911 492.756C239.944 492.723 240.01 492.723 240.043 492.69C240.076 492.69 240.076 492.657 240.109 492.657C240.175 492.624 240.208 492.591 240.241 492.558C240.274 492.525 240.274 492.525 240.308 492.492C240.341 492.459 240.374 492.426 240.407 492.393C240.44 492.359 240.44 492.326 240.473 492.293C240.473 492.26 240.506 492.227 240.539 492.194C240.572 492.161 240.572 492.128 240.572 492.095Z" fill="#000200"/>
</g>
<g filter="url(#filter39_b_18_509)">
<path d="M178.974 534.936L147.049 533.348C135.14 532.752 125.612 522.96 125.315 511.051L121.808 363.174C121.543 351.628 129.946 341.671 141.359 340.017L194.191 332.309C194.919 332.209 195.581 332.706 195.68 333.433C195.779 334.161 195.283 334.823 194.555 334.922L141.723 342.63C131.633 344.119 124.19 352.919 124.454 363.108L127.961 510.984C128.226 521.504 136.662 530.172 147.182 530.701L179.106 532.289C179.834 532.322 180.396 532.951 180.363 533.679C180.33 534.406 179.734 534.936 179.04 534.936C179.007 534.936 179.007 534.936 178.974 534.936Z" fill="#000200"/>
</g>
<g filter="url(#filter40_b_18_509)">
<path d="M140.201 417.098V341.373C140.201 340.645 140.797 340.05 141.524 340.05C142.252 340.05 142.848 340.645 142.848 341.373V417.098C142.848 417.826 142.252 418.421 141.524 418.421C140.797 418.421 140.201 417.826 140.201 417.098Z" fill="#000200"/>
</g>
<g filter="url(#filter41_b_18_509)">
<path d="M370.75 358.245C370.287 358.444 369.989 358.907 369.989 359.403C369.956 359.999 369.493 374.025 369.989 382.13C370.518 390.368 372.867 396.223 372.966 396.455C373.165 396.951 373.661 397.282 374.19 397.282C374.223 397.282 374.223 397.282 374.256 397.282C374.819 397.249 375.282 396.885 375.447 396.356L381.501 377.565C381.667 377.201 385.074 368.567 372.139 358.411C371.742 358.113 371.213 358.047 370.75 358.245Z" fill="#000200"/>
</g>
<g filter="url(#filter42_b_18_509)">
<path d="M287.218 576.156C282.018 576.156 276.787 575.911 271.67 575.428C250.513 573.442 231.68 568.733 215.695 561.434C215.309 561.224 214.866 560.793 214.802 560.409L214.792 560.352C214.728 559.972 214.648 559.5 214.901 559.185C227.097 545.104 242.793 537.35 259.099 537.35C262.105 537.35 265.143 537.617 268.13 538.145C285.564 541.254 298.268 552.703 306.968 573.145C307.129 573.533 307.104 573.966 306.902 574.303C306.709 574.656 306.348 574.898 305.909 574.965C302.896 575.36 299.797 575.661 296.7 575.858C293.601 576.056 290.411 576.156 287.218 576.156ZM259.057 540.03C255.36 540.03 251.638 540.457 247.994 541.301C244.367 542.141 240.772 543.403 237.307 545.053C233.834 546.707 230.447 548.771 227.243 551.189C224.006 553.631 220.911 556.466 218.044 559.615C233.509 566.456 251.63 570.897 271.901 572.815C277.081 573.294 282.244 573.537 287.248 573.537C292.9 573.537 298.466 573.227 303.792 572.616C302.763 570.311 301.663 568.101 300.522 566.048C299.38 563.993 298.165 562.036 296.91 560.233C295.653 558.427 294.32 556.722 292.947 555.164C291.574 553.606 290.121 552.149 288.628 550.836C287.136 549.522 285.56 548.313 283.944 547.241C282.33 546.17 280.629 545.205 278.889 544.373C277.151 543.542 275.322 542.819 273.454 542.225C271.59 541.632 269.631 541.15 267.633 540.791C264.802 540.286 261.917 540.03 259.059 540.03H259.057Z" fill="#000200"/>
</g>
<g filter="url(#filter43_b_18_509)">
<path d="M271.67 575.428C250.531 573.444 231.707 568.746 215.695 561.435L215.894 560.078L215.331 561.269C185.624 547.64 164.683 524.416 154.824 494.179C142.22 455.572 149.994 413.79 162.532 391.327C163.293 389.971 164.054 388.714 164.815 387.49C168.619 381.601 172.027 377.003 174.243 374.058C174.673 373.463 175.501 373.364 176.096 373.794C176.691 374.224 176.791 375.051 176.361 375.646C174.144 378.557 170.803 383.123 167.032 388.912C166.271 390.07 165.543 391.294 164.815 392.584C152.542 414.584 144.933 455.473 157.305 493.319C166.932 522.828 187.377 545.489 216.423 558.821L216.224 560.178L216.787 558.987C232.534 566.165 251.093 570.797 271.935 572.749C283.646 573.84 294.96 573.708 305.579 572.319C308.722 571.922 312.03 571.359 315.702 570.598C422.755 547.904 433.507 396.223 433.606 394.668C433.639 394.404 433.706 394.139 433.871 393.941L440.785 384.975C441.215 384.38 442.042 384.281 442.638 384.744C443.2 385.174 443.332 386.034 442.869 386.596L436.22 395.231C435.525 404.097 422.491 550.65 316.264 573.179C312.526 573.94 309.152 574.535 305.91 574.932C299.856 575.759 293.636 576.156 287.218 576.156C282.124 576.156 276.93 575.925 271.67 575.428Z" fill="#000200"/>
</g>
<g filter="url(#filter44_b_18_509)">
<path d="M395.562 366.813C394.933 366.416 394.768 365.589 395.165 364.994C399.763 357.881 423.218 322.517 433.275 325.692C435.161 326.288 436.385 327.38 436.815 328.868C438.039 332.97 433.176 338.958 428.048 345.31C425.303 348.684 422.722 351.86 421.399 354.408C421.068 355.036 420.241 355.301 419.613 354.97C418.951 354.639 418.719 353.812 419.05 353.184C420.506 350.405 423.185 347.13 425.997 343.656C430.066 338.628 435.128 332.408 434.301 329.662C434.235 329.431 434.003 328.736 432.481 328.24C426.163 326.288 407.604 350.603 397.415 366.449C397.15 366.78 396.72 367.012 396.29 367.012C396.058 367.012 395.793 366.946 395.562 366.813Z" fill="#000200"/>
</g>
<g filter="url(#filter45_b_18_509)">
<path d="M408.365 367.045C407.769 366.615 407.637 365.788 408.067 365.192C413.625 357.517 417.958 352.059 423.252 351.629C426.692 351.364 430.166 353.183 434.533 357.517C435.062 358.046 435.062 358.874 434.533 359.403C434.003 359.932 433.176 359.932 432.647 359.403C428.942 355.698 426.03 354.077 423.45 354.275C419.646 354.573 416.007 358.708 410.217 366.747C409.92 367.111 409.523 367.309 409.126 367.309C408.861 367.309 408.596 367.243 408.365 367.045Z" fill="#000200"/>
</g>
<g filter="url(#filter46_b_18_509)">
<path d="M419.084 371.709C418.984 371.345 419.051 370.949 419.282 370.618C424.807 363.009 429.207 357.153 434.368 357.55C438.073 357.848 441.48 361.421 445.185 368.765C445.45 369.327 445.351 370.022 444.855 370.419C444.16 370.948 443.2 370.717 442.837 369.989C439.661 363.604 436.816 360.395 434.169 360.197C430.563 359.899 426.296 365.457 421.433 372.173C421.234 372.437 420.936 372.636 420.639 372.702C420.275 372.768 419.878 372.702 419.58 372.47C419.315 372.272 419.15 372.007 419.084 371.709Z" fill="#000200"/>
</g>
<g filter="url(#filter47_b_18_509)">
<path d="M435.194 400.458C434.532 400.193 434.201 399.399 434.466 398.737C434.731 398.076 435.525 397.745 436.186 398.009C438.27 398.87 440.123 398.539 441.843 397.05C445.78 393.676 448.063 384.479 446.574 378.16C445.218 372.371 443.597 370.915 442.505 370.684C439.131 370.022 432.646 378.921 429.57 383.222C429.14 383.817 428.313 383.95 427.717 383.52C427.122 383.089 426.989 382.262 427.419 381.667C434.102 372.437 438.767 367.243 443.034 368.07C445.813 368.633 447.765 371.61 449.154 377.532C450.709 384.115 448.79 394.569 443.597 399.035C441.976 400.424 440.222 401.119 438.37 401.119C437.344 401.119 436.252 400.888 435.194 400.458Z" fill="#000200"/>
</g>
<g filter="url(#filter48_b_18_509)">
<path d="M391.493 370.254C390.997 369.724 390.997 368.897 391.526 368.368L395.364 364.729C395.893 364.233 396.72 364.266 397.249 364.762C397.746 365.291 397.746 366.119 397.216 366.648L393.379 370.287C393.081 370.518 392.783 370.651 392.453 370.651C392.089 370.651 391.758 370.518 391.493 370.254Z" fill="#000200"/>
</g>
<g filter="url(#filter49_b_18_509)">
<path d="M238.621 492.624C238.588 492.591 238.555 492.591 238.555 492.558C238.522 492.525 238.489 492.525 238.456 492.491C237.728 491.995 237 491.433 236.339 490.937L234.85 489.779C233.527 488.687 232.435 487.695 231.41 486.735C230.913 486.272 230.417 485.776 229.954 485.28C229.458 484.783 228.995 484.254 228.564 483.758C227.572 482.666 226.646 481.508 225.686 480.185C225.422 479.755 225.19 479.424 224.959 479.093C224.065 477.737 223.338 476.513 222.709 475.322C222.477 474.859 222.246 474.396 222.047 473.932C221.882 473.635 221.75 473.271 221.584 472.907L221.452 472.609C221.419 472.51 221.386 472.378 221.353 472.245L221.121 470.062C216.754 429.967 196.475 387.555 181.952 377.829C179.504 376.208 177.42 375.613 175.699 376.109C175.005 376.308 174.277 375.911 174.078 375.216C173.88 374.521 174.277 373.793 174.972 373.595C177.486 372.867 180.331 373.562 183.441 375.646C198.427 385.703 219.335 429.007 223.768 469.797L224.032 471.948C224.165 472.245 224.264 472.543 224.429 472.841C224.628 473.304 224.826 473.734 225.058 474.131C225.62 475.256 226.315 476.414 227.142 477.638C227.374 477.969 227.638 478.332 227.87 478.729C228.73 479.92 229.623 481.012 230.549 482.005C230.979 482.468 231.41 482.964 231.84 483.427C232.303 483.89 232.766 484.353 233.262 484.816C234.222 485.776 235.313 486.702 236.537 487.728L237.993 488.886C238.621 489.382 239.316 489.878 240.011 490.374C240.11 490.44 240.209 490.507 240.276 490.573C255.659 501.225 281.43 509.033 307.862 499.042C327.777 491.499 354.309 470.922 367.774 415.609C375.879 382.262 382.66 361.818 395.364 349.28C399.962 344.714 404.991 342.895 407.538 344.88C408.365 345.541 410.052 347.526 407.472 351.992C407.108 352.621 406.281 352.819 405.652 352.455C405.024 352.091 404.792 351.264 405.189 350.636C406.347 348.618 406.413 347.328 405.95 346.964C405.09 346.302 401.583 346.865 397.25 351.165C385.009 363.306 378.36 383.387 370.354 416.271C356.625 472.708 329.299 493.782 308.821 501.556C299.889 504.864 291.056 506.287 282.62 506.287C265.087 506.287 249.373 500.133 238.621 492.624Z" fill="#000200"/>
</g>
<g filter="url(#filter50_b_18_509)">
<path d="M370.055 412.598C369.89 412.433 369.691 412.334 369.526 412.268C369.228 413.062 368.931 413.889 368.633 414.683C368.633 414.716 368.633 414.782 368.633 414.815C385.141 430.099 408.53 435.756 430.198 429.669C431.786 429.239 431.092 426.691 429.471 427.154C408.497 433.043 385.902 427.518 370.055 412.598Z" fill="#000200"/>
</g>
</g>
<defs>
<filter id="filter0_d_18_509" x="-1.32328" y="0" width="704.647" height="664.287" filterUnits="userSpaceOnUse" color-interpolation-filters="sRGB">
<feFlood flood-opacity="0" result="BackgroundImageFix"/>
<feColorMatrix in="SourceAlpha" type="matrix" values="0 0 0 0 0 0 0 0 0 0 0 0 0 0 0 0 0 0 127 0" result="hardAlpha"/>
<feOffset dy="1.32328"/>
<feGaussianBlur stdDeviation="0.66164"/>
<feComposite in2="hardAlpha" operator="out"/>
<feColorMatrix type="matrix" values="0 0 0 0 0 0 0 0 0 0 0 0 0 0 0 0 0 0 0.25 0"/>
<feBlend mode="normal" in2="BackgroundImageFix" result="effect1_dropShadow_18_509"/>
<feBlend mode="normal" in="SourceGraphic" in2="effect1_dropShadow_18_509" result="shape"/>
</filter>
<filter id="filter1_b_18_509" x="351.794" y="71.6557" width="88.9572" height="88.9904" filterUnits="userSpaceOnUse" color-interpolation-filters="sRGB">
<feFlood flood-opacity="0" result="BackgroundImageFix"/>
<feGaussianBlur in="BackgroundImageFix" stdDeviation="1.6541"/>
<feComposite in2="SourceAlpha" operator="in" result="effect1_backgroundBlur_18_509"/>
<feBlend mode="normal" in="SourceGraphic" in2="effect1_backgroundBlur_18_509" result="shape"/>
</filter>
<filter id="filter2_b_18_509" x="249.704" y="417.164" width="37.6144" height="16.8723" filterUnits="userSpaceOnUse" color-interpolation-filters="sRGB">
<feFlood flood-opacity="0" result="BackgroundImageFix"/>
<feGaussianBlur in="BackgroundImageFix" stdDeviation="1.6541"/>
<feComposite in2="SourceAlpha" operator="in" result="effect1_backgroundBlur_18_509"/>
<feBlend mode="normal" in="SourceGraphic" in2="effect1_backgroundBlur_18_509" result="shape"/>
</filter>
<filter id="filter3_b_18_509" x="387.345" y="261.493" width="24.1086" height="16.5822" filterUnits="userSpaceOnUse" color-interpolation-filters="sRGB">
<feFlood flood-opacity="0" result="BackgroundImageFix"/>
<feGaussianBlur in="BackgroundImageFix" stdDeviation="1.6541"/>
<feComposite in2="SourceAlpha" operator="in" result="effect1_backgroundBlur_18_509"/>
<feBlend mode="normal" in="SourceGraphic" in2="effect1_backgroundBlur_18_509" result="shape"/>
</filter>
<filter id="filter4_b_18_509" x="386.766" y="289.986" width="22.0246" height="10.8059" filterUnits="userSpaceOnUse" color-interpolation-filters="sRGB">
<feFlood flood-opacity="0" result="BackgroundImageFix"/>
<feGaussianBlur in="BackgroundImageFix" stdDeviation="1.6541"/>
<feComposite in2="SourceAlpha" operator="in" result="effect1_backgroundBlur_18_509"/>
<feBlend mode="normal" in="SourceGraphic" in2="effect1_backgroundBlur_18_509" result="shape"/>
</filter>
<filter id="filter5_b_18_509" x="159.621" y="289.996" width="18.9894" height="17.8644" filterUnits="userSpaceOnUse" color-interpolation-filters="sRGB">
<feFlood flood-opacity="0" result="BackgroundImageFix"/>
<feGaussianBlur in="BackgroundImageFix" stdDeviation="1.6541"/>
<feComposite in2="SourceAlpha" operator="in" result="effect1_backgroundBlur_18_509"/>
<feBlend mode="normal" in="SourceGraphic" in2="effect1_backgroundBlur_18_509" result="shape"/>
</filter>
<filter id="filter6_b_18_509" x="141.932" y="272.737" width="12.3205" height="16.8029" filterUnits="userSpaceOnUse" color-interpolation-filters="sRGB">
<feFlood flood-opacity="0" result="BackgroundImageFix"/>
<feGaussianBlur in="BackgroundImageFix" stdDeviation="1.6541"/>
<feComposite in2="SourceAlpha" operator="in" result="effect1_backgroundBlur_18_509"/>
<feBlend mode="normal" in="SourceGraphic" in2="effect1_backgroundBlur_18_509" result="shape"/>
</filter>
<filter id="filter7_b_18_509" x="405.818" y="282.421" width="79.2648" height="95.8059" filterUnits="userSpaceOnUse" color-interpolation-filters="sRGB">
<feFlood flood-opacity="0" result="BackgroundImageFix"/>
<feGaussianBlur in="BackgroundImageFix" stdDeviation="1.6541"/>
<feComposite in2="SourceAlpha" operator="in" result="effect1_backgroundBlur_18_509"/>
<feBlend mode="normal" in="SourceGraphic" in2="effect1_backgroundBlur_18_509" result="shape"/>
</filter>
<filter id="filter8_b_18_509" x="423.515" y="290.82" width="41.1223" height="66.7961" filterUnits="userSpaceOnUse" color-interpolation-filters="sRGB">
<feFlood flood-opacity="0" result="BackgroundImageFix"/>
<feGaussianBlur in="BackgroundImageFix" stdDeviation="1.6541"/>
<feComposite in2="SourceAlpha" operator="in" result="effect1_backgroundBlur_18_509"/>
<feBlend mode="normal" in="SourceGraphic" in2="effect1_backgroundBlur_18_509" result="shape"/>
</filter>
<filter id="filter9_b_18_509" x="444.456" y="293.006" width="22.926" height="63.2531" filterUnits="userSpaceOnUse" color-interpolation-filters="sRGB">
<feFlood flood-opacity="0" result="BackgroundImageFix"/>
<feGaussianBlur in="BackgroundImageFix" stdDeviation="1.6541"/>
<feComposite in2="SourceAlpha" operator="in" result="effect1_backgroundBlur_18_509"/>
<feBlend mode="normal" in="SourceGraphic" in2="effect1_backgroundBlur_18_509" result="shape"/>
</filter>
<filter id="filter10_b_18_509" x="443.141" y="291.651" width="25.5646" height="65.8996" filterUnits="userSpaceOnUse" color-interpolation-filters="sRGB">
<feFlood flood-opacity="0" result="BackgroundImageFix"/>
<feGaussianBlur in="BackgroundImageFix" stdDeviation="1.6541"/>
<feComposite in2="SourceAlpha" operator="in" result="effect1_backgroundBlur_18_509"/>
<feBlend mode="normal" in="SourceGraphic" in2="effect1_backgroundBlur_18_509" result="shape"/>
</filter>
<filter id="filter11_b_18_509" x="413.127" y="272.028" width="81.9445" height="98.5891" filterUnits="userSpaceOnUse" color-interpolation-filters="sRGB">
<feFlood flood-opacity="0" result="BackgroundImageFix"/>
<feGaussianBlur in="BackgroundImageFix" stdDeviation="1.6541"/>
<feComposite in2="SourceAlpha" operator="in" result="effect1_backgroundBlur_18_509"/>
<feBlend mode="normal" in="SourceGraphic" in2="effect1_backgroundBlur_18_509" result="shape"/>
</filter>
<filter id="filter12_b_18_509" x="413.127" y="272.028" width="81.9445" height="98.5891" filterUnits="userSpaceOnUse" color-interpolation-filters="sRGB">
<feFlood flood-opacity="0" result="BackgroundImageFix"/>
<feGaussianBlur in="BackgroundImageFix" stdDeviation="1.6541"/>
<feComposite in2="SourceAlpha" operator="in" result="effect1_backgroundBlur_18_509"/>
<feBlend mode="normal" in="SourceGraphic" in2="effect1_backgroundBlur_18_509" result="shape"/>
</filter>
<filter id="filter13_b_18_509" x="361.686" y="66.2631" width="91.6369" height="91.6369" filterUnits="userSpaceOnUse" color-interpolation-filters="sRGB">
<feFlood flood-opacity="0" result="BackgroundImageFix"/>
<feGaussianBlur in="BackgroundImageFix" stdDeviation="1.6541"/>
<feComposite in2="SourceAlpha" operator="in" result="effect1_backgroundBlur_18_509"/>
<feBlend mode="normal" in="SourceGraphic" in2="effect1_backgroundBlur_18_509" result="shape"/>
</filter>
<filter id="filter14_b_18_509" x="361.719" y="83.393" width="54.2209" height="65.6076" filterUnits="userSpaceOnUse" color-interpolation-filters="sRGB">
<feFlood flood-opacity="0" result="BackgroundImageFix"/>
<feGaussianBlur in="BackgroundImageFix" stdDeviation="1.6541"/>
<feComposite in2="SourceAlpha" operator="in" result="effect1_backgroundBlur_18_509"/>
<feBlend mode="normal" in="SourceGraphic" in2="effect1_backgroundBlur_18_509" result="shape"/>
</filter>
<filter id="filter15_b_18_509" x="382.233" y="66.2963" width="71.0568" height="65.1721" filterUnits="userSpaceOnUse" color-interpolation-filters="sRGB">
<feFlood flood-opacity="0" result="BackgroundImageFix"/>
<feGaussianBlur in="BackgroundImageFix" stdDeviation="1.6541"/>
<feComposite in2="SourceAlpha" operator="in" result="effect1_backgroundBlur_18_509"/>
<feBlend mode="normal" in="SourceGraphic" in2="effect1_backgroundBlur_18_509" result="shape"/>
</filter>
<filter id="filter16_b_18_509" x="403.765" y="148.603" width="125.548" height="196.178" filterUnits="userSpaceOnUse" color-interpolation-filters="sRGB">
<feFlood flood-opacity="0" result="BackgroundImageFix"/>
<feGaussianBlur in="BackgroundImageFix" stdDeviation="1.6541"/>
<feComposite in2="SourceAlpha" operator="in" result="effect1_backgroundBlur_18_509"/>
<feBlend mode="normal" in="SourceGraphic" in2="effect1_backgroundBlur_18_509" result="shape"/>
</filter>
<filter id="filter17_b_18_509" x="461.925" y="361.52" width="13.466" height="84.4582" filterUnits="userSpaceOnUse" color-interpolation-filters="sRGB">
<feFlood flood-opacity="0" result="BackgroundImageFix"/>
<feGaussianBlur in="BackgroundImageFix" stdDeviation="1.6541"/>
<feComposite in2="SourceAlpha" operator="in" result="effect1_backgroundBlur_18_509"/>
<feBlend mode="normal" in="SourceGraphic" in2="effect1_backgroundBlur_18_509" result="shape"/>
</filter>
<filter id="filter18_b_18_509" x="455.401" y="184.327" width="39.9768" height="43.7746" filterUnits="userSpaceOnUse" color-interpolation-filters="sRGB">
<feFlood flood-opacity="0" result="BackgroundImageFix"/>
<feGaussianBlur in="BackgroundImageFix" stdDeviation="1.6541"/>
<feComposite in2="SourceAlpha" operator="in" result="effect1_backgroundBlur_18_509"/>
<feBlend mode="normal" in="SourceGraphic" in2="effect1_backgroundBlur_18_509" result="shape"/>
</filter>
<filter id="filter19_b_18_509" x="455.888" y="184.284" width="35.926" height="43.4855" filterUnits="userSpaceOnUse" color-interpolation-filters="sRGB">
<feFlood flood-opacity="0" result="BackgroundImageFix"/>
<feGaussianBlur in="BackgroundImageFix" stdDeviation="1.6541"/>
<feComposite in2="SourceAlpha" operator="in" result="effect1_backgroundBlur_18_509"/>
<feBlend mode="normal" in="SourceGraphic" in2="effect1_backgroundBlur_18_509" result="shape"/>
</filter>
<filter id="filter20_b_18_509" x="504.236" y="540.891" width="16.0783" height="16.0783" filterUnits="userSpaceOnUse" color-interpolation-filters="sRGB">
<feFlood flood-opacity="0" result="BackgroundImageFix"/>
<feGaussianBlur in="BackgroundImageFix" stdDeviation="1.6541"/>
<feComposite in2="SourceAlpha" operator="in" result="effect1_backgroundBlur_18_509"/>
<feBlend mode="normal" in="SourceGraphic" in2="effect1_backgroundBlur_18_509" result="shape"/>
</filter>
<filter id="filter21_b_18_509" x="516.674" y="540.924" width="16.0451" height="16.0451" filterUnits="userSpaceOnUse" color-interpolation-filters="sRGB">
<feFlood flood-opacity="0" result="BackgroundImageFix"/>
<feGaussianBlur in="BackgroundImageFix" stdDeviation="1.6541"/>
<feComposite in2="SourceAlpha" operator="in" result="effect1_backgroundBlur_18_509"/>
<feBlend mode="normal" in="SourceGraphic" in2="effect1_backgroundBlur_18_509" result="shape"/>
</filter>
<filter id="filter22_b_18_509" x="423.846" y="437.873" width="137.853" height="132.196" filterUnits="userSpaceOnUse" color-interpolation-filters="sRGB">
<feFlood flood-opacity="0" result="BackgroundImageFix"/>
<feGaussianBlur in="BackgroundImageFix" stdDeviation="1.6541"/>
<feComposite in2="SourceAlpha" operator="in" result="effect1_backgroundBlur_18_509"/>
<feBlend mode="normal" in="SourceGraphic" in2="effect1_backgroundBlur_18_509" result="shape"/>
</filter>
<filter id="filter23_b_18_509" x="439.329" y="452.496" width="80.1906" height="64.9728" filterUnits="userSpaceOnUse" color-interpolation-filters="sRGB">
<feFlood flood-opacity="0" result="BackgroundImageFix"/>
<feGaussianBlur in="BackgroundImageFix" stdDeviation="1.6541"/>
<feComposite in2="SourceAlpha" operator="in" result="effect1_backgroundBlur_18_509"/>
<feBlend mode="normal" in="SourceGraphic" in2="effect1_backgroundBlur_18_509" result="shape"/>
</filter>
<filter id="filter24_b_18_509" x="535.266" y="437.907" width="9.26288" height="132.162" filterUnits="userSpaceOnUse" color-interpolation-filters="sRGB">
<feFlood flood-opacity="0" result="BackgroundImageFix"/>
<feGaussianBlur in="BackgroundImageFix" stdDeviation="1.6541"/>
<feComposite in2="SourceAlpha" operator="in" result="effect1_backgroundBlur_18_509"/>
<feBlend mode="normal" in="SourceGraphic" in2="effect1_backgroundBlur_18_509" result="shape"/>
</filter>
<filter id="filter25_b_18_509" x="425.665" y="528.981" width="134.975" height="9.26288" filterUnits="userSpaceOnUse" color-interpolation-filters="sRGB">
<feFlood flood-opacity="0" result="BackgroundImageFix"/>
<feGaussianBlur in="BackgroundImageFix" stdDeviation="1.6541"/>
<feComposite in2="SourceAlpha" operator="in" result="effect1_backgroundBlur_18_509"/>
<feBlend mode="normal" in="SourceGraphic" in2="effect1_backgroundBlur_18_509" result="shape"/>
</filter>
<filter id="filter26_b_18_509" x="439.329" y="538.939" width="39.5891" height="17.0705" filterUnits="userSpaceOnUse" color-interpolation-filters="sRGB">
<feFlood flood-opacity="0" result="BackgroundImageFix"/>
<feGaussianBlur in="BackgroundImageFix" stdDeviation="1.6541"/>
<feComposite in2="SourceAlpha" operator="in" result="effect1_backgroundBlur_18_509"/>
<feBlend mode="normal" in="SourceGraphic" in2="effect1_backgroundBlur_18_509" result="shape"/>
</filter>
<filter id="filter27_b_18_509" x="210.13" y="243.799" width="150.978" height="98.9963" filterUnits="userSpaceOnUse" color-interpolation-filters="sRGB">
<feFlood flood-opacity="0" result="BackgroundImageFix"/>
<feGaussianBlur in="BackgroundImageFix" stdDeviation="1.6541"/>
<feComposite in2="SourceAlpha" operator="in" result="effect1_backgroundBlur_18_509"/>
<feBlend mode="normal" in="SourceGraphic" in2="effect1_backgroundBlur_18_509" result="shape"/>
</filter>
<filter id="filter28_b_18_509" x="233.063" y="252.034" width="89.2004" height="67.3732" filterUnits="userSpaceOnUse" color-interpolation-filters="sRGB">
<feFlood flood-opacity="0" result="BackgroundImageFix"/>
<feGaussianBlur in="BackgroundImageFix" stdDeviation="1.6541"/>
<feComposite in2="SourceAlpha" operator="in" result="effect1_backgroundBlur_18_509"/>
<feBlend mode="normal" in="SourceGraphic" in2="effect1_backgroundBlur_18_509" result="shape"/>
</filter>
<filter id="filter29_b_18_509" x="229.047" y="308.919" width="28.7609" height="23.1242" filterUnits="userSpaceOnUse" color-interpolation-filters="sRGB">
<feFlood flood-opacity="0" result="BackgroundImageFix"/>
<feGaussianBlur in="BackgroundImageFix" stdDeviation="1.6541"/>
<feComposite in2="SourceAlpha" operator="in" result="effect1_backgroundBlur_18_509"/>
<feBlend mode="normal" in="SourceGraphic" in2="effect1_backgroundBlur_18_509" result="shape"/>
</filter>
<filter id="filter30_b_18_509" x="294.959" y="297.506" width="17.6955" height="31.6262" filterUnits="userSpaceOnUse" color-interpolation-filters="sRGB">
<feFlood flood-opacity="0" result="BackgroundImageFix"/>
<feGaussianBlur in="BackgroundImageFix" stdDeviation="1.6541"/>
<feComposite in2="SourceAlpha" operator="in" result="effect1_backgroundBlur_18_509"/>
<feBlend mode="normal" in="SourceGraphic" in2="effect1_backgroundBlur_18_509" result="shape"/>
</filter>
<filter id="filter31_b_18_509" x="308.372" y="301.26" width="12.1769" height="14.3264" filterUnits="userSpaceOnUse" color-interpolation-filters="sRGB">
<feFlood flood-opacity="0" result="BackgroundImageFix"/>
<feGaussianBlur in="BackgroundImageFix" stdDeviation="1.6541"/>
<feComposite in2="SourceAlpha" operator="in" result="effect1_backgroundBlur_18_509"/>
<feBlend mode="normal" in="SourceGraphic" in2="effect1_backgroundBlur_18_509" result="shape"/>
</filter>
<filter id="filter32_b_18_509" x="272.743" y="302.121" width="12.1769" height="14.3264" filterUnits="userSpaceOnUse" color-interpolation-filters="sRGB">
<feFlood flood-opacity="0" result="BackgroundImageFix"/>
<feGaussianBlur in="BackgroundImageFix" stdDeviation="1.6541"/>
<feComposite in2="SourceAlpha" operator="in" result="effect1_backgroundBlur_18_509"/>
<feBlend mode="normal" in="SourceGraphic" in2="effect1_backgroundBlur_18_509" result="shape"/>
</filter>
<filter id="filter33_b_18_509" x="271.664" y="292.139" width="15.2922" height="10.3303" filterUnits="userSpaceOnUse" color-interpolation-filters="sRGB">
<feFlood flood-opacity="0" result="BackgroundImageFix"/>
<feGaussianBlur in="BackgroundImageFix" stdDeviation="1.6541"/>
<feComposite in2="SourceAlpha" operator="in" result="effect1_backgroundBlur_18_509"/>
<feBlend mode="normal" in="SourceGraphic" in2="effect1_backgroundBlur_18_509" result="shape"/>
</filter>
<filter id="filter34_b_18_509" x="310.535" y="290.329" width="13.7228" height="11.9377" filterUnits="userSpaceOnUse" color-interpolation-filters="sRGB">
<feFlood flood-opacity="0" result="BackgroundImageFix"/>
<feGaussianBlur in="BackgroundImageFix" stdDeviation="1.6541"/>
<feComposite in2="SourceAlpha" operator="in" result="effect1_backgroundBlur_18_509"/>
<feBlend mode="normal" in="SourceGraphic" in2="effect1_backgroundBlur_18_509" result="shape"/>
</filter>
<filter id="filter35_b_18_509" x="233.128" y="252.034" width="96.4016" height="86.2307" filterUnits="userSpaceOnUse" color-interpolation-filters="sRGB">
<feFlood flood-opacity="0" result="BackgroundImageFix"/>
<feGaussianBlur in="BackgroundImageFix" stdDeviation="1.6541"/>
<feComposite in2="SourceAlpha" operator="in" result="effect1_backgroundBlur_18_509"/>
<feBlend mode="normal" in="SourceGraphic" in2="effect1_backgroundBlur_18_509" result="shape"/>
</filter>
<filter id="filter36_b_18_509" x="182.966" y="218.789" width="195.876" height="181.801" filterUnits="userSpaceOnUse" color-interpolation-filters="sRGB">
<feFlood flood-opacity="0" result="BackgroundImageFix"/>
<feGaussianBlur in="BackgroundImageFix" stdDeviation="1.6541"/>
<feComposite in2="SourceAlpha" operator="in" result="effect1_backgroundBlur_18_509"/>
<feBlend mode="normal" in="SourceGraphic" in2="effect1_backgroundBlur_18_509" result="shape"/>
</filter>
<filter id="filter37_b_18_509" x="328.946" y="264.856" width="17.2424" height="16.3225" filterUnits="userSpaceOnUse" color-interpolation-filters="sRGB">
<feFlood flood-opacity="0" result="BackgroundImageFix"/>
<feGaussianBlur in="BackgroundImageFix" stdDeviation="1.6541"/>
<feComposite in2="SourceAlpha" operator="in" result="effect1_backgroundBlur_18_509"/>
<feBlend mode="normal" in="SourceGraphic" in2="effect1_backgroundBlur_18_509" result="shape"/>
</filter>
<filter id="filter38_b_18_509" x="158.276" y="353.41" width="86.9006" height="142.754" filterUnits="userSpaceOnUse" color-interpolation-filters="sRGB">
<feFlood flood-opacity="0" result="BackgroundImageFix"/>
<feGaussianBlur in="BackgroundImageFix" stdDeviation="1.6541"/>
<feComposite in2="SourceAlpha" operator="in" result="effect1_backgroundBlur_18_509"/>
<feBlend mode="normal" in="SourceGraphic" in2="effect1_backgroundBlur_18_509" result="shape"/>
</filter>
<filter id="filter39_b_18_509" x="118.494" y="328.988" width="80.507" height="209.256" filterUnits="userSpaceOnUse" color-interpolation-filters="sRGB">
<feFlood flood-opacity="0" result="BackgroundImageFix"/>
<feGaussianBlur in="BackgroundImageFix" stdDeviation="1.6541"/>
<feComposite in2="SourceAlpha" operator="in" result="effect1_backgroundBlur_18_509"/>
<feBlend mode="normal" in="SourceGraphic" in2="effect1_backgroundBlur_18_509" result="shape"/>
</filter>
<filter id="filter40_b_18_509" x="136.893" y="336.742" width="9.26288" height="84.9875" filterUnits="userSpaceOnUse" color-interpolation-filters="sRGB">
<feFlood flood-opacity="0" result="BackgroundImageFix"/>
<feGaussianBlur in="BackgroundImageFix" stdDeviation="1.6541"/>
<feComposite in2="SourceAlpha" operator="in" result="effect1_backgroundBlur_18_509"/>
<feBlend mode="normal" in="SourceGraphic" in2="effect1_backgroundBlur_18_509" result="shape"/>
</filter>
<filter id="filter41_b_18_509" x="366.453" y="354.824" width="18.883" height="45.7668" filterUnits="userSpaceOnUse" color-interpolation-filters="sRGB">
<feFlood flood-opacity="0" result="BackgroundImageFix"/>
<feGaussianBlur in="BackgroundImageFix" stdDeviation="1.6541"/>
<feComposite in2="SourceAlpha" operator="in" result="effect1_backgroundBlur_18_509"/>
<feBlend mode="normal" in="SourceGraphic" in2="effect1_backgroundBlur_18_509" result="shape"/>
</filter>
<filter id="filter42_b_18_509" x="211.419" y="534.041" width="98.9621" height="45.4226" filterUnits="userSpaceOnUse" color-interpolation-filters="sRGB">
<feFlood flood-opacity="0" result="BackgroundImageFix"/>
<feGaussianBlur in="BackgroundImageFix" stdDeviation="1.6541"/>
<feComposite in2="SourceAlpha" operator="in" result="effect1_backgroundBlur_18_509"/>
<feBlend mode="normal" in="SourceGraphic" in2="effect1_backgroundBlur_18_509" result="shape"/>
</filter>
<filter id="filter43_b_18_509" x="145.098" y="370.221" width="301.361" height="209.243" filterUnits="userSpaceOnUse" color-interpolation-filters="sRGB">
<feFlood flood-opacity="0" result="BackgroundImageFix"/>
<feGaussianBlur in="BackgroundImageFix" stdDeviation="1.6541"/>
<feComposite in2="SourceAlpha" operator="in" result="effect1_backgroundBlur_18_509"/>
<feBlend mode="normal" in="SourceGraphic" in2="effect1_backgroundBlur_18_509" result="shape"/>
</filter>
<filter id="filter44_b_18_509" x="391.642" y="322.183" width="48.6721" height="48.1369" filterUnits="userSpaceOnUse" color-interpolation-filters="sRGB">
<feFlood flood-opacity="0" result="BackgroundImageFix"/>
<feGaussianBlur in="BackgroundImageFix" stdDeviation="1.6541"/>
<feComposite in2="SourceAlpha" operator="in" result="effect1_backgroundBlur_18_509"/>
<feBlend mode="normal" in="SourceGraphic" in2="effect1_backgroundBlur_18_509" result="shape"/>
</filter>
<filter id="filter45_b_18_509" x="404.506" y="348.295" width="33.7316" height="22.3225" filterUnits="userSpaceOnUse" color-interpolation-filters="sRGB">
<feFlood flood-opacity="0" result="BackgroundImageFix"/>
<feGaussianBlur in="BackgroundImageFix" stdDeviation="1.6541"/>
<feComposite in2="SourceAlpha" operator="in" result="effect1_backgroundBlur_18_509"/>
<feBlend mode="normal" in="SourceGraphic" in2="effect1_backgroundBlur_18_509" result="shape"/>
</filter>
<filter id="filter46_b_18_509" x="415.731" y="354.223" width="32.9055" height="21.8117" filterUnits="userSpaceOnUse" color-interpolation-filters="sRGB">
<feFlood flood-opacity="0" result="BackgroundImageFix"/>
<feGaussianBlur in="BackgroundImageFix" stdDeviation="1.6541"/>
<feComposite in2="SourceAlpha" operator="in" result="effect1_backgroundBlur_18_509"/>
<feBlend mode="normal" in="SourceGraphic" in2="effect1_backgroundBlur_18_509" result="shape"/>
</filter>
<filter id="filter47_b_18_509" x="423.859" y="364.676" width="29.1281" height="39.7512" filterUnits="userSpaceOnUse" color-interpolation-filters="sRGB">
<feFlood flood-opacity="0" result="BackgroundImageFix"/>
<feGaussianBlur in="BackgroundImageFix" stdDeviation="1.6541"/>
<feComposite in2="SourceAlpha" operator="in" result="effect1_backgroundBlur_18_509"/>
<feBlend mode="normal" in="SourceGraphic" in2="effect1_backgroundBlur_18_509" result="shape"/>
</filter>
<filter id="filter48_b_18_509" x="387.817" y="361.065" width="13.1086" height="12.8937" filterUnits="userSpaceOnUse" color-interpolation-filters="sRGB">
<feFlood flood-opacity="0" result="BackgroundImageFix"/>
<feGaussianBlur in="BackgroundImageFix" stdDeviation="1.6541"/>
<feComposite in2="SourceAlpha" operator="in" result="effect1_backgroundBlur_18_509"/>
<feBlend mode="normal" in="SourceGraphic" in2="effect1_backgroundBlur_18_509" result="shape"/>
</filter>
<filter id="filter49_b_18_509" x="170.719" y="340.775" width="241.438" height="168.821" filterUnits="userSpaceOnUse" color-interpolation-filters="sRGB">
<feFlood flood-opacity="0" result="BackgroundImageFix"/>
<feGaussianBlur in="BackgroundImageFix" stdDeviation="1.6541"/>
<feComposite in2="SourceAlpha" operator="in" result="effect1_backgroundBlur_18_509"/>
<feBlend mode="normal" in="SourceGraphic" in2="effect1_backgroundBlur_18_509" result="shape"/>
</filter>
<filter id="filter50_b_18_509" x="365.325" y="408.959" width="69.0793" height="26.4221" filterUnits="userSpaceOnUse" color-interpolation-filters="sRGB">
<feFlood flood-opacity="0" result="BackgroundImageFix"/>
<feGaussianBlur in="BackgroundImageFix" stdDeviation="1.6541"/>
<feComposite in2="SourceAlpha" operator="in" result="effect1_backgroundBlur_18_509"/>
<feBlend mode="normal" in="SourceGraphic" in2="effect1_backgroundBlur_18_509" result="shape"/>
</filter>
</defs>
</svg>
