<svg width="699" height="705" viewBox="0 0 699 705" fill="none" xmlns="http://www.w3.org/2000/svg">
<g filter="url(#filter0_b_18_637)">
<path d="M328.496 485.499L324.653 551.769H432.589C429.804 530.301 426.914 508.834 423.6 487.402L328.496 485.499Z" fill="#7BAEED"/>
</g>
<g filter="url(#filter1_b_18_637)">
<path d="M146.746 208.081L152.139 316.122L229.971 362.582L285.067 306.147L289.932 208.081H146.746Z" fill="#F674B4"/>
</g>
<g filter="url(#filter2_b_18_637)">
<path d="M103.706 393.072C102.931 393.072 102.296 392.473 102.296 391.698L94.1182 167.649C94.1182 167.261 94.2592 166.873 94.5059 166.626C94.7879 166.344 95.1404 166.203 95.5282 166.203L375.977 163.701C376.33 163.736 376.717 163.842 376.999 164.124C377.281 164.406 377.422 164.758 377.422 165.146V204.379C377.422 205.155 376.788 205.789 376.012 205.789C375.237 205.789 374.602 205.155 374.602 204.379V166.556L97.0439 169.023L105.081 390.217H197.365C198.141 390.217 198.775 390.852 198.775 391.627C198.811 392.438 198.176 393.072 197.365 393.072H103.706Z" fill="#000200"/>
</g>
<g filter="url(#filter3_b_18_637)">
<path d="M245.446 356.483C245.2 356.483 244.951 356.412 244.706 356.271L166.909 309.847C166.491 309.603 166.24 309.19 166.204 308.684L160.811 200.643C160.776 200.252 160.917 199.867 161.199 199.585C161.499 199.285 161.852 199.127 162.221 199.127H305.407C305.79 199.127 306.181 199.302 306.429 199.585C306.711 199.867 306.852 200.252 306.816 200.643L301.952 298.743C301.918 299.087 301.784 299.404 301.564 299.66L246.469 356.095C246.191 356.338 245.809 356.483 245.446 356.483ZM163.737 201.982L169.024 307.767L245.2 353.275L299.132 298.039L303.891 201.982H163.737Z" fill="#000200"/>
</g>
<g filter="url(#filter4_b_18_637)">
<path d="M246.504 327.86C246.302 327.86 246.058 327.796 245.834 327.684L186.932 296.875C186.479 296.611 186.189 296.176 186.156 295.712L180.763 217.915C180.729 217.544 180.861 217.149 181.115 216.858C181.349 216.591 181.727 216.402 182.102 216.364L285.526 212.099C285.929 212.099 286.315 212.253 286.583 212.522C286.852 212.791 287.007 213.176 287.007 213.58L283.587 292.998C283.587 293.37 283.42 293.73 283.129 293.985L247.456 327.472C247.213 327.715 246.857 327.86 246.504 327.86ZM284.116 215.025L183.759 219.219L188.976 294.761L246.257 324.723L280.767 292.328L284.116 215.025Z" fill="#000200"/>
</g>
<g filter="url(#filter5_b_18_637)">
<path d="M166.451 309.389C166.028 308.719 166.205 307.838 166.874 307.415L186.861 294.443C187.531 294.02 188.412 294.196 188.835 294.866C189.258 295.536 189.082 296.417 188.412 296.84L168.425 309.812C168.179 309.953 167.897 310.024 167.65 310.024C167.192 310.024 166.733 309.812 166.451 309.389Z" fill="#000200"/>
</g>
<g filter="url(#filter6_b_18_637)">
<path d="M245.376 356.483C244.601 356.448 243.966 355.778 244.001 355.003L245.094 326.38C245.129 325.604 245.693 325.005 246.575 325.005C247.35 325.04 247.985 325.71 247.949 326.485L246.857 355.108C246.821 355.884 246.187 356.483 245.447 356.483C245.411 356.483 245.411 356.483 245.376 356.483Z" fill="#000200"/>
</g>
<g filter="url(#filter7_b_18_637)">
<path d="M300.12 300.012L281.754 294.302C281.014 294.055 280.591 293.28 280.802 292.504C281.049 291.764 281.825 291.341 282.6 291.552L300.965 297.263C301.706 297.51 302.129 298.285 301.917 299.061C301.706 299.695 301.142 300.083 300.542 300.083C300.401 300.083 300.261 300.048 300.12 300.012Z" fill="#000200"/>
</g>
<g filter="url(#filter8_b_18_637)">
<path d="M210.725 290.742C210.125 290.213 210.055 289.332 210.584 288.732L267.935 222.885C268.464 222.286 269.345 222.216 269.945 222.744C270.544 223.273 270.614 224.154 270.086 224.754L212.734 290.601C212.452 290.918 212.064 291.094 211.676 291.094C211.359 291.094 211.007 290.988 210.725 290.742Z" fill="#000200"/>
</g>
<g filter="url(#filter9_b_18_637)">
<path d="M234.8 296.84C234.236 296.311 234.201 295.395 234.765 294.831L270.403 257.642C270.932 257.078 271.848 257.043 272.412 257.607C272.976 258.136 273.011 259.052 272.447 259.616L236.81 296.77C236.528 297.087 236.175 297.228 235.787 297.228C235.435 297.228 235.082 297.087 234.8 296.84Z" fill="#000200"/>
</g>
<g filter="url(#filter10_b_18_637)">
<path d="M121.613 153.478L102.719 135.783C102.155 135.254 102.12 134.338 102.649 133.774C103.178 133.21 104.094 133.174 104.658 133.703L123.552 151.399C124.116 151.927 124.151 152.844 123.623 153.408C123.376 153.69 122.988 153.866 122.6 153.866C122.248 153.866 121.895 153.725 121.613 153.478Z" fill="#7BAEED"/>
</g>
<g filter="url(#filter11_b_18_637)">
<path d="M102.649 153.408C102.12 152.844 102.155 151.927 102.719 151.399L121.613 133.703C122.177 133.174 123.094 133.21 123.623 133.774C124.151 134.338 124.116 135.254 123.552 135.783L104.693 153.478C104.411 153.725 104.059 153.866 103.706 153.866C103.319 153.866 102.931 153.725 102.649 153.408Z" fill="#7BAEED"/>
</g>
<g filter="url(#filter12_b_18_637)">
<path d="M154.924 150.799H139.273C138.496 150.799 137.863 150.167 137.863 149.389V134.76C137.863 133.983 138.496 133.351 139.273 133.351H154.29C155.058 133.351 155.664 133.942 155.7 134.725L156.299 149.354C156.299 149.745 156.158 150.13 155.911 150.412C155.706 150.651 155.328 150.799 154.924 150.799ZM140.719 136.171V147.944H153.444L152.95 136.171H140.719Z" fill="#7BAEED"/>
</g>
<g filter="url(#filter13_b_18_637)">
<path d="M167.649 143.503C166.874 143.503 166.239 142.868 166.239 142.093C166.239 141.317 166.874 140.683 167.649 140.683H187.636C188.412 140.683 189.046 141.317 189.046 142.093C189.046 142.868 188.412 143.503 187.636 143.503H167.649Z" fill="#7BAEED"/>
</g>
<g filter="url(#filter14_b_18_637)">
<path d="M580.251 276.043L579.158 219.149C574.776 218.377 570.82 217.149 567.399 215.5C564.214 213.965 561.507 212.074 559.351 209.88C557.32 207.813 555.814 205.519 554.876 203.059C553.972 200.691 553.622 198.25 553.835 195.807C554.258 190.968 556.878 186.526 561.211 183.298C565.997 179.732 572.556 177.847 580.176 177.847C580.683 177.847 581.18 177.855 581.696 177.872C586.42 178.024 590.739 178.831 594.533 180.272C598.025 181.597 601.048 183.445 603.52 185.765C605.821 187.925 607.589 190.434 608.774 193.223C609.338 194.551 609.762 195.934 610.037 197.336C610.307 198.716 610.432 200.123 610.41 201.516C610.369 204.034 609.859 206.465 608.894 208.742C607.903 211.078 606.473 213.155 604.642 214.914C602.713 216.769 600.39 218.216 597.739 219.217C594.898 220.289 591.712 220.833 588.268 220.834H588.263C587.593 220.834 586.901 220.812 586.208 220.771L586.561 241.886L593.716 242.238L594.386 250.98L587.583 253.307L588.253 261.308L599.638 260.639V275.303L580.251 276.043ZM580.911 185.47C575.529 185.471 570.949 186.668 567.666 188.932C566.165 189.967 564.972 191.198 564.12 192.591C563.291 193.946 562.81 195.41 562.691 196.942C562.562 198.601 562.861 200.268 563.58 201.896C564.324 203.582 565.491 205.158 567.049 206.58C570.503 209.733 575.665 211.922 581.978 212.91C583.607 213.163 585.197 213.291 586.705 213.291C591.591 213.291 595.728 211.96 598.668 209.443C600.004 208.299 601.047 206.949 601.767 205.431C602.469 203.951 602.837 202.372 602.86 200.738C602.874 199.838 602.779 198.931 602.581 198.04C602.379 197.136 602.068 196.243 601.656 195.387C600.791 193.588 599.504 191.97 597.83 190.578C594.057 187.438 588.575 185.678 581.978 185.486C581.615 185.475 581.267 185.47 580.914 185.47H580.911Z" fill="#FFCB56"/>
</g>
<g filter="url(#filter15_b_18_637)">
<path d="M527.834 270.332C526.424 271.496 528.434 273.505 529.844 272.342C532.664 270.015 535.484 267.689 538.339 265.362C539.784 264.199 537.74 262.19 536.33 263.353C533.51 265.679 530.69 268.006 527.834 270.332Z" fill="#F674B4"/>
</g>
<g filter="url(#filter16_b_18_637)">
<path d="M628.086 190.42C626.676 191.619 628.72 193.628 630.095 192.43C634.113 188.975 638.167 185.556 642.186 182.101C643.596 180.938 641.551 178.929 640.176 180.092C636.158 183.547 632.104 186.966 628.086 190.42Z" fill="#F674B4"/>
</g>
<g filter="url(#filter17_b_18_637)">
<path d="M642.361 238.642C640.74 237.796 639.295 240.229 640.916 241.11C650.575 246.256 660.233 251.403 669.856 256.549C671.478 257.395 672.923 254.928 671.302 254.082C661.643 248.935 651.985 243.789 642.361 238.642Z" fill="#F674B4"/>
</g>
<g filter="url(#filter18_b_18_637)">
<path d="M402.45 282.741C402.238 281.965 402.697 281.19 403.437 280.978C406.222 280.203 408.301 278.828 409.042 277.277C409.465 276.396 409.429 275.444 408.936 274.422C407.878 272.166 402.274 272.236 399.736 272.659C399.031 272.765 398.326 272.342 398.149 271.637L394.448 258.136C394.237 257.361 394.695 256.585 395.435 256.374C396.175 256.162 396.986 256.62 397.198 257.361L400.582 269.663C403.402 269.381 409.711 269.24 411.544 273.223C412.355 275.021 412.39 276.819 411.615 278.475C410.522 280.837 407.878 282.705 404.177 283.728C404.071 283.798 403.93 283.798 403.825 283.798C403.19 283.798 402.626 283.375 402.45 282.741Z" fill="#000200"/>
</g>
<g filter="url(#filter19_b_18_637)">
<path d="M405.517 255.633C406.539 259.44 412.461 257.819 411.403 254.012L410.593 251.051C409.571 247.244 403.648 248.865 404.706 252.672L405.517 255.633Z" fill="#000200"/>
</g>
<g filter="url(#filter20_b_18_637)">
<path d="M369.984 265.327C371.006 269.134 376.928 267.513 375.871 263.706L375.06 260.745C374.038 256.973 368.151 258.594 369.173 262.366L369.984 265.327Z" fill="#000200"/>
</g>
<g filter="url(#filter21_b_18_637)">
<path d="M360.079 251.826C358.563 253.06 360.748 255.175 362.264 253.976C363.991 252.601 366.001 251.509 367.939 250.451C369.702 249.535 368.151 246.926 366.388 247.843C364.168 249.006 362.053 250.275 360.079 251.826Z" fill="#000200"/>
</g>
<g filter="url(#filter22_b_18_637)">
<path d="M401.886 234.448C400.088 233.672 398.572 236.351 400.37 237.091C402.344 237.937 404.459 238.325 406.503 238.995C408.372 239.665 409.147 236.704 407.279 236.069C405.516 235.47 403.613 235.188 401.886 234.448Z" fill="#000200"/>
</g>
<g filter="url(#filter23_b_18_637)">
<path d="M383.062 299.696C382.428 297.827 379.467 298.638 380.101 300.506C381.441 304.454 385.6 305.723 389.443 305.265C391.381 305.054 391.381 301.987 389.443 302.234C387.151 302.48 383.943 302.304 383.062 299.696Z" fill="#000200"/>
</g>
<g filter="url(#filter24_b_18_637)">
<path d="M415.598 228.808C414.681 225.635 413.553 222.78 412.249 220.207C414.822 216.717 414.822 211.641 412.108 207.623C405.939 198.563 392.262 197.365 382.428 198.81C375.483 199.832 368.856 202.265 362.405 204.944C360.22 205.86 357.717 206.706 355.426 207.905C341.538 212.558 332.196 218.832 326.944 227.01C321.48 235.505 320.564 245.975 324.124 259.017L330.575 282.599C330.786 283.375 331.562 283.798 332.337 283.586C332.972 283.41 333.36 282.846 333.395 282.247C336.462 281.084 338.682 280.661 341.397 280.061C342.031 280.943 344.393 280.449 344.675 279.392C344.745 278.369 343.829 269.98 343.441 265.01C344.287 260.392 346.155 255.986 348.905 251.086C351.619 246.257 354.263 240.828 353.276 235.082C353.241 234.941 353.205 234.8 353.17 234.659C370.795 234.025 402.767 226.728 410.275 222.639C411.297 224.754 412.179 227.081 412.919 229.619C414.364 234.554 415.739 239.312 417.114 243.86C429.804 286.935 437.488 312.914 425.433 325.111C415.104 335.545 392.615 340.268 392.368 340.304C391.91 340.409 391.487 340.727 391.311 341.185C391.134 341.643 391.205 342.137 391.487 342.524C397.796 351.231 407.349 353.84 407.737 353.945C407.843 353.981 407.984 353.981 408.089 353.981C408.407 353.981 408.724 353.875 408.971 353.699C409.323 353.417 409.535 352.994 409.535 352.571V337.977C415.88 335.439 422.753 331.844 427.442 327.085C440.59 313.725 432.765 287.111 419.757 243.049C418.418 238.502 417.008 233.743 415.598 228.808Z" fill="#000200"/>
</g>
<g filter="url(#filter25_b_18_637)">
<path d="M406.609 361.736C399.736 380.559 387.292 382.745 378.057 381.229C361.243 378.479 345.979 362.37 345.733 351.584L344.146 302.093C344.146 301.634 343.9 301.247 343.547 300.965C343.195 300.718 342.701 300.647 342.278 300.753C337.202 302.375 332.902 302.304 329.764 300.612C326.944 299.061 325.922 296.699 325.57 295.395C325.006 293.28 325.288 291.271 326.38 289.403C328.707 285.56 334.594 282.529 343.477 280.555C344.252 280.379 344.746 279.638 344.569 278.863C344.393 278.087 343.618 277.594 342.877 277.77C333.113 279.92 326.733 283.34 323.948 287.922C322.009 291.13 322.256 294.161 322.82 296.135C323.631 299.096 325.605 301.599 328.39 303.08C330.822 304.419 334.981 305.547 341.326 303.926L342.877 351.584C343.195 364.873 360.714 381.229 377.599 383.978C386.059 385.353 401.428 384.366 409.359 362.405C409.429 362.264 409.429 362.088 409.429 361.912V356.025C408.548 354.509 407.773 352.359 406.786 350.879L406.609 361.736Z" fill="#000200"/>
</g>
<g filter="url(#filter26_b_18_637)">
<path d="M229.549 579.792C186.72 577.113 153.233 559.77 137.617 532.24C124.046 508.305 125.279 479.4 141.142 448.591C181.292 370.724 285.632 353.522 344.252 350.173C345.028 350.103 345.698 350.737 345.768 351.513C345.803 352.288 345.204 352.958 344.429 353.029C286.407 356.307 183.16 373.262 143.68 449.896C128.276 479.788 127.042 507.776 140.084 530.83C155.207 557.514 187.883 574.293 229.725 576.937C294.656 581.026 302.481 568.935 310.73 556.174C312.175 553.918 313.691 551.592 315.488 549.371C327.403 534.742 330.787 531.852 339.212 534.883C342.032 535.906 343.512 535.694 343.759 535.342C344.076 534.883 343.9 532.416 339.282 527.058C337.238 524.661 334.876 523.498 332.091 523.462C332.056 523.462 332.021 523.462 331.985 523.462C326.557 523.462 319.507 527.939 312.14 536.117C311.611 536.716 310.694 536.752 310.13 536.223C309.531 535.694 309.496 534.778 310.025 534.214C315.629 528.01 324.019 520.607 331.985 520.607C332.056 520.607 332.091 520.607 332.126 520.607C335.722 520.642 338.859 522.193 341.432 525.19C346.156 530.653 347.707 534.601 346.121 536.963C345.275 538.232 343.195 539.36 338.26 537.598C331.668 535.236 329.553 536.646 317.709 551.204C315.982 553.319 314.537 555.575 313.127 557.761C305.83 568.97 298.322 580.567 252.356 580.567C245.623 580.567 238.044 580.321 229.549 579.792Z" fill="#000200"/>
</g>
<g filter="url(#filter27_b_18_637)">
<path d="M302.023 529.243C301.494 528.644 301.53 527.763 302.129 527.234C323.737 507.494 329.871 504.604 338.472 510.032C343.266 513.064 345.909 516.377 346.332 519.937C346.685 522.898 345.451 525.859 342.702 528.715C342.138 529.279 341.256 529.278 340.692 528.75C340.128 528.186 340.128 527.305 340.657 526.741C342.807 524.555 343.759 522.369 343.512 520.29C343.195 517.681 340.939 514.967 336.956 512.464C330.646 508.481 326.451 508.939 304.032 529.349C303.786 529.56 303.433 529.701 303.081 529.701C302.693 529.701 302.305 529.561 302.023 529.243Z" fill="#000200"/>
</g>
<g filter="url(#filter28_b_18_637)">
<path d="M294.303 522.053C293.775 521.453 293.81 520.572 294.409 520.043C309.743 506.049 320.212 498.259 328.214 499.669C332.127 500.374 335.299 503.229 337.908 508.411C338.26 509.116 337.978 509.962 337.273 510.314C336.568 510.667 335.722 510.385 335.37 509.68C333.184 505.344 330.646 502.982 327.685 502.454C320.882 501.185 310.624 509.045 296.313 522.123C296.031 522.37 295.713 522.511 295.361 522.511C294.973 522.511 294.585 522.37 294.303 522.053Z" fill="#000200"/>
</g>
<g filter="url(#filter29_b_18_637)">
<path d="M290.496 510.032C287.007 513.945 284.363 516.518 282.671 518.069L281.86 502.489C280.908 502.806 279.992 503.123 279.04 503.476L279.957 521.136C279.992 521.665 280.309 522.123 280.767 522.37C280.944 522.475 281.155 522.511 281.367 522.511C281.684 522.511 281.966 522.405 282.213 522.229C282.354 522.123 285.984 519.338 292.576 511.971C309.461 493.077 314.361 495.862 323.314 500.938C323.984 501.325 324.865 501.079 325.253 500.409C325.676 499.704 325.429 498.823 324.759 498.435C314.361 492.513 308.086 490.363 290.496 510.032Z" fill="#000200"/>
</g>
<g filter="url(#filter30_b_18_637)">
<path d="M279.886 476.756C298.956 463.255 294.48 447.992 294.303 447.322C294.127 446.758 293.598 446.335 292.999 446.335C243.79 444.679 214.251 460.189 207.729 491.455C206.284 498.435 207.729 504.498 212.065 509.503C223.627 522.898 253.66 525.084 263.742 525.084C264.729 525.084 265.539 525.049 266.103 525.013C269.769 524.802 271.109 521.947 273.788 516.307C275.445 512.782 277.736 507.988 281.543 501.643C281.931 500.973 281.719 500.092 281.049 499.704C280.38 499.281 279.498 499.528 279.111 500.197C275.233 506.648 272.942 511.548 271.25 515.108C268.747 520.396 267.866 522.088 265.962 522.193C265.575 522.229 227.399 522.863 214.251 507.635C210.549 503.335 209.28 498.082 210.549 492.019C217.247 460.012 248.232 450.565 277.842 449.226C277.842 449.226 279.04 473.901 278.3 474.43C277.595 474.853 277.454 475.769 277.912 476.404C278.37 477.038 279.252 477.214 279.886 476.756Z" fill="#000200"/>
</g>
<g filter="url(#filter31_b_18_637)">
<path d="M245.728 454.549C244.953 454.408 244.424 453.668 244.565 452.892C245.975 444.573 251.298 402.026 217.599 381.511C216.929 381.088 216.718 380.242 217.105 379.537C217.528 378.867 218.374 378.656 219.079 379.043C246.433 395.681 251.615 428.323 247.385 453.35C247.244 454.091 246.645 454.584 245.975 454.584C245.905 454.584 245.799 454.584 245.728 454.549Z" fill="#000200"/>
</g>
<g filter="url(#filter32_b_18_637)">
<path d="M595.268 295.536C595.162 294.866 594.81 292.786 592.977 292.081C589.875 290.918 584.658 294.267 567.597 308.367C544.614 327.402 531.642 372.663 529.35 406.609C528.963 412.531 528.645 417.994 528.328 422.965C526.742 449.79 525.931 463.22 518.247 463.925C510.844 464.665 501.503 444.397 492.514 424.868C490.188 419.757 487.791 414.54 485.323 409.429C471.47 380.7 452.541 353.734 408.126 351.09C407.738 351.055 407.35 351.195 407.068 351.477C406.962 351.583 406.857 351.724 406.786 351.83C407.703 353.205 408.584 354.58 409.465 355.99V354.051C451.342 357.118 469.461 383.062 482.75 410.662C485.217 415.774 487.614 420.99 489.941 426.066C500.375 448.767 508.659 466.78 517.859 466.78C518.07 466.78 518.282 466.78 518.493 466.745C528.645 465.864 529.421 452.469 531.183 423.141C531.465 418.171 531.818 412.742 532.206 406.82C534.462 373.438 547.046 329.094 569.394 310.587C576.444 304.736 589.557 293.844 591.954 294.76C592.095 294.796 592.307 295.148 592.448 295.994C593.188 300.682 588.782 304.137 584.517 307.486C581.062 310.2 577.784 312.773 577.537 316.016C577.361 318.343 578.736 320.281 580.216 322.326C583.459 326.838 587.478 332.407 578.242 346.19C577.819 346.86 577.995 347.741 578.63 348.164C579.3 348.622 580.181 348.411 580.604 347.776C590.932 332.372 585.856 325.322 582.507 320.669C581.238 318.942 580.251 317.532 580.357 316.263C580.533 314.254 583.318 312.068 586.279 309.742C590.756 306.252 596.29 301.881 595.268 295.536Z" fill="#000200"/>
</g>
<g filter="url(#filter33_b_18_637)">
<path d="M578.806 320.141C578.665 319.365 579.159 318.625 579.934 318.484C588.641 316.757 596.607 314.536 603.622 312.527C616.841 308.79 626.429 306.111 631.117 309.848C633.232 311.54 634.184 314.36 633.972 318.449C633.937 319.224 633.197 319.859 632.457 319.788C631.681 319.753 631.082 319.083 631.117 318.272C631.293 315.17 630.694 313.126 629.355 312.033C625.794 309.178 616.347 311.857 604.433 315.241C597.348 317.25 589.311 319.506 580.498 321.233C580.428 321.304 580.322 321.304 580.216 321.304C579.546 321.304 578.947 320.846 578.806 320.141Z" fill="#000200"/>
</g>
<g filter="url(#filter34_b_18_637)">
<path d="M597.171 329.446C596.889 328.706 597.242 327.895 597.982 327.613C624.701 317.215 635.453 314.853 639.048 318.66C640.67 320.387 640.599 323.031 638.872 326.803C638.555 327.508 637.673 327.825 636.968 327.508C636.263 327.19 635.946 326.344 636.263 325.604C637.391 323.137 637.638 321.339 636.933 320.599C633.373 316.862 609.297 326.239 598.969 330.257C598.863 330.328 598.687 330.363 598.511 330.363C597.947 330.363 597.418 330.01 597.171 329.446Z" fill="#000200"/>
</g>
<g filter="url(#filter35_b_18_637)">
<path d="M602.987 337.941C602.776 337.201 603.199 336.39 603.939 336.179C611.87 333.782 618.356 331.561 623.573 329.763C635.699 325.569 641.233 323.63 644.018 327.331C645.217 328.953 645.71 330.609 645.428 332.231C645.005 334.698 642.996 336.073 642.784 336.214C642.115 336.637 641.233 336.461 640.81 335.791C640.387 335.121 640.564 334.24 641.233 333.817C641.233 333.817 642.432 333.006 642.643 331.702C642.784 330.891 642.467 329.975 641.762 329.023C640.246 327.014 634.324 329.058 624.525 332.442C619.273 334.24 612.787 336.496 604.785 338.893C604.644 338.964 604.503 338.964 604.362 338.964C603.763 338.964 603.199 338.576 602.987 337.941Z" fill="#000200"/>
</g>
<g filter="url(#filter36_b_18_637)">
<path d="M512.501 549.9C486.839 545.846 464.385 529.384 452.435 505.908C452.082 505.203 452.364 504.357 453.069 504.004C453.774 503.652 454.62 503.934 454.973 504.639C466.535 527.304 488.214 543.202 512.959 547.115C533.545 550.358 553.461 544.718 566.222 531.957C594.598 503.581 591.214 424.868 589.945 395.223C589.029 373.438 598.546 367.657 608.663 361.488C609.967 360.713 611.271 359.902 612.611 359.056C616.77 356.377 622.587 353.874 628.191 351.407C635.841 348.093 644.512 344.322 645.534 341.255C645.675 340.832 645.64 340.479 645.393 340.021C643.419 336.602 642.82 336.672 632.245 340.973C627.31 342.982 620.542 345.732 610.884 349.01C610.143 349.257 609.333 348.869 609.086 348.129C608.839 347.388 609.227 346.578 609.967 346.331C619.555 343.088 626.253 340.338 631.152 338.329C641.445 334.134 644.547 332.865 647.826 338.611C648.46 339.739 648.601 340.938 648.213 342.136C646.803 346.401 638.696 349.926 629.319 353.98C623.82 356.377 618.11 358.845 614.127 361.383C612.787 362.229 611.448 363.075 610.108 363.85C599.921 370.054 591.919 374.919 592.765 395.011C594.034 424.974 597.453 504.603 568.196 533.861C557.339 544.894 541.476 550.851 524.345 550.851C520.467 550.851 516.484 550.534 512.501 549.9Z" fill="#000200"/>
</g>
<g filter="url(#filter37_b_18_637)">
<path d="M461.564 515.39C457.722 497.589 467.31 482.889 473.373 475.698C483.384 463.854 497.625 455.994 508.059 456.381C508.834 456.417 509.469 457.086 509.433 457.862C509.398 458.637 508.728 459.272 507.953 459.237C498.33 458.708 485.04 466.357 475.558 477.567C469.848 484.335 460.753 498.188 464.349 514.826C464.525 515.601 464.031 516.342 463.256 516.518C463.115 516.518 463.009 516.518 462.939 516.518C462.269 516.518 461.705 516.06 461.564 515.39Z" fill="#000200"/>
</g>
<g filter="url(#filter38_b_18_637)">
<path d="M461.635 490.045C458.604 477.285 455.184 462.832 449.016 447.287C448.769 446.653 448.134 446.3 447.465 446.406C446.795 446.512 446.301 447.076 446.266 447.745L444.997 476.65C444.997 476.827 444.997 476.968 445.068 477.109C445.068 477.109 445.491 478.483 446.231 480.704C446.372 481.162 446.83 481.55 447.324 481.656C447.782 481.762 448.24 481.867 448.698 481.938L449.298 482.008C450.003 482.008 450.778 481.797 451.518 481.585C451.73 481.515 452.012 481.444 452.294 481.374C452.787 487.86 453.21 499.492 452.893 505.273C452.893 505.52 452.928 505.767 453.034 505.978C458.181 516.236 467.98 529.772 477.286 535.13C477.498 535.271 477.744 535.306 477.991 535.306C478.414 535.306 478.837 535.13 479.119 534.742C479.542 534.284 479.507 533.473 479.013 532.98C469.461 523.075 466.006 508.516 461.635 490.045Z" fill="#000200"/>
</g>
<g filter="url(#filter39_b_18_637)">
<path d="M279.427 509.574C279.145 508.834 279.533 508.023 280.273 507.741C295.536 502.101 306.922 482.961 308.438 480.282C308.438 473.267 308.085 372.064 299.59 356.942C299.202 356.237 299.449 355.391 300.119 355.003C300.789 354.615 301.67 354.862 302.058 355.532C311.187 371.782 311.258 476.193 311.258 480.634C311.258 480.881 311.187 481.092 311.082 481.304C310.588 482.22 298.533 504.005 281.225 510.385C281.084 510.456 280.943 510.491 280.767 510.491C280.203 510.491 279.639 510.138 279.427 509.574Z" fill="#000200"/>
</g>
<g filter="url(#filter40_b_18_637)">
<path d="M324.054 482.044C323.666 482.044 323.313 481.903 323.031 481.621C322.749 481.339 322.608 480.987 322.608 480.599C323.102 441.859 322.08 365.719 314.783 354.897C314.36 354.228 314.501 353.346 315.171 352.923C315.805 352.465 316.722 352.641 317.145 353.311C326.239 366.847 325.605 465.441 325.464 479.189H431.39C431.813 466.851 434.703 375.624 428.041 356.66C427.794 355.92 428.182 355.109 428.922 354.862C429.663 354.615 430.473 355.003 430.755 355.743C438.017 376.506 434.351 476.439 434.21 480.669C434.175 481.445 433.54 482.044 432.765 482.044H324.054Z" fill="#000200"/>
</g>
<g filter="url(#filter41_b_18_637)">
<path d="M452.258 537.457L450.566 482.044H446.195C445.807 482.044 445.419 481.868 445.172 481.586C444.926 481.304 444.749 480.916 444.785 480.528C444.855 479.541 449.931 380.735 440.343 361.63C439.991 360.925 440.273 360.079 440.978 359.726C441.683 359.374 442.529 359.656 442.881 360.361C452.222 379.079 448.31 466.146 447.675 479.189H451.94C452.716 479.189 453.35 479.788 453.35 480.563L455.078 537.351C455.113 538.127 454.478 538.796 453.703 538.832H453.668C452.892 538.832 452.258 538.232 452.258 537.457Z" fill="#000200"/>
</g>
<g filter="url(#filter42_b_18_637)">
<path d="M309.637 482.044C308.861 482.044 308.227 481.41 308.227 480.634C308.227 479.859 308.861 479.224 309.637 479.224H323.807C324.583 479.224 325.217 479.859 325.217 480.634C325.252 481.41 324.618 482.044 323.807 482.044H309.637Z" fill="#000200"/>
</g>
<g filter="url(#filter43_b_18_637)">
<path d="M432.588 482.044C431.812 482.044 431.178 481.41 431.178 480.634C431.178 479.859 431.812 479.224 432.588 479.224H446.758C447.534 479.224 448.168 479.859 448.168 480.634C448.168 481.41 447.534 482.044 446.758 482.044H432.588Z" fill="#000200"/>
</g>
<g filter="url(#filter44_b_18_637)">
<path d="M351.9 545.247C351.195 544.86 350.949 544.014 351.336 543.309L365.295 517.964C365.683 517.259 366.529 517.012 367.234 517.4C367.939 517.788 368.186 518.634 367.798 519.339L353.839 544.683C353.557 545.177 353.064 545.424 352.57 545.424C352.323 545.424 352.112 545.353 351.9 545.247Z" fill="#000200"/>
</g>
<g filter="url(#filter45_b_18_637)">
<path d="M279.074 447.746C279.039 446.97 278.334 446.265 277.594 446.406C276.818 446.442 276.219 447.111 276.254 447.887L279.11 503.511C279.991 503.159 280.907 502.806 281.859 502.524L279.074 447.746Z" fill="#000200"/>
</g>
<defs>
<filter id="filter0_b_18_637" x="321.128" y="481.974" width="114.986" height="73.32" filterUnits="userSpaceOnUse" color-interpolation-filters="sRGB">
<feFlood flood-opacity="0" result="BackgroundImageFix"/>
<feGaussianBlur in="BackgroundImageFix" stdDeviation="1.7625"/>
<feComposite in2="SourceAlpha" operator="in" result="effect1_backgroundBlur_18_637"/>
<feBlend mode="normal" in="SourceGraphic" in2="effect1_backgroundBlur_18_637" result="shape"/>
</filter>
<filter id="filter1_b_18_637" x="143.221" y="204.556" width="150.236" height="161.551" filterUnits="userSpaceOnUse" color-interpolation-filters="sRGB">
<feFlood flood-opacity="0" result="BackgroundImageFix"/>
<feGaussianBlur in="BackgroundImageFix" stdDeviation="1.7625"/>
<feComposite in2="SourceAlpha" operator="in" result="effect1_backgroundBlur_18_637"/>
<feBlend mode="normal" in="SourceGraphic" in2="effect1_backgroundBlur_18_637" result="shape"/>
</filter>
<filter id="filter2_b_18_637" x="90.5932" y="160.176" width="290.355" height="236.422" filterUnits="userSpaceOnUse" color-interpolation-filters="sRGB">
<feFlood flood-opacity="0" result="BackgroundImageFix"/>
<feGaussianBlur in="BackgroundImageFix" stdDeviation="1.7625"/>
<feComposite in2="SourceAlpha" operator="in" result="effect1_backgroundBlur_18_637"/>
<feBlend mode="normal" in="SourceGraphic" in2="effect1_backgroundBlur_18_637" result="shape"/>
</filter>
<filter id="filter3_b_18_637" x="157.281" y="195.602" width="153.067" height="164.406" filterUnits="userSpaceOnUse" color-interpolation-filters="sRGB">
<feFlood flood-opacity="0" result="BackgroundImageFix"/>
<feGaussianBlur in="BackgroundImageFix" stdDeviation="1.7625"/>
<feComposite in2="SourceAlpha" operator="in" result="effect1_backgroundBlur_18_637"/>
<feBlend mode="normal" in="SourceGraphic" in2="effect1_backgroundBlur_18_637" result="shape"/>
</filter>
<filter id="filter4_b_18_637" x="177.233" y="208.574" width="113.299" height="122.811" filterUnits="userSpaceOnUse" color-interpolation-filters="sRGB">
<feFlood flood-opacity="0" result="BackgroundImageFix"/>
<feGaussianBlur in="BackgroundImageFix" stdDeviation="1.7625"/>
<feComposite in2="SourceAlpha" operator="in" result="effect1_backgroundBlur_18_637"/>
<feBlend mode="normal" in="SourceGraphic" in2="effect1_backgroundBlur_18_637" result="shape"/>
</filter>
<filter id="filter5_b_18_637" x="162.698" y="290.689" width="29.8918" height="22.8591" filterUnits="userSpaceOnUse" color-interpolation-filters="sRGB">
<feFlood flood-opacity="0" result="BackgroundImageFix"/>
<feGaussianBlur in="BackgroundImageFix" stdDeviation="1.7625"/>
<feComposite in2="SourceAlpha" operator="in" result="effect1_backgroundBlur_18_637"/>
<feBlend mode="normal" in="SourceGraphic" in2="effect1_backgroundBlur_18_637" result="shape"/>
</filter>
<filter id="filter6_b_18_637" x="240.475" y="321.48" width="11.0012" height="38.528" filterUnits="userSpaceOnUse" color-interpolation-filters="sRGB">
<feFlood flood-opacity="0" result="BackgroundImageFix"/>
<feGaussianBlur in="BackgroundImageFix" stdDeviation="1.7625"/>
<feComposite in2="SourceAlpha" operator="in" result="effect1_backgroundBlur_18_637"/>
<feBlend mode="normal" in="SourceGraphic" in2="effect1_backgroundBlur_18_637" result="shape"/>
</filter>
<filter id="filter7_b_18_637" x="277.223" y="287.973" width="28.2736" height="15.635" filterUnits="userSpaceOnUse" color-interpolation-filters="sRGB">
<feFlood flood-opacity="0" result="BackgroundImageFix"/>
<feGaussianBlur in="BackgroundImageFix" stdDeviation="1.7625"/>
<feComposite in2="SourceAlpha" operator="in" result="effect1_backgroundBlur_18_637"/>
<feBlend mode="normal" in="SourceGraphic" in2="effect1_backgroundBlur_18_637" result="shape"/>
</filter>
<filter id="filter8_b_18_637" x="206.703" y="218.863" width="67.2648" height="75.7561" filterUnits="userSpaceOnUse" color-interpolation-filters="sRGB">
<feFlood flood-opacity="0" result="BackgroundImageFix"/>
<feGaussianBlur in="BackgroundImageFix" stdDeviation="1.7625"/>
<feComposite in2="SourceAlpha" operator="in" result="effect1_backgroundBlur_18_637"/>
<feBlend mode="normal" in="SourceGraphic" in2="effect1_backgroundBlur_18_637" result="shape"/>
</filter>
<filter id="filter9_b_18_637" x="230.834" y="253.676" width="45.5441" height="47.0769" filterUnits="userSpaceOnUse" color-interpolation-filters="sRGB">
<feFlood flood-opacity="0" result="BackgroundImageFix"/>
<feGaussianBlur in="BackgroundImageFix" stdDeviation="1.7625"/>
<feComposite in2="SourceAlpha" operator="in" result="effect1_backgroundBlur_18_637"/>
<feBlend mode="normal" in="SourceGraphic" in2="effect1_backgroundBlur_18_637" result="shape"/>
</filter>
<filter id="filter10_b_18_637" x="98.7484" y="129.803" width="28.7746" height="27.5886" filterUnits="userSpaceOnUse" color-interpolation-filters="sRGB">
<feFlood flood-opacity="0" result="BackgroundImageFix"/>
<feGaussianBlur in="BackgroundImageFix" stdDeviation="1.7625"/>
<feComposite in2="SourceAlpha" operator="in" result="effect1_backgroundBlur_18_637"/>
<feBlend mode="normal" in="SourceGraphic" in2="effect1_backgroundBlur_18_637" result="shape"/>
</filter>
<filter id="filter11_b_18_637" x="98.7484" y="129.803" width="28.7746" height="27.5886" filterUnits="userSpaceOnUse" color-interpolation-filters="sRGB">
<feFlood flood-opacity="0" result="BackgroundImageFix"/>
<feGaussianBlur in="BackgroundImageFix" stdDeviation="1.7625"/>
<feComposite in2="SourceAlpha" operator="in" result="effect1_backgroundBlur_18_637"/>
<feBlend mode="normal" in="SourceGraphic" in2="effect1_backgroundBlur_18_637" result="shape"/>
</filter>
<filter id="filter12_b_18_637" x="134.338" y="129.826" width="25.4855" height="24.4987" filterUnits="userSpaceOnUse" color-interpolation-filters="sRGB">
<feFlood flood-opacity="0" result="BackgroundImageFix"/>
<feGaussianBlur in="BackgroundImageFix" stdDeviation="1.7625"/>
<feComposite in2="SourceAlpha" operator="in" result="effect1_backgroundBlur_18_637"/>
<feBlend mode="normal" in="SourceGraphic" in2="effect1_backgroundBlur_18_637" result="shape"/>
</filter>
<filter id="filter13_b_18_637" x="162.714" y="137.158" width="29.8566" height="9.86982" filterUnits="userSpaceOnUse" color-interpolation-filters="sRGB">
<feFlood flood-opacity="0" result="BackgroundImageFix"/>
<feGaussianBlur in="BackgroundImageFix" stdDeviation="1.7625"/>
<feComposite in2="SourceAlpha" operator="in" result="effect1_backgroundBlur_18_637"/>
<feBlend mode="normal" in="SourceGraphic" in2="effect1_backgroundBlur_18_637" result="shape"/>
</filter>
<filter id="filter14_b_18_637" x="550.249" y="174.322" width="63.6877" height="105.245" filterUnits="userSpaceOnUse" color-interpolation-filters="sRGB">
<feFlood flood-opacity="0" result="BackgroundImageFix"/>
<feGaussianBlur in="BackgroundImageFix" stdDeviation="1.7625"/>
<feComposite in2="SourceAlpha" operator="in" result="effect1_backgroundBlur_18_637"/>
<feBlend mode="normal" in="SourceGraphic" in2="effect1_backgroundBlur_18_637" result="shape"/>
</filter>
<filter id="filter15_b_18_637" x="523.829" y="259.477" width="18.5285" height="16.7395" filterUnits="userSpaceOnUse" color-interpolation-filters="sRGB">
<feFlood flood-opacity="0" result="BackgroundImageFix"/>
<feGaussianBlur in="BackgroundImageFix" stdDeviation="1.7625"/>
<feComposite in2="SourceAlpha" operator="in" result="effect1_backgroundBlur_18_637"/>
<feBlend mode="normal" in="SourceGraphic" in2="effect1_backgroundBlur_18_637" result="shape"/>
</filter>
<filter id="filter16_b_18_637" x="624.085" y="176.217" width="22.1008" height="20.1062" filterUnits="userSpaceOnUse" color-interpolation-filters="sRGB">
<feFlood flood-opacity="0" result="BackgroundImageFix"/>
<feGaussianBlur in="BackgroundImageFix" stdDeviation="1.7625"/>
<feComposite in2="SourceAlpha" operator="in" result="effect1_backgroundBlur_18_637"/>
<feBlend mode="normal" in="SourceGraphic" in2="effect1_backgroundBlur_18_637" result="shape"/>
</filter>
<filter id="filter17_b_18_637" x="636.681" y="234.941" width="38.8557" height="25.3068" filterUnits="userSpaceOnUse" color-interpolation-filters="sRGB">
<feFlood flood-opacity="0" result="BackgroundImageFix"/>
<feGaussianBlur in="BackgroundImageFix" stdDeviation="1.7625"/>
<feComposite in2="SourceAlpha" operator="in" result="effect1_backgroundBlur_18_637"/>
<feBlend mode="normal" in="SourceGraphic" in2="effect1_backgroundBlur_18_637" result="shape"/>
</filter>
<filter id="filter18_b_18_637" x="390.871" y="252.797" width="24.8283" height="34.5261" filterUnits="userSpaceOnUse" color-interpolation-filters="sRGB">
<feFlood flood-opacity="0" result="BackgroundImageFix"/>
<feGaussianBlur in="BackgroundImageFix" stdDeviation="1.7625"/>
<feComposite in2="SourceAlpha" operator="in" result="effect1_backgroundBlur_18_637"/>
<feBlend mode="normal" in="SourceGraphic" in2="effect1_backgroundBlur_18_637" result="shape"/>
</filter>
<filter id="filter19_b_18_637" x="401.055" y="245.355" width="13.9992" height="15.9733" filterUnits="userSpaceOnUse" color-interpolation-filters="sRGB">
<feFlood flood-opacity="0" result="BackgroundImageFix"/>
<feGaussianBlur in="BackgroundImageFix" stdDeviation="1.7625"/>
<feComposite in2="SourceAlpha" operator="in" result="effect1_backgroundBlur_18_637"/>
<feBlend mode="normal" in="SourceGraphic" in2="effect1_backgroundBlur_18_637" result="shape"/>
</filter>
<filter id="filter20_b_18_637" x="365.53" y="255.075" width="13.9924" height="15.9479" filterUnits="userSpaceOnUse" color-interpolation-filters="sRGB">
<feFlood flood-opacity="0" result="BackgroundImageFix"/>
<feGaussianBlur in="BackgroundImageFix" stdDeviation="1.7625"/>
<feComposite in2="SourceAlpha" operator="in" result="effect1_backgroundBlur_18_637"/>
<feBlend mode="normal" in="SourceGraphic" in2="effect1_backgroundBlur_18_637" result="shape"/>
</filter>
<filter id="filter21_b_18_637" x="356.041" y="244.125" width="16.1994" height="13.7312" filterUnits="userSpaceOnUse" color-interpolation-filters="sRGB">
<feFlood flood-opacity="0" result="BackgroundImageFix"/>
<feGaussianBlur in="BackgroundImageFix" stdDeviation="1.7625"/>
<feComposite in2="SourceAlpha" operator="in" result="effect1_backgroundBlur_18_637"/>
<feBlend mode="normal" in="SourceGraphic" in2="effect1_backgroundBlur_18_637" result="shape"/>
</filter>
<filter id="filter22_b_18_637" x="396.038" y="230.783" width="15.8381" height="11.8347" filterUnits="userSpaceOnUse" color-interpolation-filters="sRGB">
<feFlood flood-opacity="0" result="BackgroundImageFix"/>
<feGaussianBlur in="BackgroundImageFix" stdDeviation="1.7625"/>
<feComposite in2="SourceAlpha" operator="in" result="effect1_backgroundBlur_18_637"/>
<feBlend mode="normal" in="SourceGraphic" in2="effect1_backgroundBlur_18_637" result="shape"/>
</filter>
<filter id="filter23_b_18_637" x="376.488" y="295.111" width="17.9338" height="13.7683" filterUnits="userSpaceOnUse" color-interpolation-filters="sRGB">
<feFlood flood-opacity="0" result="BackgroundImageFix"/>
<feGaussianBlur in="BackgroundImageFix" stdDeviation="1.7625"/>
<feComposite in2="SourceAlpha" operator="in" result="effect1_backgroundBlur_18_637"/>
<feBlend mode="normal" in="SourceGraphic" in2="effect1_backgroundBlur_18_637" result="shape"/>
</filter>
<filter id="filter24_b_18_637" x="318.48" y="194.77" width="119.27" height="162.735" filterUnits="userSpaceOnUse" color-interpolation-filters="sRGB">
<feFlood flood-opacity="0" result="BackgroundImageFix"/>
<feGaussianBlur in="BackgroundImageFix" stdDeviation="1.7625"/>
<feComposite in2="SourceAlpha" operator="in" result="effect1_backgroundBlur_18_637"/>
<feBlend mode="normal" in="SourceGraphic" in2="effect1_backgroundBlur_18_637" result="shape"/>
</filter>
<filter id="filter25_b_18_637" x="318.89" y="274.209" width="94.0646" height="113.699" filterUnits="userSpaceOnUse" color-interpolation-filters="sRGB">
<feFlood flood-opacity="0" result="BackgroundImageFix"/>
<feGaussianBlur in="BackgroundImageFix" stdDeviation="1.7625"/>
<feComposite in2="SourceAlpha" operator="in" result="effect1_backgroundBlur_18_637"/>
<feBlend mode="normal" in="SourceGraphic" in2="effect1_backgroundBlur_18_637" result="shape"/>
</filter>
<filter id="filter26_b_18_637" x="124.745" y="346.643" width="225.502" height="237.449" filterUnits="userSpaceOnUse" color-interpolation-filters="sRGB">
<feFlood flood-opacity="0" result="BackgroundImageFix"/>
<feGaussianBlur in="BackgroundImageFix" stdDeviation="1.7625"/>
<feComposite in2="SourceAlpha" operator="in" result="effect1_backgroundBlur_18_637"/>
<feBlend mode="normal" in="SourceGraphic" in2="effect1_backgroundBlur_18_637" result="shape"/>
</filter>
<filter id="filter27_b_18_637" x="298.126" y="504.09" width="51.7902" height="29.1364" filterUnits="userSpaceOnUse" color-interpolation-filters="sRGB">
<feFlood flood-opacity="0" result="BackgroundImageFix"/>
<feGaussianBlur in="BackgroundImageFix" stdDeviation="1.7625"/>
<feComposite in2="SourceAlpha" operator="in" result="effect1_backgroundBlur_18_637"/>
<feBlend mode="normal" in="SourceGraphic" in2="effect1_backgroundBlur_18_637" result="shape"/>
</filter>
<filter id="filter28_b_18_637" x="290.407" y="495.98" width="51.1779" height="30.0554" filterUnits="userSpaceOnUse" color-interpolation-filters="sRGB">
<feFlood flood-opacity="0" result="BackgroundImageFix"/>
<feGaussianBlur in="BackgroundImageFix" stdDeviation="1.7625"/>
<feComposite in2="SourceAlpha" operator="in" result="effect1_backgroundBlur_18_637"/>
<feBlend mode="normal" in="SourceGraphic" in2="effect1_backgroundBlur_18_637" result="shape"/>
</filter>
<filter id="filter29_b_18_637" x="275.515" y="490.769" width="53.4719" height="35.2668" filterUnits="userSpaceOnUse" color-interpolation-filters="sRGB">
<feFlood flood-opacity="0" result="BackgroundImageFix"/>
<feGaussianBlur in="BackgroundImageFix" stdDeviation="1.7625"/>
<feComposite in2="SourceAlpha" operator="in" result="effect1_backgroundBlur_18_637"/>
<feBlend mode="normal" in="SourceGraphic" in2="effect1_backgroundBlur_18_637" result="shape"/>
</filter>
<filter id="filter30_b_18_637" x="203.663" y="442.69" width="94.7443" height="85.9187" filterUnits="userSpaceOnUse" color-interpolation-filters="sRGB">
<feFlood flood-opacity="0" result="BackgroundImageFix"/>
<feGaussianBlur in="BackgroundImageFix" stdDeviation="1.7625"/>
<feComposite in2="SourceAlpha" operator="in" result="effect1_backgroundBlur_18_637"/>
<feBlend mode="normal" in="SourceGraphic" in2="effect1_backgroundBlur_18_637" result="shape"/>
</filter>
<filter id="filter31_b_18_637" x="213.387" y="375.325" width="38.8293" height="82.7839" filterUnits="userSpaceOnUse" color-interpolation-filters="sRGB">
<feFlood flood-opacity="0" result="BackgroundImageFix"/>
<feGaussianBlur in="BackgroundImageFix" stdDeviation="1.7625"/>
<feComposite in2="SourceAlpha" operator="in" result="effect1_backgroundBlur_18_637"/>
<feBlend mode="normal" in="SourceGraphic" in2="effect1_backgroundBlur_18_637" result="shape"/>
</filter>
<filter id="filter32_b_18_637" x="403.261" y="288.343" width="195.655" height="181.962" filterUnits="userSpaceOnUse" color-interpolation-filters="sRGB">
<feFlood flood-opacity="0" result="BackgroundImageFix"/>
<feGaussianBlur in="BackgroundImageFix" stdDeviation="1.7625"/>
<feComposite in2="SourceAlpha" operator="in" result="effect1_backgroundBlur_18_637"/>
<feBlend mode="normal" in="SourceGraphic" in2="effect1_backgroundBlur_18_637" result="shape"/>
</filter>
<filter id="filter33_b_18_637" x="575.257" y="304.526" width="62.2687" height="20.3034" filterUnits="userSpaceOnUse" color-interpolation-filters="sRGB">
<feFlood flood-opacity="0" result="BackgroundImageFix"/>
<feGaussianBlur in="BackgroundImageFix" stdDeviation="1.7625"/>
<feComposite in2="SourceAlpha" operator="in" result="effect1_backgroundBlur_18_637"/>
<feBlend mode="normal" in="SourceGraphic" in2="effect1_backgroundBlur_18_637" result="shape"/>
</filter>
<filter id="filter34_b_18_637" x="593.549" y="313.424" width="50.1936" height="20.4636" filterUnits="userSpaceOnUse" color-interpolation-filters="sRGB">
<feFlood flood-opacity="0" result="BackgroundImageFix"/>
<feGaussianBlur in="BackgroundImageFix" stdDeviation="1.7625"/>
<feComposite in2="SourceAlpha" operator="in" result="effect1_backgroundBlur_18_637"/>
<feBlend mode="normal" in="SourceGraphic" in2="effect1_backgroundBlur_18_637" result="shape"/>
</filter>
<filter id="filter35_b_18_637" x="599.408" y="321.843" width="49.6232" height="20.6462" filterUnits="userSpaceOnUse" color-interpolation-filters="sRGB">
<feFlood flood-opacity="0" result="BackgroundImageFix"/>
<feGaussianBlur in="BackgroundImageFix" stdDeviation="1.7625"/>
<feComposite in2="SourceAlpha" operator="in" result="effect1_backgroundBlur_18_637"/>
<feBlend mode="normal" in="SourceGraphic" in2="effect1_backgroundBlur_18_637" result="shape"/>
</filter>
<filter id="filter36_b_18_637" x="448.758" y="331.208" width="203.196" height="223.168" filterUnits="userSpaceOnUse" color-interpolation-filters="sRGB">
<feFlood flood-opacity="0" result="BackgroundImageFix"/>
<feGaussianBlur in="BackgroundImageFix" stdDeviation="1.7625"/>
<feComposite in2="SourceAlpha" operator="in" result="effect1_backgroundBlur_18_637"/>
<feBlend mode="normal" in="SourceGraphic" in2="effect1_backgroundBlur_18_637" result="shape"/>
</filter>
<filter id="filter37_b_18_637" x="457.157" y="452.843" width="55.8029" height="67.2004" filterUnits="userSpaceOnUse" color-interpolation-filters="sRGB">
<feFlood flood-opacity="0" result="BackgroundImageFix"/>
<feGaussianBlur in="BackgroundImageFix" stdDeviation="1.7625"/>
<feComposite in2="SourceAlpha" operator="in" result="effect1_backgroundBlur_18_637"/>
<feBlend mode="normal" in="SourceGraphic" in2="effect1_backgroundBlur_18_637" result="shape"/>
</filter>
<filter id="filter38_b_18_637" x="441.472" y="442.862" width="41.465" height="95.9689" filterUnits="userSpaceOnUse" color-interpolation-filters="sRGB">
<feFlood flood-opacity="0" result="BackgroundImageFix"/>
<feGaussianBlur in="BackgroundImageFix" stdDeviation="1.7625"/>
<feComposite in2="SourceAlpha" operator="in" result="effect1_backgroundBlur_18_637"/>
<feBlend mode="normal" in="SourceGraphic" in2="effect1_backgroundBlur_18_637" result="shape"/>
</filter>
<filter id="filter39_b_18_637" x="275.81" y="351.294" width="38.9729" height="162.722" filterUnits="userSpaceOnUse" color-interpolation-filters="sRGB">
<feFlood flood-opacity="0" result="BackgroundImageFix"/>
<feGaussianBlur in="BackgroundImageFix" stdDeviation="1.7625"/>
<feComposite in2="SourceAlpha" operator="in" result="effect1_backgroundBlur_18_637"/>
<feBlend mode="normal" in="SourceGraphic" in2="effect1_backgroundBlur_18_637" result="shape"/>
</filter>
<filter id="filter40_b_18_637" x="311.018" y="349.143" width="127.766" height="136.426" filterUnits="userSpaceOnUse" color-interpolation-filters="sRGB">
<feFlood flood-opacity="0" result="BackgroundImageFix"/>
<feGaussianBlur in="BackgroundImageFix" stdDeviation="1.7625"/>
<feComposite in2="SourceAlpha" operator="in" result="effect1_backgroundBlur_18_637"/>
<feBlend mode="normal" in="SourceGraphic" in2="effect1_backgroundBlur_18_637" result="shape"/>
</filter>
<filter id="filter41_b_18_637" x="436.666" y="356.05" width="21.9377" height="186.307" filterUnits="userSpaceOnUse" color-interpolation-filters="sRGB">
<feFlood flood-opacity="0" result="BackgroundImageFix"/>
<feGaussianBlur in="BackgroundImageFix" stdDeviation="1.7625"/>
<feComposite in2="SourceAlpha" operator="in" result="effect1_backgroundBlur_18_637"/>
<feBlend mode="normal" in="SourceGraphic" in2="effect1_backgroundBlur_18_637" result="shape"/>
</filter>
<filter id="filter42_b_18_637" x="304.702" y="475.699" width="24.0422" height="9.86982" filterUnits="userSpaceOnUse" color-interpolation-filters="sRGB">
<feFlood flood-opacity="0" result="BackgroundImageFix"/>
<feGaussianBlur in="BackgroundImageFix" stdDeviation="1.7625"/>
<feComposite in2="SourceAlpha" operator="in" result="effect1_backgroundBlur_18_637"/>
<feBlend mode="normal" in="SourceGraphic" in2="effect1_backgroundBlur_18_637" result="shape"/>
</filter>
<filter id="filter43_b_18_637" x="427.653" y="475.699" width="24.0402" height="9.86982" filterUnits="userSpaceOnUse" color-interpolation-filters="sRGB">
<feFlood flood-opacity="0" result="BackgroundImageFix"/>
<feGaussianBlur in="BackgroundImageFix" stdDeviation="1.7625"/>
<feComposite in2="SourceAlpha" operator="in" result="effect1_backgroundBlur_18_637"/>
<feBlend mode="normal" in="SourceGraphic" in2="effect1_backgroundBlur_18_637" result="shape"/>
</filter>
<filter id="filter44_b_18_637" x="347.628" y="513.692" width="23.8781" height="35.257" filterUnits="userSpaceOnUse" color-interpolation-filters="sRGB">
<feFlood flood-opacity="0" result="BackgroundImageFix"/>
<feGaussianBlur in="BackgroundImageFix" stdDeviation="1.7625"/>
<feComposite in2="SourceAlpha" operator="in" result="effect1_backgroundBlur_18_637"/>
<feBlend mode="normal" in="SourceGraphic" in2="effect1_backgroundBlur_18_637" result="shape"/>
</filter>
<filter id="filter45_b_18_637" x="272.728" y="442.863" width="12.6564" height="64.173" filterUnits="userSpaceOnUse" color-interpolation-filters="sRGB">
<feFlood flood-opacity="0" result="BackgroundImageFix"/>
<feGaussianBlur in="BackgroundImageFix" stdDeviation="1.7625"/>
<feComposite in2="SourceAlpha" operator="in" result="effect1_backgroundBlur_18_637"/>
<feBlend mode="normal" in="SourceGraphic" in2="effect1_backgroundBlur_18_637" result="shape"/>
</filter>
</defs>
</svg>
