<svg width="699" height="662" viewBox="0 0 699 662" fill="none" xmlns="http://www.w3.org/2000/svg">
<g filter="url(#filter0_b_18_574)">
<path d="M75.4395 149.579L85.5681 486.206H193.143L227.534 485.577C226.673 485.51 208.369 454.198 201.848 406.335C201.716 405.839 201.55 405.342 201.418 404.879C195.99 385.317 192.68 366.913 184.074 348.344C179.274 338.017 172.621 329.477 171.463 320.408C170.999 316.833 173.051 315.509 174.011 311.934C175.567 305.943 177.056 297.8 180.764 292.604C182.452 290.254 185.696 288.731 188.079 286.447C190.098 284.461 191.157 281.681 193.739 279.761C196.883 277.444 199.929 281.482 198.638 284.461C199.531 285.256 191.521 298.76 202.874 306.274C211.381 311.901 215.353 296.807 213.268 292.008C211.216 287.242 205.357 284.097 204.894 278.801C204.728 276.881 205.026 276.583 206.846 276.65C227.6 277.245 237.729 310.908 242.793 326.3C248.42 343.445 253.319 360.26 256.761 378.002C260.899 399.384 264.738 423.614 277.085 442.183C284.929 453.999 294.992 455.323 304.955 453.735C328.125 450.094 353.281 420.999 366.388 401.734C371.42 394.353 378.768 386.74 387.937 380.153C397.205 373.5 405.314 365.655 405.314 365.655C405.314 365.655 396.642 346.49 395.483 341.095C384.461 338.944 374.763 336.031 370.625 324.28C366.554 312.695 366.984 296.51 371.486 284.858C369.367 284.163 367.679 282.972 365.561 282.243C361.655 280.953 363.31 274.002 367.415 273.803C374.399 273.472 374.366 273.207 375.458 266.455C376.054 262.88 376.352 259.272 376.914 255.697C378.271 247.157 381.614 234.05 386.215 226.602C391.776 217.632 397.9 216.408 408.326 220.214C420.706 224.749 430.801 236.963 439.01 246.694C447.748 257.054 456.222 267.779 461.22 280.522C468.37 298.694 466.814 320.143 475.983 337.421C481.742 348.278 490.712 348.311 500.344 350.132L499.02 150.803L75.4395 149.579Z" fill="#FFCB56"/>
</g>
<g filter="url(#filter1_b_18_574)">
<path d="M97.683 461.91L96.2266 479.718L219.359 475.216L214.625 464.161L107.812 461.91H97.683Z" fill="#F674B4"/>
</g>
<g filter="url(#filter2_b_18_574)">
<path d="M310.515 171.358C309.489 169.803 306.941 171.259 308 172.848C310.548 176.688 313.13 180.527 315.679 184.367C316.705 185.922 319.254 184.466 318.195 182.877C315.646 179.038 313.064 175.198 310.515 171.358Z" fill="white"/>
</g>
<g filter="url(#filter3_b_18_574)">
<path d="M248.287 106.979C246.798 108.104 248.254 110.653 249.777 109.494C253.186 106.913 256.595 104.331 259.971 101.749C261.461 100.624 260.004 98.1081 258.482 99.2335C255.073 101.815 251.663 104.397 248.287 106.979Z" fill="#F674B4"/>
</g>
<g filter="url(#filter4_b_18_574)">
<path d="M107.812 463.366C107.017 463.366 106.388 462.738 106.355 461.943L96.2266 125.316C96.2266 124.919 96.359 124.522 96.6569 124.257C96.9217 123.959 97.3189 123.827 97.7161 123.827L521.297 125.051C522.091 125.051 522.753 125.713 522.753 126.508V356.818C522.753 357.612 522.091 358.274 521.297 358.274C520.502 358.274 519.84 357.612 519.84 356.818V127.931L99.2387 126.706L109.235 460.421H215.42C216.214 460.421 216.876 461.083 216.876 461.877C216.876 462.671 216.214 463.366 215.387 463.366H107.812Z" fill="#000200"/>
</g>
<g filter="url(#filter5_b_18_574)">
<path d="M262.985 311.14H319.553L316.541 257.882H257.226L262.985 311.14Z" fill="white"/>
</g>
<g filter="url(#filter6_b_18_574)">
<path d="M319.553 312.596H262.985C262.243 312.596 261.631 312.053 261.529 311.305L255.736 258.047C255.703 257.643 255.842 257.212 256.1 256.922C256.381 256.606 256.779 256.425 257.193 256.425H316.508C316.88 256.425 317.236 256.566 317.509 256.823C317.787 257.083 317.949 257.436 317.964 257.816L320.976 311.073C321.008 311.448 320.863 311.846 320.579 312.166C320.347 312.431 319.954 312.596 319.553 312.596ZM258.848 259.371L264.309 309.683H317.997L315.151 259.371L258.848 259.371Z" fill="#000200"/>
</g>
<g filter="url(#filter7_b_18_574)">
<path d="M285.658 297.867L277.35 288.93C276.788 288.334 276.821 287.407 277.417 286.877C278.012 286.315 278.939 286.348 279.469 286.944L286.287 294.292L296.946 271.784C297.277 271.056 298.17 270.758 298.898 271.089C299.627 271.42 299.925 272.313 299.594 273.042L288.009 297.502C287.81 297.933 287.38 298.264 286.916 298.33C286.883 298.33 286.817 298.33 286.718 298.33C286.32 298.33 285.923 298.164 285.658 297.867Z" fill="#000200"/>
</g>
<g filter="url(#filter8_b_18_574)">
<path d="M420.971 195.522H477.87L474.891 146.169H417.826L420.971 195.522Z" fill="white"/>
</g>
<g filter="url(#filter9_b_18_574)">
<path d="M477.869 196.978H420.97C420.2 196.978 419.547 196.369 419.514 195.621L416.369 146.269C416.338 145.893 416.483 145.495 416.767 145.176C417.025 144.886 417.421 144.713 417.826 144.713H474.89C475.661 144.713 476.314 145.322 476.347 146.07L479.326 195.422C479.357 195.797 479.212 196.195 478.928 196.514C478.625 196.817 478.259 196.978 477.869 196.978ZM419.348 147.626L422.327 194.065H476.28L473.467 147.626H419.348Z" fill="#000200"/>
</g>
<g filter="url(#filter10_b_18_574)">
<path d="M458.605 184.797L435.071 163.448C434.475 162.918 434.442 161.991 434.971 161.396C435.501 160.8 436.428 160.767 437.024 161.296L460.558 182.646C461.154 183.175 461.187 184.102 460.657 184.698C460.392 184.996 459.995 185.161 459.598 185.161C459.234 185.161 458.903 185.029 458.605 184.797Z" fill="#000200"/>
</g>
<g filter="url(#filter11_b_18_574)">
<path d="M435.071 184.797C434.475 184.267 434.409 183.34 434.972 182.744L458.506 156.529C459.036 155.933 459.962 155.867 460.558 156.43C461.154 156.96 461.22 157.886 460.658 158.482L437.123 184.697C436.859 184.995 436.461 185.161 436.064 185.161C435.7 185.161 435.369 185.028 435.071 184.797Z" fill="#000200"/>
</g>
<g filter="url(#filter12_b_18_574)">
<path d="M129.161 355.692L134.225 426.03L204.199 426.427L200.955 400.94L188.311 355.692H129.161Z" fill="white"/>
</g>
<g filter="url(#filter13_b_18_574)">
<path d="M159.647 385.549C158.852 385.549 158.19 384.887 158.19 384.092C158.19 383.298 158.852 382.636 159.647 382.636H183.413C184.207 382.636 184.869 383.298 184.869 384.092C184.869 384.887 184.207 385.549 183.413 385.549H159.647Z" fill="#000200"/>
</g>
<g filter="url(#filter14_b_18_574)">
<path d="M160.043 401.801C159.249 401.801 158.587 401.139 158.587 400.344C158.587 399.55 159.249 398.888 160.043 398.888H186.06C186.854 398.888 187.516 399.55 187.516 400.344C187.516 401.139 186.887 401.801 186.06 401.801H160.043Z" fill="#000200"/>
</g>
<g filter="url(#filter15_b_18_574)">
<path d="M126.281 219.949H188.311V156.298L121.912 153.187L126.281 219.949Z" fill="white"/>
</g>
<g filter="url(#filter16_b_18_574)">
<path d="M188.31 221.406H126.281C125.511 221.406 124.857 220.797 124.825 220.048L120.455 153.286C120.423 152.869 120.576 152.47 120.886 152.16C121.184 151.862 121.494 151.717 121.835 151.717C121.893 151.717 121.952 151.722 122.011 151.73L188.41 154.808C189.202 154.841 189.8 155.467 189.8 156.265V219.916C189.784 220.316 189.621 220.691 189.341 220.971C189.06 221.251 188.695 221.406 188.31 221.406ZM123.5 154.742L127.638 218.493H186.854L186.854 157.688L123.5 154.742Z" fill="#000200"/>
</g>
<g filter="url(#filter17_b_18_574)">
<path d="M154.449 193.171L136.443 184.234C135.98 184.003 135.682 183.539 135.649 183.043C135.616 182.513 135.847 182.017 136.278 181.719L154.284 169.373C154.946 168.909 155.873 169.075 156.303 169.737C156.766 170.399 156.601 171.325 155.939 171.756L139.985 182.679L155.74 190.523C156.469 190.887 156.766 191.748 156.402 192.476C156.171 193.039 155.641 193.337 155.111 193.337C154.88 193.337 154.681 193.304 154.449 193.171Z" fill="#000200"/>
</g>
<g filter="url(#filter18_b_18_574)">
<path d="M158.918 194.826C158.223 194.429 157.958 193.535 158.388 192.84L172.456 168.148C172.853 167.453 173.747 167.221 174.442 167.618C175.137 168.015 175.402 168.909 174.971 169.604L160.904 194.297C160.639 194.76 160.142 195.025 159.646 195.025C159.414 195.025 159.149 194.959 158.918 194.826Z" fill="#000200"/>
</g>
<g filter="url(#filter19_b_18_574)">
<path d="M318.129 400.675L296.912 311.901C296.713 311.107 297.21 310.312 298.004 310.147C298.799 309.948 299.593 310.445 299.759 311.239L320.976 400.013C321.174 400.808 320.678 401.602 319.883 401.768C319.784 401.801 319.652 401.801 319.552 401.801C318.89 401.801 318.295 401.337 318.129 400.675Z" fill="#000200"/>
</g>
<g filter="url(#filter20_b_18_574)">
<path d="M285.691 259.074L203.835 204.061L153.291 210.979C152.464 211.079 151.769 210.516 151.636 209.721C151.537 208.927 152.1 208.199 152.894 208.066L203.967 201.049C204.332 201.016 204.696 201.082 204.994 201.281L286.221 255.929L368.872 159.244C369.302 158.747 369.997 158.582 370.593 158.88L400.581 172.914C401.31 173.245 401.641 174.139 401.277 174.867C400.946 175.595 400.085 175.926 399.324 175.562L370.361 162.024L287.611 258.842C287.346 259.173 286.916 259.338 286.519 259.338C286.254 259.338 285.956 259.272 285.691 259.074Z" fill="#000200"/>
</g>
<g filter="url(#filter21_b_18_574)">
<path d="M204.199 209.556C200.359 209.556 197.248 206.313 197.248 202.473C197.248 198.633 200.359 195.522 204.199 195.522C208.039 195.522 211.15 198.633 211.15 202.473C211.15 206.313 209.661 209.556 204.199 209.556Z" fill="#000200"/>
</g>
<g filter="url(#filter22_b_18_574)">
<path d="M369.997 167.221C366.157 167.221 363.046 163.977 363.046 160.138C363.046 156.298 366.157 153.187 369.997 153.187C373.836 153.187 376.948 156.298 376.948 160.138C376.948 163.977 375.458 167.221 369.997 167.221Z" fill="#FF3857"/>
</g>
<g filter="url(#filter23_b_18_574)">
<path d="M399.985 181.256C396.146 181.256 393.034 178.012 393.034 174.172C393.034 170.333 396.146 167.221 399.985 167.221C403.825 167.221 406.936 170.333 406.936 174.172C406.936 178.012 405.447 181.256 399.985 181.256Z" fill="#7BAEED"/>
</g>
<g filter="url(#filter24_b_18_574)">
<path d="M319.553 414.379C315.713 414.379 312.602 411.135 312.602 407.296C312.602 403.456 315.713 400.345 319.553 400.345C323.392 400.345 326.504 403.456 326.504 407.296C326.504 411.135 325.014 414.379 319.553 414.379Z" fill="#7BAEED"/>
</g>
<g filter="url(#filter25_b_18_574)">
<path d="M286.518 264.899C282.679 264.899 279.567 261.655 279.567 257.816C279.567 253.976 282.679 250.865 286.518 250.865C290.358 250.865 293.469 253.976 293.469 257.816C293.469 261.655 291.98 264.899 286.518 264.899Z" fill="#FF3857"/>
</g>
<g filter="url(#filter26_b_18_574)">
<path d="M153.093 216.54C149.253 216.54 146.142 213.296 146.142 209.457C146.142 205.617 149.253 202.506 153.093 202.506C156.932 202.506 160.044 205.65 160.044 209.457C160.044 213.296 158.554 216.54 153.093 216.54Z" fill="#FF3857"/>
</g>
<g filter="url(#filter27_b_18_574)">
<path d="M201.551 273.869C200.756 273.836 200.127 273.174 200.16 272.347L202.742 202.473C202.775 201.678 203.437 201.082 204.265 201.049C205.059 201.082 205.688 201.744 205.655 202.572L203.073 272.446C203.04 273.24 202.411 273.869 201.617 273.869C201.584 273.869 201.584 273.869 201.551 273.869Z" fill="#000200"/>
</g>
<g filter="url(#filter28_b_18_574)">
<path d="M201.617 286.414C197.777 286.414 194.666 283.17 194.666 279.331C194.666 275.491 197.777 272.38 201.617 272.38C205.457 272.413 208.568 275.524 208.568 279.331C208.568 283.17 207.079 286.414 201.617 286.414Z" fill="#FF3857"/>
</g>
<g filter="url(#filter29_b_18_574)">
<path d="M386.347 296.94C384.626 296.179 383.269 298.727 384.99 299.522C388.631 301.177 392.206 299.125 394.424 296.146C395.549 294.656 393.431 292.637 392.305 294.16C390.981 295.914 388.731 298.032 386.347 296.94Z" fill="#000200"/>
</g>
<g filter="url(#filter30_b_18_574)">
<path d="M370.691 286.381C366.753 285.62 363.641 283.733 362.284 281.35C361.457 279.86 361.324 278.205 361.953 276.584C363.774 271.751 372.512 272.347 373.472 272.446C374.266 272.512 374.862 273.207 374.796 274.035C374.73 274.829 374.001 275.425 373.207 275.359C370.791 275.16 365.495 275.425 364.667 277.61C364.369 278.437 364.402 279.198 364.833 279.927C365.726 281.515 368.242 282.906 371.221 283.501C372.015 283.667 372.545 284.428 372.38 285.223C372.28 285.951 371.684 286.414 370.989 286.414C370.89 286.414 370.791 286.414 370.691 286.381Z" fill="#000200"/>
</g>
<g filter="url(#filter31_b_18_574)">
<path d="M390.916 264.171C390.188 267.878 384.462 266.752 385.19 263.045L385.753 260.166C386.448 256.458 392.174 257.584 391.479 261.291L390.916 264.171Z" fill="#000200"/>
</g>
<g filter="url(#filter32_b_18_574)">
<path d="M393.994 245.966C395.715 246.694 394.921 249.507 393.2 248.779C391.313 247.985 389.625 246.793 387.804 245.866C386.116 245.006 387.639 242.49 389.294 243.351C390.883 244.178 392.339 245.27 393.994 245.966Z" fill="#000200"/>
</g>
<g filter="url(#filter33_b_18_574)">
<path d="M411.041 340.632C410.743 340.367 410.379 340.235 409.982 340.202C409.75 340.235 387.441 340.864 376.981 331.728C368.474 324.314 367.349 312.596 372.479 285.223C372.612 284.428 372.115 283.667 371.321 283.502C370.526 283.336 369.765 283.866 369.6 284.66C364.966 309.452 364.469 324.645 375.061 333.913C379.927 338.15 386.911 340.467 393.365 341.691L399.224 356.024C399.257 356.156 399.323 356.288 399.39 356.388L403.957 367.509C404.785 366.914 405.579 366.351 406.407 365.788L402.633 356.586C409.452 354.137 411.405 345.961 411.471 341.691C411.471 341.294 411.306 340.897 411.041 340.632Z" fill="#000200"/>
</g>
<g filter="url(#filter34_b_18_574)">
<path d="M474.427 251.891C473.07 241.497 468.237 231.236 456.222 223.987C449.668 219.353 440.698 215.944 429.113 213.693C400.845 208.133 384.064 216.772 379.264 239.346C378.106 244.741 377.08 249.508 376.12 253.943C374.597 260.894 373.24 267.051 371.916 273.704C371.751 274.498 372.28 275.259 373.075 275.425C373.869 275.59 374.63 275.061 374.796 274.266C376.12 267.646 377.477 261.49 378.966 254.572C379.926 250.136 380.985 245.37 382.144 239.975C383.998 231.303 387.672 224.914 393.232 220.777C394.358 241.1 416.369 264.965 418.852 267.944C419.381 268.573 420.11 269.566 420.904 269.665C429.477 270.89 435.303 273.373 437.752 276.848C438.944 278.536 439.341 280.39 438.944 282.442C438.712 283.667 437.917 285.984 435.369 287.639C432.721 289.36 428.914 289.757 424.38 288.83C424.346 288.797 424.28 288.797 424.247 288.764C424.115 288.731 423.982 288.698 423.85 288.698C423.751 288.665 423.651 288.665 423.519 288.632C422.758 288.433 421.963 288.93 421.765 289.724C421.632 290.254 421.831 290.816 422.228 291.147C420.639 302.137 422.063 314.086 430.867 321.831C436.262 326.564 444.008 328.583 450.76 326.432C448.907 350.562 456.288 371.68 479.226 371.051C512.558 370.058 491.606 320.871 494.287 296.874C496.769 274.664 496.968 250.666 474.427 251.891Z" fill="#000200"/>
</g>
<g filter="url(#filter35_b_18_574)">
<path d="M382.806 543.733L371.983 502.425C371.784 501.63 372.247 500.836 373.009 500.637C373.803 500.439 374.597 500.902 374.796 501.663L385.62 542.972C385.818 543.767 385.355 544.561 384.594 544.76C384.461 544.826 384.329 544.826 384.23 544.826C383.568 544.826 383.005 544.395 382.806 543.733Z" fill="#000200"/>
</g>
<g filter="url(#filter36_b_18_574)">
<path d="M381.78 534.068L373.373 503.981L398.099 479.718C399.787 497.361 381.78 534.068 381.78 534.068Z" fill="#000200"/>
</g>
<g filter="url(#filter37_b_18_574)">
<path d="M539.038 534.465L505.872 414.743C505.641 413.948 506.104 413.154 506.898 412.955C507.66 412.724 508.487 413.187 508.686 413.981L541.885 533.671C542.117 534.465 541.653 535.26 540.859 535.458C540.727 535.525 540.594 535.525 540.462 535.525C539.833 535.525 539.237 535.094 539.038 534.465Z" fill="#000200"/>
</g>
<g filter="url(#filter38_b_18_574)">
<path d="M538.344 526.488C538.079 525.727 538.476 524.9 539.237 524.635C540.032 524.37 617.982 496.169 615.963 446.122C615.069 424.573 602.127 404.68 577.435 387.005C576.64 386.409 575.846 385.88 575.051 385.317C546.916 365.887 511.864 354.534 493.46 349.47C492.666 349.271 492.235 348.443 492.434 347.682C492.632 346.888 493.46 346.457 494.221 346.656C512.79 351.753 548.207 363.272 576.673 382.901C577.501 383.463 578.328 384.026 579.123 384.622C604.577 402.827 617.949 423.481 618.876 445.956C620.994 498.188 543.507 526.19 540.23 527.349C540.065 527.415 539.899 527.448 539.734 527.448C539.138 527.448 538.575 527.084 538.344 526.488Z" fill="#000200"/>
</g>
<g filter="url(#filter39_b_18_574)">
<path d="M522.456 474.488C522.29 473.694 522.82 472.933 523.614 472.767C537.417 470.152 546.221 464.492 548.439 456.879C550.094 451.153 547.711 444.798 541.918 439.402C541.256 438.807 540.561 438.178 539.8 437.615C532.948 432.253 523.184 428.81 512.294 427.884C511.499 427.817 510.904 427.122 510.97 426.295C511.036 425.5 511.731 424.905 512.559 424.971C524.011 425.964 534.305 429.605 541.587 435.298C542.415 435.927 543.176 436.589 543.937 437.284C550.557 443.474 553.239 450.921 551.286 457.707C548.77 466.445 539.138 472.833 524.21 475.68C524.044 475.68 523.945 475.68 523.879 475.68C523.184 475.68 522.588 475.184 522.456 474.488Z" fill="#000200"/>
</g>
<g filter="url(#filter40_b_18_574)">
<path d="M542.911 438.343C542.216 437.714 541.488 437.052 540.66 436.456C555.621 421.296 567.537 403.521 575.879 384.092C576.673 384.654 577.5 385.184 578.295 385.78C569.887 405.309 557.905 423.15 542.911 438.343Z" fill="#000200"/>
</g>
<g filter="url(#filter41_b_18_574)">
<path d="M521.264 427.486L509.249 426.063L506.898 412.955C519.476 412.955 521.264 427.486 521.264 427.486Z" fill="#000200"/>
</g>
<g filter="url(#filter42_b_18_574)">
<path d="M288.67 453.933C276.886 448.902 268.082 434.801 262.521 412.029C258.549 395.81 255.305 381.179 252.426 368.303C244.415 332.224 239.119 308.392 228.13 294.557C217.968 281.78 210.72 277.874 207.31 278.47C206.417 278.636 205.788 279.099 205.523 279.926C204.795 282.078 206.45 283.501 209.429 285.884C212.275 288.135 215.486 290.651 215.519 294.821C215.585 306.274 209.296 308.061 207.376 308.359C202.577 309.021 197.546 305.546 196.122 300.581C193.905 292.935 195.593 288.102 196.718 284.891C197.711 282.078 197.777 281.515 196.619 280.622C196.189 280.291 195.825 280.257 195.295 280.456C192.184 281.78 188.245 290.585 187.715 294.987C187.053 300.482 187.152 306.969 197.049 314.384C197.678 314.88 197.844 315.774 197.347 316.436C196.851 317.065 195.957 317.23 195.295 316.734C184.67 308.757 184.008 301.11 184.802 294.656C185.332 289.989 189.403 279.794 194.136 277.775C195.626 277.146 197.115 277.345 198.373 278.305C201.319 280.555 200.359 283.27 199.432 285.851C198.373 288.863 196.917 292.968 198.87 299.753C199.896 303.295 203.57 305.877 206.913 305.447C210.521 304.917 212.573 301.044 212.54 294.821C212.54 292.074 210.124 290.187 207.575 288.168C204.629 285.851 201.253 283.203 202.709 278.967C203.338 277.146 204.795 275.921 206.748 275.59C210.024 275.028 217.406 276.517 230.348 292.736C241.767 307.102 247.13 331.198 255.206 367.641C258.086 380.517 261.329 395.114 265.301 411.333C270.631 433.179 278.872 446.585 289.762 451.252C298.104 454.827 308.265 453.238 319.95 446.486C320.876 445.956 321.77 445.426 322.697 444.798C326.536 442.381 330.542 439.435 334.679 435.993C341.696 430.134 348.614 421.495 355.929 412.36C376.451 386.707 402.004 354.799 452.813 350.032C453.64 349.999 454.336 350.562 454.402 351.356C454.468 352.151 453.872 352.879 453.078 352.945C403.494 357.612 378.371 388.991 358.18 414.18C350.766 423.448 343.748 432.22 336.533 438.244C332.296 441.752 328.191 444.798 324.253 447.247C323.293 447.876 322.333 448.472 321.373 449.001C313.363 453.668 305.915 456.018 299.13 456.018C295.422 456.018 291.947 455.323 288.67 453.933Z" fill="#000200"/>
</g>
<g filter="url(#filter43_b_18_574)">
<path d="M184.836 318.72C177.852 308.492 175.436 299.522 178.084 293.431C179.639 289.823 182.85 287.473 187.385 286.613C187.616 286.58 187.848 286.513 188.08 286.48C188.874 286.348 189.636 286.911 189.735 287.705C189.867 288.499 189.305 289.261 188.51 289.36C184.637 289.956 181.956 291.776 180.732 294.59C178.547 299.621 180.93 307.83 187.219 317.065C187.683 317.727 187.517 318.653 186.822 319.084C186.623 319.282 186.359 319.349 186.061 319.349C185.597 319.349 185.134 319.117 184.836 318.72Z" fill="#000200"/>
</g>
<g filter="url(#filter44_b_18_574)">
<path d="M179.54 325.24C173.714 316.37 170.04 304.255 177.289 296.808C177.852 296.245 178.779 296.212 179.341 296.774C179.904 297.337 179.937 298.264 179.375 298.827C173.317 305.049 176.76 315.708 181.956 323.619C182.387 324.281 182.221 325.207 181.526 325.638C181.327 325.836 181.03 325.902 180.765 325.902C180.301 325.902 179.838 325.671 179.54 325.24Z" fill="#000200"/>
</g>
<g filter="url(#filter45_b_18_574)">
<path d="M202.544 420.767C197.281 387.7 188.112 358.605 175.27 334.276C167.756 320.01 168.186 317.197 173.548 310.246C174.045 309.617 174.972 309.484 175.601 309.981C176.229 310.477 176.362 311.404 175.865 312.033C171.529 317.627 170.503 318.984 177.851 332.919C190.86 357.513 200.128 386.905 205.424 420.303C214.162 475.183 247.03 532.181 298.534 527.713C318.262 526.025 336.897 520.762 353.943 512.089C354.903 511.626 355.83 511.163 356.724 510.666C386.183 494.944 400.714 474.124 400.846 473.892C401.31 473.23 402.203 473.065 402.865 473.528C403.527 473.991 403.693 474.885 403.229 475.547C403.097 475.746 388.202 497.161 358.081 513.248C357.154 513.744 356.227 514.241 355.234 514.704C337.89 523.509 318.891 528.871 298.799 530.592C296.78 530.791 294.794 530.89 292.841 530.89C242.893 530.89 211.117 474.819 202.544 420.767Z" fill="#000200"/>
</g>
<g filter="url(#filter46_b_18_574)">
<path d="M354.572 513.381C346.695 506.662 339.909 498.651 334.481 489.681C327.662 478.361 321.539 462.705 320.744 447.71C321.671 447.181 322.631 446.618 323.591 445.989C323.955 461.612 330.74 478.295 338.122 489.979C343.418 498.32 349.938 505.735 357.386 511.958C356.492 512.454 355.532 512.917 354.572 513.381Z" fill="#000200"/>
</g>
<defs>
<filter id="filter0_b_18_574" x="72.1295" y="146.269" width="431.524" height="343.247" filterUnits="userSpaceOnUse" color-interpolation-filters="sRGB">
<feFlood flood-opacity="0" result="BackgroundImageFix"/>
<feGaussianBlur in="BackgroundImageFix" stdDeviation="1.655"/>
<feComposite in2="SourceAlpha" operator="in" result="effect1_backgroundBlur_18_574"/>
<feBlend mode="normal" in="SourceGraphic" in2="effect1_backgroundBlur_18_574" result="shape"/>
</filter>
<filter id="filter1_b_18_574" x="92.9166" y="458.6" width="129.752" height="24.4276" filterUnits="userSpaceOnUse" color-interpolation-filters="sRGB">
<feFlood flood-opacity="0" result="BackgroundImageFix"/>
<feGaussianBlur in="BackgroundImageFix" stdDeviation="1.655"/>
<feComposite in2="SourceAlpha" operator="in" result="effect1_backgroundBlur_18_574"/>
<feBlend mode="normal" in="SourceGraphic" in2="effect1_backgroundBlur_18_574" result="shape"/>
</filter>
<filter id="filter2_b_18_574" x="304.437" y="167.384" width="17.3202" height="20.9574" filterUnits="userSpaceOnUse" color-interpolation-filters="sRGB">
<feFlood flood-opacity="0" result="BackgroundImageFix"/>
<feGaussianBlur in="BackgroundImageFix" stdDeviation="1.655"/>
<feComposite in2="SourceAlpha" operator="in" result="effect1_backgroundBlur_18_574"/>
<feBlend mode="normal" in="SourceGraphic" in2="effect1_backgroundBlur_18_574" result="shape"/>
</filter>
<filter id="filter3_b_18_574" x="244.354" y="95.6402" width="19.5507" height="17.4594" filterUnits="userSpaceOnUse" color-interpolation-filters="sRGB">
<feFlood flood-opacity="0" result="BackgroundImageFix"/>
<feGaussianBlur in="BackgroundImageFix" stdDeviation="1.655"/>
<feComposite in2="SourceAlpha" operator="in" result="effect1_backgroundBlur_18_574"/>
<feBlend mode="normal" in="SourceGraphic" in2="effect1_backgroundBlur_18_574" result="shape"/>
</filter>
<filter id="filter4_b_18_574" x="92.9166" y="120.517" width="433.146" height="346.16" filterUnits="userSpaceOnUse" color-interpolation-filters="sRGB">
<feFlood flood-opacity="0" result="BackgroundImageFix"/>
<feGaussianBlur in="BackgroundImageFix" stdDeviation="1.655"/>
<feComposite in2="SourceAlpha" operator="in" result="effect1_backgroundBlur_18_574"/>
<feBlend mode="normal" in="SourceGraphic" in2="effect1_backgroundBlur_18_574" result="shape"/>
</filter>
<filter id="filter5_b_18_574" x="253.916" y="254.572" width="68.9471" height="59.8778" filterUnits="userSpaceOnUse" color-interpolation-filters="sRGB">
<feFlood flood-opacity="0" result="BackgroundImageFix"/>
<feGaussianBlur in="BackgroundImageFix" stdDeviation="1.655"/>
<feComposite in2="SourceAlpha" operator="in" result="effect1_backgroundBlur_18_574"/>
<feBlend mode="normal" in="SourceGraphic" in2="effect1_backgroundBlur_18_574" result="shape"/>
</filter>
<filter id="filter6_b_18_574" x="252.421" y="253.115" width="71.869" height="62.7909" filterUnits="userSpaceOnUse" color-interpolation-filters="sRGB">
<feFlood flood-opacity="0" result="BackgroundImageFix"/>
<feGaussianBlur in="BackgroundImageFix" stdDeviation="1.655"/>
<feComposite in2="SourceAlpha" operator="in" result="effect1_backgroundBlur_18_574"/>
<feBlend mode="normal" in="SourceGraphic" in2="effect1_backgroundBlur_18_574" result="shape"/>
</filter>
<filter id="filter7_b_18_574" x="273.638" y="267.644" width="29.4003" height="33.996" filterUnits="userSpaceOnUse" color-interpolation-filters="sRGB">
<feFlood flood-opacity="0" result="BackgroundImageFix"/>
<feGaussianBlur in="BackgroundImageFix" stdDeviation="1.655"/>
<feComposite in2="SourceAlpha" operator="in" result="effect1_backgroundBlur_18_574"/>
<feBlend mode="normal" in="SourceGraphic" in2="effect1_backgroundBlur_18_574" result="shape"/>
</filter>
<filter id="filter8_b_18_574" x="414.516" y="142.859" width="66.663" height="55.9721" filterUnits="userSpaceOnUse" color-interpolation-filters="sRGB">
<feFlood flood-opacity="0" result="BackgroundImageFix"/>
<feGaussianBlur in="BackgroundImageFix" stdDeviation="1.655"/>
<feComposite in2="SourceAlpha" operator="in" result="effect1_backgroundBlur_18_574"/>
<feBlend mode="normal" in="SourceGraphic" in2="effect1_backgroundBlur_18_574" result="shape"/>
</filter>
<filter id="filter9_b_18_574" x="413.055" y="141.403" width="69.5848" height="58.8846" filterUnits="userSpaceOnUse" color-interpolation-filters="sRGB">
<feFlood flood-opacity="0" result="BackgroundImageFix"/>
<feGaussianBlur in="BackgroundImageFix" stdDeviation="1.655"/>
<feComposite in2="SourceAlpha" operator="in" result="effect1_backgroundBlur_18_574"/>
<feBlend mode="normal" in="SourceGraphic" in2="effect1_backgroundBlur_18_574" result="shape"/>
</filter>
<filter id="filter10_b_18_574" x="431.288" y="157.612" width="33.0536" height="30.8588" filterUnits="userSpaceOnUse" color-interpolation-filters="sRGB">
<feFlood flood-opacity="0" result="BackgroundImageFix"/>
<feGaussianBlur in="BackgroundImageFix" stdDeviation="1.655"/>
<feComposite in2="SourceAlpha" operator="in" result="effect1_backgroundBlur_18_574"/>
<feBlend mode="normal" in="SourceGraphic" in2="effect1_backgroundBlur_18_574" result="shape"/>
</filter>
<filter id="filter11_b_18_574" x="431.275" y="152.733" width="33.08" height="35.7377" filterUnits="userSpaceOnUse" color-interpolation-filters="sRGB">
<feFlood flood-opacity="0" result="BackgroundImageFix"/>
<feGaussianBlur in="BackgroundImageFix" stdDeviation="1.655"/>
<feComposite in2="SourceAlpha" operator="in" result="effect1_backgroundBlur_18_574"/>
<feBlend mode="normal" in="SourceGraphic" in2="effect1_backgroundBlur_18_574" result="shape"/>
</filter>
<filter id="filter12_b_18_574" x="125.851" y="352.382" width="81.6581" height="77.3549" filterUnits="userSpaceOnUse" color-interpolation-filters="sRGB">
<feFlood flood-opacity="0" result="BackgroundImageFix"/>
<feGaussianBlur in="BackgroundImageFix" stdDeviation="1.655"/>
<feComposite in2="SourceAlpha" operator="in" result="effect1_backgroundBlur_18_574"/>
<feBlend mode="normal" in="SourceGraphic" in2="effect1_backgroundBlur_18_574" result="shape"/>
</filter>
<filter id="filter13_b_18_574" x="154.88" y="379.326" width="33.2987" height="9.5326" filterUnits="userSpaceOnUse" color-interpolation-filters="sRGB">
<feFlood flood-opacity="0" result="BackgroundImageFix"/>
<feGaussianBlur in="BackgroundImageFix" stdDeviation="1.655"/>
<feComposite in2="SourceAlpha" operator="in" result="effect1_backgroundBlur_18_574"/>
<feBlend mode="normal" in="SourceGraphic" in2="effect1_backgroundBlur_18_574" result="shape"/>
</filter>
<filter id="filter14_b_18_574" x="155.277" y="395.578" width="35.5497" height="9.5326" filterUnits="userSpaceOnUse" color-interpolation-filters="sRGB">
<feFlood flood-opacity="0" result="BackgroundImageFix"/>
<feGaussianBlur in="BackgroundImageFix" stdDeviation="1.655"/>
<feComposite in2="SourceAlpha" operator="in" result="effect1_backgroundBlur_18_574"/>
<feBlend mode="normal" in="SourceGraphic" in2="effect1_backgroundBlur_18_574" result="shape"/>
</filter>
<filter id="filter15_b_18_574" x="118.602" y="149.877" width="73.0184" height="73.3827" filterUnits="userSpaceOnUse" color-interpolation-filters="sRGB">
<feFlood flood-opacity="0" result="BackgroundImageFix"/>
<feGaussianBlur in="BackgroundImageFix" stdDeviation="1.655"/>
<feComposite in2="SourceAlpha" operator="in" result="effect1_backgroundBlur_18_574"/>
<feBlend mode="normal" in="SourceGraphic" in2="effect1_backgroundBlur_18_574" result="shape"/>
</filter>
<filter id="filter16_b_18_574" x="117.141" y="148.407" width="75.9686" height="76.3085" filterUnits="userSpaceOnUse" color-interpolation-filters="sRGB">
<feFlood flood-opacity="0" result="BackgroundImageFix"/>
<feGaussianBlur in="BackgroundImageFix" stdDeviation="1.655"/>
<feComposite in2="SourceAlpha" operator="in" result="effect1_backgroundBlur_18_574"/>
<feBlend mode="normal" in="SourceGraphic" in2="effect1_backgroundBlur_18_574" result="shape"/>
</filter>
<filter id="filter17_b_18_574" x="132.336" y="165.799" width="27.5409" height="30.8475" filterUnits="userSpaceOnUse" color-interpolation-filters="sRGB">
<feFlood flood-opacity="0" result="BackgroundImageFix"/>
<feGaussianBlur in="BackgroundImageFix" stdDeviation="1.655"/>
<feComposite in2="SourceAlpha" operator="in" result="effect1_backgroundBlur_18_574"/>
<feBlend mode="normal" in="SourceGraphic" in2="effect1_backgroundBlur_18_574" result="shape"/>
</filter>
<filter id="filter18_b_18_574" x="154.87" y="164.114" width="23.62" height="34.2206" filterUnits="userSpaceOnUse" color-interpolation-filters="sRGB">
<feFlood flood-opacity="0" result="BackgroundImageFix"/>
<feGaussianBlur in="BackgroundImageFix" stdDeviation="1.655"/>
<feComposite in2="SourceAlpha" operator="in" result="effect1_backgroundBlur_18_574"/>
<feBlend mode="normal" in="SourceGraphic" in2="effect1_backgroundBlur_18_574" result="shape"/>
</filter>
<filter id="filter19_b_18_574" x="293.558" y="306.793" width="30.7714" height="98.3178" filterUnits="userSpaceOnUse" color-interpolation-filters="sRGB">
<feFlood flood-opacity="0" result="BackgroundImageFix"/>
<feGaussianBlur in="BackgroundImageFix" stdDeviation="1.655"/>
<feComposite in2="SourceAlpha" operator="in" result="effect1_backgroundBlur_18_574"/>
<feBlend mode="normal" in="SourceGraphic" in2="effect1_backgroundBlur_18_574" result="shape"/>
</filter>
<filter id="filter20_b_18_574" x="148.315" y="155.421" width="256.421" height="107.227" filterUnits="userSpaceOnUse" color-interpolation-filters="sRGB">
<feFlood flood-opacity="0" result="BackgroundImageFix"/>
<feGaussianBlur in="BackgroundImageFix" stdDeviation="1.655"/>
<feComposite in2="SourceAlpha" operator="in" result="effect1_backgroundBlur_18_574"/>
<feBlend mode="normal" in="SourceGraphic" in2="effect1_backgroundBlur_18_574" result="shape"/>
</filter>
<filter id="filter21_b_18_574" x="193.938" y="192.212" width="20.5223" height="20.6542" filterUnits="userSpaceOnUse" color-interpolation-filters="sRGB">
<feFlood flood-opacity="0" result="BackgroundImageFix"/>
<feGaussianBlur in="BackgroundImageFix" stdDeviation="1.655"/>
<feComposite in2="SourceAlpha" operator="in" result="effect1_backgroundBlur_18_574"/>
<feBlend mode="normal" in="SourceGraphic" in2="effect1_backgroundBlur_18_574" result="shape"/>
</filter>
<filter id="filter22_b_18_574" x="359.736" y="149.877" width="20.5223" height="20.6542" filterUnits="userSpaceOnUse" color-interpolation-filters="sRGB">
<feFlood flood-opacity="0" result="BackgroundImageFix"/>
<feGaussianBlur in="BackgroundImageFix" stdDeviation="1.655"/>
<feComposite in2="SourceAlpha" operator="in" result="effect1_backgroundBlur_18_574"/>
<feBlend mode="normal" in="SourceGraphic" in2="effect1_backgroundBlur_18_574" result="shape"/>
</filter>
<filter id="filter23_b_18_574" x="389.724" y="163.911" width="20.5223" height="20.6542" filterUnits="userSpaceOnUse" color-interpolation-filters="sRGB">
<feFlood flood-opacity="0" result="BackgroundImageFix"/>
<feGaussianBlur in="BackgroundImageFix" stdDeviation="1.655"/>
<feComposite in2="SourceAlpha" operator="in" result="effect1_backgroundBlur_18_574"/>
<feBlend mode="normal" in="SourceGraphic" in2="effect1_backgroundBlur_18_574" result="shape"/>
</filter>
<filter id="filter24_b_18_574" x="309.292" y="397.035" width="20.5223" height="20.6542" filterUnits="userSpaceOnUse" color-interpolation-filters="sRGB">
<feFlood flood-opacity="0" result="BackgroundImageFix"/>
<feGaussianBlur in="BackgroundImageFix" stdDeviation="1.655"/>
<feComposite in2="SourceAlpha" operator="in" result="effect1_backgroundBlur_18_574"/>
<feBlend mode="normal" in="SourceGraphic" in2="effect1_backgroundBlur_18_574" result="shape"/>
</filter>
<filter id="filter25_b_18_574" x="276.257" y="247.555" width="20.5223" height="20.6542" filterUnits="userSpaceOnUse" color-interpolation-filters="sRGB">
<feFlood flood-opacity="0" result="BackgroundImageFix"/>
<feGaussianBlur in="BackgroundImageFix" stdDeviation="1.655"/>
<feComposite in2="SourceAlpha" operator="in" result="effect1_backgroundBlur_18_574"/>
<feBlend mode="normal" in="SourceGraphic" in2="effect1_backgroundBlur_18_574" result="shape"/>
</filter>
<filter id="filter26_b_18_574" x="142.832" y="199.196" width="20.5223" height="20.6542" filterUnits="userSpaceOnUse" color-interpolation-filters="sRGB">
<feFlood flood-opacity="0" result="BackgroundImageFix"/>
<feGaussianBlur in="BackgroundImageFix" stdDeviation="1.655"/>
<feComposite in2="SourceAlpha" operator="in" result="effect1_backgroundBlur_18_574"/>
<feBlend mode="normal" in="SourceGraphic" in2="effect1_backgroundBlur_18_574" result="shape"/>
</filter>
<filter id="filter27_b_18_574" x="196.849" y="197.739" width="12.1171" height="79.4398" filterUnits="userSpaceOnUse" color-interpolation-filters="sRGB">
<feFlood flood-opacity="0" result="BackgroundImageFix"/>
<feGaussianBlur in="BackgroundImageFix" stdDeviation="1.655"/>
<feComposite in2="SourceAlpha" operator="in" result="effect1_backgroundBlur_18_574"/>
<feBlend mode="normal" in="SourceGraphic" in2="effect1_backgroundBlur_18_574" result="shape"/>
</filter>
<filter id="filter28_b_18_574" x="191.356" y="269.07" width="20.5223" height="20.6542" filterUnits="userSpaceOnUse" color-interpolation-filters="sRGB">
<feFlood flood-opacity="0" result="BackgroundImageFix"/>
<feGaussianBlur in="BackgroundImageFix" stdDeviation="1.655"/>
<feComposite in2="SourceAlpha" operator="in" result="effect1_backgroundBlur_18_574"/>
<feBlend mode="normal" in="SourceGraphic" in2="effect1_backgroundBlur_18_574" result="shape"/>
</filter>
<filter id="filter29_b_18_574" x="380.884" y="290.308" width="17.1688" height="13.1137" filterUnits="userSpaceOnUse" color-interpolation-filters="sRGB">
<feFlood flood-opacity="0" result="BackgroundImageFix"/>
<feGaussianBlur in="BackgroundImageFix" stdDeviation="1.655"/>
<feComposite in2="SourceAlpha" operator="in" result="effect1_backgroundBlur_18_574"/>
<feBlend mode="normal" in="SourceGraphic" in2="effect1_backgroundBlur_18_574" result="shape"/>
</filter>
<filter id="filter30_b_18_574" x="358.249" y="269.061" width="19.8622" height="20.6635" filterUnits="userSpaceOnUse" color-interpolation-filters="sRGB">
<feFlood flood-opacity="0" result="BackgroundImageFix"/>
<feGaussianBlur in="BackgroundImageFix" stdDeviation="1.655"/>
<feComposite in2="SourceAlpha" operator="in" result="effect1_backgroundBlur_18_574"/>
<feBlend mode="normal" in="SourceGraphic" in2="effect1_backgroundBlur_18_574" result="shape"/>
</filter>
<filter id="filter31_b_18_574" x="381.816" y="254.575" width="13.0311" height="15.1869" filterUnits="userSpaceOnUse" color-interpolation-filters="sRGB">
<feFlood flood-opacity="0" result="BackgroundImageFix"/>
<feGaussianBlur in="BackgroundImageFix" stdDeviation="1.655"/>
<feComposite in2="SourceAlpha" operator="in" result="effect1_backgroundBlur_18_574"/>
<feBlend mode="normal" in="SourceGraphic" in2="effect1_backgroundBlur_18_574" result="shape"/>
</filter>
<filter id="filter32_b_18_574" x="383.758" y="239.864" width="14.5057" height="12.3446" filterUnits="userSpaceOnUse" color-interpolation-filters="sRGB">
<feFlood flood-opacity="0" result="BackgroundImageFix"/>
<feGaussianBlur in="BackgroundImageFix" stdDeviation="1.655"/>
<feComposite in2="SourceAlpha" operator="in" result="effect1_backgroundBlur_18_574"/>
<feBlend mode="normal" in="SourceGraphic" in2="effect1_backgroundBlur_18_574" result="shape"/>
</filter>
<filter id="filter33_b_18_574" x="363.155" y="280.161" width="51.6259" height="90.6581" filterUnits="userSpaceOnUse" color-interpolation-filters="sRGB">
<feFlood flood-opacity="0" result="BackgroundImageFix"/>
<feGaussianBlur in="BackgroundImageFix" stdDeviation="1.655"/>
<feComposite in2="SourceAlpha" operator="in" result="effect1_backgroundBlur_18_574"/>
<feBlend mode="normal" in="SourceGraphic" in2="effect1_backgroundBlur_18_574" result="shape"/>
</filter>
<filter id="filter34_b_18_574" x="368.576" y="208.748" width="133.084" height="165.626" filterUnits="userSpaceOnUse" color-interpolation-filters="sRGB">
<feFlood flood-opacity="0" result="BackgroundImageFix"/>
<feGaussianBlur in="BackgroundImageFix" stdDeviation="1.655"/>
<feComposite in2="SourceAlpha" operator="in" result="effect1_backgroundBlur_18_574"/>
<feBlend mode="normal" in="SourceGraphic" in2="effect1_backgroundBlur_18_574" result="shape"/>
</filter>
<filter id="filter35_b_18_574" x="368.627" y="497.281" width="20.3495" height="50.8544" filterUnits="userSpaceOnUse" color-interpolation-filters="sRGB">
<feFlood flood-opacity="0" result="BackgroundImageFix"/>
<feGaussianBlur in="BackgroundImageFix" stdDeviation="1.655"/>
<feComposite in2="SourceAlpha" operator="in" result="effect1_backgroundBlur_18_574"/>
<feBlend mode="normal" in="SourceGraphic" in2="effect1_backgroundBlur_18_574" result="shape"/>
</filter>
<filter id="filter36_b_18_574" x="370.063" y="476.408" width="31.4579" height="60.9701" filterUnits="userSpaceOnUse" color-interpolation-filters="sRGB">
<feFlood flood-opacity="0" result="BackgroundImageFix"/>
<feGaussianBlur in="BackgroundImageFix" stdDeviation="1.655"/>
<feComposite in2="SourceAlpha" operator="in" result="effect1_backgroundBlur_18_574"/>
<feBlend mode="normal" in="SourceGraphic" in2="effect1_backgroundBlur_18_574" result="shape"/>
</filter>
<filter id="filter37_b_18_574" x="502.503" y="409.586" width="42.7518" height="129.249" filterUnits="userSpaceOnUse" color-interpolation-filters="sRGB">
<feFlood flood-opacity="0" result="BackgroundImageFix"/>
<feGaussianBlur in="BackgroundImageFix" stdDeviation="1.655"/>
<feComposite in2="SourceAlpha" operator="in" result="effect1_backgroundBlur_18_574"/>
<feBlend mode="normal" in="SourceGraphic" in2="effect1_backgroundBlur_18_574" result="shape"/>
</filter>
<filter id="filter38_b_18_574" x="489.076" y="343.298" width="133.153" height="187.46" filterUnits="userSpaceOnUse" color-interpolation-filters="sRGB">
<feFlood flood-opacity="0" result="BackgroundImageFix"/>
<feGaussianBlur in="BackgroundImageFix" stdDeviation="1.655"/>
<feComposite in2="SourceAlpha" operator="in" result="effect1_backgroundBlur_18_574"/>
<feBlend mode="normal" in="SourceGraphic" in2="effect1_backgroundBlur_18_574" result="shape"/>
</filter>
<filter id="filter39_b_18_574" x="507.655" y="421.656" width="47.5643" height="57.3344" filterUnits="userSpaceOnUse" color-interpolation-filters="sRGB">
<feFlood flood-opacity="0" result="BackgroundImageFix"/>
<feGaussianBlur in="BackgroundImageFix" stdDeviation="1.655"/>
<feComposite in2="SourceAlpha" operator="in" result="effect1_backgroundBlur_18_574"/>
<feBlend mode="normal" in="SourceGraphic" in2="effect1_backgroundBlur_18_574" result="shape"/>
</filter>
<filter id="filter40_b_18_574" x="537.35" y="380.782" width="44.2548" height="60.871" filterUnits="userSpaceOnUse" color-interpolation-filters="sRGB">
<feFlood flood-opacity="0" result="BackgroundImageFix"/>
<feGaussianBlur in="BackgroundImageFix" stdDeviation="1.655"/>
<feComposite in2="SourceAlpha" operator="in" result="effect1_backgroundBlur_18_574"/>
<feBlend mode="normal" in="SourceGraphic" in2="effect1_backgroundBlur_18_574" result="shape"/>
</filter>
<filter id="filter41_b_18_574" x="503.588" y="409.645" width="20.9852" height="21.1508" filterUnits="userSpaceOnUse" color-interpolation-filters="sRGB">
<feFlood flood-opacity="0" result="BackgroundImageFix"/>
<feGaussianBlur in="BackgroundImageFix" stdDeviation="1.655"/>
<feComposite in2="SourceAlpha" operator="in" result="effect1_backgroundBlur_18_574"/>
<feBlend mode="normal" in="SourceGraphic" in2="effect1_backgroundBlur_18_574" result="shape"/>
</filter>
<filter id="filter42_b_18_574" x="181.254" y="272.186" width="276.463" height="187.143" filterUnits="userSpaceOnUse" color-interpolation-filters="sRGB">
<feFlood flood-opacity="0" result="BackgroundImageFix"/>
<feGaussianBlur in="BackgroundImageFix" stdDeviation="1.655"/>
<feComposite in2="SourceAlpha" operator="in" result="effect1_backgroundBlur_18_574"/>
<feBlend mode="normal" in="SourceGraphic" in2="effect1_backgroundBlur_18_574" result="shape"/>
</filter>
<filter id="filter43_b_18_574" x="173.726" y="283.151" width="19.3378" height="39.5077" filterUnits="userSpaceOnUse" color-interpolation-filters="sRGB">
<feFlood flood-opacity="0" result="BackgroundImageFix"/>
<feGaussianBlur in="BackgroundImageFix" stdDeviation="1.655"/>
<feComposite in2="SourceAlpha" operator="in" result="effect1_backgroundBlur_18_574"/>
<feBlend mode="normal" in="SourceGraphic" in2="effect1_backgroundBlur_18_574" result="shape"/>
</filter>
<filter id="filter44_b_18_574" x="169.961" y="293.059" width="15.5409" height="36.1537" filterUnits="userSpaceOnUse" color-interpolation-filters="sRGB">
<feFlood flood-opacity="0" result="BackgroundImageFix"/>
<feGaussianBlur in="BackgroundImageFix" stdDeviation="1.655"/>
<feComposite in2="SourceAlpha" operator="in" result="effect1_backgroundBlur_18_574"/>
<feBlend mode="normal" in="SourceGraphic" in2="effect1_backgroundBlur_18_574" result="shape"/>
</filter>
<filter id="filter45_b_18_574" x="166.258" y="306.368" width="240.544" height="227.832" filterUnits="userSpaceOnUse" color-interpolation-filters="sRGB">
<feFlood flood-opacity="0" result="BackgroundImageFix"/>
<feGaussianBlur in="BackgroundImageFix" stdDeviation="1.655"/>
<feComposite in2="SourceAlpha" operator="in" result="effect1_backgroundBlur_18_574"/>
<feBlend mode="normal" in="SourceGraphic" in2="effect1_backgroundBlur_18_574" result="shape"/>
</filter>
<filter id="filter46_b_18_574" x="317.434" y="442.679" width="43.2616" height="74.0116" filterUnits="userSpaceOnUse" color-interpolation-filters="sRGB">
<feFlood flood-opacity="0" result="BackgroundImageFix"/>
<feGaussianBlur in="BackgroundImageFix" stdDeviation="1.655"/>
<feComposite in2="SourceAlpha" operator="in" result="effect1_backgroundBlur_18_574"/>
<feBlend mode="normal" in="SourceGraphic" in2="effect1_backgroundBlur_18_574" result="shape"/>
</filter>
</defs>
</svg>
