<svg width="1066" height="814" viewBox="0 0 1066 814" fill="none" xmlns="http://www.w3.org/2000/svg">
<g clip-path="url(#clip0_198_1426)">
<path d="M685.111 797.555C685.179 797.078 685.248 796.6 685.248 796.123L967.93 795.099L963.427 707.899L701.282 715.882C777.087 459.878 1047.76 447.665 1047.76 447.665L1065.3 797.555C1065.3 797.555 684.361 804.379 685.111 797.555Z" fill="#FF3857"/>
<path d="M665.112 494.953L664.968 494.952C664.905 494.952 664.842 494.952 664.778 494.951L252.183 492.632C246.609 492.598 241.198 491.494 236.1 489.35C233.646 488.318 231.276 487.044 229.057 485.562C226.858 484.095 224.784 482.41 222.895 480.555C221.006 478.7 219.283 476.658 217.776 474.485C216.255 472.293 214.937 469.946 213.861 467.512C211.624 462.453 210.423 457.062 210.289 451.488L208.583 376.979L204.353 199.441L203.534 164.234C203.386 158.462 204.389 152.846 206.517 147.542C207.537 144.996 208.818 142.538 210.322 140.235C211.811 137.956 213.531 135.809 215.436 133.855C217.352 131.89 219.468 130.104 221.727 128.547C224.006 126.976 226.448 125.626 228.984 124.534C234.265 122.261 239.884 121.109 245.684 121.109C245.845 121.109 246.007 121.11 246.179 121.112L651.2 126.639C661.953 126.771 672.136 130.953 679.874 138.417C683.651 142.06 686.68 146.313 688.871 151.058C691.136 155.957 692.419 161.194 692.685 166.622L694.868 210.086L694.513 210.265L694.049 210.495C694.049 208.618 693.442 208.601 692.855 208.584C692.269 208.568 691.661 208.55 691.661 206.674C691.654 205.417 691.347 204.221 690.761 203.116C690.222 202.104 689.457 201.197 688.495 200.42C686.708 198.975 684.347 198.113 682.174 198.113C680.463 198.113 679.048 198.627 678.082 199.601C677.165 200.525 676.707 201.802 676.719 203.399C676.764 209.178 676.577 213.205 676.36 217.869L676.36 217.876L676.358 217.899C676.246 220.316 676.13 222.815 676.037 225.778C675.45 223.264 675.312 220.542 675.177 217.911C675.026 214.938 674.87 211.865 674.068 209.064C673.637 207.555 673.059 206.245 672.301 205.057C671.449 203.725 670.395 202.579 669.077 201.557C667.946 200.683 666.437 200.221 664.713 200.221C661.929 200.221 659.018 201.414 657.116 203.336C655.682 204.785 654.934 206.529 654.953 208.38C654.999 213.807 655.076 219.326 655.15 224.662V224.698L655.151 224.708C655.299 235.39 655.454 246.437 655.363 257.301C655.03 256.83 655.002 254.778 654.975 252.793C654.949 250.93 654.925 249.173 654.631 249.173C654.47 249.173 654.24 249.689 653.93 250.752C650.595 246.783 647.526 243.882 644.547 241.881C642.898 240.774 641.244 239.926 639.628 239.363C637.922 238.768 636.195 238.466 634.496 238.466C632.821 238.466 631.115 238.758 629.425 239.335C627.67 239.934 625.874 240.859 624.086 242.086C622.237 243.354 620.337 244.985 618.439 246.934C616.483 248.942 614.466 251.351 612.445 254.094C611.528 255.334 611.081 257.025 611.154 258.984C611.219 260.77 611.719 262.671 612.559 264.338C613.922 267.041 615.916 268.656 617.895 268.656C618.263 268.656 618.633 268.6 618.996 268.492C620.815 267.958 622.823 266.741 624.949 265.453C626.629 264.434 628.367 263.381 630.152 262.577C632.176 261.665 633.954 261.222 635.589 261.222C639.599 261.222 642.988 263.912 645.947 269.446C645.947 273.398 645.544 279.757 644.412 285.754C643.786 289.067 643.005 291.916 642.089 294.221C641.025 296.903 639.774 298.852 638.373 300.015C636.394 301.663 634.278 302.5 632.083 302.5C630.452 302.5 628.845 302.035 627.31 301.118C625.822 300.23 624.479 298.967 623.319 297.365C621.584 294.968 620.409 292.006 619.921 288.8C619.393 285.327 619.709 281.678 620.838 278.248C621.289 276.912 621.081 275.583 620.237 274.407C619.595 273.512 618.619 272.747 617.415 272.197C616.253 271.666 614.936 271.373 613.705 271.373C612.441 271.373 611.298 271.674 610.398 272.245C607.786 273.914 605.632 275.827 603.999 277.928C602.456 279.913 601.332 282.124 600.658 284.5C600.026 286.728 599.771 289.168 599.901 291.751C600.022 294.149 600.477 296.745 601.255 299.468C601.186 309.711 604.505 316.481 610.261 324.714C610.452 324.988 610.674 325.297 610.909 325.625L610.914 325.631C613.145 328.746 617.299 334.545 620.11 344.66C623.549 357.042 623.932 372.163 621.246 389.602C619.24 402.73 616.046 416.398 611.754 430.225C607.741 443.154 602.74 456.323 596.889 469.365H703.67C702.087 473.085 699.979 476.557 697.399 479.684C694.841 482.797 691.852 485.52 688.523 487.777C681.604 492.471 673.509 494.952 665.113 494.952L665.112 494.953ZM404.083 124.158C399.213 124.159 394.245 124.425 389.319 124.953C384.449 125.473 379.579 126.253 374.841 127.267C370.113 128.28 365.483 129.537 361.078 131.002C356.639 132.478 352.393 134.178 348.458 136.054C346.407 137.049 345.183 139.191 345.183 141.786C343.75 147.426 342.561 153.07 341.411 158.529C338.959 170.166 336.644 181.157 332.255 191.311C329.902 196.752 327.158 201.48 323.865 205.765C322.088 208.077 320.12 210.289 318.015 212.338C315.814 214.481 313.385 216.524 310.795 218.409C309.637 219.256 308.485 220.074 307.371 220.865L307.36 220.872C302.731 224.159 298.359 227.264 295.37 231.212C292.067 235.576 290.724 240.592 291.144 246.999C291.548 253.292 293.886 258.972 298.291 264.363C302.449 269.454 307.911 273.618 312.705 277.02C314.775 278.473 316.978 279.794 319.108 281.072C322.502 283.107 325.707 285.03 328.458 287.454C329.937 288.757 331.139 290.08 332.135 291.498C333.249 293.086 334.081 294.755 334.675 296.602C335.539 299.291 335.844 302.661 335.607 306.905C335.398 310.653 334.806 314.59 334.234 318.398C333.596 322.642 332.994 326.651 332.97 330.037C332.887 338.141 334.501 345.64 337.766 352.326C340.784 358.507 345.228 364.033 350.974 368.749C356.303 373.123 362.722 376.785 370.054 379.633C376.93 382.304 384.471 384.212 392.467 385.304C394.997 385.649 397.463 385.825 399.794 385.825C405.164 385.825 409.948 384.903 414.016 383.086C418.638 381.022 422.384 377.773 425.15 373.431C426.196 371.798 426.958 369.942 427.482 367.757C427.949 365.807 428.188 363.776 428.419 361.812C428.73 359.174 429.051 356.448 429.926 353.849C431.196 350.039 433.216 346.454 436.101 342.889C438.427 340.015 441.301 337.167 445.142 333.925C486.496 324.663 479.804 258.164 475.805 218.432C475.25 212.919 474.726 207.711 474.413 203.399C474.142 199.756 473.971 196.047 473.79 192.118C473.269 180.832 472.731 169.163 469.741 158.868C468.124 153.298 465.957 148.686 463.119 144.768C461.574 142.635 459.806 140.696 457.864 139.004C455.819 137.224 453.513 135.657 451.009 134.348C444.475 130.944 437.008 128.343 428.818 126.62C421.049 124.986 412.727 124.158 404.083 124.158Z" fill="#7BAEED"/>
<path d="M888.441 177.538C887.84 177.538 887.24 177.339 886.742 176.976C886.237 176.6 885.875 176.087 885.711 175.492C885.711 175.48 885.698 175.441 885.677 175.374C884.886 172.736 881.924 163.392 876.991 153.865C873.935 147.956 870.68 143.076 867.33 139.36C863.181 134.757 858.849 131.924 854.461 130.936C853.322 130.668 852.483 129.779 852.278 128.617C852.087 127.532 852.626 126.407 853.643 125.751C874.747 113.731 886.892 78.0074 887.008 77.6478C887.212 77.076 887.567 76.5957 888.031 76.2572C888.502 75.9174 889.068 75.7373 889.669 75.7373C890.897 75.7373 891.989 76.5506 892.33 77.716C892.33 77.7215 892.337 77.7344 892.343 77.7542L892.35 77.7699C892.93 79.5774 896.103 89.1134 901.193 99.3563C904.277 105.566 907.477 110.842 910.698 115.037C914.703 120.247 918.763 123.806 922.761 125.614C923.703 126.018 924.33 126.959 924.399 128.071C924.467 129.109 923.907 130.127 922.966 130.664C922.952 130.669 921.424 131.537 918.933 133.397C916.75 135.032 913.386 137.779 909.756 141.581C905.696 145.832 902.141 150.513 899.18 155.496C895.489 161.711 892.726 168.416 890.965 175.423C890.897 176.609 889.792 177.538 888.441 177.538ZM889.669 86.7226C885.193 97.3223 875.559 116.718 861.285 127.525C867.323 130.617 873.068 136.471 878.363 144.924C880.41 148.195 882.395 151.864 884.258 155.83C885.711 158.934 887.096 162.221 888.372 165.598C891.654 156.685 896.465 148.466 902.674 141.171C907.927 135.005 913.045 130.829 916.415 128.412C903.533 119.507 894.131 98.4699 889.669 86.7226Z" fill="#000200"/>
<path d="M87.8819 507.71H87.609C86.5173 507.71 85.5 507.04 85.0162 506.003C83.7253 502.944 80.9305 496.576 76.7213 488.3C72.6814 480.357 68.5882 473.113 64.5556 466.771C59.615 458.999 54.9063 452.824 50.5606 448.414C48.1015 445.919 45.7309 443.967 43.5146 442.613C41.1278 441.154 38.8608 440.352 36.7765 440.229C35.4164 440.161 34.3222 439.151 34.1156 437.772C33.9801 436.415 34.7937 435.181 36.0943 434.77C43.0393 432.65 49.4708 429.77 55.2099 426.207C60.4675 422.943 65.1127 419.132 69.016 414.881C72.6281 410.947 75.5171 406.739 77.6029 402.377C78.5902 400.312 79.3851 398.228 79.9664 396.18C80.5375 394.17 80.9046 392.186 81.0595 390.283C81.1966 388.977 82.156 387.962 83.4469 387.759C83.5984 387.735 83.7519 387.723 83.9027 387.723C85.0387 387.723 86.0383 388.406 86.4491 389.464C86.5815 389.794 100.78 423.035 124.863 434.974C125.709 435.397 126.298 436.228 126.364 437.09C126.501 437.974 126.153 438.938 125.477 439.546C123.974 440.883 122.591 442.044 121.247 443.094L121.171 443.157C118.709 445.168 115.918 447.448 112.96 450.44C109.522 453.918 106.582 457.638 103.973 461.812C102.436 464.271 101 466.921 99.7037 469.69C98.29 472.711 96.9963 475.972 95.8596 479.381C93.3282 486.972 91.4477 495.677 90.2707 505.253C90.1349 506.468 89.1306 507.501 87.8819 507.71ZM85.0162 399.085C82.5961 406.454 78.0252 413.727 71.7964 420.118C68.4128 423.589 64.5577 426.778 60.3379 429.597C55.8258 432.611 50.86 435.224 45.5788 437.362C52.9069 441.533 60.93 450.398 69.4254 463.708C76.5624 474.891 82.5483 486.907 86.3126 495.018C87.841 486.644 89.9732 478.975 92.6486 472.225C94.9528 466.41 97.7387 461.085 100.928 456.397C103.529 452.577 106.418 449.118 109.763 445.824C112.646 442.983 115.363 440.755 117.762 438.788L117.836 438.728C117.943 438.642 118.043 438.556 118.141 438.472C118.355 438.29 118.557 438.117 118.791 437.976C111.371 433.59 104.251 427.108 97.6308 418.71C91.8557 411.385 87.5838 403.994 85.0162 399.085Z" fill="#000200"/>
<path d="M611.763 159.866C610.33 156.523 605.486 159.389 606.919 162.732C608.965 167.508 611.422 172.08 613.537 176.788C615.038 180.063 619.883 177.197 618.381 173.922C616.266 169.214 613.81 164.642 611.763 159.866Z" fill="#FFCB56"/>
<path d="M585.63 191.662C582.833 189.41 578.876 193.367 581.673 195.619C588.291 201.009 595.251 205.99 602.142 210.971C605.008 213.086 607.874 208.174 604.94 206.127C598.39 201.419 591.84 196.779 585.63 191.662Z" fill="#FFCB56"/>
<path d="M1.50148 526.678C-1.09131 529.203 2.86609 533.16 5.45888 530.635C16.1029 520.059 27.2247 509.961 37.8688 499.385C40.4615 496.861 36.5042 492.903 33.9114 495.428C23.2673 506.004 12.2138 516.17 1.50148 526.678Z" fill="#F674B4"/>
<path d="M42.7129 368.449C41.0753 365.242 36.2309 368.108 37.8685 371.315C40.1201 375.614 42.7811 379.571 46.1245 383.051C48.5808 385.575 52.5382 381.618 50.0819 379.025C47.0797 375.887 44.6916 372.338 42.7129 368.449Z" fill="#F674B4"/>
<path d="M961.448 280.909C958.651 278.657 954.693 282.614 957.491 284.866C969.499 294.487 980.962 304.721 992.016 315.434C994.609 317.958 998.566 314.001 995.973 311.476C984.92 300.764 973.457 290.529 961.448 280.909Z" fill="#F674B4"/>
<path d="M719.159 133.939C716.293 131.756 713.427 136.668 716.293 138.783C725.641 145.743 734.92 152.771 743.244 161.027C745.837 163.483 749.794 159.526 747.202 157.001C738.536 148.472 728.847 141.171 719.159 133.939Z" fill="#000200"/>
<path d="M717.384 160.208C714.86 162.732 718.817 166.758 721.342 164.165L749.658 135.849C752.182 133.325 748.225 129.367 745.7 131.892C736.284 141.308 726.8 150.792 717.384 160.208Z" fill="#000200"/>
<path d="M738.195 483.352H737.854L325.26 481.032C300.812 480.827 281.181 461.557 280.567 437.16L273.745 149.973C273.471 137.644 278.074 126.062 286.708 117.359C290.962 113.072 295.889 109.737 301.353 107.448C306.838 105.151 312.677 103.985 318.709 103.985H319.255L724.276 109.512C730.055 109.579 735.67 110.743 740.979 112.971C746.117 115.127 750.77 118.193 754.803 122.084C758.835 125.974 762.069 130.512 764.409 135.572C766.832 140.8 768.203 146.38 768.49 152.157L782.887 436.204C783.194 442.402 782.272 448.434 780.157 454.132C778.029 459.86 774.767 465.031 770.468 469.501C768.394 471.714 766.088 473.711 763.625 475.436C761.182 477.144 758.555 478.605 755.819 479.778C753.083 480.95 750.204 481.847 747.27 482.445C744.309 483.047 741.259 483.352 738.195 483.352ZM318.777 109.58C313.49 109.58 308.38 110.596 303.587 112.6C298.812 114.596 294.511 117.505 290.803 121.248C283.226 128.893 279.203 139.047 279.476 149.838L286.299 437.023C286.846 458.427 304.019 475.301 325.396 475.437L737.99 477.757H738.263C743.64 477.757 748.825 476.704 753.677 474.627C758.542 472.543 762.881 469.51 766.579 465.612C770.346 461.676 773.198 457.154 775.047 452.17C776.903 447.195 777.701 441.914 777.428 436.477L763.031 152.43C762.779 147.372 761.578 142.488 759.449 137.915C757.395 133.49 754.557 129.521 751.022 126.118C747.488 122.717 743.415 120.035 738.911 118.147C734.258 116.197 729.339 115.174 724.276 115.107L319.255 109.58H318.777Z" fill="#000200"/>
<path d="M181.7 565.638L174.399 3.41183C174.399 2.66129 174.672 1.91074 175.218 1.43312C175.764 0.88727 176.378 0.477876 177.197 0.614339L733.487 2.38836C735.056 2.38836 736.284 3.61652 736.284 5.18585V113.537C736.284 115.106 735.056 116.335 733.487 116.335C731.918 116.335 730.69 115.106 730.69 113.537V7.9151L180.062 6.14109L187.295 565.57C187.295 567.139 186.067 568.436 184.498 568.436C182.996 568.436 181.7 567.207 181.7 565.638Z" fill="#000200"/>
<path d="M730.69 557.177C730.69 558.747 731.918 559.975 733.487 559.975C735.056 559.975 736.285 558.747 736.285 557.177V480.485C734.442 480.554 732.532 480.554 730.69 480.758V557.177Z" fill="#000200"/>
<path d="M157.614 758.46L149.904 568.981L868.449 557.859V725.231C870.291 724.685 872.133 724.208 874.044 723.935V554.994C874.044 554.243 873.771 553.493 873.225 553.015C872.679 552.469 871.929 552.265 871.246 552.196L146.97 563.386C146.22 563.386 145.469 563.727 144.992 564.273C144.446 564.819 144.173 565.57 144.241 566.32L152.156 761.325C152.224 762.827 153.452 763.986 154.953 763.986H334.334C334.265 763.509 334.129 763.031 334.061 762.622C333.72 761.189 333.72 759.756 333.992 758.46H157.614Z" fill="#000200"/>
<path d="M429.789 652.565C430.813 652.565 431.768 653.043 432.314 653.862C432.587 654.271 432.723 654.681 432.792 655.158L435.657 678.562C435.725 679.38 435.521 680.131 435.111 680.677C434.566 681.359 433.679 681.837 432.723 681.837L218.136 679.653C217.726 679.653 217.317 679.585 216.976 679.38C215.952 678.903 215.202 677.879 215.202 676.651V660.89C215.202 660.276 215.406 659.73 215.679 659.252C216.089 658.57 216.976 658.092 217.999 658.024L429.789 652.565Z" fill="#000200"/>
<path d="M471.82 679.38C471.888 679.926 472.161 680.472 472.502 680.881C473.048 681.564 473.867 681.973 474.754 681.973H524.767C525.723 681.973 526.541 681.564 527.087 680.881C527.633 680.199 527.838 679.312 527.633 678.425L522.447 654.885C522.311 654.203 521.902 653.657 521.424 653.248C520.946 652.838 520.264 652.565 519.582 652.565H471.683C470.796 652.565 469.977 652.975 469.5 653.589C468.886 654.135 468.613 654.954 468.749 655.841L471.82 679.38Z" fill="#000200"/>
<path d="M789.642 679.926C784.92 679.926 780.342 678.983 776.029 677.125C771.86 675.329 768.115 672.759 764.901 669.487C761.68 666.214 759.156 662.405 757.395 658.164C755.567 653.774 754.639 649.112 754.639 644.309C754.639 639.59 755.567 635.009 757.395 630.694C759.156 626.527 761.68 622.783 764.901 619.567C768.115 616.351 771.86 613.825 776.029 612.06C780.342 610.233 784.92 609.307 789.642 609.307C794.363 609.307 798.941 610.233 803.254 612.06C807.423 613.825 811.169 616.351 814.382 619.567C817.603 622.783 820.127 626.527 821.888 630.694C823.716 635.009 824.644 639.59 824.644 644.309C824.644 650.196 823.9 655.428 822.44 659.863C820.973 664.289 818.756 668.035 815.842 670.997C812.929 673.955 809.251 676.207 804.898 677.691C800.545 679.174 795.414 679.926 789.642 679.926ZM789.642 614.902C785.67 614.902 781.822 615.679 778.199 617.213C774.692 618.695 771.546 620.815 768.851 623.516C766.149 626.217 764.027 629.362 762.547 632.864C761.012 636.489 760.234 640.34 760.234 644.309C760.234 660.583 773.703 674.331 789.642 674.331C794.65 674.331 799.044 673.721 802.701 672.519C804.543 671.914 806.242 671.143 807.764 670.229C809.278 669.314 810.664 668.226 811.871 666.996C813.072 665.766 814.137 664.356 815.03 662.803C815.931 661.254 816.682 659.515 817.275 657.636C818.456 653.902 819.049 649.418 819.049 644.309C819.036 640.34 818.244 636.489 816.702 632.864C815.208 629.362 813.086 626.217 810.384 623.516C807.682 620.815 804.543 618.695 801.05 617.213C797.434 615.679 793.592 614.902 789.642 614.902Z" fill="#000200"/>
<path d="M786.844 651.404V601.527C786.844 599.958 788.072 598.729 789.642 598.729C791.211 598.729 792.439 599.958 792.439 601.527V651.404C792.439 652.973 791.143 654.202 789.642 654.202C788.072 654.202 786.844 652.973 786.844 651.404Z" fill="#000200"/>
<path d="M196.916 536.026C195.346 536.026 194.118 534.797 194.118 533.228C194.118 531.659 195.346 530.431 196.916 530.431H250.136C251.705 530.431 252.934 531.659 252.934 533.228C252.934 534.729 251.705 536.026 250.136 536.026H196.916Z" fill="#000200"/>
<path d="M196.916 546.943C195.346 546.943 194.118 545.714 194.118 544.145C194.118 542.576 195.346 541.348 196.916 541.348H250.136C251.705 541.348 252.934 542.576 252.934 544.145C252.934 545.714 251.705 546.943 250.136 546.943H196.916Z" fill="#000200"/>
<path d="M421.465 264.669C421.397 263.1 422.557 261.804 424.058 261.667C428.902 261.326 432.791 259.825 434.497 257.573C435.452 256.345 435.657 254.844 435.248 253.07C434.361 249.112 424.877 247.407 420.783 247.202C419.35 247.134 418.19 245.974 418.122 244.609L416.552 220.66C416.484 219.091 417.644 217.794 419.145 217.658C420.646 217.521 422.011 218.75 422.147 220.251L423.512 241.812C428.561 242.358 439.001 244.473 440.706 251.774C441.525 255.185 440.911 258.324 439.001 260.917C436.271 264.601 431.086 266.853 424.467 267.33C424.399 267.262 424.331 267.262 424.263 267.262C422.83 267.262 421.533 266.102 421.465 264.669Z" fill="#000200"/>
<path d="M436.34 220.114C436.749 226.869 447.257 226.187 446.779 219.432L446.438 214.178C446.028 207.423 435.589 208.106 435.998 214.861L436.34 220.114Z" fill="#000200"/>
<path d="M373.361 224.208C373.771 230.963 384.278 230.281 383.801 223.526L383.46 218.272C383.05 211.517 372.611 212.2 373.02 218.954L373.361 224.208Z" fill="#000200"/>
<path d="M361.353 198.007C358.35 199.508 361.284 203.875 364.287 202.374C367.698 200.668 371.383 199.508 375.067 198.417C378.274 197.53 376.568 192.617 373.361 193.504C369.199 194.664 365.242 196.097 361.353 198.007Z" fill="#000200"/>
<path d="M437.568 183.338C434.839 181.428 431.359 185.385 434.088 187.295C437.158 189.411 440.502 190.775 443.709 192.617C446.643 194.323 448.962 189.615 446.097 187.91C443.299 186.272 440.229 185.18 437.568 183.338Z" fill="#000200"/>
<path d="M383.46 286.435C383.05 283.092 377.796 283.433 378.206 286.776C379.093 293.872 385.643 297.42 392.193 298.035C395.536 298.239 396.628 293.122 393.285 292.849C389.327 292.508 384.005 291.007 383.46 286.435Z" fill="#000200"/>
<path d="M544.349 478.574C531.59 418.189 462.335 377.182 428.151 368.653C426.65 368.244 425.763 366.743 426.104 365.242C426.445 363.741 428.015 362.854 429.516 363.195C470.455 373.361 537.048 416.756 549.876 477.346C550.217 478.847 549.262 480.348 547.692 480.689C547.488 480.826 547.283 480.826 547.078 480.826C545.782 480.826 544.622 479.939 544.349 478.574Z" fill="#000200"/>
<path d="M332.969 366.197C307.86 371.928 285.958 382.777 285.685 382.914C284.32 383.596 282.614 383.05 281.932 381.686C281.25 380.321 281.796 378.615 283.16 377.933C284.115 377.455 306.836 366.129 333.378 360.397C334.402 360.193 335.425 360.534 336.108 361.284C359.17 387.963 390.352 402.837 410.343 396.56C421.397 393.08 428.084 383.391 429.653 368.585C429.789 367.016 431.222 365.924 432.723 366.061C434.293 366.197 435.384 367.63 435.248 369.131C432.928 390.897 421.329 398.948 412.049 401.882C408.365 403.042 404.407 403.588 400.313 403.588C379.503 403.588 353.575 389.532 332.969 366.197Z" fill="#000200"/>
<path d="M473.253 177.811C469.909 136.463 441.934 117.221 390.352 120.565C361.626 122.407 340.679 129.162 327.101 141.102C326.624 141.171 326.214 141.375 325.805 141.716C308.474 146.356 294.487 161.845 284.047 175.764C281.727 178.766 279.544 181.905 277.429 185.112L281.659 362.65C289.915 363.468 298.376 363.059 306.086 362.104C314.956 361.012 323.144 358.146 330.172 353.643L331.127 363.4C331.263 364.833 332.491 365.925 333.924 365.925C333.992 365.925 334.129 365.925 334.197 365.925C335.767 365.788 336.858 364.424 336.722 362.854L335.425 349.822C342.112 344.159 347.366 336.653 350.436 327.442C355.69 311.681 355.281 283.501 337.063 275.586C333.788 274.154 330.308 273.676 326.76 273.539C323.553 273.198 308.883 272.516 304.312 268.627C300.218 265.147 299.331 260.917 299.195 258.665C298.99 255.049 300.082 251.842 302.538 249.181C307.655 243.654 318.572 240.584 334.061 240.379C335.425 240.379 336.585 239.287 337.404 238.127C353.438 213.564 353.438 154.817 353.438 154.817C366.744 165.597 447.529 170.51 465.747 165.802C466.702 169.691 467.385 173.922 467.794 178.425C468.476 187.227 469.227 195.687 469.909 203.807C476.323 280.363 480.281 326.623 455.99 342.794C435.18 356.713 395.81 356.85 395.401 356.85C394.445 356.85 393.558 357.328 393.013 358.146C392.467 358.965 392.399 359.989 392.808 360.807C400.655 378.138 427.469 383.051 428.561 383.255C428.698 383.255 428.902 383.324 429.039 383.324C430.335 383.324 431.563 382.368 431.768 381.004L436.135 357.873C436.203 357.6 436.203 357.328 436.203 357.055C444.391 354.871 452.442 351.733 458.992 347.366C486.012 329.284 481.986 281.864 475.368 203.193C474.686 195.073 474.003 186.613 473.253 177.811Z" fill="#000200"/>
<path d="M472.093 198.007C474.208 218.749 478.029 238.877 477.415 259.552C478.575 272.379 478.302 285.07 475.231 297.147C475.163 305.881 474.89 314.546 474.413 323.28C492.972 323.416 510.507 322.324 525.927 310.52C539.437 300.217 546.192 284.319 546.056 267.535C546.056 251.432 541.211 234.715 528.384 224.139C512.076 210.698 485.807 214.792 472.093 198.007Z" fill="#000200"/>
<path d="M597.624 479.658C597.605 479.658 597.591 479.651 597.583 479.638C597.555 479.597 597.573 479.495 597.639 479.325C608.853 449.316 616.397 421.72 619.455 399.519C620.998 388.318 621.386 378.595 620.609 370.622C619.808 362.418 617.773 356.084 614.559 351.799C612.761 349.407 610.014 345.553 607.141 340.777C603.747 335.133 601.032 329.628 599.071 324.413C596.565 317.749 595.313 311.593 595.35 306.118C595.371 302.977 595.82 300.014 596.684 297.311C597.619 294.387 599.065 291.692 600.981 289.3C604.043 285.442 607.028 283.009 609.852 282.068C607.546 279.483 606.801 275.926 607.805 272.311C609.385 266.471 615.394 255.38 624.794 250.476C627.808 248.869 630.912 248.054 634.02 248.054C636.136 248.054 638.289 248.432 640.42 249.18C644.162 250.475 647.531 252.228 650.433 254.392C652.769 256.136 654.812 258.149 656.504 260.378C659.552 264.391 660.402 267.706 660.411 267.739C660.612 268.476 660.503 269.272 660.112 269.924C659.733 270.554 659.137 270.99 658.433 271.15C658.19 271.217 657.939 271.25 657.689 271.25C657.079 271.25 656.477 271.048 655.996 270.681C655.495 270.3 655.158 269.778 655.02 269.172C655.018 269.163 655.014 269.149 655.007 269.132C654.471 267.447 651.161 258.822 638.646 254.502C637.159 253.988 635.649 253.728 634.157 253.728C631.923 253.728 629.668 254.31 627.455 255.457C623.319 257.661 620.117 261.413 618.159 264.174C615.886 267.377 614.056 270.981 613.263 273.811C612.456 276.703 613.826 278.563 615.379 279.338C615.952 279.615 616.614 279.761 617.29 279.761C618.225 279.761 619.161 279.495 620.076 278.972C621.131 278.369 622.121 277.435 623.02 276.199C625.798 272.496 629.941 270.286 634.103 270.286C635.618 270.286 637.077 270.576 638.44 271.15C639.256 271.482 640.497 272.126 641.786 273.303C643.198 274.594 644.38 276.254 645.297 278.238C646.435 280.696 647.169 283.66 647.479 287.049C647.844 291.037 647.627 295.673 646.833 300.831C644.988 312.858 640.138 317.005 636.393 318.367C635.197 318.808 633.918 319.032 632.592 319.032C629.095 319.033 625.357 317.463 622.065 314.614C618 311.091 614.419 305.146 615.583 299.808C616.153 297.18 616.177 294.357 615.651 291.859C615.169 289.566 614.276 287.896 613.263 287.39C613.064 287.29 612.828 287.239 612.564 287.239C610.849 287.239 608.219 289.283 605.348 292.848C602.81 296.021 601.373 299.974 601.081 304.598C600.813 308.808 601.489 313.599 603.088 318.836C604.543 323.598 606.746 328.694 609.638 333.982C612.289 338.832 615.437 343.702 618.995 348.457C620.789 350.852 622.308 353.693 623.509 356.9C624.704 360.088 625.613 363.716 626.212 367.683C627.406 375.592 627.412 385.078 626.227 395.878C625.042 406.675 622.654 418.915 619.129 432.26C615.577 445.705 610.826 460.438 605.007 476.049C604.589 477.094 603.495 477.823 602.346 477.823C601.994 477.823 601.655 477.75 601.391 477.618C601.294 477.581 601.186 477.562 601.071 477.562C600.42 477.562 599.585 478.16 599.014 478.61C598.807 478.772 598.609 478.936 598.435 479.081C598.047 479.403 597.742 479.658 597.624 479.658ZM633.924 275.82C632.765 275.82 631.547 276.158 630.401 276.795C629.233 277.445 628.167 278.396 627.318 279.543C626.088 281.194 624.699 282.514 623.19 283.466C621.833 284.322 620.376 284.885 618.858 285.138C620.137 287.008 621.007 289.538 621.374 292.456C621.723 295.233 621.581 298.232 620.974 300.9C620.71 302.115 621.047 303.741 621.92 305.479C622.787 307.206 624.123 308.923 625.682 310.315C626.788 311.293 627.946 312.054 629.123 312.578C630.285 313.095 631.414 313.358 632.476 313.358C633.142 313.358 633.771 313.252 634.347 313.044C635.982 312.431 637.406 310.985 638.577 308.745C639.756 306.492 640.628 303.531 641.17 299.944C641.707 296.378 641.949 293.09 641.887 290.171C641.831 287.508 641.524 285.135 640.974 283.116C640.472 281.277 639.773 279.743 638.896 278.557C638.089 277.466 637.156 276.697 636.121 276.268C635.444 275.971 634.705 275.82 633.925 275.82L633.924 275.82Z" fill="#000200"/>
<path d="M656.317 281.385C652.428 231.986 652.087 217.794 657.068 212.062C658.569 210.356 660.548 209.401 663.072 209.197C673.989 208.446 676.719 225.709 678.493 236.011L678.629 236.762C678.902 238.263 677.879 239.764 676.309 240.037C674.808 240.31 673.307 239.287 673.034 237.717L672.898 236.967C671.874 230.894 669.077 214.792 663.618 214.792C663.55 214.792 663.482 214.792 663.413 214.792C662.117 214.86 661.639 215.269 661.298 215.679C657.477 220.114 658.978 243.312 661.912 280.908C662.049 282.477 660.889 283.773 659.32 283.91C659.32 283.978 659.251 283.978 659.115 283.978C657.682 283.978 656.454 282.886 656.317 281.385Z" fill="#000200"/>
<path d="M675.967 279.885C672.078 230.485 671.737 216.293 676.718 210.562C678.219 208.856 680.198 207.901 682.723 207.696C692.753 207.15 695.209 221.274 696.71 230.69L697.12 233.283C697.393 234.784 696.369 236.285 694.8 236.558C693.231 236.831 691.798 235.807 691.525 234.238L691.115 231.577C690.024 224.686 688.181 213.291 683.269 213.291C683.201 213.291 683.132 213.291 683.064 213.291C681.767 213.359 681.289 213.769 680.948 214.178C677.127 218.613 678.628 241.812 681.562 279.407C681.699 280.977 680.539 282.273 678.969 282.409C678.969 282.478 678.901 282.478 678.765 282.478C677.332 282.478 676.104 281.386 675.967 279.885Z" fill="#000200"/>
<path d="M700.122 280.977C697.188 243.382 695.687 220.251 699.508 215.748C699.849 215.338 700.395 214.929 701.623 214.861H701.691C702.851 214.861 707.9 216.498 711.244 243.04C713.427 260.781 722.638 411.026 695.482 479.871C695.278 480.349 695.278 480.895 695.346 481.373C695.414 481.373 695.482 481.373 695.619 481.373C697.393 481.236 699.167 481.236 700.941 481.373C728.711 410.207 719.158 261.122 716.839 242.358C714.996 227.825 711.38 208.652 701.282 209.334C698.757 209.539 696.779 210.426 695.278 212.2C690.365 217.931 690.706 232.123 694.527 281.523C694.595 282.956 696.028 284.252 697.529 283.979C699.098 283.843 700.258 282.478 700.122 280.977Z" fill="#000200"/>
<path d="M648.061 322.188C644.99 320.277 642.193 325.122 645.195 327.032C654.065 332.559 660.342 339.587 663.549 349.685C664.709 353.097 670.099 351.596 669.008 348.184C665.392 336.653 658.227 328.533 648.061 322.188Z" fill="#000200"/>
<path d="M333.925 813.796C333.166 813.796 332.481 813.517 331.946 812.977C331.41 812.445 331.128 811.756 331.128 810.999V740.789C331.128 740.065 331.412 739.376 331.929 738.851C332.442 738.332 333.127 738.025 333.856 737.991L963.359 718.75C963.406 718.75 963.447 718.75 963.495 718.75C964.273 718.75 964.948 719.016 965.446 719.535C965.917 720.012 966.19 720.681 966.224 721.411L970.728 808.611C970.796 809.368 970.523 810.112 969.977 810.658C969.39 811.244 968.701 811.545 967.93 811.545L333.925 813.796ZM960.766 724.413L336.722 743.518V808.133L964.996 805.881L960.766 724.413Z" fill="#000200"/>
<path d="M568.163 790.392C567.426 790.392 566.68 790.071 566.116 789.505C565.558 788.877 565.299 788.127 565.366 787.322L567.617 762.758C567.683 762.069 567.993 761.428 568.487 760.957C568.981 760.493 569.617 760.234 570.278 760.234L722.161 754.707H722.297C722.993 754.707 723.648 754.953 724.16 755.396C724.665 755.847 724.999 756.467 725.095 757.163L728.438 783.978C728.513 784.838 728.281 785.575 727.756 786.162C727.217 786.769 726.473 787.117 725.709 787.117L568.163 790.392ZM719.773 760.37L572.939 765.761L571.234 784.729L722.434 781.522L719.773 760.37Z" fill="#000200"/>
<path d="M389.602 775.381H360.058C358.49 775.381 357.261 774.153 357.261 772.584V761.257C357.261 759.688 358.49 758.46 360.058 758.46H389.602C391.171 758.46 392.399 759.688 392.399 761.257V772.584C392.431 773.287 392.169 773.969 391.66 774.501C391.124 775.061 390.374 775.381 389.602 775.381ZM362.923 764.055V769.718H386.804V764.055H362.923Z" fill="#000200"/>
<path d="M931.017 790.392H830.512C829.011 790.392 827.783 789.225 827.715 787.731L826.282 760.438C826.214 759.715 826.541 758.889 827.101 758.323C827.626 757.798 828.383 757.504 829.216 757.504L860.193 758.801L860.056 739.628C860.056 738.829 860.356 738.106 860.875 737.649C861.414 737.117 862.096 736.83 862.854 736.83H899.699C900.361 736.83 901.002 737.055 901.5 737.471C901.998 737.881 902.332 738.454 902.428 739.082L906.454 760.165L932.996 758.459C933.064 758.453 933.132 758.453 933.207 758.453C933.924 758.453 934.66 758.76 935.179 759.278C935.779 759.954 936.059 760.704 935.998 761.462L933.746 787.799C933.746 788.515 933.46 789.177 932.948 789.662C932.436 790.132 931.754 790.392 931.017 790.392ZM832.15 763.372L833.241 784.797H928.492L930.266 764.259L904.475 765.897C904.393 765.903 904.311 765.91 904.229 765.91C902.953 765.91 901.8 764.935 901.541 763.645L897.515 742.425H865.856L865.992 761.735C865.992 762.546 865.679 763.277 865.105 763.781C864.635 764.252 863.966 764.518 863.058 764.6L832.15 763.372Z" fill="#000200"/>
<path d="M528.453 790.392H487.992C486.423 790.392 485.195 789.164 485.195 787.594V769.65C485.195 768.189 486.309 766.989 487.787 766.852L527.907 763.509C527.99 763.502 528.073 763.502 528.156 763.502C528.849 763.502 529.512 763.748 530.023 764.191C530.59 764.757 530.912 765.447 530.978 766.238L531.318 787.594C531.318 788.379 531.02 789.123 530.5 789.641C529.859 790.14 529.17 790.392 528.453 790.392ZM525.314 769.308L490.789 772.174V784.797H525.588L525.314 769.308Z" fill="#000200"/>
<path d="M472.298 790.392H438.387C436.818 790.392 435.589 789.164 435.589 787.594V772.515C435.589 770.946 436.818 769.718 438.387 769.718H472.025C473.541 769.718 474.822 770.966 474.822 772.447L475.095 787.526C475.095 788.311 474.797 789.055 474.276 789.573C473.821 790.092 473.1 790.392 472.298 790.392ZM441.184 775.381V784.797H469.432L469.295 775.381H441.184Z" fill="#000200"/>
<path d="M1047.76 683.677H933.269C932.545 683.677 931.856 683.411 931.331 682.92C930.812 682.429 930.505 681.781 930.471 681.085L923.784 575.941C923.546 572.275 923.682 568.595 924.187 565.005C924.692 561.451 925.558 557.941 926.766 554.576C927.981 551.216 929.543 547.961 931.419 544.901C933.309 541.821 935.541 538.904 938.045 536.23C943.101 530.832 949.03 526.64 955.655 523.769C962.28 520.9 969.397 519.445 976.8 519.445H988.809C1016.31 519.445 1039.57 540.934 1041.76 568.367L1050.63 680.607C1050.69 681.379 1050.41 682.19 1049.88 682.722C1049.33 683.336 1048.58 683.677 1047.76 683.677ZM976.8 525.109C973.518 525.109 970.243 525.439 967.077 526.091C963.925 526.739 960.841 527.711 957.907 528.981C954.973 530.251 952.148 531.835 949.521 533.687C946.867 535.555 944.383 537.72 942.139 540.119C933.091 549.78 928.561 562.404 929.379 575.667L935.93 678.083H1044.76L1036.16 568.844C1035.69 562.834 1034.1 557.049 1031.42 551.648C1030.13 549.046 1028.59 546.544 1026.83 544.211C1025.09 541.9 1023.14 539.731 1021.01 537.765C1018.88 535.8 1016.56 534.018 1014.11 532.47C1011.65 530.908 1009.03 529.569 1006.33 528.488C1000.74 526.245 994.84 525.109 988.809 525.109H976.8Z" fill="#000200"/>
<path d="M1039.71 582.082L926.514 578.534C924.944 578.466 923.716 577.17 923.784 575.669C923.853 574.099 925.081 573.008 926.65 572.939L1039.85 576.487C1041.42 576.556 1042.64 577.852 1042.58 579.353C1042.51 580.922 1041.28 582.082 1039.78 582.082H1039.71Z" fill="#000200"/>
<path d="M733.487 535.002C731.918 535.002 730.69 533.774 730.69 532.205C730.69 530.635 731.918 529.407 733.487 529.407H816.866C823.825 529.407 830.512 526.405 835.22 521.22C839.86 516.034 842.111 509.074 841.361 502.115C840.406 493.586 843.135 484.989 848.866 478.575C854.598 472.161 862.786 468.545 871.383 468.545H871.451L949.439 468.75C966.088 468.818 979.598 482.328 979.598 498.976V519.65C979.598 521.22 978.369 522.448 976.8 522.448C975.231 522.448 974.003 521.22 974.003 519.65V498.976C974.003 485.466 963.017 474.413 949.439 474.345L871.451 474.14H871.383C864.423 474.14 857.736 477.142 853.097 482.328C848.457 487.513 846.205 494.541 846.956 501.501C847.911 510.03 845.182 518.627 839.45 524.972C833.651 531.386 825.463 535.002 816.866 535.002H733.487Z" fill="#000200"/>
<path d="M997.679 578.056L986.08 522.788C985.738 521.287 986.762 519.787 988.263 519.446C989.764 519.105 991.265 520.128 991.606 521.629L1003.21 576.896C1003.55 578.398 1002.52 579.899 1001.02 580.24C1000.75 580.308 1000.61 580.308 1000.41 580.308C999.112 580.308 997.952 579.42 997.679 578.056Z" fill="#000200"/>
</g>
<defs>
<clipPath id="clip0_198_1426">
<rect width="1065.77" height="814" fill="white"/>
</clipPath>
</defs>
</svg>
