<svg width="521" height="491" viewBox="0 0 521 491" fill="none" xmlns="http://www.w3.org/2000/svg">
<g filter="url(#filter0_b_56_788)">
<path d="M312.301 385.902C312.325 385.73 312.35 385.558 312.35 385.387L414.061 385.018L412.44 353.643L318.119 356.516C345.394 264.404 442.784 260.01 442.784 260.01L449.093 385.902C449.093 385.902 312.031 388.357 312.301 385.902Z" fill="#FF3857"/>
</g>
<g filter="url(#filter1_b_56_788)">
<path d="M305.105 277.024L305.053 277.023C305.03 277.023 305.007 277.023 304.985 277.023L156.531 276.189C154.525 276.176 152.578 275.779 150.744 275.008C149.861 274.636 149.008 274.178 148.21 273.645C147.418 273.117 146.673 272.511 145.993 271.843C145.313 271.176 144.693 270.441 144.151 269.659C143.603 268.87 143.129 268.026 142.742 267.15C141.937 265.33 141.505 263.39 141.457 261.385L140.843 234.576L139.321 170.697L139.027 158.029C138.973 155.952 139.334 153.932 140.1 152.023C140.467 151.107 140.928 150.223 141.469 149.394C142.005 148.574 142.624 147.802 143.309 147.099C143.998 146.392 144.76 145.749 145.572 145.189C146.392 144.624 147.271 144.138 148.184 143.745C150.084 142.927 152.105 142.513 154.192 142.513C154.25 142.513 154.309 142.513 154.371 142.514L300.099 144.502C303.968 144.55 307.632 146.055 310.416 148.74C311.775 150.051 312.864 151.581 313.653 153.288C314.468 155.051 314.93 156.935 315.026 158.889L315.811 174.527L315.682 174.591L315.517 174.674C315.517 173.999 315.298 173.993 315.087 173.987C314.876 173.981 314.657 173.974 314.657 173.299C314.654 172.847 314.545 172.417 314.333 172.019C314.139 171.655 313.865 171.329 313.519 171.049C312.875 170.529 312.025 170.219 311.243 170.219C310.628 170.219 310.119 170.404 309.771 170.755C309.442 171.087 309.277 171.546 309.281 172.121C309.297 174.2 309.23 175.649 309.152 177.327L309.152 177.33L309.151 177.338C309.111 178.208 309.069 179.107 309.036 180.173C308.824 179.268 308.775 178.289 308.726 177.342C308.672 176.273 308.616 175.167 308.327 174.159C308.172 173.616 307.964 173.145 307.691 172.718C307.385 172.238 307.005 171.826 306.531 171.458C306.124 171.144 305.581 170.977 304.961 170.977C303.959 170.977 302.912 171.407 302.228 172.098C301.712 172.62 301.443 173.247 301.449 173.913C301.466 175.866 301.493 177.852 301.52 179.772L301.52 179.784L301.52 179.788C301.574 183.632 301.63 187.606 301.597 191.515C301.477 191.346 301.467 190.607 301.457 189.893C301.448 189.223 301.44 188.591 301.334 188.591C301.276 188.591 301.193 188.777 301.081 189.159C299.881 187.731 298.777 186.687 297.705 185.967C297.112 185.569 296.517 185.264 295.935 185.061C295.322 184.847 294.7 184.738 294.089 184.738C293.486 184.738 292.872 184.843 292.264 185.051C291.633 185.266 290.987 185.599 290.343 186.041C289.678 186.497 288.994 187.084 288.311 187.785C287.607 188.508 286.882 189.375 286.155 190.362C285.825 190.808 285.664 191.416 285.69 192.121C285.714 192.763 285.893 193.448 286.196 194.047C286.686 195.02 287.404 195.601 288.116 195.601C288.248 195.601 288.381 195.581 288.512 195.542C289.166 195.349 289.889 194.912 290.654 194.448C291.258 194.082 291.884 193.703 292.526 193.414C293.254 193.085 293.894 192.926 294.482 192.926C295.925 192.926 297.144 193.894 298.209 195.885C298.209 197.307 298.064 199.595 297.657 201.753C297.432 202.945 297.15 203.97 296.821 204.799C296.438 205.764 295.988 206.466 295.484 206.884C294.772 207.477 294.01 207.778 293.221 207.778C292.634 207.778 292.056 207.611 291.503 207.281C290.968 206.961 290.485 206.507 290.068 205.93C289.443 205.068 289.02 204.002 288.845 202.849C288.655 201.599 288.769 200.286 289.175 199.052C289.337 198.571 289.262 198.093 288.958 197.67C288.727 197.348 288.376 197.073 287.943 196.875C287.525 196.684 287.051 196.578 286.608 196.578C286.154 196.578 285.742 196.687 285.418 196.892C284.478 197.493 283.704 198.181 283.116 198.937C282.561 199.651 282.156 200.447 281.914 201.302C281.686 202.103 281.595 202.981 281.642 203.911C281.685 204.773 281.849 205.707 282.129 206.687C282.104 210.373 283.298 212.809 285.369 215.771C285.438 215.869 285.518 215.981 285.602 216.099L285.604 216.101C286.407 217.222 287.902 219.308 288.913 222.948C290.15 227.403 290.288 232.843 289.322 239.118C288.6 243.841 287.451 248.759 285.906 253.734C284.462 258.386 282.663 263.124 280.558 267.817H318.978C318.409 269.156 317.65 270.405 316.723 271.53C315.8 272.65 314.725 273.63 313.528 274.442C311.039 276.131 308.126 277.023 305.105 277.023L305.105 277.024ZM211.185 143.61C209.433 143.61 207.645 143.706 205.873 143.896C204.121 144.083 202.368 144.363 200.664 144.729C198.963 145.093 197.297 145.545 195.712 146.072C194.115 146.603 192.587 147.215 191.171 147.89C190.433 148.248 189.993 149.019 189.993 149.952C189.477 151.982 189.049 154.012 188.635 155.976C187.753 160.164 186.92 164.118 185.341 167.771C184.494 169.73 183.507 171.431 182.322 172.972C181.683 173.804 180.975 174.6 180.217 175.337C179.425 176.108 178.551 176.843 177.619 177.522C177.203 177.827 176.788 178.121 176.388 178.405L176.384 178.408C174.718 179.591 173.145 180.708 172.07 182.128C170.881 183.699 170.398 185.503 170.549 187.808C170.695 190.073 171.536 192.116 173.121 194.056C174.617 195.888 176.582 197.386 178.307 198.61C179.052 199.133 179.844 199.608 180.611 200.068C181.832 200.8 182.985 201.492 183.975 202.364C184.507 202.833 184.94 203.309 185.298 203.819C185.699 204.391 185.998 204.992 186.212 205.656C186.523 206.624 186.632 207.836 186.547 209.363C186.472 210.712 186.259 212.128 186.053 213.498C185.824 215.025 185.607 216.468 185.598 217.686C185.569 220.602 186.149 223.3 187.324 225.706C188.41 227.93 190.009 229.918 192.076 231.615C193.993 233.189 196.303 234.506 198.941 235.531C201.415 236.492 204.128 237.178 207.006 237.571C207.916 237.696 208.803 237.759 209.642 237.759C211.574 237.759 213.295 237.427 214.759 236.773C216.422 236.031 217.77 234.862 218.765 233.299C219.141 232.712 219.416 232.044 219.604 231.258C219.772 230.556 219.858 229.826 219.941 229.119C220.053 228.17 220.169 227.189 220.484 226.254C220.941 224.883 221.667 223.593 222.705 222.31C223.542 221.276 224.576 220.251 225.958 219.085C240.838 215.752 238.43 191.826 236.991 177.53C236.791 175.546 236.603 173.673 236.49 172.121C236.393 170.81 236.331 169.475 236.266 168.062C236.079 164.001 235.885 159.803 234.809 156.099C234.227 154.094 233.448 152.435 232.427 151.025C231.871 150.258 231.234 149.56 230.536 148.951C229.8 148.311 228.97 147.747 228.069 147.276C225.718 146.051 223.032 145.116 220.085 144.496C217.29 143.908 214.295 143.61 211.185 143.61Z" fill="#7BAEED"/>
</g>
<g filter="url(#filter2_b_56_788)">
<path d="M385.46 162.816C385.243 162.816 385.026 162.744 384.849 162.614C384.666 162.478 384.537 162.294 384.478 162.08C384.477 162.076 384.472 162.061 384.465 162.037C384.18 161.088 383.114 157.726 381.34 154.298C380.239 152.172 379.07 150.416 377.864 149.079C376.371 147.423 374.813 146.404 373.234 146.048C372.823 145.952 372.522 145.632 372.448 145.214C372.379 144.823 372.572 144.419 372.939 144.183C380.533 139.858 384.901 127.004 384.944 126.875C385.017 126.669 385.144 126.496 385.312 126.375C385.482 126.252 385.686 126.188 385.902 126.188C386.342 126.188 386.736 126.48 386.859 126.899C386.86 126.901 386.861 126.906 386.864 126.913L386.865 126.919C387.076 127.569 388.217 131 390.048 134.686C391.159 136.92 392.309 138.818 393.469 140.328C394.909 142.202 396.369 143.483 397.808 144.133C398.147 144.279 398.373 144.617 398.398 145.017C398.423 145.391 398.22 145.757 397.882 145.95C397.878 145.952 397.326 146.264 396.432 146.934C395.645 147.522 394.434 148.511 393.129 149.878C391.668 151.408 390.388 153.092 389.324 154.885C387.996 157.121 387.001 159.534 386.368 162.055C386.344 162.482 385.945 162.816 385.46 162.816ZM385.902 130.14C384.292 133.954 380.825 140.932 375.689 144.821C377.86 145.934 379.927 148.04 381.833 151.081C382.57 152.258 383.284 153.578 383.954 155.005C384.478 156.122 384.977 157.305 385.435 158.52C386.615 155.313 388.347 152.356 390.582 149.731C392.47 147.512 394.313 146.01 395.525 145.14C390.889 141.936 387.506 134.367 385.902 130.14Z" fill="#000200"/>
</g>
<g filter="url(#filter3_b_56_788)">
<path d="M97.4145 281.613L97.3162 281.613C96.9235 281.613 96.5574 281.372 96.3833 280.999C95.9188 279.899 94.9133 277.607 93.3986 274.629C91.9451 271.772 90.4724 269.165 89.0214 266.883C87.2438 264.087 85.5496 261.865 83.986 260.279C83.1012 259.381 82.2482 258.679 81.4508 258.191C80.592 257.666 79.7763 257.378 79.0264 257.333C78.537 257.309 78.1433 256.945 78.069 256.449C78.0202 255.961 78.313 255.517 78.7809 255.369C81.2798 254.607 83.5939 253.57 85.6588 252.288C87.5506 251.114 89.2219 249.743 90.6264 248.213C91.926 246.797 92.9655 245.284 93.7159 243.714C94.0711 242.971 94.3573 242.221 94.5664 241.484C94.7718 240.761 94.904 240.047 94.9595 239.363C95.009 238.893 95.3542 238.528 95.8186 238.454C95.8731 238.446 95.9283 238.441 95.9827 238.441C96.3913 238.441 96.7509 238.687 96.8988 239.068C96.9465 239.187 102.055 251.147 110.721 255.443C111.025 255.595 111.237 255.894 111.261 256.204C111.31 256.522 111.184 256.869 110.942 257.088C110.401 257.569 109.903 257.986 109.419 258.364L109.392 258.387C108.506 259.11 107.502 259.931 106.438 261.007C105.201 262.259 104.143 263.597 103.204 265.099C102.651 265.984 102.134 266.937 101.668 267.934C101.159 269.021 100.694 270.194 100.285 271.421C99.3739 274.152 98.6973 277.284 98.2738 280.729C98.225 281.167 97.8636 281.538 97.4145 281.613ZM96.3833 242.53C95.5126 245.181 93.8678 247.798 91.6268 250.097C90.4093 251.346 89.0222 252.494 87.5039 253.508C85.8804 254.592 84.0937 255.533 82.1935 256.302C84.8302 257.803 87.717 260.992 90.7737 265.782C93.3415 269.805 95.4952 274.128 96.8498 277.047C97.3997 274.034 98.1668 271.275 99.1294 268.846C99.9585 266.754 100.961 264.838 102.109 263.151C103.044 261.776 104.084 260.532 105.287 259.346C106.325 258.325 107.303 257.523 108.165 256.815L108.192 256.793C108.23 256.762 108.267 256.731 108.302 256.702C108.379 256.636 108.451 256.574 108.536 256.523C105.866 254.945 103.304 252.612 100.922 249.591C98.8442 246.955 97.307 244.296 96.3833 242.53Z" fill="#000200"/>
</g>
<g filter="url(#filter4_b_56_788)">
<path d="M285.91 156.458C285.394 155.255 283.651 156.286 284.167 157.489C284.903 159.208 285.787 160.853 286.548 162.546C287.088 163.725 288.831 162.694 288.291 161.515C287.53 159.821 286.646 158.177 285.91 156.458Z" fill="#FFCB56"/>
</g>
<g filter="url(#filter5_b_56_788)">
<path d="M276.507 167.898C275.5 167.088 274.077 168.512 275.083 169.322C277.464 171.262 279.969 173.054 282.448 174.846C283.479 175.607 284.51 173.84 283.455 173.103C281.098 171.409 278.741 169.74 276.507 167.898Z" fill="#FFCB56"/>
</g>
<g filter="url(#filter6_b_56_788)">
<path d="M66.3342 288.439C65.4013 289.347 66.8252 290.771 67.7581 289.862C71.5879 286.057 75.5896 282.424 79.4194 278.619C80.3523 277.71 78.9284 276.286 77.9955 277.195C74.1657 281 70.1886 284.658 66.3342 288.439Z" fill="#F674B4"/>
</g>
<g filter="url(#filter7_b_56_788)">
<path d="M81.1623 231.507C80.5731 230.353 78.8301 231.384 79.4193 232.538C80.2294 234.084 81.1869 235.508 82.3898 236.76C83.2736 237.669 84.6975 236.245 83.8137 235.312C82.7335 234.182 81.8743 232.906 81.1623 231.507Z" fill="#F674B4"/>
</g>
<g filter="url(#filter8_b_56_788)">
<path d="M411.728 200.01C410.722 199.2 409.298 200.624 410.304 201.434C414.625 204.895 418.749 208.578 422.726 212.432C423.659 213.34 425.083 211.917 424.15 211.008C420.173 207.154 416.049 203.471 411.728 200.01Z" fill="#F674B4"/>
</g>
<g filter="url(#filter9_b_56_788)">
<path d="M324.551 142.217C323.52 141.432 322.489 143.199 323.52 143.961C326.883 146.465 330.222 148.993 333.217 151.964C334.15 152.848 335.574 151.424 334.641 150.515C331.523 147.447 328.037 144.82 324.551 142.217Z" fill="#000200"/>
</g>
<g filter="url(#filter10_b_56_788)">
<path d="M323.913 151.669C323.004 152.577 324.428 154.026 325.336 153.093L335.525 142.905C336.433 141.996 335.009 140.572 334.101 141.481C330.713 144.869 327.3 148.281 323.913 151.669Z" fill="#000200"/>
</g>
<g filter="url(#filter11_b_56_788)">
<path d="M331.4 267.938H331.278L182.824 267.104C174.028 267.03 166.964 260.096 166.744 251.318L164.289 147.987C164.19 143.551 165.847 139.383 168.953 136.252C170.484 134.71 172.256 133.51 174.222 132.686C176.196 131.86 178.297 131.44 180.467 131.44H180.664L326.392 133.429C328.471 133.453 330.493 133.872 332.403 134.673C334.251 135.449 335.924 136.552 337.375 137.952C338.827 139.352 339.99 140.985 340.833 142.805C341.705 144.686 342.199 146.694 342.301 148.773L347.481 250.974C347.591 253.204 347.261 255.375 346.499 257.425C345.733 259.486 344.56 261.347 343.013 262.955C342.265 263.751 341.436 264.47 340.549 265.09C339.671 265.705 338.726 266.231 337.741 266.653C336.757 267.074 335.722 267.397 334.665 267.612C333.601 267.829 332.502 267.938 331.4 267.938ZM180.492 133.454C178.59 133.454 176.751 133.819 175.026 134.54C173.308 135.258 171.761 136.305 170.426 137.652C167.7 140.402 166.253 144.055 166.351 147.938L168.806 251.269C169.003 258.97 175.182 265.042 182.873 265.091L331.327 265.925H331.425C333.359 265.925 335.225 265.546 336.97 264.799C338.722 264.049 340.284 262.958 341.613 261.555C342.968 260.139 343.994 258.512 344.661 256.719C345.327 254.929 345.615 253.029 345.517 251.072L340.337 148.871C340.247 147.051 339.813 145.294 339.049 143.648C338.309 142.056 337.289 140.628 336.016 139.404C334.744 138.18 333.278 137.215 331.657 136.536C329.984 135.834 328.213 135.466 326.392 135.442L180.664 133.454H180.492Z" fill="#000200"/>
</g>
<g filter="url(#filter12_b_56_788)">
<path d="M131.171 297.545L128.544 95.2534C128.544 94.9833 128.642 94.7133 128.838 94.5414C129.035 94.345 129.256 94.1977 129.55 94.2468L329.706 94.8851C330.271 94.8851 330.713 95.327 330.713 95.8917V134.877C330.713 135.442 330.271 135.884 329.706 135.884C329.142 135.884 328.7 135.442 328.7 134.877V96.8737L130.581 96.2354L133.184 297.521C133.184 298.085 132.742 298.552 132.177 298.552C131.637 298.552 131.171 298.11 131.171 297.545Z" fill="#000200"/>
</g>
<g filter="url(#filter13_b_56_788)">
<path d="M328.7 294.501C328.7 295.066 329.142 295.508 329.707 295.508C330.271 295.508 330.713 295.066 330.713 294.501V266.907C330.05 266.932 329.363 266.932 328.7 267.005V294.501Z" fill="#000200"/>
</g>
<g filter="url(#filter14_b_56_788)">
<path d="M122.504 366.924L119.73 298.748L378.266 294.747V354.968C378.929 354.771 379.592 354.6 380.279 354.501V293.716C380.279 293.445 380.181 293.175 379.985 293.004C379.788 292.807 379.518 292.734 379.273 292.709L118.675 296.735C118.405 296.735 118.135 296.858 117.963 297.054C117.766 297.251 117.668 297.521 117.693 297.791L120.54 367.955C120.565 368.495 121.007 368.912 121.547 368.912H186.089C186.064 368.74 186.015 368.568 185.991 368.421C185.868 367.906 185.868 367.39 185.966 366.924H122.504Z" fill="#000200"/>
</g>
<g filter="url(#filter15_b_56_788)">
<path d="M220.435 328.822C220.803 328.822 221.146 328.994 221.343 329.289C221.441 329.436 221.49 329.583 221.515 329.755L222.546 338.176C222.57 338.47 222.497 338.74 222.349 338.937C222.153 339.182 221.834 339.354 221.49 339.354L144.28 338.569C144.133 338.569 143.986 338.544 143.863 338.47C143.495 338.299 143.225 337.93 143.225 337.488V331.817C143.225 331.596 143.298 331.4 143.397 331.228C143.544 330.983 143.863 330.811 144.231 330.786L220.435 328.822Z" fill="#000200"/>
</g>
<g filter="url(#filter16_b_56_788)">
<path d="M235.557 338.47C235.582 338.667 235.68 338.863 235.803 339.011C235.999 339.256 236.294 339.403 236.613 339.403H254.608C254.952 339.403 255.246 339.256 255.443 339.011C255.639 338.765 255.713 338.446 255.639 338.127L253.773 329.657C253.724 329.411 253.577 329.215 253.405 329.068C253.233 328.92 252.988 328.822 252.742 328.822H235.508C235.189 328.822 234.894 328.97 234.722 329.191C234.502 329.387 234.403 329.681 234.452 330.001L235.557 338.47Z" fill="#000200"/>
</g>
<g filter="url(#filter17_b_56_788)">
<path d="M349.911 338.667C348.213 338.667 346.565 338.328 345.012 337.659C343.513 337.013 342.166 336.088 341.009 334.911C339.852 333.733 338.943 332.363 338.308 330.837C337.65 329.257 337.317 327.58 337.317 325.852C337.317 324.154 337.65 322.506 338.308 320.953C338.943 319.454 339.852 318.107 341.009 316.95C342.166 315.792 343.513 314.884 345.012 314.249C346.565 313.591 348.213 313.258 349.911 313.258C351.609 313.258 353.257 313.591 354.81 314.249C356.309 314.884 357.656 315.792 358.814 316.95C359.971 318.107 360.88 319.454 361.514 320.953C362.172 322.506 362.505 324.154 362.505 325.852C362.505 327.97 362.238 329.853 361.711 331.448C361.185 333.041 360.387 334.389 359.338 335.454C358.291 336.519 356.966 337.329 355.4 337.863C353.835 338.396 351.988 338.667 349.911 338.667ZM349.911 315.271C348.483 315.271 347.097 315.551 345.793 316.103C344.533 316.636 343.401 317.399 342.43 318.37C341.458 319.342 340.695 320.474 340.162 321.734C339.61 323.038 339.33 324.424 339.33 325.852C339.33 331.707 344.176 336.654 349.911 336.654C351.712 336.654 353.293 336.435 354.609 336.002C355.272 335.784 355.885 335.507 356.431 335.178C356.978 334.849 357.475 334.457 357.908 334.015C358.342 333.572 358.725 333.065 359.047 332.506C359.369 331.949 359.641 331.323 359.854 330.647C360.277 329.303 360.492 327.69 360.492 325.852C360.486 324.424 360.202 323.038 359.647 321.734C359.111 320.474 358.346 319.342 357.374 318.37C356.403 317.399 355.272 316.636 354.016 316.103C352.714 315.551 351.333 315.271 349.911 315.271Z" fill="#000200"/>
</g>
<g filter="url(#filter18_b_56_788)">
<path d="M348.904 328.405V310.459C348.904 309.894 349.346 309.452 349.911 309.452C350.476 309.452 350.918 309.894 350.918 310.459V328.405C350.918 328.969 350.451 329.411 349.911 329.411C349.346 329.411 348.904 328.969 348.904 328.405Z" fill="#000200"/>
</g>
<g filter="url(#filter19_b_56_788)">
<path d="M136.645 286.891C136.081 286.891 135.639 286.449 135.639 285.884C135.639 285.32 136.081 284.878 136.645 284.878H155.794C156.359 284.878 156.801 285.32 156.801 285.884C156.801 286.425 156.359 286.891 155.794 286.891H136.645Z" fill="#000200"/>
</g>
<g filter="url(#filter20_b_56_788)">
<path d="M136.645 290.819C136.081 290.819 135.639 290.377 135.639 289.812C135.639 289.248 136.081 288.806 136.645 288.806H155.794C156.359 288.806 156.801 289.248 156.801 289.812C156.801 290.377 156.359 290.819 155.794 290.819H136.645Z" fill="#000200"/>
</g>
<g filter="url(#filter21_b_56_788)">
<path d="M217.439 189.256C217.415 188.691 217.832 188.224 218.372 188.175C220.115 188.053 221.515 187.513 222.128 186.702C222.472 186.26 222.546 185.72 222.399 185.082C222.079 183.658 218.667 183.044 217.194 182.971C216.678 182.946 216.261 182.529 216.236 182.038L215.672 173.421C215.647 172.856 216.065 172.39 216.605 172.341C217.145 172.292 217.636 172.733 217.685 173.274L218.176 181.031C219.993 181.228 223.749 181.989 224.363 184.616C224.657 185.843 224.436 186.972 223.749 187.905C222.767 189.231 220.901 190.041 218.52 190.213C218.495 190.188 218.471 190.188 218.446 190.188C217.93 190.188 217.464 189.771 217.439 189.256Z" fill="#000200"/>
</g>
<g filter="url(#filter22_b_56_788)">
<path d="M222.791 173.224C222.938 175.655 226.719 175.409 226.547 172.979L226.425 171.089C226.277 168.658 222.521 168.904 222.668 171.334L222.791 173.224Z" fill="#000200"/>
</g>
<g filter="url(#filter23_b_56_788)">
<path d="M200.131 174.698C200.279 177.128 204.059 176.883 203.887 174.452L203.765 172.562C203.617 170.132 199.861 170.377 200.009 172.808L200.131 174.698Z" fill="#000200"/>
</g>
<g filter="url(#filter24_b_56_788)">
<path d="M195.811 165.271C194.73 165.811 195.786 167.382 196.866 166.842C198.094 166.228 199.419 165.811 200.745 165.418C201.899 165.099 201.285 163.332 200.131 163.651C198.634 164.068 197.21 164.584 195.811 165.271Z" fill="#000200"/>
</g>
<g filter="url(#filter25_b_56_788)">
<path d="M223.233 159.992C222.251 159.305 220.999 160.729 221.981 161.416C223.086 162.177 224.289 162.668 225.443 163.331C226.498 163.945 227.333 162.251 226.302 161.637C225.295 161.048 224.191 160.655 223.233 159.992Z" fill="#000200"/>
</g>
<g filter="url(#filter26_b_56_788)">
<path d="M203.765 197.087C203.617 195.884 201.727 196.007 201.874 197.21C202.194 199.763 204.55 201.04 206.907 201.261C208.11 201.334 208.503 199.493 207.3 199.395C205.876 199.272 203.961 198.732 203.765 197.087Z" fill="#000200"/>
</g>
<g filter="url(#filter27_b_56_788)">
<path d="M261.654 266.22C257.063 244.493 232.145 229.739 219.845 226.67C219.305 226.523 218.986 225.982 219.109 225.442C219.231 224.902 219.796 224.583 220.336 224.706C235.066 228.364 259.027 243.978 263.642 265.778C263.765 266.318 263.421 266.858 262.857 266.981C262.783 267.03 262.709 267.03 262.636 267.03C262.169 267.03 261.752 266.711 261.654 266.22Z" fill="#000200"/>
</g>
<g filter="url(#filter28_b_56_788)">
<path d="M185.598 225.787C176.564 227.849 168.683 231.752 168.585 231.801C168.094 232.047 167.48 231.85 167.235 231.359C166.989 230.868 167.185 230.255 167.676 230.009C168.02 229.837 176.195 225.762 185.745 223.7C186.114 223.626 186.482 223.749 186.727 224.019C195.025 233.618 206.245 238.97 213.438 236.711C217.415 235.459 219.821 231.973 220.385 226.646C220.434 226.081 220.95 225.688 221.49 225.737C222.055 225.787 222.448 226.302 222.398 226.842C221.564 234.674 217.39 237.571 214.051 238.626C212.726 239.044 211.302 239.24 209.829 239.24C202.341 239.24 193.012 234.183 185.598 225.787Z" fill="#000200"/>
</g>
<g filter="url(#filter29_b_56_788)">
<path d="M236.073 158.004C234.87 143.126 224.804 136.203 206.244 137.406C195.909 138.069 188.372 140.499 183.487 144.796C183.315 144.82 183.167 144.894 183.02 145.017C176.784 146.686 171.752 152.259 167.996 157.267C167.161 158.347 166.375 159.477 165.614 160.63L167.136 224.509C170.107 224.804 173.151 224.657 175.925 224.313C179.117 223.92 182.063 222.889 184.591 221.269L184.935 224.78C184.984 225.295 185.426 225.688 185.942 225.688C185.966 225.688 186.015 225.688 186.04 225.688C186.604 225.639 186.997 225.148 186.948 224.583L186.482 219.894C188.888 217.856 190.778 215.156 191.883 211.842C193.773 206.171 193.626 196.031 187.071 193.184C185.893 192.668 184.64 192.496 183.364 192.447C182.21 192.324 176.932 192.079 175.287 190.68C173.814 189.428 173.495 187.905 173.446 187.095C173.372 185.794 173.765 184.64 174.649 183.683C176.49 181.694 180.418 180.59 185.991 180.516C186.482 180.516 186.899 180.123 187.194 179.706C192.963 170.868 192.963 149.73 192.963 149.73C197.75 153.609 226.817 155.377 233.372 153.683C233.716 155.082 233.961 156.604 234.109 158.224C234.354 161.391 234.624 164.436 234.87 167.357C237.177 194.902 238.601 211.547 229.862 217.365C222.374 222.374 208.208 222.423 208.061 222.423C207.717 222.423 207.398 222.595 207.202 222.889C207.005 223.184 206.981 223.552 207.128 223.847C209.952 230.082 219.6 231.85 219.992 231.924C220.042 231.924 220.115 231.948 220.164 231.948C220.631 231.948 221.073 231.604 221.146 231.113L222.718 222.791C222.742 222.693 222.742 222.595 222.742 222.496C225.688 221.711 228.585 220.581 230.942 219.01C240.664 212.505 239.215 195.442 236.834 167.136C236.588 164.215 236.343 161.17 236.073 158.004Z" fill="#000200"/>
</g>
<g filter="url(#filter30_b_56_788)">
<path d="M235.656 165.271C236.417 172.734 237.791 179.976 237.57 187.415C237.988 192.03 237.89 196.596 236.785 200.942C236.76 204.084 236.662 207.202 236.49 210.344C243.168 210.393 249.477 210.001 255.025 205.753C259.886 202.046 262.317 196.326 262.268 190.287C262.268 184.493 260.525 178.478 255.909 174.673C250.042 169.837 240.59 171.31 235.656 165.271Z" fill="#000200"/>
</g>
<g filter="url(#filter31_b_56_788)">
<path d="M280.822 266.61C280.815 266.61 280.81 266.608 280.807 266.603C280.797 266.589 280.804 266.552 280.827 266.491C284.862 255.694 287.577 245.764 288.677 237.776C289.232 233.746 289.372 230.248 289.092 227.379C288.804 224.427 288.072 222.148 286.915 220.607C286.268 219.746 285.28 218.359 284.247 216.641C283.025 214.61 282.048 212.629 281.343 210.753C280.441 208.355 279.991 206.14 280.004 204.17C280.012 203.04 280.173 201.974 280.484 201.001C280.82 199.949 281.341 198.979 282.03 198.119C283.132 196.731 284.206 195.855 285.222 195.517C284.392 194.587 284.124 193.307 284.485 192.006C285.054 189.905 287.216 185.915 290.598 184.15C291.682 183.572 292.799 183.278 293.918 183.278C294.679 183.278 295.454 183.415 296.22 183.683C297.567 184.149 298.779 184.78 299.823 185.559C300.664 186.186 301.399 186.911 302.008 187.713C303.104 189.157 303.41 190.349 303.413 190.361C303.486 190.626 303.446 190.913 303.306 191.147C303.169 191.374 302.955 191.531 302.701 191.589C302.614 191.612 302.524 191.624 302.434 191.624C302.214 191.624 301.998 191.552 301.825 191.42C301.645 191.282 301.523 191.095 301.474 190.877C301.473 190.873 301.471 190.869 301.469 190.862C301.276 190.256 300.085 187.153 295.582 185.598C295.047 185.414 294.504 185.32 293.967 185.32C293.163 185.32 292.352 185.529 291.555 185.942C290.067 186.735 288.915 188.085 288.211 189.078C287.393 190.231 286.734 191.527 286.449 192.546C286.159 193.586 286.652 194.255 287.21 194.535C287.417 194.634 287.655 194.687 287.898 194.687C288.234 194.687 288.572 194.591 288.901 194.403C289.28 194.186 289.636 193.85 289.96 193.405C290.959 192.073 292.45 191.277 293.947 191.277C294.493 191.277 295.018 191.382 295.508 191.589C295.801 191.708 296.248 191.939 296.712 192.363C297.22 192.827 297.645 193.425 297.975 194.139C298.385 195.023 298.649 196.09 298.76 197.309C298.891 198.744 298.813 200.412 298.528 202.268C297.864 206.595 296.119 208.087 294.772 208.577C294.341 208.736 293.881 208.817 293.404 208.817C292.146 208.817 290.801 208.252 289.616 207.227C288.154 205.959 286.865 203.821 287.284 201.9C287.489 200.954 287.498 199.938 287.308 199.04C287.135 198.215 286.814 197.614 286.449 197.432C286.377 197.396 286.293 197.377 286.198 197.377C285.581 197.377 284.634 198.113 283.601 199.395C282.688 200.537 282.171 201.959 282.066 203.623C281.97 205.138 282.213 206.862 282.788 208.746C283.311 210.46 284.104 212.293 285.145 214.196C286.099 215.941 287.231 217.693 288.511 219.404C289.157 220.266 289.704 221.288 290.136 222.442C290.565 223.589 290.893 224.894 291.108 226.321C291.538 229.167 291.54 232.58 291.114 236.466C290.687 240.351 289.828 244.755 288.56 249.557C287.282 254.394 285.572 259.695 283.479 265.312C283.328 265.688 282.934 265.951 282.521 265.951C282.394 265.951 282.272 265.924 282.177 265.877C282.143 265.863 282.104 265.857 282.062 265.857C281.828 265.857 281.528 266.072 281.322 266.233C281.248 266.292 281.177 266.351 281.114 266.403C280.974 266.519 280.865 266.61 280.822 266.61ZM293.883 193.269C293.466 193.269 293.028 193.39 292.616 193.619C292.195 193.853 291.812 194.195 291.506 194.608C291.064 195.202 290.564 195.677 290.021 196.02C289.533 196.328 289.008 196.53 288.462 196.621C288.922 197.294 289.236 198.205 289.368 199.254C289.493 200.254 289.442 201.333 289.223 202.292C289.129 202.73 289.25 203.315 289.564 203.94C289.876 204.561 290.357 205.179 290.917 205.68C291.315 206.032 291.732 206.306 292.156 206.494C292.574 206.681 292.98 206.775 293.362 206.775C293.602 206.775 293.828 206.737 294.035 206.662C294.624 206.441 295.136 205.921 295.557 205.116C295.981 204.305 296.295 203.239 296.49 201.949C296.683 200.665 296.77 199.482 296.748 198.432C296.728 197.474 296.618 196.62 296.419 195.894C296.239 195.232 295.987 194.68 295.672 194.253C295.382 193.861 295.046 193.584 294.673 193.43C294.43 193.323 294.164 193.269 293.883 193.269L293.883 193.269Z" fill="#000200"/>
</g>
<g filter="url(#filter32_b_56_788)">
<path d="M301.94 195.271C300.541 177.496 300.418 172.39 302.21 170.328C302.751 169.714 303.462 169.37 304.371 169.297C308.299 169.027 309.281 175.238 309.919 178.945L309.968 179.215C310.066 179.755 309.698 180.295 309.133 180.393C308.593 180.491 308.053 180.123 307.955 179.559L307.906 179.288C307.538 177.104 306.531 171.31 304.567 171.31C304.543 171.31 304.518 171.31 304.494 171.31C304.027 171.334 303.855 171.482 303.732 171.629C302.358 173.225 302.898 181.572 303.953 195.099C304.003 195.663 303.585 196.13 303.021 196.179C303.021 196.203 302.996 196.203 302.947 196.203C302.431 196.203 301.989 195.811 301.94 195.271Z" fill="#000200"/>
</g>
<g filter="url(#filter33_b_56_788)">
<path d="M309.011 194.73C307.611 176.956 307.488 171.85 309.281 169.788C309.821 169.174 310.533 168.83 311.441 168.757C315.05 168.56 315.934 173.642 316.474 177.03L316.621 177.963C316.719 178.503 316.351 179.043 315.786 179.141C315.222 179.239 314.706 178.871 314.608 178.306L314.461 177.349C314.068 174.869 313.405 170.77 311.637 170.77C311.613 170.77 311.588 170.77 311.564 170.77C311.097 170.794 310.925 170.941 310.803 171.089C309.428 172.685 309.968 181.031 311.024 194.559C311.073 195.123 310.655 195.59 310.091 195.639C310.091 195.663 310.066 195.663 310.017 195.663C309.502 195.663 309.06 195.27 309.011 194.73Z" fill="#000200"/>
</g>
<g filter="url(#filter34_b_56_788)">
<path d="M317.701 195.124C316.646 181.597 316.106 173.274 317.48 171.654C317.603 171.507 317.799 171.359 318.241 171.335H318.266C318.683 171.335 320.5 171.924 321.703 181.474C322.489 187.857 325.803 241.916 316.032 266.687C315.958 266.859 315.958 267.055 315.983 267.227C316.007 267.227 316.032 267.227 316.081 267.227C316.719 267.178 317.358 267.178 317.996 267.227C327.988 241.621 324.551 187.98 323.716 181.228C323.053 175.999 321.752 169.101 318.119 169.346C317.21 169.42 316.498 169.739 315.958 170.377C314.191 172.44 314.313 177.546 315.688 195.32C315.713 195.836 316.228 196.302 316.768 196.204C317.333 196.155 317.75 195.664 317.701 195.124Z" fill="#000200"/>
</g>
<g filter="url(#filter35_b_56_788)">
<path d="M298.97 209.952C297.865 209.264 296.858 211.007 297.938 211.695C301.13 213.683 303.389 216.212 304.542 219.845C304.96 221.073 306.899 220.533 306.506 219.305C305.205 215.156 302.627 212.235 298.97 209.952Z" fill="#000200"/>
</g>
<g filter="url(#filter36_b_56_788)">
<path d="M185.942 386.834C185.669 386.834 185.423 386.732 185.23 386.539C185.037 386.347 184.935 386.101 184.935 385.827V360.565C184.935 360.305 185.038 360.058 185.224 359.869C185.409 359.681 185.655 359.571 185.917 359.559L412.416 352.636C412.432 352.635 412.448 352.635 412.464 352.635C412.744 352.635 412.986 352.732 413.166 352.917C413.335 353.09 413.435 353.331 413.447 353.593L415.067 384.968C415.092 385.24 414.993 385.508 414.797 385.705C414.585 385.917 414.337 386.024 414.06 386.024L185.942 386.834ZM411.483 354.674L186.948 361.548V384.796L413.005 383.986L411.483 354.674Z" fill="#000200"/>
</g>
<g filter="url(#filter37_b_56_788)">
<path d="M270.222 378.413C269.957 378.413 269.688 378.297 269.486 378.094C269.285 377.868 269.192 377.596 269.216 377.308L270.026 368.47C270.05 368.221 270.161 367.991 270.339 367.823C270.517 367.654 270.745 367.562 270.983 367.562L325.631 365.573H325.68C325.93 365.573 326.167 365.662 326.35 365.822C326.532 365.982 326.652 366.207 326.687 366.457L327.89 376.105C327.916 376.414 327.833 376.679 327.645 376.891C327.45 377.109 327.182 377.235 326.908 377.235L270.222 378.413ZM324.772 367.611L271.941 369.55L271.327 376.375L325.73 375.221L324.772 367.611Z" fill="#000200"/>
</g>
<g filter="url(#filter38_b_56_788)">
<path d="M205.975 373.012H195.345C194.78 373.012 194.338 372.57 194.338 372.006V367.93C194.338 367.366 194.78 366.924 195.345 366.924H205.975C206.539 366.924 206.981 367.366 206.981 367.93V372.006C206.993 372.259 206.898 372.503 206.715 372.695C206.522 372.897 206.253 373.012 205.975 373.012ZM196.376 368.937V370.975H204.968V368.937H196.376Z" fill="#000200"/>
</g>
<g filter="url(#filter39_b_56_788)">
<path d="M400.779 378.413H364.617C364.077 378.413 363.635 377.993 363.61 377.456L363.095 367.636C363.071 367.376 363.187 367.077 363.389 366.875C363.579 366.685 363.849 366.58 364.15 366.58L375.296 367.047L375.247 360.148C375.247 359.859 375.354 359.6 375.541 359.436C375.734 359.243 375.98 359.142 376.253 359.142H389.51C389.748 359.142 389.978 359.223 390.158 359.372C390.338 359.52 390.457 359.726 390.492 359.952L391.941 367.538L401.491 366.924C401.516 366.922 401.541 366.921 401.566 366.921C401.824 366.921 402.09 367.032 402.276 367.219C402.492 367.461 402.594 367.733 402.571 368.004L401.761 377.48C401.761 377.739 401.658 377.976 401.472 378.149C401.29 378.32 401.043 378.413 400.779 378.413ZM365.206 368.691L365.599 376.4H399.871L400.509 369.011L391.229 369.6C391.2 369.603 391.17 369.604 391.14 369.604C390.682 369.604 390.266 369.254 390.173 368.79L388.725 361.155H377.334L377.383 368.102C377.383 368.394 377.269 368.656 377.063 368.839C376.895 369.007 376.654 369.104 376.327 369.133L365.206 368.691Z" fill="#000200"/>
</g>
<g filter="url(#filter40_b_56_788)">
<path d="M255.934 378.414H241.376C240.812 378.414 240.369 377.972 240.369 377.407V370.951C240.369 370.425 240.77 369.992 241.302 369.944L255.738 368.741C255.767 368.739 255.798 368.737 255.827 368.737C256.077 368.737 256.315 368.826 256.499 368.987C256.703 369.191 256.819 369.439 256.843 369.723L256.965 377.407C256.965 377.688 256.858 377.957 256.671 378.144C256.44 378.323 256.192 378.414 255.934 378.414ZM254.805 370.828L242.382 371.859V376.401H254.903L254.805 370.828Z" fill="#000200"/>
</g>
<g filter="url(#filter41_b_56_788)">
<path d="M235.729 378.413H223.528C222.963 378.413 222.521 377.971 222.521 377.407V371.981C222.521 371.417 222.963 370.975 223.528 370.975H235.631C236.177 370.975 236.638 371.424 236.638 371.957L236.736 377.382C236.736 377.663 236.628 377.931 236.441 378.119C236.277 378.306 236.018 378.413 235.729 378.413ZM224.534 373.012V376.4H234.698L234.649 373.012H224.534Z" fill="#000200"/>
</g>
<g filter="url(#filter42_b_56_788)">
<path d="M442.784 335.107H401.589C401.329 335.107 401.081 335.01 400.892 334.834C400.704 334.659 400.594 334.425 400.582 334.175L398.176 296.343C398.091 295.024 398.14 293.7 398.322 292.409C398.502 291.129 398.815 289.867 399.251 288.656C399.686 287.447 400.249 286.276 400.925 285.175C401.605 284.067 402.406 283.017 403.307 282.055C405.128 280.113 407.26 278.604 409.644 277.572C412.028 276.539 414.588 276.016 417.252 276.016H421.573C431.47 276.016 439.838 283.748 440.624 293.618L443.815 334.003C443.84 334.28 443.737 334.572 443.545 334.764C443.348 334.985 443.078 335.107 442.784 335.107ZM417.252 278.053C416.071 278.053 414.894 278.172 413.753 278.407C412.62 278.64 411.511 278.99 410.455 279.446C409.397 279.904 408.382 280.473 407.437 281.14C406.483 281.812 405.589 282.591 404.78 283.454C401.525 286.93 399.894 291.473 400.189 296.245L402.546 333.094H441.704L438.61 293.79C438.442 291.627 437.868 289.546 436.904 287.602C436.44 286.666 435.885 285.766 435.254 284.927C434.629 284.095 433.923 283.315 433.157 282.607C432.391 281.9 431.556 281.259 430.677 280.702C429.79 280.14 428.848 279.658 427.877 279.269C425.863 278.462 423.742 278.053 421.573 278.053H417.252Z" fill="#000200"/>
</g>
<g filter="url(#filter43_b_56_788)">
<path d="M439.887 298.552L399.159 297.276C398.594 297.251 398.152 296.785 398.177 296.245C398.201 295.68 398.643 295.287 399.208 295.263L439.936 296.539C440.501 296.564 440.943 297.03 440.918 297.57C440.894 298.135 440.452 298.552 439.912 298.552H439.887Z" fill="#000200"/>
</g>
<g filter="url(#filter44_b_56_788)">
<path d="M329.707 281.613C329.142 281.613 328.7 281.171 328.7 280.606C328.7 280.042 329.142 279.6 329.707 279.6H359.707C362.211 279.6 364.617 278.52 366.311 276.654C367.98 274.788 368.79 272.284 368.52 269.78C368.176 266.711 369.158 263.618 371.221 261.31C373.283 259.002 376.229 257.701 379.322 257.701H379.347L407.407 257.775C413.398 257.799 418.258 262.66 418.258 268.65V276.089C418.258 276.654 417.817 277.096 417.252 277.096C416.687 277.096 416.245 276.654 416.245 276.089V268.65C416.245 263.79 412.293 259.812 407.407 259.788L379.347 259.714H379.322C376.818 259.714 374.412 260.794 372.743 262.66C371.073 264.526 370.263 267.055 370.533 269.559C370.877 272.628 369.895 275.721 367.833 278.004C365.746 280.312 362.8 281.613 359.707 281.613H329.707Z" fill="#000200"/>
</g>
<g filter="url(#filter45_b_56_788)">
<path d="M424.764 297.104L420.591 277.219C420.468 276.679 420.836 276.139 421.376 276.016C421.916 275.893 422.456 276.261 422.579 276.801L426.753 296.687C426.875 297.227 426.507 297.767 425.967 297.89C425.869 297.914 425.82 297.914 425.746 297.914C425.28 297.914 424.862 297.595 424.764 297.104Z" fill="#000200"/>
</g>
<defs>
<filter id="filter0_b_56_788" x="309.845" y="257.555" width="141.703" height="131.893" filterUnits="userSpaceOnUse" color-interpolation-filters="sRGB">
<feFlood flood-opacity="0" result="BackgroundImageFix"/>
<feGaussianBlur in="BackgroundImageFix" stdDeviation="1.2275"/>
<feComposite in2="SourceAlpha" operator="in" result="effect1_backgroundBlur_56_788"/>
<feBlend mode="normal" in="SourceGraphic" in2="effect1_backgroundBlur_56_788" result="shape"/>
</filter>
<filter id="filter1_b_56_788" x="136.566" y="140.058" width="184.867" height="139.421" filterUnits="userSpaceOnUse" color-interpolation-filters="sRGB">
<feFlood flood-opacity="0" result="BackgroundImageFix"/>
<feGaussianBlur in="BackgroundImageFix" stdDeviation="1.2275"/>
<feComposite in2="SourceAlpha" operator="in" result="effect1_backgroundBlur_56_788"/>
<feBlend mode="normal" in="SourceGraphic" in2="effect1_backgroundBlur_56_788" result="shape"/>
</filter>
<filter id="filter2_b_56_788" x="369.979" y="123.733" width="30.8753" height="41.5389" filterUnits="userSpaceOnUse" color-interpolation-filters="sRGB">
<feFlood flood-opacity="0" result="BackgroundImageFix"/>
<feGaussianBlur in="BackgroundImageFix" stdDeviation="1.2275"/>
<feComposite in2="SourceAlpha" operator="in" result="effect1_backgroundBlur_56_788"/>
<feBlend mode="normal" in="SourceGraphic" in2="effect1_backgroundBlur_56_788" result="shape"/>
</filter>
<filter id="filter3_b_56_788" x="75.6087" y="235.986" width="38.1174" height="48.0819" filterUnits="userSpaceOnUse" color-interpolation-filters="sRGB">
<feFlood flood-opacity="0" result="BackgroundImageFix"/>
<feGaussianBlur in="BackgroundImageFix" stdDeviation="1.2275"/>
<feComposite in2="SourceAlpha" operator="in" result="effect1_backgroundBlur_56_788"/>
<feBlend mode="normal" in="SourceGraphic" in2="effect1_backgroundBlur_56_788" result="shape"/>
</filter>
<filter id="filter4_b_56_788" x="281.617" y="153.467" width="9.23129" height="12.0545" filterUnits="userSpaceOnUse" color-interpolation-filters="sRGB">
<feFlood flood-opacity="0" result="BackgroundImageFix"/>
<feGaussianBlur in="BackgroundImageFix" stdDeviation="1.2275"/>
<feComposite in2="SourceAlpha" operator="in" result="effect1_backgroundBlur_56_788"/>
<feBlend mode="normal" in="SourceGraphic" in2="effect1_backgroundBlur_56_788" result="shape"/>
</filter>
<filter id="filter5_b_56_788" x="272.284" y="165.202" width="14.0687" height="12.285" filterUnits="userSpaceOnUse" color-interpolation-filters="sRGB">
<feFlood flood-opacity="0" result="BackgroundImageFix"/>
<feGaussianBlur in="BackgroundImageFix" stdDeviation="1.2275"/>
<feComposite in2="SourceAlpha" operator="in" result="effect1_backgroundBlur_56_788"/>
<feBlend mode="normal" in="SourceGraphic" in2="effect1_backgroundBlur_56_788" result="shape"/>
</filter>
<filter id="filter6_b_56_788" x="63.5749" y="274.448" width="18.6038" height="18.161" filterUnits="userSpaceOnUse" color-interpolation-filters="sRGB">
<feFlood flood-opacity="0" result="BackgroundImageFix"/>
<feGaussianBlur in="BackgroundImageFix" stdDeviation="1.2275"/>
<feComposite in2="SourceAlpha" operator="in" result="effect1_backgroundBlur_56_788"/>
<feBlend mode="normal" in="SourceGraphic" in2="effect1_backgroundBlur_56_788" result="shape"/>
</filter>
<filter id="filter7_b_56_788" x="76.8444" y="228.547" width="9.70291" height="10.9598" filterUnits="userSpaceOnUse" color-interpolation-filters="sRGB">
<feFlood flood-opacity="0" result="BackgroundImageFix"/>
<feGaussianBlur in="BackgroundImageFix" stdDeviation="1.2275"/>
<feComposite in2="SourceAlpha" operator="in" result="effect1_backgroundBlur_56_788"/>
<feBlend mode="normal" in="SourceGraphic" in2="effect1_backgroundBlur_56_788" result="shape"/>
</filter>
<filter id="filter8_b_56_788" x="407.505" y="197.314" width="19.4046" height="17.8651" filterUnits="userSpaceOnUse" color-interpolation-filters="sRGB">
<feFlood flood-opacity="0" result="BackgroundImageFix"/>
<feGaussianBlur in="BackgroundImageFix" stdDeviation="1.2275"/>
<feComposite in2="SourceAlpha" operator="in" result="effect1_backgroundBlur_56_788"/>
<feBlend mode="normal" in="SourceGraphic" in2="effect1_backgroundBlur_56_788" result="shape"/>
</filter>
<filter id="filter9_b_56_788" x="320.638" y="139.566" width="16.7625" height="15.1317" filterUnits="userSpaceOnUse" color-interpolation-filters="sRGB">
<feFlood flood-opacity="0" result="BackgroundImageFix"/>
<feGaussianBlur in="BackgroundImageFix" stdDeviation="1.2275"/>
<feComposite in2="SourceAlpha" operator="in" result="effect1_backgroundBlur_56_788"/>
<feBlend mode="normal" in="SourceGraphic" in2="effect1_backgroundBlur_56_788" result="shape"/>
</filter>
<filter id="filter10_b_56_788" x="321.166" y="138.734" width="17.1048" height="17.1151" filterUnits="userSpaceOnUse" color-interpolation-filters="sRGB">
<feFlood flood-opacity="0" result="BackgroundImageFix"/>
<feGaussianBlur in="BackgroundImageFix" stdDeviation="1.2275"/>
<feComposite in2="SourceAlpha" operator="in" result="effect1_backgroundBlur_56_788"/>
<feBlend mode="normal" in="SourceGraphic" in2="effect1_backgroundBlur_56_788" result="shape"/>
</filter>
<filter id="filter11_b_56_788" x="161.83" y="128.985" width="188.127" height="141.408" filterUnits="userSpaceOnUse" color-interpolation-filters="sRGB">
<feFlood flood-opacity="0" result="BackgroundImageFix"/>
<feGaussianBlur in="BackgroundImageFix" stdDeviation="1.2275"/>
<feComposite in2="SourceAlpha" operator="in" result="effect1_backgroundBlur_56_788"/>
<feBlend mode="normal" in="SourceGraphic" in2="effect1_backgroundBlur_56_788" result="shape"/>
</filter>
<filter id="filter12_b_56_788" x="126.089" y="91.7823" width="207.079" height="209.224" filterUnits="userSpaceOnUse" color-interpolation-filters="sRGB">
<feFlood flood-opacity="0" result="BackgroundImageFix"/>
<feGaussianBlur in="BackgroundImageFix" stdDeviation="1.2275"/>
<feComposite in2="SourceAlpha" operator="in" result="effect1_backgroundBlur_56_788"/>
<feBlend mode="normal" in="SourceGraphic" in2="effect1_backgroundBlur_56_788" result="shape"/>
</filter>
<filter id="filter13_b_56_788" x="326.245" y="264.452" width="6.92306" height="33.5106" filterUnits="userSpaceOnUse" color-interpolation-filters="sRGB">
<feFlood flood-opacity="0" result="BackgroundImageFix"/>
<feGaussianBlur in="BackgroundImageFix" stdDeviation="1.2275"/>
<feComposite in2="SourceAlpha" operator="in" result="effect1_backgroundBlur_56_788"/>
<feBlend mode="normal" in="SourceGraphic" in2="effect1_backgroundBlur_56_788" result="shape"/>
</filter>
<filter id="filter14_b_56_788" x="115.234" y="290.254" width="267.5" height="81.1131" filterUnits="userSpaceOnUse" color-interpolation-filters="sRGB">
<feFlood flood-opacity="0" result="BackgroundImageFix"/>
<feGaussianBlur in="BackgroundImageFix" stdDeviation="1.2275"/>
<feComposite in2="SourceAlpha" operator="in" result="effect1_backgroundBlur_56_788"/>
<feBlend mode="normal" in="SourceGraphic" in2="effect1_backgroundBlur_56_788" result="shape"/>
</filter>
<filter id="filter15_b_56_788" x="140.77" y="326.367" width="84.2357" height="15.4422" filterUnits="userSpaceOnUse" color-interpolation-filters="sRGB">
<feFlood flood-opacity="0" result="BackgroundImageFix"/>
<feGaussianBlur in="BackgroundImageFix" stdDeviation="1.2275"/>
<feComposite in2="SourceAlpha" operator="in" result="effect1_backgroundBlur_56_788"/>
<feBlend mode="normal" in="SourceGraphic" in2="effect1_backgroundBlur_56_788" result="shape"/>
</filter>
<filter id="filter16_b_56_788" x="231.985" y="326.367" width="26.1371" height="15.4911" filterUnits="userSpaceOnUse" color-interpolation-filters="sRGB">
<feFlood flood-opacity="0" result="BackgroundImageFix"/>
<feGaussianBlur in="BackgroundImageFix" stdDeviation="1.2275"/>
<feComposite in2="SourceAlpha" operator="in" result="effect1_backgroundBlur_56_788"/>
<feBlend mode="normal" in="SourceGraphic" in2="effect1_backgroundBlur_56_788" result="shape"/>
</filter>
<filter id="filter17_b_56_788" x="334.862" y="310.803" width="30.0984" height="30.3192" filterUnits="userSpaceOnUse" color-interpolation-filters="sRGB">
<feFlood flood-opacity="0" result="BackgroundImageFix"/>
<feGaussianBlur in="BackgroundImageFix" stdDeviation="1.2275"/>
<feComposite in2="SourceAlpha" operator="in" result="effect1_backgroundBlur_56_788"/>
<feBlend mode="normal" in="SourceGraphic" in2="effect1_backgroundBlur_56_788" result="shape"/>
</filter>
<filter id="filter18_b_56_788" x="346.449" y="306.997" width="6.92306" height="24.869" filterUnits="userSpaceOnUse" color-interpolation-filters="sRGB">
<feFlood flood-opacity="0" result="BackgroundImageFix"/>
<feGaussianBlur in="BackgroundImageFix" stdDeviation="1.2275"/>
<feComposite in2="SourceAlpha" operator="in" result="effect1_backgroundBlur_56_788"/>
<feBlend mode="normal" in="SourceGraphic" in2="effect1_backgroundBlur_56_788" result="shape"/>
</filter>
<filter id="filter19_b_56_788" x="133.184" y="282.423" width="26.0721" height="6.9227" filterUnits="userSpaceOnUse" color-interpolation-filters="sRGB">
<feFlood flood-opacity="0" result="BackgroundImageFix"/>
<feGaussianBlur in="BackgroundImageFix" stdDeviation="1.2275"/>
<feComposite in2="SourceAlpha" operator="in" result="effect1_backgroundBlur_56_788"/>
<feBlend mode="normal" in="SourceGraphic" in2="effect1_backgroundBlur_56_788" result="shape"/>
</filter>
<filter id="filter20_b_56_788" x="133.184" y="286.351" width="26.0721" height="6.9227" filterUnits="userSpaceOnUse" color-interpolation-filters="sRGB">
<feFlood flood-opacity="0" result="BackgroundImageFix"/>
<feGaussianBlur in="BackgroundImageFix" stdDeviation="1.2275"/>
<feComposite in2="SourceAlpha" operator="in" result="effect1_backgroundBlur_56_788"/>
<feBlend mode="normal" in="SourceGraphic" in2="effect1_backgroundBlur_56_788" result="shape"/>
</filter>
<filter id="filter21_b_56_788" x="213.216" y="169.882" width="13.7292" height="22.786" filterUnits="userSpaceOnUse" color-interpolation-filters="sRGB">
<feFlood flood-opacity="0" result="BackgroundImageFix"/>
<feGaussianBlur in="BackgroundImageFix" stdDeviation="1.2275"/>
<feComposite in2="SourceAlpha" operator="in" result="effect1_backgroundBlur_56_788"/>
<feBlend mode="normal" in="SourceGraphic" in2="effect1_backgroundBlur_56_788" result="shape"/>
</filter>
<filter id="filter22_b_56_788" x="220.209" y="166.929" width="8.79879" height="10.4549" filterUnits="userSpaceOnUse" color-interpolation-filters="sRGB">
<feFlood flood-opacity="0" result="BackgroundImageFix"/>
<feGaussianBlur in="BackgroundImageFix" stdDeviation="1.2275"/>
<feComposite in2="SourceAlpha" operator="in" result="effect1_backgroundBlur_56_788"/>
<feBlend mode="normal" in="SourceGraphic" in2="effect1_backgroundBlur_56_788" result="shape"/>
</filter>
<filter id="filter23_b_56_788" x="197.549" y="168.402" width="8.79879" height="10.4549" filterUnits="userSpaceOnUse" color-interpolation-filters="sRGB">
<feFlood flood-opacity="0" result="BackgroundImageFix"/>
<feGaussianBlur in="BackgroundImageFix" stdDeviation="1.2275"/>
<feComposite in2="SourceAlpha" operator="in" result="effect1_backgroundBlur_56_788"/>
<feBlend mode="normal" in="SourceGraphic" in2="effect1_backgroundBlur_56_788" result="shape"/>
</filter>
<filter id="filter24_b_56_788" x="192.903" y="161.157" width="10.9142" height="8.25082" filterUnits="userSpaceOnUse" color-interpolation-filters="sRGB">
<feFlood flood-opacity="0" result="BackgroundImageFix"/>
<feGaussianBlur in="BackgroundImageFix" stdDeviation="1.2275"/>
<feComposite in2="SourceAlpha" operator="in" result="effect1_backgroundBlur_56_788"/>
<feBlend mode="normal" in="SourceGraphic" in2="effect1_backgroundBlur_56_788" result="shape"/>
</filter>
<filter id="filter25_b_56_788" x="219.169" y="157.355" width="10.0584" height="8.56332" filterUnits="userSpaceOnUse" color-interpolation-filters="sRGB">
<feFlood flood-opacity="0" result="BackgroundImageFix"/>
<feGaussianBlur in="BackgroundImageFix" stdDeviation="1.2275"/>
<feComposite in2="SourceAlpha" operator="in" result="effect1_backgroundBlur_56_788"/>
<feBlend mode="normal" in="SourceGraphic" in2="effect1_backgroundBlur_56_788" result="shape"/>
</filter>
<filter id="filter26_b_56_788" x="199.411" y="193.789" width="11.0732" height="9.92855" filterUnits="userSpaceOnUse" color-interpolation-filters="sRGB">
<feFlood flood-opacity="0" result="BackgroundImageFix"/>
<feGaussianBlur in="BackgroundImageFix" stdDeviation="1.2275"/>
<feComposite in2="SourceAlpha" operator="in" result="effect1_backgroundBlur_56_788"/>
<feBlend mode="normal" in="SourceGraphic" in2="effect1_backgroundBlur_56_788" result="shape"/>
</filter>
<filter id="filter27_b_56_788" x="216.627" y="222.225" width="49.4947" height="47.2606" filterUnits="userSpaceOnUse" color-interpolation-filters="sRGB">
<feFlood flood-opacity="0" result="BackgroundImageFix"/>
<feGaussianBlur in="BackgroundImageFix" stdDeviation="1.2275"/>
<feComposite in2="SourceAlpha" operator="in" result="effect1_backgroundBlur_56_788"/>
<feBlend mode="normal" in="SourceGraphic" in2="effect1_backgroundBlur_56_788" result="shape"/>
</filter>
<filter id="filter28_b_56_788" x="164.674" y="221.224" width="60.1837" height="20.4715" filterUnits="userSpaceOnUse" color-interpolation-filters="sRGB">
<feFlood flood-opacity="0" result="BackgroundImageFix"/>
<feGaussianBlur in="BackgroundImageFix" stdDeviation="1.2275"/>
<feComposite in2="SourceAlpha" operator="in" result="effect1_backgroundBlur_56_788"/>
<feBlend mode="normal" in="SourceGraphic" in2="effect1_backgroundBlur_56_788" result="shape"/>
</filter>
<filter id="filter29_b_56_788" x="163.159" y="134.817" width="77.8842" height="99.5858" filterUnits="userSpaceOnUse" color-interpolation-filters="sRGB">
<feFlood flood-opacity="0" result="BackgroundImageFix"/>
<feGaussianBlur in="BackgroundImageFix" stdDeviation="1.2275"/>
<feComposite in2="SourceAlpha" operator="in" result="effect1_backgroundBlur_56_788"/>
<feBlend mode="normal" in="SourceGraphic" in2="effect1_backgroundBlur_56_788" result="shape"/>
</filter>
<filter id="filter30_b_56_788" x="233.201" y="162.816" width="31.5229" height="49.9871" filterUnits="userSpaceOnUse" color-interpolation-filters="sRGB">
<feFlood flood-opacity="0" result="BackgroundImageFix"/>
<feGaussianBlur in="BackgroundImageFix" stdDeviation="1.2275"/>
<feComposite in2="SourceAlpha" operator="in" result="effect1_backgroundBlur_56_788"/>
<feBlend mode="normal" in="SourceGraphic" in2="effect1_backgroundBlur_56_788" result="shape"/>
</filter>
<filter id="filter31_b_56_788" x="277.549" y="180.823" width="28.3551" height="88.242" filterUnits="userSpaceOnUse" color-interpolation-filters="sRGB">
<feFlood flood-opacity="0" result="BackgroundImageFix"/>
<feGaussianBlur in="BackgroundImageFix" stdDeviation="1.2275"/>
<feComposite in2="SourceAlpha" operator="in" result="effect1_backgroundBlur_56_788"/>
<feBlend mode="normal" in="SourceGraphic" in2="effect1_backgroundBlur_56_788" result="shape"/>
</filter>
<filter id="filter32_b_56_788" x="298.423" y="166.833" width="14.0161" height="31.825" filterUnits="userSpaceOnUse" color-interpolation-filters="sRGB">
<feFlood flood-opacity="0" result="BackgroundImageFix"/>
<feGaussianBlur in="BackgroundImageFix" stdDeviation="1.2275"/>
<feComposite in2="SourceAlpha" operator="in" result="effect1_backgroundBlur_56_788"/>
<feBlend mode="normal" in="SourceGraphic" in2="effect1_backgroundBlur_56_788" result="shape"/>
</filter>
<filter id="filter33_b_56_788" x="305.493" y="166.296" width="13.5987" height="31.8221" filterUnits="userSpaceOnUse" color-interpolation-filters="sRGB">
<feFlood flood-opacity="0" result="BackgroundImageFix"/>
<feGaussianBlur in="BackgroundImageFix" stdDeviation="1.2275"/>
<feComposite in2="SourceAlpha" operator="in" result="effect1_backgroundBlur_56_788"/>
<feBlend mode="normal" in="SourceGraphic" in2="effect1_backgroundBlur_56_788" result="shape"/>
</filter>
<filter id="filter34_b_56_788" x="312.189" y="166.885" width="15.2296" height="102.798" filterUnits="userSpaceOnUse" color-interpolation-filters="sRGB">
<feFlood flood-opacity="0" result="BackgroundImageFix"/>
<feGaussianBlur in="BackgroundImageFix" stdDeviation="1.2275"/>
<feComposite in2="SourceAlpha" operator="in" result="effect1_backgroundBlur_56_788"/>
<feBlend mode="normal" in="SourceGraphic" in2="effect1_backgroundBlur_56_788" result="shape"/>
</filter>
<filter id="filter35_b_56_788" x="295.021" y="207.339" width="13.9926" height="15.6551" filterUnits="userSpaceOnUse" color-interpolation-filters="sRGB">
<feFlood flood-opacity="0" result="BackgroundImageFix"/>
<feGaussianBlur in="BackgroundImageFix" stdDeviation="1.2275"/>
<feComposite in2="SourceAlpha" operator="in" result="effect1_backgroundBlur_56_788"/>
<feBlend mode="normal" in="SourceGraphic" in2="effect1_backgroundBlur_56_788" result="shape"/>
</filter>
<filter id="filter36_b_56_788" x="182.48" y="350.18" width="235.045" height="39.1092" filterUnits="userSpaceOnUse" color-interpolation-filters="sRGB">
<feFlood flood-opacity="0" result="BackgroundImageFix"/>
<feGaussianBlur in="BackgroundImageFix" stdDeviation="1.2275"/>
<feComposite in2="SourceAlpha" operator="in" result="effect1_backgroundBlur_56_788"/>
<feBlend mode="normal" in="SourceGraphic" in2="effect1_backgroundBlur_56_788" result="shape"/>
</filter>
<filter id="filter37_b_56_788" x="266.757" y="363.118" width="63.5926" height="17.7498" filterUnits="userSpaceOnUse" color-interpolation-filters="sRGB">
<feFlood flood-opacity="0" result="BackgroundImageFix"/>
<feGaussianBlur in="BackgroundImageFix" stdDeviation="1.2275"/>
<feComposite in2="SourceAlpha" operator="in" result="effect1_backgroundBlur_56_788"/>
<feBlend mode="normal" in="SourceGraphic" in2="effect1_backgroundBlur_56_788" result="shape"/>
</filter>
<filter id="filter38_b_56_788" x="191.883" y="364.469" width="17.5542" height="10.9989" filterUnits="userSpaceOnUse" color-interpolation-filters="sRGB">
<feFlood flood-opacity="0" result="BackgroundImageFix"/>
<feGaussianBlur in="BackgroundImageFix" stdDeviation="1.2275"/>
<feComposite in2="SourceAlpha" operator="in" result="effect1_backgroundBlur_56_788"/>
<feBlend mode="normal" in="SourceGraphic" in2="effect1_backgroundBlur_56_788" result="shape"/>
</filter>
<filter id="filter39_b_56_788" x="360.637" y="356.687" width="44.3925" height="24.1815" filterUnits="userSpaceOnUse" color-interpolation-filters="sRGB">
<feFlood flood-opacity="0" result="BackgroundImageFix"/>
<feGaussianBlur in="BackgroundImageFix" stdDeviation="1.2275"/>
<feComposite in2="SourceAlpha" operator="in" result="effect1_backgroundBlur_56_788"/>
<feBlend mode="normal" in="SourceGraphic" in2="effect1_backgroundBlur_56_788" result="shape"/>
</filter>
<filter id="filter40_b_56_788" x="237.914" y="366.282" width="21.5058" height="14.5868" filterUnits="userSpaceOnUse" color-interpolation-filters="sRGB">
<feFlood flood-opacity="0" result="BackgroundImageFix"/>
<feGaussianBlur in="BackgroundImageFix" stdDeviation="1.2275"/>
<feComposite in2="SourceAlpha" operator="in" result="effect1_backgroundBlur_56_788"/>
<feBlend mode="normal" in="SourceGraphic" in2="effect1_backgroundBlur_56_788" result="shape"/>
</filter>
<filter id="filter41_b_56_788" x="220.066" y="368.52" width="19.1244" height="12.3485" filterUnits="userSpaceOnUse" color-interpolation-filters="sRGB">
<feFlood flood-opacity="0" result="BackgroundImageFix"/>
<feGaussianBlur in="BackgroundImageFix" stdDeviation="1.2275"/>
<feComposite in2="SourceAlpha" operator="in" result="effect1_backgroundBlur_56_788"/>
<feBlend mode="normal" in="SourceGraphic" in2="effect1_backgroundBlur_56_788" result="shape"/>
</filter>
<filter id="filter42_b_56_788" x="395.681" y="273.561" width="50.5927" height="64.0018" filterUnits="userSpaceOnUse" color-interpolation-filters="sRGB">
<feFlood flood-opacity="0" result="BackgroundImageFix"/>
<feGaussianBlur in="BackgroundImageFix" stdDeviation="1.2275"/>
<feComposite in2="SourceAlpha" operator="in" result="effect1_backgroundBlur_56_788"/>
<feBlend mode="normal" in="SourceGraphic" in2="effect1_backgroundBlur_56_788" result="shape"/>
</filter>
<filter id="filter43_b_56_788" x="395.721" y="292.808" width="47.6535" height="8.20004" filterUnits="userSpaceOnUse" color-interpolation-filters="sRGB">
<feFlood flood-opacity="0" result="BackgroundImageFix"/>
<feGaussianBlur in="BackgroundImageFix" stdDeviation="1.2275"/>
<feComposite in2="SourceAlpha" operator="in" result="effect1_backgroundBlur_56_788"/>
<feBlend mode="normal" in="SourceGraphic" in2="effect1_backgroundBlur_56_788" result="shape"/>
</filter>
<filter id="filter44_b_56_788" x="326.245" y="255.246" width="94.4683" height="28.8221" filterUnits="userSpaceOnUse" color-interpolation-filters="sRGB">
<feFlood flood-opacity="0" result="BackgroundImageFix"/>
<feGaussianBlur in="BackgroundImageFix" stdDeviation="1.2275"/>
<feComposite in2="SourceAlpha" operator="in" result="effect1_backgroundBlur_56_788"/>
<feBlend mode="normal" in="SourceGraphic" in2="effect1_backgroundBlur_56_788" result="shape"/>
</filter>
<filter id="filter45_b_56_788" x="418.112" y="273.537" width="11.1195" height="26.8319" filterUnits="userSpaceOnUse" color-interpolation-filters="sRGB">
<feFlood flood-opacity="0" result="BackgroundImageFix"/>
<feGaussianBlur in="BackgroundImageFix" stdDeviation="1.2275"/>
<feComposite in2="SourceAlpha" operator="in" result="effect1_backgroundBlur_56_788"/>
<feBlend mode="normal" in="SourceGraphic" in2="effect1_backgroundBlur_56_788" result="shape"/>
</filter>
</defs>
</svg>
