<svg width="1685" height="1150" viewBox="0 0 1685 1150" fill="none" xmlns="http://www.w3.org/2000/svg">
<g filter="url(#filter0_b_200_999)">
<path d="M1257.1 893.6C1201.3 949.7 1146.4 1022.1 1135.5 1101.9L1583.8 1100.4L1602.9 689.7C1562.8 699.8 1523.5 713.7 1485.4 731.2C1400 770.6 1323.4 827 1257.1 893.6Z" fill="#FFCB56"/>
</g>
<g filter="url(#filter1_b_200_999)">
<path d="M99.6006 801.7L682.001 790.5V750.8V585.2V292.1L43.6006 264.5L99.6006 801.7Z" fill="#7BAEED"/>
</g>
<g filter="url(#filter2_b_200_999)">
<path d="M707.201 182.4C705.401 181.4 704.701 179 705.801 177.2C709.601 170.5 713.701 163.9 717.801 157.5C718.901 155.7 721.301 155.2 723.101 156.4C724.901 157.5 725.401 159.9 724.201 161.7C720.201 168 716.201 174.5 712.401 181.1C711.701 182.2 710.401 182.9 709.101 182.9C708.501 182.9 707.801 182.7 707.201 182.4Z" fill="#FF3857"/>
</g>
<g filter="url(#filter3_b_200_999)">
<path d="M747.9 125.8C747.099 125.8 746.202 125.501 745.501 125C744.724 124.368 744.231 123.467 744.113 122.462C743.995 121.452 744.275 120.471 744.901 119.7C754.889 107.29 765.386 95.6153 776.101 84.9996C776.826 84.2744 777.785 83.875 778.801 83.875C779.816 83.875 780.775 84.2744 781.501 84.9996C782.226 85.7251 782.626 86.6841 782.626 87.6999C782.626 88.7156 782.226 89.6744 781.501 90.3996C770.723 101.076 760.428 112.515 750.901 124.4C749.975 125.557 748.758 125.8 747.9 125.8ZM1108.6 69.0002C1107.92 69.0002 1106.93 68.8267 1106.1 68.0003C1093.95 57.292 1081.74 48.0731 1069.8 40.5999C1068.94 40.0714 1068.34 39.2235 1068.11 38.2124C1067.89 37.2105 1068.07 36.176 1068.6 35.2998C1069.28 34.1854 1070.49 33.5201 1071.84 33.5201C1072.57 33.5201 1073.28 33.7206 1073.9 34.1001C1086.38 41.9612 1098.93 51.449 1111.2 62.2998C1111.97 62.9736 1112.42 63.9059 1112.48 64.9248C1112.53 65.9363 1112.18 66.9218 1111.5 67.6998C1110.7 68.502 1109.59 69.0002 1108.6 69.0002ZM813.6 61.1999C812.398 61.1999 811.249 60.625 810.601 59.6997C809.984 58.8933 809.721 57.8923 809.86 56.8812C809.997 55.8882 810.522 54.9837 811.301 54.3995C823.857 44.8847 837.046 36.339 850.5 28.9998C851.039 28.7004 851.66 28.5421 852.295 28.5421C853.703 28.5421 855.04 29.3106 855.701 30.5001C856.182 31.4141 856.288 32.4573 856 33.4377C855.715 34.4104 855.076 35.214 854.2 35.7003C841.205 42.7512 828.32 51.0614 815.901 60.3999C815.273 60.9382 814.52 61.1999 813.6 61.1999ZM1030.5 20.5002C1030.09 20.5002 1029.57 20.3915 1029.2 20.3004C1014.67 14.8127 999.932 11.078 985.401 9.19977C984.392 9.05586 983.5 8.53214 982.888 7.725C982.283 6.92659 982.003 5.92318 982.1 4.89959C982.233 3.97264 982.688 3.12436 983.381 2.511C984.073 1.89891 984.955 1.56182 985.864 1.56182C986.042 1.56182 986.223 1.57473 986.4 1.60018C1002.11 3.75568 1017.42 7.6585 1031.9 13.2003C1032.86 13.5375 1033.63 14.23 1034.05 15.1506C1034.47 16.0822 1034.49 17.1296 1034.1 18.0999C1033.51 19.5805 1032.13 20.5002 1030.5 20.5002ZM894.7 17.9001C893.033 17.9001 891.587 16.8552 891.1 15.3C890.484 13.2437 891.559 11.1803 893.601 10.5003C908.979 5.54227 924.422 2.27864 939.5 0.80009C939.619 0.788227 939.74 0.782227 939.86 0.782227C940.784 0.782227 941.691 1.12618 942.413 1.75073C943.154 2.39209 943.612 3.262 943.701 4.20027C943.902 6.31823 942.377 8.20209 940.301 8.39968C925.325 9.92814 910.421 13.0909 896.001 17.8002C895.5 17.9001 895.094 17.9001 894.7 17.9001Z" fill="#FF3857"/>
</g>
<g filter="url(#filter4_b_200_999)">
<path d="M1152.7 118.1C1148.1 112.2 1143.2 106.3 1138.3 100.6C1136.9 98.9999 1137.1 96.5999 1138.7 95.1999C1140.3 93.7999 1142.7 93.9999 1144.1 95.5999C1149.1 101.4 1154 107.4 1158.8 113.4C1160.1 115.1 1159.8 117.5 1158.1 118.7C1157.3 119.3 1156.5 119.6 1155.7 119.6C1154.6 119.6 1153.4 119.1 1152.7 118.1Z" fill="#FF3857"/>
</g>
<g filter="url(#filter5_b_200_999)">
<path d="M971.2 223.2C968 219.4 962.7 224.9 965.8 228.6C979.3 244.6 992.8 260.6 1006.3 276.6C1009.5 280.4 1014.9 274.9 1011.7 271.2C998.2 255.2 984.7 239.2 971.2 223.2Z" fill="#7BAEED"/>
</g>
<g filter="url(#filter6_b_200_999)">
<path d="M959.2 311.2C955 308.7 951.2 315.3 955.4 317.8L977.5 331.1C981.7 333.6 985.5 327 981.3 324.5C973.9 320.1 966.6 315.7 959.2 311.2Z" fill="#7BAEED"/>
</g>
<g filter="url(#filter7_b_200_999)">
<path d="M359.2 67.1002C356.3 63.2002 349.7 67.0002 352.6 70.9002C360.7 82.0002 368.8 93.0002 376.9 104.1C379.8 108.1 386.4 104.3 383.5 100.3C375.4 89.2002 367.3 78.2002 359.2 67.1002Z" fill="#7BAEED"/>
</g>
<g filter="url(#filter8_b_200_999)">
<path d="M270.301 970.9L293.301 944.9H259.301L270.301 970.9Z" fill="#FFCB56"/>
</g>
<g filter="url(#filter9_b_200_999)">
<path d="M506.801 472.2L335.501 463.4H230.301L270.101 669.7L512.901 680.4L509.201 556.8L506.801 472.2Z" fill="white"/>
</g>
<g filter="url(#filter10_b_200_999)">
<path d="M396.7 544.7L276.4 460.2C274.7 459 274.3 456.6 275.5 454.9C276.7 453.2 279.1 452.8 280.8 454L399 537L518 460.2L358.5 452C356.4 451.9 354.8 450.1 354.9 448C355 445.9 356.5 444.1 358.9 444.4L530.1 453.3C531.8 453.4 533.2 454.5 533.6 456.1C534 457.7 533.4 459.4 532 460.3L400.9 544.8C400.3 545.2 399.6 545.4 398.9 545.4C398.1 545.4 397.4 545.2 396.7 544.7Z" fill="#000200"/>
</g>
<g filter="url(#filter11_b_200_999)">
<path d="M532.1 661.2L296.401 650.7C290.301 616.7 266.201 483.8 262.701 476.7C261.801 474.8 259.601 474.1 257.701 475C255.801 475.9 255 478.1 255.8 480C258.5 486.3 277.401 588.1 289.401 655C289.701 656.7 291.201 658.1 293.001 658.1L535.801 668.9C535.901 668.9 535.901 668.9 536.001 668.9C537.001 668.9 538.001 668.5 538.701 667.8C539.501 667.1 539.901 666 539.801 665L536.201 543.4C533.801 542.9 531.201 542.5 528.6 542.4L532.1 661.2Z" fill="#000200"/>
</g>
<g filter="url(#filter12_b_200_999)">
<path d="M526.201 502.1V457.1C526.201 455 527.901 453.3 530.001 453.3C532.101 453.3 533.801 455 533.801 457.1V502.1C533.801 504.2 532.101 505.9 530.001 505.9C527.901 505.9 526.201 504.2 526.201 502.1Z" fill="#000200"/>
</g>
<g filter="url(#filter13_b_200_999)">
<path d="M291.1 657.6C289.4 656.4 289.001 654 290.201 652.3L378.201 527C379.401 525.3 381.801 524.9 383.501 526.1C385.201 527.3 385.601 529.7 384.401 531.4L296.401 656.7C295.601 657.7 294.5 658.3 293.3 658.3C292.5 658.3 291.8 658.1 291.1 657.6Z" fill="#000200"/>
</g>
<g filter="url(#filter14_b_200_999)">
<path d="M532.901 667.5L427.301 523.5C426.101 521.8 426.401 519.4 428.101 518.2C429.801 517 432.201 517.3 433.401 519L539.001 663C540.201 664.7 539.901 667.1 538.201 668.3C537.601 668.8 536.801 669.1 536.001 669.1C534.801 669.1 533.701 668.6 532.901 667.5Z" fill="#000200"/>
</g>
<g filter="url(#filter15_b_200_999)">
<path d="M380.901 711.6C353.101 708.9 351.501 706.3 345.401 654.8L344.201 644.6C340.201 611.9 338.401 596.9 345.401 590.3C349.501 586.3 355.501 586.8 359.601 587.5C381.801 591.2 382.201 597.4 385.201 638.3C385.301 640.4 383.801 642.2 381.701 642.4C379.601 642.5 377.801 641 377.601 638.9C374.601 597.7 374.301 597.7 358.401 595C352.601 594 351.201 595.4 350.701 595.8C346.501 599.8 348.601 617.3 351.801 643.7L353.001 653.9C358.701 701.7 358.701 701.7 381.501 704C387.701 704.6 391.101 704.1 392.901 702.2C398.901 696.1 396.001 670.9 390.101 620.6L387.801 600.9C387.601 598.8 389.101 596.9 391.201 596.7C393.201 596.5 395.201 598 395.401 600.1L397.701 619.8C404.601 678.9 406.901 698.9 398.301 707.6C394.901 711 390.301 711.9 385.701 711.9C384.101 711.9 382.501 711.8 380.901 711.6Z" fill="#000200"/>
</g>
<g filter="url(#filter16_b_200_999)">
<path d="M1246.3 458.4C1243.3 454.9 1242.2 450.4 1243 445.5C1244.8 434.8 1259.9 430.9 1267 429.6V398C1267 395.9 1268.7 394.2 1270.8 394.2C1272.9 394.2 1274.6 395.9 1274.6 398V432.9C1274.6 434.8 1273.1 436.5 1271.2 436.7C1264.9 437.4 1251.5 440.8 1250.5 446.8C1250 449.5 1250.6 451.7 1252.1 453.5C1254.8 456.7 1260.7 458.6 1267.8 458.6C1269.9 458.6 1271.6 460.3 1271.6 462.4C1271.6 464.5 1269.9 466.2 1267.8 466.2C1258.2 466.2 1250.5 463.4 1246.3 458.4Z" fill="#000200"/>
</g>
<g filter="url(#filter17_b_200_999)">
<path d="M1246.1 399.2C1246.1 409 1230.9 409 1230.9 399.2V391.6C1230.9 381.8 1246.1 381.8 1246.1 391.6V399.2Z" fill="#000200"/>
</g>
<g filter="url(#filter18_b_200_999)">
<path d="M1337.9 399.2C1337.9 409 1322.7 409 1322.7 399.2V391.6C1322.6 381.8 1337.9 381.8 1337.9 391.6V399.2Z" fill="#000200"/>
</g>
<g filter="url(#filter19_b_200_999)">
<path d="M1352.8 360.301C1357.3 362.201 1353.4 368.801 1349 366.901C1343.9 364.701 1338.4 363.401 1333 362.201C1328.2 361.101 1330.2 353.701 1335 354.801C1341.1 356.101 1347.1 357.801 1352.8 360.301Z" fill="#000200"/>
</g>
<g filter="url(#filter20_b_200_999)">
<path d="M1240.9 346.101C1244.7 343.101 1250.1 348.501 1246.3 351.501C1242.1 354.801 1237.3 357.101 1232.9 360.101C1228.8 362.801 1225 356.201 1229 353.501C1232.9 350.901 1237.2 349.001 1240.9 346.101Z" fill="#000200"/>
</g>
<g filter="url(#filter21_b_200_999)">
<path d="M1334.3 493.3C1334.6 488.4 1342.2 488.4 1341.9 493.3C1341.3 503.7 1332.1 509.4 1322.6 510.9C1317.8 511.7 1315.7 504.4 1320.6 503.6C1326.3 502.7 1333.9 500.1 1334.3 493.3Z" fill="#000200"/>
</g>
<g filter="url(#filter22_b_200_999)">
<path d="M1294.3 299.201C1290.9 302.701 1296.3 308.101 1299.7 304.601L1320.1 283.401C1323.5 279.801 1318.1 274.401 1314.7 278.001C1307.9 285.101 1301.1 292.101 1294.3 299.201Z" fill="white"/>
</g>
<g filter="url(#filter23_b_200_999)">
<path d="M1538.8 466.7C1520.4 438.4 1510.2 409.6 1501.4 377.3C1493.7 349.2 1482.8 324 1461 304C1447.6 291.6 1430.6 282.6 1413.2 274.9C1392.6 260.8 1363 253.9 1323.7 253.9C1248.6 253.9 1210.1 284.4 1209.1 344.4C1208.9 357.2 1208.7 369.5 1208.4 381.3C1206.2 495.9 1204.8 565 1245.6 588.5C1255.6 594.3 1267.6 598 1279.7 600.4C1279.6 601.1 1307.8 656.2 1307.8 656.2C1308.4 657.4 1309.7 658.2 1311 658.3C1311.1 658.3 1311.1 658.3 1311.2 658.3C1312.5 658.3 1313.7 657.6 1314.4 656.5C1315.2 655.3 1333.3 626.1 1342.4 601.9C1342.9 600.7 1342.7 599.3 1341.9 598.3C1341.1 597.3 1339.9 596.6 1338.6 596.8C1338 596.8 1281 600.3 1249.3 582.1C1212.5 560.8 1213.8 493.4 1215.9 381.6C1216.1 369.8 1216.4 357.4 1216.6 344.6C1216.7 335.4 1217.8 326.9 1219.9 319.3C1248.6 316 1274.5 305 1302.3 297.2C1315.5 297.4 1328.5 299.2 1341 303.9C1371.7 315.7 1379.9 340.2 1387.3 369.4C1390.9 383.8 1399.8 408.9 1411.6 419C1411.7 420.3 1411.7 419.7 1411.6 419C1412 419 1414.6 421.9 1416.6 421.7C1439.1 420.6 1455.3 424 1463.3 431.6C1467.2 435.3 1469.2 439.9 1469.2 445.3C1469.2 448.6 1468.3 454.9 1462.6 460.4C1456.3 466.5 1445.9 469.4 1432.8 468.9C1431.8 468.9 1430.8 469.2 1430 469.9C1429.3 470.6 1428.8 471.6 1428.8 472.6L1428.3 491C1421.5 517.7 1416.2 544.7 1412.5 572C1409.4 594.9 1404.9 621.8 1417.6 642.7C1442.8 684.4 1510.9 674.2 1549.4 661.2C1599.8 644 1602.6 587.1 1585.1 544.3C1573.6 516.2 1555.3 492 1538.8 466.7Z" fill="#000200"/>
</g>
<g filter="url(#filter24_b_200_999)">
<path d="M1364 700.4C1336.4 697.5 1315.5 675.3 1307.8 655.9C1307 654 1308 651.7 1309.9 651C1311.8 650.2 1314.1 651.2 1314.8 653.1C1321.7 670.4 1340.3 690.3 1364.7 692.9C1380.9 694.6 1405.5 689 1429.9 652.4C1431.1 650.6 1433.4 650.2 1435.2 651.3C1436.9 652.5 1437.4 654.8 1436.3 656.6C1412.6 692.2 1388 700.7 1370 700.7C1367.9 700.7 1365.9 700.6 1364 700.4Z" fill="#000200"/>
</g>
<g filter="url(#filter25_b_200_999)">
<path d="M1257.9 1070.8C1247.4 1050.2 1131 757.901 1126.1 745.701C1125.3 743.701 1126.3 741.501 1128.2 740.801C1130.2 740.001 1132.4 741.001 1133.1 742.901C1134.3 745.901 1254.2 1047.1 1264.6 1067.4C1265.6 1069.3 1264.8 1071.6 1262.9 1072.5C1262.4 1072.8 1261.8 1072.9 1261.3 1072.9C1259.9 1072.9 1258.6 1072.1 1257.9 1070.8Z" fill="#000200"/>
</g>
<g filter="url(#filter26_b_200_999)">
<path d="M1256 854.701C1252.6 851.201 1247.2 856.501 1250.6 860.101L1324.8 937.601C1328.2 941.201 1333.6 935.801 1330.2 932.201C1305.5 906.401 1280.7 880.501 1256 854.701Z" fill="#000200"/>
</g>
<g filter="url(#filter27_b_200_999)">
<path d="M1022.4 599.9C1003.8 598.4 990.3 597.4 985.7 596.7C984.7 596.5 983.7 596.8 982.9 597.4C984.4 599.8 985.9 602.2 987.4 604.6C993.5 605.3 1005.3 606.2 1021.8 607.5C1085.3 612.4 1217.6 622.7 1299.9 642.4C1300.2 642.5 1300.5 642.5 1300.8 642.5C1302.5 642.5 1304.1 641.3 1304.5 639.6C1305 637.5 1303.7 635.5 1301.7 635C1218.8 615.2 1086.2 604.9 1022.4 599.9Z" fill="#000200"/>
</g>
<g filter="url(#filter28_b_200_999)">
<path d="M826.101 764.702C823.601 764.702 821.157 764.331 818.837 763.599C816.783 762.951 814.815 762.018 812.988 760.826C810.015 758.888 807.395 756.218 805.8 753.501C804.808 751.913 805.195 749.806 806.7 748.602C806.696 748.598 806.715 748.566 806.76 748.487C808.044 746.276 809.818 741.79 811.755 735.858C815.636 723.967 820.026 706.924 824.801 685.201C833.381 646.289 823.34 622.694 817.341 608.597L817.301 608.501L817.084 607.989C813.706 599.982 811.265 594.198 814.301 589.302C816.619 585.614 820.372 583.744 825.457 583.744C832.289 583.744 839.819 587.1 843.7 589.101C850.874 583.154 859.361 580.139 868.925 580.139C873.829 580.139 878.968 580.934 884.199 582.503C888.675 583.845 892.271 585.473 894.501 586.602C901.388 579.714 908.455 574.467 915.502 571.007C919.025 569.277 922.612 567.961 926.164 567.095C929.719 566.228 933.334 565.788 936.91 565.788C939.359 565.788 941.845 565.994 944.301 566.401C968.655 570.394 992.556 595.503 1011.6 637.102C1012.03 638.015 1012.07 639.048 1011.7 640.009C1011.34 640.955 1010.61 641.717 1009.7 642.101C1009.21 642.334 1008.68 642.452 1008.14 642.452C1006.65 642.452 1005.27 641.548 1004.7 640.201C986.74 601.088 964.828 577.506 943.001 573.801C941.005 573.466 938.976 573.296 936.97 573.296C933.754 573.296 930.484 573.733 927.249 574.593C924.021 575.452 920.741 576.757 917.502 578.472C911.029 581.898 904.468 587.09 898.001 593.902C897.299 594.661 896.298 595.097 895.253 595.097C894.533 595.097 893.823 594.891 893.2 594.501C893.092 594.432 882.174 587.584 869.176 587.584C861.416 587.584 854.527 590.012 848.701 594.802C852.388 605.428 855.256 616.381 857.227 627.355C859.023 637.356 860.115 647.604 860.472 657.813C861.077 675.093 859.616 692.607 856.128 709.868C850.377 738.332 840.977 757.043 839.151 760.504C839.124 760.556 839.107 760.588 839.1 760.601C838.714 761.374 838.022 761.994 837.201 762.301C833.454 763.894 829.719 764.702 826.101 764.702ZM825.656 591.413C823.332 591.413 821.732 592.083 820.901 593.401C819.938 594.942 821.982 599.825 824.146 604.994L824.401 605.602C827.535 612.898 831.827 622.891 834.163 636.314C835.423 643.554 835.976 651.129 835.806 658.828C835.607 667.778 834.428 677.223 832.301 686.901C825.199 719.352 818.456 742.898 813.801 751.501C814.688 752.525 816.184 753.99 818.274 755.149C820.624 756.452 823.231 757.112 826.024 757.112C828.295 757.112 830.709 756.671 833.201 755.802C834.323 753.602 837.293 747.482 840.612 738.208C844.639 726.952 847.76 715.09 849.888 702.951C852.726 686.766 853.721 670.388 852.846 654.27C852.336 644.867 851.176 635.429 849.398 626.22C847.458 616.171 844.734 606.139 841.301 596.402C836.988 594.101 830.303 591.414 825.657 591.414L825.656 591.413Z" fill="#000200"/>
</g>
<g filter="url(#filter29_b_200_999)">
<path d="M1019.1 784.601C919.1 783.401 835.701 762.801 834.901 762.601C832.901 762.101 831.6 760.001 832.1 758.001C832.6 756.001 834.7 754.701 836.7 755.201C837.5 755.401 920 775.701 1019.1 776.901C1118.4 778.101 1142.5 776.901 1142.7 776.901C1144.8 776.701 1146.6 778.401 1146.7 780.501C1146.8 782.601 1145.2 784.401 1143.1 784.501C1142.6 784.601 1132.1 785.101 1096.4 785.101C1078 785.101 1053 785.001 1019.1 784.601Z" fill="#000200"/>
</g>
<g filter="url(#filter30_b_200_999)">
<path d="M816.501 595.001C699.201 557.301 626.701 524.501 613.301 518.401C572.501 499.501 522.901 502.401 465.901 526.901C460.001 529.501 456.601 532.601 457.101 535.001C457.801 538.501 465.801 543.501 478.901 543.501C491.301 543.501 505.801 541.801 515.801 540.401C527.001 538.801 538.201 542.901 545.801 551.201C562.201 569.101 576.601 582.201 586.401 588.201C588.201 589.301 588.801 591.601 587.701 593.401C586.601 595.201 584.301 595.801 582.501 594.701C569.101 586.601 552.101 569.401 540.201 556.401C534.301 549.901 525.601 546.801 516.901 548.001C506.601 549.401 491.701 551.201 478.901 551.201C463.701 551.201 451.401 545.101 449.601 536.601C448.801 532.901 449.501 525.701 462.801 520.001C521.901 494.501 573.601 491.701 616.401 511.501C629.701 517.701 701.801 550.201 818.701 587.801C820.701 588.401 821.801 590.601 821.201 592.601C820.801 594.101 819.301 595.201 817.701 595.201C817.301 595.201 816.901 595.101 816.501 595.001Z" fill="#000200"/>
</g>
<g filter="url(#filter31_b_200_999)">
<path d="M808 755.2C773.5 743.7 735.6 728.4 699.1 713.6C637.3 688.6 578.9 665 535.5 658.2C533.4 657.9 532 655.9 532.3 653.9C532.6 651.9 534.6 650.4 536.6 650.7C580.8 657.6 639.6 681.3 701.9 706.5C738.4 721.3 776.1 736.5 810.4 747.9C812.4 748.6 813.5 750.7 812.8 752.7C812.3 754.4 810.8 755.4 809.2 755.4C808.8 755.4 808.4 755.3 808 755.2Z" fill="#000200"/>
</g>
<g filter="url(#filter32_b_200_999)">
<path d="M193.8 520.8C193.2 518.8 194.3 516.7 196.3 516C232.5 504.9 263.8 469.4 275.6 454.6C279.7 449.4 286.8 447.8 292.7 450.5C342 473.4 364 476.201 366.7 472.401C367.8 470.901 368.1 469.3 367.7 467.3C365.5 456.1 343.5 437.1 302.2 411.1C258.4 383.4 218.4 399 99.6 445.1L94.1 447.3C92.1 448.1 89.9 447.1 89.2 445.1C88.4 443.1 89.4 440.901 91.4 440.201L96.9 438C218.3 390.8 259.2 375 306.3 404.7C351.3 433.1 372.5 452 375.2 466C376 470.1 375.2 473.8 372.9 477C366 486.5 337.9 480 289.5 457.5C286.7 456.2 283.5 457.001 281.5 459.401C269.3 474.701 236.7 511.5 198.5 523.3C198.1 523.5 197.7 523.5 197.4 523.5C195.8 523.5 194.3 522.5 193.8 520.8Z" fill="#000200"/>
</g>
<g filter="url(#filter33_b_200_999)">
<path d="M109.1 636.5C108.2 634.6 109 632.3 110.9 631.4C218.1 581.3 238.3 584.8 275 591.2L279.1 591.9C281.2 592.3 282.6 594.2 282.2 596.3C281.8 598.4 279.9 599.8 277.8 599.4L273.6 598.7C238.4 592.6 219 589.3 114 638.3C113.7 638.6 113.1 638.7 112.6 638.7C111.2 638.7 109.8 637.9 109.1 636.5Z" fill="#000200"/>
</g>
<g filter="url(#filter34_b_200_999)">
<path d="M190.001 844.8C186.36 844.8 182.831 844.074 179.511 842.642C176.308 841.26 173.432 839.282 170.963 836.762C168.497 834.246 166.561 831.315 165.208 828.052C163.81 824.677 163.101 821.093 163.101 817.4C163.101 813.76 163.814 810.231 165.222 806.911C166.581 803.708 168.525 800.832 171 798.362C173.473 795.896 176.35 793.96 179.554 792.608C182.866 791.209 186.381 790.5 190.001 790.5C193.64 790.5 197.169 791.214 200.49 792.622C203.692 793.98 206.568 795.924 209.038 798.4C211.504 800.872 213.44 803.75 214.793 806.953C216.192 810.265 216.901 813.78 216.901 817.4C216.901 826.312 214.596 833.179 210.051 837.812C205.502 842.449 198.756 844.8 190.001 844.8ZM190.001 798C179.358 798 170.7 806.658 170.7 817.3C170.7 819.911 171.223 822.471 172.253 824.908C173.245 827.254 174.657 829.375 176.45 831.213C178.242 833.049 180.31 834.495 182.597 835.511C184.971 836.566 187.462 837.1 190.001 837.1C196.757 837.1 201.558 835.542 204.676 832.338C207.788 829.139 209.3 824.22 209.3 817.3C209.3 814.71 208.787 812.191 207.775 809.813C206.799 807.517 205.403 805.452 203.626 803.675C201.849 801.898 199.784 800.501 197.488 799.525C195.11 798.513 192.591 798 190.001 798Z" fill="#000200"/>
</g>
<g filter="url(#filter35_b_200_999)">
<path d="M85.5006 887.5L0.60059 179.5C0.50059 178.4 0.80059 177.3 1.60059 176.4C2.40059 175.6 3.50059 175.1 4.60059 175.2L765.101 218C767.101 218.1 768.701 219.8 768.701 221.9L763.501 571.9C763.501 574 761.801 575.6 759.701 575.6C759.701 575.6 759.701 575.6 759.601 575.6C757.501 575.6 755.801 573.8 755.901 571.7L761.101 225.4L8.70058 183.1L92.7006 883.1L753.601 859L756.101 733.5C756.101 731.4 757.901 729.9 760.001 729.8C762.101 729.8 763.801 731.6 763.701 733.7L761.201 862.8C761.201 864.8 759.501 866.5 757.501 866.5L89.5006 890.8C89.4006 890.9 89.4006 890.9 89.3006 890.9C87.4006 890.9 85.8006 889.5 85.5006 887.5Z" fill="#000200"/>
</g>
<g filter="url(#filter36_b_200_999)">
<path d="M122.9 770.501L66.9 233.301C66.8 232.201 67.2 231.101 67.9 230.301C68.7 229.501 69.7 229.101 70.8 229.101L709.2 256.701C711.2 256.801 712.8 258.501 712.8 260.501V553.601C712.8 555.701 711.1 557.401 709 557.401C706.9 557.401 705.2 555.701 705.2 553.601V264.101L74.9 236.901L130.1 766.201L705.2 755.101V719.101C705.2 717.001 706.9 715.301 709 715.301C711.1 715.301 712.8 717.001 712.8 719.101V758.801C712.8 760.901 711.1 762.601 709.1 762.601L126.7 773.901C124.8 773.901 123.1 772.401 122.9 770.501Z" fill="#000200"/>
</g>
<g filter="url(#filter37_b_200_999)">
<path d="M333.601 1010.4C336.201 1010.4 338.901 1010.3 341.501 1010.1C354.201 959.5 373.001 885.1 375.401 878.8C375.801 878.2 376.001 877.5 375.901 876.7C375.901 874.6 374.001 872.9 372.001 873C368.001 873.1 367.901 873.2 333.601 1010.4Z" fill="#000200"/>
</g>
<g filter="url(#filter38_b_200_999)">
<path d="M468.1 872.2L434.5 999.3C437.2 998.9 439.9 998.7 442.6 998.4L475.5 874.1C476.1 872.1 474.9 870 472.8 869.5C470.7 868.9 468.7 870.2 468.1 872.2Z" fill="#000200"/>
</g>
<g filter="url(#filter39_b_200_999)">
<path d="M253.6 1046.9V1024.3L572.5 984.2V1026C575 1025.5 577.6 1025 580.1 1024.4V979.9C580.1 978.8 579.6 977.8 578.8 977C578 976.2 576.9 975.9 575.8 976.1L249.3 1017.1C247.4 1017.3 246 1019 246 1020.9V1050.7C246 1051.7 246.4 1052.7 247.2 1053.4C247.9 1054.1 248.9 1054.5 249.9 1054.5H250L304.1 1053C304.1 1052.6 304 1052.1 304 1051.6V1050.7C304 1048.7 304.4 1046.9 305.1 1045.4L253.6 1046.9Z" fill="#000200"/>
</g>
<g filter="url(#filter40_b_200_999)">
<path d="M463.7 903.9L471.9 873.2L372.2 876.8L351.9 953.5L463.7 903.9Z" fill="#000200"/>
</g>
<g filter="url(#filter41_b_200_999)">
<path d="M304.601 1086.6C303.62 1086.6 302.721 1086.22 302 1085.5C301.249 1084.75 300.801 1083.74 300.801 1082.8V1033.8C300.801 1031.77 302.426 1030.1 304.501 1030L795.701 1011.5C795.76 1011.5 795.82 1011.5 795.88 1011.5C796.777 1011.5 797.656 1011.84 798.355 1012.47C799.066 1013.11 799.508 1013.97 799.601 1014.9L804.3 1063.1C804.406 1064.15 804.07 1065.24 803.4 1066C802.689 1066.81 801.68 1067.3 800.7 1067.3L304.7 1086.5C304.7 1086.6 304.601 1086.6 304.601 1086.6ZM792.401 1019.3L308.4 1037.5V1078.8L796.401 1059.9L792.401 1019.3Z" fill="#000200"/>
</g>
<g filter="url(#filter42_b_200_999)">
<path d="M362.801 1014.9C360.701 1014.9 359.001 1016.6 359.001 1018.7V1031.6C359.001 1033.7 359.801 1034.5 361.901 1034.5L398.701 1032.2C400.801 1032.2 403.801 1033.7 403.801 1031.6V1018.7C403.801 1016.6 402.101 1014.9 400.001 1014.9H362.801Z" fill="#000200"/>
</g>
<g filter="url(#filter43_b_200_999)">
<path d="M552.201 1008.7L464.301 1015C462.301 1015.1 460.801 1016.8 460.801 1018.8V1025.3C460.801 1027.4 462.501 1029.1 464.601 1029.1L552.501 1026.8C554.601 1026.8 556.301 1027.4 556.301 1025.2V1012.5C556.401 1011.4 555.901 1010.4 555.101 1009.7C554.301 1009 553.301 1008.6 552.201 1008.7Z" fill="#000200"/>
</g>
<g filter="url(#filter44_b_200_999)">
<path d="M672.401 1007.8L622.701 1010.5C620.701 1010.6 619.101 1012.3 619.101 1014.3V1020.8C619.101 1021.8 619.501 1022.8 620.201 1023.5C620.901 1024.2 621.901 1024.6 622.901 1024.6L671.501 1021.5C673.601 1021.5 676.301 1022.5 676.301 1020.5V1011.7C676.401 1010.6 676.001 1009.6 675.201 1008.8C674.401 1008.1 673.501 1007.6 672.401 1007.8Z" fill="#000200"/>
</g>
<g filter="url(#filter45_b_200_999)">
<path d="M740.101 1002.4L690.401 1005.1C688.401 1005.2 686.801 1006.9 686.801 1008.9V1015.4C686.801 1016.4 687.201 1017.4 687.901 1018.1C688.601 1018.8 689.601 1019.2 690.601 1019.2L740.301 1018.8C742.401 1018.8 744.101 1017.1 744.101 1015V1006.2C744.101 1005.1 743.701 1004.1 742.901 1003.4C742.101 1002.7 741.201 1002.2 740.101 1002.4Z" fill="#000200"/>
</g>
<g filter="url(#filter46_b_200_999)">
<path d="M1012.6 1150C1011.6 1150 1010.5 1149.6 1009.8 1148.8C1009.1 1148 1008.7 1147 1008.8 1146L1030.4 781.1C1030.5 779 1032.4 777.3 1034.4 777.5C1036.5 777.6 1038.1 779.4 1038 781.5L1016.7 1142.4H1591.3L1652.9 133L1075.5 147.9L1048.4 605.7C1048.3 607.8 1046.5 609.4 1044.4 609.3C1042.3 609.2 1040.7 607.4 1040.8 605.3L1068.1 144C1068.2 142 1069.8 140.5 1071.8 140.4L1656.9 125.3C1658 125.3 1659 125.7 1659.7 126.5C1660.4 127.3 1660.8 128.3 1660.8 129.4L1598.7 1146.6C1598.5 1148.5 1596.9 1150 1594.8 1150H1012.6Z" fill="#000200"/>
</g>
<g filter="url(#filter47_b_200_999)">
<path d="M1444.8 180.2C1440.59 180.2 1436.65 178.548 1433.69 175.549C1430.73 172.552 1429.1 168.557 1429.1 164.299C1429.1 155.642 1436.14 148.6 1444.8 148.6C1453.46 148.6 1460.5 155.642 1460.5 164.299C1460.5 166.827 1460.15 169.111 1459.47 171.087C1458.79 173.047 1457.77 174.725 1456.44 176.075C1455.11 177.425 1453.45 178.459 1451.51 179.15C1449.56 179.846 1447.3 180.2 1444.8 180.2ZM1444.8 156.199C1442.66 156.199 1440.64 157.038 1439.1 158.562C1437.55 160.096 1436.7 162.134 1436.7 164.299C1436.7 168.799 1440.41 172.6 1444.8 172.6C1450.63 172.6 1452.9 170.273 1452.9 164.299C1452.9 162.123 1452.06 160.085 1450.54 158.562C1449.01 157.038 1446.98 156.199 1444.8 156.199Z" fill="#000200"/>
</g>
<g filter="url(#filter48_b_200_999)">
<path d="M1057.4 1074.8C1056.7 1074 1056.3 1073 1056.4 1072L1069.8 781C1069.9 778.9 1071.7 777.1 1073.8 777.4C1075.9 777.5 1077.5 779.3 1077.4 781.4L1064.2 1068.4L1550.9 1066.7L1591 205L1104.3 198.4L1085.4 608.6C1085.3 610.7 1083.7 612.5 1081.4 612.2C1079.3 612.1 1077.7 610.3 1077.8 608.2L1096.8 194.3C1096.9 192.3 1098.6 190.7 1100.6 190.7C1100.6 190.7 1100.6 190.7 1100.7 190.7L1595.1 197.4C1596.1 197.4 1597.1 197.8 1597.8 198.6C1598.5 199.4 1598.9 200.4 1598.8 201.4L1558.4 1070.6C1558.3 1072.6 1556.6 1074.2 1554.6 1074.2L1060.2 1076C1059.2 1076 1058.2 1075.6 1057.4 1074.8Z" fill="#000200"/>
</g>
<g filter="url(#filter49_b_200_999)">
<path d="M1290.3 168.2C1288.2 168.2 1286.5 166.5 1286.5 164.4C1286.5 162.3 1288.2 160.6 1290.3 160.6H1401.4C1403.5 160.6 1405.2 162.3 1405.2 164.4C1405.2 166.5 1403.6 168.2 1401.4 168.2H1290.3Z" fill="#000200"/>
</g>
<g filter="url(#filter50_b_200_999)">
<path d="M1680.5 164.4L1618.3 1146.2H1594.8L1657 129.1L1680.5 164.4Z" fill="#000200"/>
</g>
<g filter="url(#filter51_b_200_999)">
<path d="M1618.3 1150H1594.8C1593.72 1150 1592.65 1149.54 1592 1148.8C1591.26 1147.95 1590.9 1146.96 1591 1146L1653.1 128.8C1653.2 127.16 1654.33 125.793 1655.9 125.4C1656.22 125.319 1656.55 125.278 1656.88 125.278C1658.2 125.278 1659.41 125.922 1660.1 127L1683.6 162.3C1684.1 162.998 1684.3 163.806 1684.2 164.7L1622 1146.5C1622 1147.46 1621.61 1148.34 1620.9 1149C1620.2 1149.65 1619.28 1150 1618.3 1150ZM1660.2 140.6L1598.9 1142.4H1614.8L1676.7 165.4L1660.2 140.6Z" fill="#000200"/>
</g>
<g filter="url(#filter52_b_200_999)">
<path d="M1090.4 1045.8C1088.3 1045.8 1086.6 1044.1 1086.6 1042V993.2C1086.6 991.1 1088.3 989.4 1090.4 989.4C1092.5 989.4 1094.2 991.1 1094.2 993.2V1038.2H1143C1145.1 1038.2 1146.8 1039.9 1146.8 1042C1146.8 1044.1 1145.1 1045.8 1143 1045.8H1090.4Z" fill="#000200"/>
</g>
<g filter="url(#filter53_b_200_999)">
<path d="M1473.1 1045.8C1471 1045.8 1469.3 1044.1 1469.3 1042C1469.3 1039.9 1471 1038.2 1473.1 1038.2H1522.1V993.2C1522.1 991.1 1523.8 989.4 1525.9 989.4C1528 989.4 1529.7 991.1 1529.7 993.2V1042C1529.7 1044.1 1528 1045.8 1525.9 1045.8H1473.1Z" fill="#000200"/>
</g>
<g filter="url(#filter54_b_200_999)">
<path d="M1561.6 291.2L1562.3 236.7H1512.4C1510.3 236.7 1508.6 235 1508.6 232.9C1508.6 230.8 1510.3 229.1 1512.4 229.1H1566.2C1567.2 229.1 1568.2 229.5 1568.9 230.2C1569.6 230.9 1570 231.9 1570 232.9L1569.2 291.3C1569.2 293.4 1567.5 295.1 1565.4 295.1C1563.2 295.1 1561.6 293.3 1561.6 291.2Z" fill="#000200"/>
</g>
<g filter="url(#filter55_b_200_999)">
<path d="M1125.8 270.3V221.9C1125.8 219.8 1127.5 218.1 1129.6 218.1H1182.8C1184.9 218.1 1186.6 219.8 1186.6 221.9C1186.6 224 1184.9 225.7 1182.8 225.7H1133.4V270.3C1133.5 272.4 1131.8 274.1 1129.6 274.1C1127.5 274.1 1125.8 272.4 1125.8 270.3Z" fill="#000200"/>
</g>
<g filter="url(#filter56_b_200_999)">
<path d="M1243.5 1092C1238.1 1092 1233.6 1096.4 1233.6 1101.9C1233.6 1107.1 1237.7 1111.4 1242.9 1111.8L1311.1 1116.1C1311.3 1116.1 1311.5 1116.1 1311.7 1116.1C1314.2 1116.1 1316.6 1115.1 1318.5 1113.4C1320.5 1111.5 1321.6 1108.9 1321.6 1106.2V1101.9C1321.6 1096.4 1317.2 1092 1311.8 1092H1243.5Z" fill="#000200"/>
</g>
<defs>
<filter id="filter0_b_200_999" x="1125.5" y="679.7" width="487.4" height="432.2" filterUnits="userSpaceOnUse" color-interpolation-filters="sRGB">
<feFlood flood-opacity="0" result="BackgroundImageFix"/>
<feGaussianBlur in="BackgroundImageFix" stdDeviation="5"/>
<feComposite in2="SourceAlpha" operator="in" result="effect1_backgroundBlur_200_999"/>
<feBlend mode="normal" in="SourceGraphic" in2="effect1_backgroundBlur_200_999" result="shape"/>
</filter>
<filter id="filter1_b_200_999" x="33.6006" y="254.5" width="658.4" height="557.2" filterUnits="userSpaceOnUse" color-interpolation-filters="sRGB">
<feFlood flood-opacity="0" result="BackgroundImageFix"/>
<feGaussianBlur in="BackgroundImageFix" stdDeviation="5"/>
<feComposite in2="SourceAlpha" operator="in" result="effect1_backgroundBlur_200_999"/>
<feBlend mode="normal" in="SourceGraphic" in2="effect1_backgroundBlur_200_999" result="shape"/>
</filter>
<filter id="filter2_b_200_999" x="695.274" y="145.746" width="39.5801" height="47.1543" filterUnits="userSpaceOnUse" color-interpolation-filters="sRGB">
<feFlood flood-opacity="0" result="BackgroundImageFix"/>
<feGaussianBlur in="BackgroundImageFix" stdDeviation="5"/>
<feComposite in2="SourceAlpha" operator="in" result="effect1_backgroundBlur_200_999"/>
<feBlend mode="normal" in="SourceGraphic" in2="effect1_backgroundBlur_200_999" result="shape"/>
</filter>
<filter id="filter3_b_200_999" x="734.087" y="-9.21777" width="388.394" height="145.018" filterUnits="userSpaceOnUse" color-interpolation-filters="sRGB">
<feFlood flood-opacity="0" result="BackgroundImageFix"/>
<feGaussianBlur in="BackgroundImageFix" stdDeviation="5"/>
<feComposite in2="SourceAlpha" operator="in" result="effect1_backgroundBlur_200_999"/>
<feBlend mode="normal" in="SourceGraphic" in2="effect1_backgroundBlur_200_999" result="shape"/>
</filter>
<filter id="filter4_b_200_999" x="1127.36" y="84.2637" width="42.2422" height="45.3364" filterUnits="userSpaceOnUse" color-interpolation-filters="sRGB">
<feFlood flood-opacity="0" result="BackgroundImageFix"/>
<feGaussianBlur in="BackgroundImageFix" stdDeviation="5"/>
<feComposite in2="SourceAlpha" operator="in" result="effect1_backgroundBlur_200_999"/>
<feBlend mode="normal" in="SourceGraphic" in2="effect1_backgroundBlur_200_999" result="shape"/>
</filter>
<filter id="filter5_b_200_999" x="954.861" y="211.918" width="67.8174" height="75.9648" filterUnits="userSpaceOnUse" color-interpolation-filters="sRGB">
<feFlood flood-opacity="0" result="BackgroundImageFix"/>
<feGaussianBlur in="BackgroundImageFix" stdDeviation="5"/>
<feComposite in2="SourceAlpha" operator="in" result="effect1_backgroundBlur_200_999"/>
<feBlend mode="normal" in="SourceGraphic" in2="effect1_backgroundBlur_200_999" result="shape"/>
</filter>
<filter id="filter6_b_200_999" x="943.574" y="300.645" width="49.5527" height="41.0117" filterUnits="userSpaceOnUse" color-interpolation-filters="sRGB">
<feFlood flood-opacity="0" result="BackgroundImageFix"/>
<feGaussianBlur in="BackgroundImageFix" stdDeviation="5"/>
<feComposite in2="SourceAlpha" operator="in" result="effect1_backgroundBlur_200_999"/>
<feBlend mode="normal" in="SourceGraphic" in2="effect1_backgroundBlur_200_999" result="shape"/>
</filter>
<filter id="filter7_b_200_999" x="341.88" y="55.4639" width="52.3408" height="60.3354" filterUnits="userSpaceOnUse" color-interpolation-filters="sRGB">
<feFlood flood-opacity="0" result="BackgroundImageFix"/>
<feGaussianBlur in="BackgroundImageFix" stdDeviation="5"/>
<feComposite in2="SourceAlpha" operator="in" result="effect1_backgroundBlur_200_999"/>
<feBlend mode="normal" in="SourceGraphic" in2="effect1_backgroundBlur_200_999" result="shape"/>
</filter>
<filter id="filter8_b_200_999" x="249.301" y="934.9" width="54" height="46" filterUnits="userSpaceOnUse" color-interpolation-filters="sRGB">
<feFlood flood-opacity="0" result="BackgroundImageFix"/>
<feGaussianBlur in="BackgroundImageFix" stdDeviation="5"/>
<feComposite in2="SourceAlpha" operator="in" result="effect1_backgroundBlur_200_999"/>
<feBlend mode="normal" in="SourceGraphic" in2="effect1_backgroundBlur_200_999" result="shape"/>
</filter>
<filter id="filter9_b_200_999" x="220.301" y="453.4" width="302.6" height="237" filterUnits="userSpaceOnUse" color-interpolation-filters="sRGB">
<feFlood flood-opacity="0" result="BackgroundImageFix"/>
<feGaussianBlur in="BackgroundImageFix" stdDeviation="5"/>
<feComposite in2="SourceAlpha" operator="in" result="effect1_backgroundBlur_200_999"/>
<feBlend mode="normal" in="SourceGraphic" in2="effect1_backgroundBlur_200_999" result="shape"/>
</filter>
<filter id="filter10_b_200_999" x="264.809" y="434.367" width="278.913" height="121.033" filterUnits="userSpaceOnUse" color-interpolation-filters="sRGB">
<feFlood flood-opacity="0" result="BackgroundImageFix"/>
<feGaussianBlur in="BackgroundImageFix" stdDeviation="5"/>
<feComposite in2="SourceAlpha" operator="in" result="effect1_backgroundBlur_200_999"/>
<feBlend mode="normal" in="SourceGraphic" in2="effect1_backgroundBlur_200_999" result="shape"/>
</filter>
<filter id="filter11_b_200_999" x="245.492" y="464.611" width="304.323" height="214.289" filterUnits="userSpaceOnUse" color-interpolation-filters="sRGB">
<feFlood flood-opacity="0" result="BackgroundImageFix"/>
<feGaussianBlur in="BackgroundImageFix" stdDeviation="5"/>
<feComposite in2="SourceAlpha" operator="in" result="effect1_backgroundBlur_200_999"/>
<feBlend mode="normal" in="SourceGraphic" in2="effect1_backgroundBlur_200_999" result="shape"/>
</filter>
<filter id="filter12_b_200_999" x="516.201" y="443.3" width="27.5996" height="72.6001" filterUnits="userSpaceOnUse" color-interpolation-filters="sRGB">
<feFlood flood-opacity="0" result="BackgroundImageFix"/>
<feGaussianBlur in="BackgroundImageFix" stdDeviation="5"/>
<feComposite in2="SourceAlpha" operator="in" result="effect1_backgroundBlur_200_999"/>
<feBlend mode="normal" in="SourceGraphic" in2="effect1_backgroundBlur_200_999" result="shape"/>
</filter>
<filter id="filter13_b_200_999" x="279.509" y="515.408" width="115.583" height="152.892" filterUnits="userSpaceOnUse" color-interpolation-filters="sRGB">
<feFlood flood-opacity="0" result="BackgroundImageFix"/>
<feGaussianBlur in="BackgroundImageFix" stdDeviation="5"/>
<feComposite in2="SourceAlpha" operator="in" result="effect1_backgroundBlur_200_999"/>
<feBlend mode="normal" in="SourceGraphic" in2="effect1_backgroundBlur_200_999" result="shape"/>
</filter>
<filter id="filter14_b_200_999" x="416.574" y="507.474" width="133.153" height="171.626" filterUnits="userSpaceOnUse" color-interpolation-filters="sRGB">
<feFlood flood-opacity="0" result="BackgroundImageFix"/>
<feGaussianBlur in="BackgroundImageFix" stdDeviation="5"/>
<feComposite in2="SourceAlpha" operator="in" result="effect1_backgroundBlur_200_999"/>
<feBlend mode="normal" in="SourceGraphic" in2="effect1_backgroundBlur_200_999" result="shape"/>
</filter>
<filter id="filter15_b_200_999" x="330.673" y="577.022" width="83.1904" height="144.877" filterUnits="userSpaceOnUse" color-interpolation-filters="sRGB">
<feFlood flood-opacity="0" result="BackgroundImageFix"/>
<feGaussianBlur in="BackgroundImageFix" stdDeviation="5"/>
<feComposite in2="SourceAlpha" operator="in" result="effect1_backgroundBlur_200_999"/>
<feBlend mode="normal" in="SourceGraphic" in2="effect1_backgroundBlur_200_999" result="shape"/>
</filter>
<filter id="filter16_b_200_999" x="1232.75" y="384.2" width="51.8525" height="92" filterUnits="userSpaceOnUse" color-interpolation-filters="sRGB">
<feFlood flood-opacity="0" result="BackgroundImageFix"/>
<feGaussianBlur in="BackgroundImageFix" stdDeviation="5"/>
<feComposite in2="SourceAlpha" operator="in" result="effect1_backgroundBlur_200_999"/>
<feBlend mode="normal" in="SourceGraphic" in2="effect1_backgroundBlur_200_999" result="shape"/>
</filter>
<filter id="filter17_b_200_999" x="1220.9" y="374.25" width="35.2002" height="42.2998" filterUnits="userSpaceOnUse" color-interpolation-filters="sRGB">
<feFlood flood-opacity="0" result="BackgroundImageFix"/>
<feGaussianBlur in="BackgroundImageFix" stdDeviation="5"/>
<feComposite in2="SourceAlpha" operator="in" result="effect1_backgroundBlur_200_999"/>
<feBlend mode="normal" in="SourceGraphic" in2="effect1_backgroundBlur_200_999" result="shape"/>
</filter>
<filter id="filter18_b_200_999" x="1312.7" y="374.25" width="35.2002" height="42.2998" filterUnits="userSpaceOnUse" color-interpolation-filters="sRGB">
<feFlood flood-opacity="0" result="BackgroundImageFix"/>
<feGaussianBlur in="BackgroundImageFix" stdDeviation="5"/>
<feComposite in2="SourceAlpha" operator="in" result="effect1_backgroundBlur_200_999"/>
<feBlend mode="normal" in="SourceGraphic" in2="effect1_backgroundBlur_200_999" result="shape"/>
</filter>
<filter id="filter19_b_200_999" x="1320.25" y="344.689" width="44.5508" height="32.5513" filterUnits="userSpaceOnUse" color-interpolation-filters="sRGB">
<feFlood flood-opacity="0" result="BackgroundImageFix"/>
<feGaussianBlur in="BackgroundImageFix" stdDeviation="5"/>
<feComposite in2="SourceAlpha" operator="in" result="effect1_backgroundBlur_200_999"/>
<feBlend mode="normal" in="SourceGraphic" in2="effect1_backgroundBlur_200_999" result="shape"/>
</filter>
<filter id="filter20_b_200_999" x="1217.3" y="335.222" width="40.292" height="35.5151" filterUnits="userSpaceOnUse" color-interpolation-filters="sRGB">
<feFlood flood-opacity="0" result="BackgroundImageFix"/>
<feGaussianBlur in="BackgroundImageFix" stdDeviation="5"/>
<feComposite in2="SourceAlpha" operator="in" result="effect1_backgroundBlur_200_999"/>
<feBlend mode="normal" in="SourceGraphic" in2="effect1_backgroundBlur_200_999" result="shape"/>
</filter>
<filter id="filter21_b_200_999" x="1307.81" y="479.625" width="44.1035" height="41.3364" filterUnits="userSpaceOnUse" color-interpolation-filters="sRGB">
<feFlood flood-opacity="0" result="BackgroundImageFix"/>
<feGaussianBlur in="BackgroundImageFix" stdDeviation="5"/>
<feComposite in2="SourceAlpha" operator="in" result="effect1_backgroundBlur_200_999"/>
<feBlend mode="normal" in="SourceGraphic" in2="effect1_backgroundBlur_200_999" result="shape"/>
</filter>
<filter id="filter22_b_200_999" x="1283.22" y="266.813" width="47.9629" height="48.9214" filterUnits="userSpaceOnUse" color-interpolation-filters="sRGB">
<feFlood flood-opacity="0" result="BackgroundImageFix"/>
<feGaussianBlur in="BackgroundImageFix" stdDeviation="5"/>
<feComposite in2="SourceAlpha" operator="in" result="effect1_backgroundBlur_200_999"/>
<feBlend mode="normal" in="SourceGraphic" in2="effect1_backgroundBlur_200_999" result="shape"/>
</filter>
<filter id="filter23_b_200_999" x="1197.5" y="243.9" width="407.341" height="438.684" filterUnits="userSpaceOnUse" color-interpolation-filters="sRGB">
<feFlood flood-opacity="0" result="BackgroundImageFix"/>
<feGaussianBlur in="BackgroundImageFix" stdDeviation="5"/>
<feComposite in2="SourceAlpha" operator="in" result="effect1_backgroundBlur_200_999"/>
<feBlend mode="normal" in="SourceGraphic" in2="effect1_backgroundBlur_200_999" result="shape"/>
</filter>
<filter id="filter24_b_200_999" x="1297.52" y="640.69" width="149.362" height="70.0098" filterUnits="userSpaceOnUse" color-interpolation-filters="sRGB">
<feFlood flood-opacity="0" result="BackgroundImageFix"/>
<feGaussianBlur in="BackgroundImageFix" stdDeviation="5"/>
<feComposite in2="SourceAlpha" operator="in" result="effect1_backgroundBlur_200_999"/>
<feBlend mode="normal" in="SourceGraphic" in2="effect1_backgroundBlur_200_999" result="shape"/>
</filter>
<filter id="filter25_b_200_999" x="1115.82" y="730.523" width="159.211" height="352.377" filterUnits="userSpaceOnUse" color-interpolation-filters="sRGB">
<feFlood flood-opacity="0" result="BackgroundImageFix"/>
<feGaussianBlur in="BackgroundImageFix" stdDeviation="5"/>
<feComposite in2="SourceAlpha" operator="in" result="effect1_backgroundBlur_200_999"/>
<feBlend mode="normal" in="SourceGraphic" in2="effect1_backgroundBlur_200_999" result="shape"/>
</filter>
<filter id="filter26_b_200_999" x="1239.52" y="843.555" width="101.763" height="105.233" filterUnits="userSpaceOnUse" color-interpolation-filters="sRGB">
<feFlood flood-opacity="0" result="BackgroundImageFix"/>
<feGaussianBlur in="BackgroundImageFix" stdDeviation="5"/>
<feComposite in2="SourceAlpha" operator="in" result="effect1_backgroundBlur_200_999"/>
<feBlend mode="normal" in="SourceGraphic" in2="effect1_backgroundBlur_200_999" result="shape"/>
</filter>
<filter id="filter27_b_200_999" x="972.9" y="586.639" width="341.707" height="65.8618" filterUnits="userSpaceOnUse" color-interpolation-filters="sRGB">
<feFlood flood-opacity="0" result="BackgroundImageFix"/>
<feGaussianBlur in="BackgroundImageFix" stdDeviation="5"/>
<feComposite in2="SourceAlpha" operator="in" result="effect1_backgroundBlur_200_999"/>
<feBlend mode="normal" in="SourceGraphic" in2="effect1_backgroundBlur_200_999" result="shape"/>
</filter>
<filter id="filter28_b_200_999" x="795.252" y="555.788" width="226.702" height="218.914" filterUnits="userSpaceOnUse" color-interpolation-filters="sRGB">
<feFlood flood-opacity="0" result="BackgroundImageFix"/>
<feGaussianBlur in="BackgroundImageFix" stdDeviation="5"/>
<feComposite in2="SourceAlpha" operator="in" result="effect1_backgroundBlur_200_999"/>
<feBlend mode="normal" in="SourceGraphic" in2="effect1_backgroundBlur_200_999" result="shape"/>
</filter>
<filter id="filter29_b_200_999" x="821.993" y="745.094" width="334.712" height="50.0073" filterUnits="userSpaceOnUse" color-interpolation-filters="sRGB">
<feFlood flood-opacity="0" result="BackgroundImageFix"/>
<feGaussianBlur in="BackgroundImageFix" stdDeviation="5"/>
<feComposite in2="SourceAlpha" operator="in" result="effect1_backgroundBlur_200_999"/>
<feBlend mode="normal" in="SourceGraphic" in2="effect1_backgroundBlur_200_999" result="shape"/>
</filter>
<filter id="filter30_b_200_999" x="439.377" y="488.499" width="391.987" height="116.754" filterUnits="userSpaceOnUse" color-interpolation-filters="sRGB">
<feFlood flood-opacity="0" result="BackgroundImageFix"/>
<feGaussianBlur in="BackgroundImageFix" stdDeviation="5"/>
<feComposite in2="SourceAlpha" operator="in" result="effect1_backgroundBlur_200_999"/>
<feBlend mode="normal" in="SourceGraphic" in2="effect1_backgroundBlur_200_999" result="shape"/>
</filter>
<filter id="filter31_b_200_999" x="522.26" y="640.662" width="300.752" height="124.738" filterUnits="userSpaceOnUse" color-interpolation-filters="sRGB">
<feFlood flood-opacity="0" result="BackgroundImageFix"/>
<feGaussianBlur in="BackgroundImageFix" stdDeviation="5"/>
<feComposite in2="SourceAlpha" operator="in" result="effect1_backgroundBlur_200_999"/>
<feBlend mode="normal" in="SourceGraphic" in2="effect1_backgroundBlur_200_999" result="shape"/>
</filter>
<filter id="filter32_b_200_999" x="78.9238" y="379.629" width="306.578" height="153.872" filterUnits="userSpaceOnUse" color-interpolation-filters="sRGB">
<feFlood flood-opacity="0" result="BackgroundImageFix"/>
<feGaussianBlur in="BackgroundImageFix" stdDeviation="5"/>
<feComposite in2="SourceAlpha" operator="in" result="effect1_backgroundBlur_200_999"/>
<feBlend mode="normal" in="SourceGraphic" in2="effect1_backgroundBlur_200_999" result="shape"/>
</filter>
<filter id="filter33_b_200_999" x="98.7305" y="577.592" width="193.538" height="71.1084" filterUnits="userSpaceOnUse" color-interpolation-filters="sRGB">
<feFlood flood-opacity="0" result="BackgroundImageFix"/>
<feGaussianBlur in="BackgroundImageFix" stdDeviation="5"/>
<feComposite in2="SourceAlpha" operator="in" result="effect1_backgroundBlur_200_999"/>
<feBlend mode="normal" in="SourceGraphic" in2="effect1_backgroundBlur_200_999" result="shape"/>
</filter>
<filter id="filter34_b_200_999" x="153.101" y="780.5" width="73.7998" height="74.2998" filterUnits="userSpaceOnUse" color-interpolation-filters="sRGB">
<feFlood flood-opacity="0" result="BackgroundImageFix"/>
<feGaussianBlur in="BackgroundImageFix" stdDeviation="5"/>
<feComposite in2="SourceAlpha" operator="in" result="effect1_backgroundBlur_200_999"/>
<feBlend mode="normal" in="SourceGraphic" in2="effect1_backgroundBlur_200_999" result="shape"/>
</filter>
<filter id="filter35_b_200_999" x="-9.41797" y="165.188" width="788.118" height="735.713" filterUnits="userSpaceOnUse" color-interpolation-filters="sRGB">
<feFlood flood-opacity="0" result="BackgroundImageFix"/>
<feGaussianBlur in="BackgroundImageFix" stdDeviation="5"/>
<feComposite in2="SourceAlpha" operator="in" result="effect1_backgroundBlur_200_999"/>
<feBlend mode="normal" in="SourceGraphic" in2="effect1_backgroundBlur_200_999" result="shape"/>
</filter>
<filter id="filter36_b_200_999" x="56.8848" y="219.101" width="665.915" height="564.8" filterUnits="userSpaceOnUse" color-interpolation-filters="sRGB">
<feFlood flood-opacity="0" result="BackgroundImageFix"/>
<feGaussianBlur in="BackgroundImageFix" stdDeviation="5"/>
<feComposite in2="SourceAlpha" operator="in" result="effect1_backgroundBlur_200_999"/>
<feBlend mode="normal" in="SourceGraphic" in2="effect1_backgroundBlur_200_999" result="shape"/>
</filter>
<filter id="filter37_b_200_999" x="323.601" y="862.996" width="62.3252" height="157.404" filterUnits="userSpaceOnUse" color-interpolation-filters="sRGB">
<feFlood flood-opacity="0" result="BackgroundImageFix"/>
<feGaussianBlur in="BackgroundImageFix" stdDeviation="5"/>
<feComposite in2="SourceAlpha" operator="in" result="effect1_backgroundBlur_200_999"/>
<feBlend mode="normal" in="SourceGraphic" in2="effect1_backgroundBlur_200_999" result="shape"/>
</filter>
<filter id="filter38_b_200_999" x="424.5" y="859.353" width="61.1543" height="149.947" filterUnits="userSpaceOnUse" color-interpolation-filters="sRGB">
<feFlood flood-opacity="0" result="BackgroundImageFix"/>
<feGaussianBlur in="BackgroundImageFix" stdDeviation="5"/>
<feComposite in2="SourceAlpha" operator="in" result="effect1_backgroundBlur_200_999"/>
<feBlend mode="normal" in="SourceGraphic" in2="effect1_backgroundBlur_200_999" result="shape"/>
</filter>
<filter id="filter39_b_200_999" x="236" y="966.04" width="354.1" height="98.46" filterUnits="userSpaceOnUse" color-interpolation-filters="sRGB">
<feFlood flood-opacity="0" result="BackgroundImageFix"/>
<feGaussianBlur in="BackgroundImageFix" stdDeviation="5"/>
<feComposite in2="SourceAlpha" operator="in" result="effect1_backgroundBlur_200_999"/>
<feBlend mode="normal" in="SourceGraphic" in2="effect1_backgroundBlur_200_999" result="shape"/>
</filter>
<filter id="filter40_b_200_999" x="341.9" y="863.2" width="140" height="100.3" filterUnits="userSpaceOnUse" color-interpolation-filters="sRGB">
<feFlood flood-opacity="0" result="BackgroundImageFix"/>
<feGaussianBlur in="BackgroundImageFix" stdDeviation="5"/>
<feComposite in2="SourceAlpha" operator="in" result="effect1_backgroundBlur_200_999"/>
<feBlend mode="normal" in="SourceGraphic" in2="effect1_backgroundBlur_200_999" result="shape"/>
</filter>
<filter id="filter41_b_200_999" x="290.801" y="1001.5" width="523.519" height="95.105" filterUnits="userSpaceOnUse" color-interpolation-filters="sRGB">
<feFlood flood-opacity="0" result="BackgroundImageFix"/>
<feGaussianBlur in="BackgroundImageFix" stdDeviation="5"/>
<feComposite in2="SourceAlpha" operator="in" result="effect1_backgroundBlur_200_999"/>
<feBlend mode="normal" in="SourceGraphic" in2="effect1_backgroundBlur_200_999" result="shape"/>
</filter>
<filter id="filter42_b_200_999" x="349.001" y="1004.9" width="64.7998" height="39.6001" filterUnits="userSpaceOnUse" color-interpolation-filters="sRGB">
<feFlood flood-opacity="0" result="BackgroundImageFix"/>
<feGaussianBlur in="BackgroundImageFix" stdDeviation="5"/>
<feComposite in2="SourceAlpha" operator="in" result="effect1_backgroundBlur_200_999"/>
<feBlend mode="normal" in="SourceGraphic" in2="effect1_backgroundBlur_200_999" result="shape"/>
</filter>
<filter id="filter43_b_200_999" x="450.801" y="998.685" width="115.513" height="40.415" filterUnits="userSpaceOnUse" color-interpolation-filters="sRGB">
<feFlood flood-opacity="0" result="BackgroundImageFix"/>
<feGaussianBlur in="BackgroundImageFix" stdDeviation="5"/>
<feComposite in2="SourceAlpha" operator="in" result="effect1_backgroundBlur_200_999"/>
<feBlend mode="normal" in="SourceGraphic" in2="effect1_backgroundBlur_200_999" result="shape"/>
</filter>
<filter id="filter44_b_200_999" x="609.101" y="997.756" width="77.2148" height="36.8442" filterUnits="userSpaceOnUse" color-interpolation-filters="sRGB">
<feFlood flood-opacity="0" result="BackgroundImageFix"/>
<feGaussianBlur in="BackgroundImageFix" stdDeviation="5"/>
<feComposite in2="SourceAlpha" operator="in" result="effect1_backgroundBlur_200_999"/>
<feBlend mode="normal" in="SourceGraphic" in2="effect1_backgroundBlur_200_999" result="shape"/>
</filter>
<filter id="filter45_b_200_999" x="676.801" y="992.355" width="77.2998" height="36.8442" filterUnits="userSpaceOnUse" color-interpolation-filters="sRGB">
<feFlood flood-opacity="0" result="BackgroundImageFix"/>
<feGaussianBlur in="BackgroundImageFix" stdDeviation="5"/>
<feComposite in2="SourceAlpha" operator="in" result="effect1_backgroundBlur_200_999"/>
<feBlend mode="normal" in="SourceGraphic" in2="effect1_backgroundBlur_200_999" result="shape"/>
</filter>
<filter id="filter46_b_200_999" x="998.785" y="115.3" width="672.016" height="1044.7" filterUnits="userSpaceOnUse" color-interpolation-filters="sRGB">
<feFlood flood-opacity="0" result="BackgroundImageFix"/>
<feGaussianBlur in="BackgroundImageFix" stdDeviation="5"/>
<feComposite in2="SourceAlpha" operator="in" result="effect1_backgroundBlur_200_999"/>
<feBlend mode="normal" in="SourceGraphic" in2="effect1_backgroundBlur_200_999" result="shape"/>
</filter>
<filter id="filter47_b_200_999" x="1419.1" y="138.6" width="51.4004" height="51.6001" filterUnits="userSpaceOnUse" color-interpolation-filters="sRGB">
<feFlood flood-opacity="0" result="BackgroundImageFix"/>
<feGaussianBlur in="BackgroundImageFix" stdDeviation="5"/>
<feComposite in2="SourceAlpha" operator="in" result="effect1_backgroundBlur_200_999"/>
<feBlend mode="normal" in="SourceGraphic" in2="effect1_backgroundBlur_200_999" result="shape"/>
</filter>
<filter id="filter48_b_200_999" x="1046.38" y="180.7" width="562.431" height="905.3" filterUnits="userSpaceOnUse" color-interpolation-filters="sRGB">
<feFlood flood-opacity="0" result="BackgroundImageFix"/>
<feGaussianBlur in="BackgroundImageFix" stdDeviation="5"/>
<feComposite in2="SourceAlpha" operator="in" result="effect1_backgroundBlur_200_999"/>
<feBlend mode="normal" in="SourceGraphic" in2="effect1_backgroundBlur_200_999" result="shape"/>
</filter>
<filter id="filter49_b_200_999" x="1276.5" y="150.6" width="138.7" height="27.6001" filterUnits="userSpaceOnUse" color-interpolation-filters="sRGB">
<feFlood flood-opacity="0" result="BackgroundImageFix"/>
<feGaussianBlur in="BackgroundImageFix" stdDeviation="5"/>
<feComposite in2="SourceAlpha" operator="in" result="effect1_backgroundBlur_200_999"/>
<feBlend mode="normal" in="SourceGraphic" in2="effect1_backgroundBlur_200_999" result="shape"/>
</filter>
<filter id="filter50_b_200_999" x="1584.8" y="119.1" width="105.7" height="1037.1" filterUnits="userSpaceOnUse" color-interpolation-filters="sRGB">
<feFlood flood-opacity="0" result="BackgroundImageFix"/>
<feGaussianBlur in="BackgroundImageFix" stdDeviation="5"/>
<feComposite in2="SourceAlpha" operator="in" result="effect1_backgroundBlur_200_999"/>
<feBlend mode="normal" in="SourceGraphic" in2="effect1_backgroundBlur_200_999" result="shape"/>
</filter>
<filter id="filter51_b_200_999" x="1580.98" y="115.278" width="113.24" height="1044.72" filterUnits="userSpaceOnUse" color-interpolation-filters="sRGB">
<feFlood flood-opacity="0" result="BackgroundImageFix"/>
<feGaussianBlur in="BackgroundImageFix" stdDeviation="5"/>
<feComposite in2="SourceAlpha" operator="in" result="effect1_backgroundBlur_200_999"/>
<feBlend mode="normal" in="SourceGraphic" in2="effect1_backgroundBlur_200_999" result="shape"/>
</filter>
<filter id="filter52_b_200_999" x="1076.6" y="979.4" width="80.2002" height="76.3999" filterUnits="userSpaceOnUse" color-interpolation-filters="sRGB">
<feFlood flood-opacity="0" result="BackgroundImageFix"/>
<feGaussianBlur in="BackgroundImageFix" stdDeviation="5"/>
<feComposite in2="SourceAlpha" operator="in" result="effect1_backgroundBlur_200_999"/>
<feBlend mode="normal" in="SourceGraphic" in2="effect1_backgroundBlur_200_999" result="shape"/>
</filter>
<filter id="filter53_b_200_999" x="1459.3" y="979.4" width="80.4004" height="76.3999" filterUnits="userSpaceOnUse" color-interpolation-filters="sRGB">
<feFlood flood-opacity="0" result="BackgroundImageFix"/>
<feGaussianBlur in="BackgroundImageFix" stdDeviation="5"/>
<feComposite in2="SourceAlpha" operator="in" result="effect1_backgroundBlur_200_999"/>
<feBlend mode="normal" in="SourceGraphic" in2="effect1_backgroundBlur_200_999" result="shape"/>
</filter>
<filter id="filter54_b_200_999" x="1498.6" y="219.1" width="81.4004" height="86" filterUnits="userSpaceOnUse" color-interpolation-filters="sRGB">
<feFlood flood-opacity="0" result="BackgroundImageFix"/>
<feGaussianBlur in="BackgroundImageFix" stdDeviation="5"/>
<feComposite in2="SourceAlpha" operator="in" result="effect1_backgroundBlur_200_999"/>
<feBlend mode="normal" in="SourceGraphic" in2="effect1_backgroundBlur_200_999" result="shape"/>
</filter>
<filter id="filter55_b_200_999" x="1115.8" y="208.1" width="80.7998" height="76" filterUnits="userSpaceOnUse" color-interpolation-filters="sRGB">
<feFlood flood-opacity="0" result="BackgroundImageFix"/>
<feGaussianBlur in="BackgroundImageFix" stdDeviation="5"/>
<feComposite in2="SourceAlpha" operator="in" result="effect1_backgroundBlur_200_999"/>
<feBlend mode="normal" in="SourceGraphic" in2="effect1_backgroundBlur_200_999" result="shape"/>
</filter>
<filter id="filter56_b_200_999" x="1223.6" y="1082" width="108" height="44.1001" filterUnits="userSpaceOnUse" color-interpolation-filters="sRGB">
<feFlood flood-opacity="0" result="BackgroundImageFix"/>
<feGaussianBlur in="BackgroundImageFix" stdDeviation="5"/>
<feComposite in2="SourceAlpha" operator="in" result="effect1_backgroundBlur_200_999"/>
<feBlend mode="normal" in="SourceGraphic" in2="effect1_backgroundBlur_200_999" result="shape"/>
</filter>
</defs>
</svg>
