<svg width="538" height="552" viewBox="0 0 538 552" fill="none" xmlns="http://www.w3.org/2000/svg">
<g filter="url(#filter0_b_19_939)">
<path d="M94.9032 440.839L72.0669 174.664C72.0669 174.664 162.005 155.855 249.489 180.07C222.847 182.883 201.334 194.274 186.221 211.153L186.083 211.318L182.58 215.483C179.657 219.151 177.036 223.04 174.692 227.121C165.701 242.787 160.93 261.293 160.93 281.123C160.93 337.276 206.464 382.811 262.645 382.811C263.39 382.811 264.134 382.811 264.879 382.783C278.586 382.507 291.604 379.887 303.463 375.143C339.317 360.774 364.36 327.044 364.36 281.123C364.36 267.636 361.74 254.757 356.969 242.952C431.021 320.369 451.513 440.536 451.513 440.536L94.9032 440.839Z" fill="#F674B4"/>
</g>
<g filter="url(#filter1_b_19_939)">
<path d="M108.445 335.373C107.811 335.373 107.314 334.849 107.314 334.242C107.314 333.608 107.838 333.111 108.445 333.111H136.908C137.542 333.111 138.039 333.635 138.039 334.242C138.039 334.876 137.542 335.373 136.908 335.373H108.445Z" fill="#000200"/>
</g>
<g filter="url(#filter2_b_19_939)">
<path d="M122.097 350.432C121.463 350.432 120.966 349.908 120.966 349.302C120.966 348.667 121.49 348.171 122.097 348.171H141.458C142.093 348.171 142.589 348.695 142.589 349.302C142.589 349.936 142.093 350.432 141.458 350.432H122.097Z" fill="#000200"/>
</g>
<g filter="url(#filter3_b_19_939)">
<path d="M343.647 124.138C343.013 124.138 342.517 123.614 342.517 123.007C342.517 122.4 343.041 121.876 343.647 121.876H392.823C393.457 121.876 393.953 122.4 393.953 123.007C393.953 123.614 393.457 124.138 392.823 124.138H343.647Z" fill="#000200"/>
</g>
<g filter="url(#filter4_b_19_939)">
<path d="M337.387 108.941C336.752 108.941 336.256 108.417 336.256 107.81C336.256 107.204 336.78 106.68 337.387 106.68H379.115C379.75 106.68 380.246 107.204 380.246 107.81C380.246 108.417 379.75 108.941 379.115 108.941H337.387Z" fill="#000200"/>
</g>
<g filter="url(#filter5_b_19_939)">
<path d="M410.75 104.86C410.336 104.363 410.419 103.646 410.887 103.26L417.948 97.3302L410.887 92.6416C410.363 92.2831 410.226 91.5936 410.556 91.0696C410.915 90.5455 411.605 90.4076 412.129 90.7386L420.485 96.2546C420.789 96.4477 420.982 96.7786 420.982 97.1372C421.009 97.4957 420.844 97.8543 420.568 98.0749L412.322 104.97C412.156 105.163 411.908 105.273 411.632 105.273C411.301 105.273 410.97 105.135 410.75 104.86Z" fill="#000200"/>
</g>
<g filter="url(#filter6_b_19_939)">
<path d="M466.406 204.975C465.275 204.065 463.648 205.665 464.779 206.575C466.902 208.312 468.998 210.022 471.122 211.76C472.28 212.697 473.88 211.098 472.749 210.16C470.626 208.423 468.529 206.713 466.406 204.975Z" fill="#FFCF58"/>
</g>
<g filter="url(#filter7_b_19_939)">
<path d="M110.155 167.88L120.994 159.302L105.19 155.027L110.155 167.88Z" fill="#7BAEED"/>
</g>
<g filter="url(#filter8_b_19_939)">
<path d="M162.888 239.92C160.877 239.92 159.247 238.29 159.247 236.279C159.247 234.269 160.877 232.639 162.888 232.639C164.898 232.639 166.528 234.269 166.528 236.279C166.528 238.29 164.898 239.92 162.888 239.92Z" fill="#000200"/>
</g>
<g filter="url(#filter9_b_19_939)">
<path d="M235.229 388.768C233.219 388.768 231.589 387.139 231.589 385.128C231.589 383.117 233.219 381.487 235.229 381.487C237.24 381.487 238.87 383.117 238.87 385.128C238.87 387.139 237.24 388.768 235.229 388.768Z" fill="#000200"/>
</g>
<g filter="url(#filter10_b_19_939)">
<path d="M297.478 167.136C295.467 167.136 293.837 165.506 293.837 163.495C293.837 161.484 295.467 159.854 297.478 159.854C299.489 159.854 301.119 161.484 301.119 163.495C301.119 165.506 299.489 167.136 297.478 167.136Z" fill="#000200"/>
</g>
<g filter="url(#filter11_b_19_939)">
<path d="M379.115 329.03C377.104 329.03 375.474 327.4 375.474 325.39C375.474 323.379 377.104 321.749 379.115 321.749C381.125 321.749 382.755 323.379 382.755 325.39C382.755 327.4 381.125 329.03 379.115 329.03Z" fill="#000200"/>
</g>
<g filter="url(#filter12_b_19_939)">
<path d="M324.176 214.519C301.091 198.191 275.414 187.242 249.489 180.071C253.736 179.63 258.121 179.382 262.644 179.382C305.311 179.382 341.854 205.693 356.941 242.954C347.012 232.584 336.118 222.958 324.176 214.519Z" fill="white"/>
</g>
<g filter="url(#filter13_b_19_939)">
<path d="M347.508 347.592C338.269 357.025 327.072 364.361 314.578 369.38C302.746 374.124 289.701 376.744 276.021 377.02C275.276 377.048 274.532 377.048 273.787 377.048C231.534 377.048 195.322 351.288 179.932 314.607C174.857 302.526 172.072 289.26 172.072 275.333C172.072 255.503 176.843 236.996 185.862 221.331C188.179 217.249 190.826 213.36 193.722 209.692L197.225 205.528L197.363 205.334C214.931 185.78 241.022 173.59 273.814 173.59C329.967 173.645 375.474 219.18 375.474 275.36C375.474 305.257 364.829 329.996 347.508 347.592Z" fill="#000200"/>
</g>
<g filter="url(#filter14_b_19_939)">
<path d="M355.948 281.263L337.056 275.581C336.697 275.471 336.394 275.167 336.283 274.809C336.173 274.45 336.256 274.037 336.504 273.733L351.866 255.751C352.28 255.282 352.997 255.227 353.466 255.613C353.934 256.027 353.99 256.744 353.604 257.213L339.372 273.844L356.582 279.029C357.189 279.222 357.52 279.856 357.354 280.463C357.244 280.987 356.775 281.318 356.279 281.318C356.169 281.318 356.058 281.29 355.948 281.263Z" fill="#FFCF58"/>
</g>
<g filter="url(#filter15_b_19_939)">
<path d="M207.539 225.66C206.988 225.329 206.822 224.64 207.126 224.088L223.481 196.039C223.812 195.488 224.501 195.322 225.053 195.626C225.604 195.957 225.77 196.646 225.466 197.198L209.112 225.247C208.891 225.633 208.505 225.826 208.119 225.826C207.926 225.826 207.733 225.771 207.539 225.66Z" fill="#FFCF58"/>
</g>
<g filter="url(#filter16_b_19_939)">
<path d="M273.786 404.986C269.371 404.986 264.918 404.76 260.55 404.316C256.245 403.877 251.919 403.215 247.691 402.348C243.518 401.492 239.341 400.416 235.275 399.149C231.256 397.897 227.25 396.429 223.369 394.785C219.524 393.156 215.712 391.318 212.038 389.32C208.39 387.336 204.794 385.15 201.348 382.821C194.481 378.179 188.023 372.85 182.152 366.981C176.281 361.111 170.95 354.654 166.307 347.79C163.977 344.344 161.789 340.748 159.805 337.102C157.806 333.428 155.967 329.616 154.338 325.773C152.694 321.892 151.225 317.887 149.972 313.868C148.705 309.804 147.628 305.627 146.772 301.454C145.904 297.227 145.242 292.901 144.803 288.596C144.358 284.228 144.133 279.775 144.133 275.36C144.133 250.332 150.198 226.547 161.674 206.575C164.559 201.484 167.937 196.492 171.713 191.737L176.346 186.221C200.121 159.716 233.815 145.706 273.786 145.706C278.202 145.706 282.655 145.932 287.023 146.377C291.327 146.815 295.653 147.478 299.881 148.345C304.054 149.201 308.23 150.278 312.295 151.545C316.314 152.798 320.319 154.267 324.199 155.911C328.043 157.54 331.855 159.38 335.528 161.378C339.175 163.362 342.771 165.55 346.216 167.88C353.081 172.523 359.538 177.854 365.407 183.725C371.277 189.596 376.606 196.054 381.247 202.921C383.576 206.367 385.763 209.964 387.747 213.611C389.744 217.285 391.583 221.098 393.212 224.943C394.855 228.823 396.324 232.829 397.576 236.849C398.843 240.914 399.919 245.091 400.775 249.264C401.642 253.492 402.304 257.818 402.742 262.123C403.187 266.491 403.413 270.945 403.413 275.36C403.413 282.238 402.961 289.07 402.071 295.666C401.19 302.193 399.861 308.628 398.12 314.791C396.391 320.911 394.22 326.891 391.668 332.566C389.126 338.22 386.151 343.688 382.828 348.819C379.504 353.95 375.763 358.849 371.708 363.382C367.638 367.93 363.167 372.204 358.419 376.083C353.637 379.99 348.473 383.58 343.071 386.753C340.352 388.35 337.522 389.871 334.66 391.274C331.78 392.685 328.79 394.013 325.775 395.223C310.452 401.352 293.916 404.627 276.627 404.958C275.69 404.986 274.722 404.986 273.786 404.986ZM273.786 147.968C254.226 147.968 236.107 151.372 219.933 158.086C203.756 164.801 189.667 174.768 178.056 187.71L173.478 193.144C169.788 197.784 166.476 202.674 163.632 207.678C152.355 227.309 146.394 250.704 146.394 275.332C146.394 279.669 146.616 284.043 147.053 288.334C147.484 292.562 148.135 296.812 148.987 300.964C149.828 305.063 150.886 309.166 152.131 313.158C153.362 317.106 154.805 321.041 156.421 324.852C158.021 328.628 159.828 332.372 161.791 335.981C163.741 339.564 165.89 343.096 168.179 346.48C172.74 353.224 177.977 359.567 183.745 365.333C189.512 371.099 195.857 376.334 202.602 380.894C205.987 383.182 209.52 385.33 213.104 387.279C216.713 389.241 220.458 391.047 224.235 392.647C228.047 394.262 231.982 395.705 235.93 396.935C239.924 398.18 244.027 399.237 248.126 400.078C252.279 400.93 256.528 401.58 260.757 402.011C265.048 402.448 269.422 402.669 273.759 402.669C274.228 402.655 274.697 402.655 275.152 402.655C275.606 402.655 276.076 402.655 276.544 402.642C293.548 402.311 309.814 399.092 324.892 393.071C372.609 373.929 401.096 329.915 401.096 275.332C401.098 270.995 400.878 266.621 400.442 262.33C400.013 258.101 399.364 253.851 398.514 249.699C397.674 245.599 396.618 241.496 395.375 237.503C394.145 233.555 392.704 229.62 391.09 225.808C389.491 222.031 387.686 218.286 385.724 214.677C383.776 211.093 381.629 207.56 379.341 204.175C374.783 197.43 369.548 191.085 363.784 185.318C358.019 179.55 351.676 174.313 344.933 169.752C341.549 167.463 338.017 165.314 334.434 163.364C330.826 161.401 327.082 159.594 323.306 157.994C319.495 156.378 315.56 154.935 311.612 153.704C307.62 152.459 303.517 151.401 299.418 150.56C295.266 149.708 291.016 149.057 286.788 148.626C282.498 148.189 278.123 147.968 273.786 147.968Z" fill="#000200"/>
</g>
<g filter="url(#filter17_b_19_939)">
<path d="M273.786 378.178C232.209 378.178 194.957 353.398 178.884 315.047C173.595 302.486 170.913 289.124 170.913 275.332C170.913 255.501 175.729 236.628 184.841 220.751C187.136 216.692 189.818 212.73 192.812 208.975L196.425 204.672C205.849 194.178 217.255 186.102 230.327 180.667C243.385 175.239 258.007 172.486 273.786 172.486C330.496 172.486 376.633 218.635 376.633 275.36C376.633 289.785 374.207 303.358 369.424 315.703C364.641 328.046 357.546 339.044 348.335 348.392C339.025 357.895 327.816 365.309 315.019 370.428C302.926 375.276 289.814 377.875 276.048 378.15C275.276 378.178 274.519 378.178 273.786 378.178ZM273.786 174.775C258.347 174.775 244.043 177.462 231.272 182.76C218.503 188.057 207.373 195.921 198.19 206.134L198.107 206.244L194.577 210.436C191.611 214.186 189.003 218.046 186.827 221.91C177.913 237.418 173.202 255.901 173.202 275.36C173.202 288.818 175.819 301.884 180.98 314.193C196.695 351.689 233.124 375.917 273.786 375.917C274.505 375.917 275.248 375.917 275.993 375.889C289.474 375.613 302.317 373.071 314.164 368.332C326.719 363.271 337.668 356.024 346.708 346.792C364.787 328.465 374.343 303.764 374.343 275.36C374.343 271.934 374.168 268.479 373.823 265.09C373.483 261.75 372.969 258.394 372.296 255.114C370.973 248.662 368.998 242.314 366.427 236.245C363.903 230.287 360.78 224.539 357.144 219.161C353.542 213.834 349.407 208.823 344.853 204.269C340.3 199.714 335.291 195.579 329.965 191.977C324.588 188.34 318.842 185.216 312.886 182.692C306.819 180.121 300.473 178.146 294.023 176.823C290.745 176.15 287.389 175.636 284.051 175.296C280.664 174.95 277.21 174.775 273.786 174.775Z" fill="#000200"/>
</g>
<g filter="url(#filter18_b_19_939)">
<path d="M326.934 381.486L328.837 393.428L356.279 425.283L466.792 419.685V407.549" fill="white"/>
</g>
<g filter="url(#filter19_b_19_939)">
<path d="M355.424 426.056L327.982 394.201C327.844 394.035 327.761 393.842 327.733 393.649L325.83 381.679C325.72 381.045 326.161 380.466 326.768 380.383C327.403 380.273 327.982 380.714 328.064 381.321L329.912 392.96L356.775 424.153L465.634 418.637V407.605C465.634 406.97 466.158 406.474 466.764 406.474C467.399 406.474 467.895 406.998 467.895 407.605V419.74C467.895 420.347 467.426 420.843 466.82 420.871L356.334 426.469C356.334 426.442 356.306 426.442 356.279 426.442C355.948 426.442 355.644 426.304 355.424 426.056Z" fill="#000200"/>
</g>
<g filter="url(#filter20_b_19_939)">
<path d="M434.937 377.046L466.792 407.549L356.279 409.839L326.934 381.486L434.937 377.046Z" fill="white"/>
</g>
<g filter="url(#filter21_b_19_939)">
<path d="M356.279 410.969C355.972 410.969 355.696 410.855 355.479 410.639L326.134 382.286C325.806 381.986 325.693 381.487 325.858 381.073C325.941 380.866 326.078 380.687 326.255 380.556C326.437 380.42 326.652 380.341 326.879 380.328L434.882 375.888C435.188 375.888 435.489 375.998 435.71 376.191L467.537 406.722C467.869 407.055 467.975 407.53 467.813 407.963C467.649 408.399 467.238 408.68 466.765 408.68L356.279 410.969ZM434.524 378.204L329.637 382.507L356.748 408.68L464.007 406.474L434.524 378.204Z" fill="#000200"/>
</g>
<g filter="url(#filter22_b_19_939)">
<path d="M356.279 409.839L466.792 407.55V419.685L356.279 425.284V409.839Z" fill="#000200"/>
</g>
<g filter="url(#filter23_b_19_939)">
<path d="M381.625 396.573C381.597 395.938 382.066 395.414 382.7 395.387L422.802 393.346L414.914 384.437C414.5 383.969 414.528 383.251 414.997 382.838C415.465 382.424 416.182 382.452 416.596 382.921L426.084 393.594C426.387 393.925 426.442 394.394 426.277 394.78C426.111 395.194 425.725 395.469 425.284 395.469L382.811 397.621C382.811 397.648 382.783 397.648 382.755 397.648C382.149 397.648 381.652 397.179 381.625 396.573Z" fill="#000200"/>
</g>
<g filter="url(#filter24_b_19_939)">
<path d="M392.547 401.123L380.991 398.172C380.577 398.062 380.274 397.758 380.163 397.345C380.053 396.931 380.191 396.517 380.494 396.214L387.113 390.257C387.582 389.843 388.299 389.871 388.713 390.339C389.127 390.808 389.099 391.525 388.63 391.939L383.583 396.49L393.098 398.917C393.705 399.082 394.091 399.689 393.926 400.296C393.788 400.792 393.319 401.151 392.822 401.151C392.74 401.151 392.629 401.151 392.547 401.123Z" fill="#000200"/>
</g>
<g filter="url(#filter25_b_19_939)">
<path d="M317.253 177.313V186.607L478.79 192.206L522.504 150.091V139.225" fill="white"/>
</g>
<g filter="url(#filter26_b_19_939)">
<path d="M478.762 193.337L317.254 187.738C316.647 187.71 316.15 187.214 316.15 186.607V177.313C316.15 176.678 316.674 176.182 317.281 176.182C317.916 176.182 318.412 176.706 318.412 177.313V185.504L478.349 191.047L521.373 149.595V139.225C521.373 138.59 521.897 138.094 522.504 138.094C523.138 138.094 523.635 138.618 523.635 139.225V150.091C523.635 150.394 523.497 150.698 523.276 150.918L479.562 193.033C479.341 193.226 479.066 193.337 478.79 193.337H478.762Z" fill="#000200"/>
</g>
<g filter="url(#filter27_b_19_939)">
<path d="M317.253 177.313L478.734 182.442L522.504 139.225L369.573 136.384L317.253 177.313Z" fill="white"/>
</g>
<g filter="url(#filter28_b_19_939)">
<path d="M478.734 183.574H478.707L317.226 178.444C316.742 178.415 316.311 178.098 316.178 177.671C316.035 177.187 316.187 176.699 316.564 176.43L368.856 135.501C368.99 135.386 369.209 135.249 369.488 135.249C369.516 135.249 369.545 135.25 369.573 135.253L522.504 138.094C522.944 138.094 523.346 138.369 523.552 138.811C523.714 139.215 523.614 139.714 523.304 140.052L479.534 183.27C479.317 183.46 479.018 183.574 478.734 183.574ZM369.959 137.515L320.453 176.265L478.266 181.257L519.773 140.3L369.959 137.515Z" fill="#000200"/>
</g>
<g filter="url(#filter29_b_19_939)">
<path d="M466.792 152.877H450.299L444.618 159.855H477.576L488.967 146.837H473.605L466.792 152.877Z" fill="#7BAEED"/>
</g>
<g filter="url(#filter30_b_19_939)">
<path d="M403.386 150.091H414.197L419.879 143.582H409.646L403.386 150.091Z" fill="#7BAEED"/>
</g>
<g filter="url(#filter31_b_19_939)">
<path d="M374.537 169.232L437.089 170.942L442.219 164.488L379.529 163.33L374.537 169.232Z" fill="#7BAEED"/>
</g>
<g filter="url(#filter32_b_19_939)">
<path d="M396.85 153.346H382.756L389.458 146.616L402.283 146.837L396.85 153.346Z" fill="#7BAEED"/>
</g>
<g filter="url(#filter33_b_19_939)">
<path d="M346.847 163.495H369.352L372.551 159.413H352.528L346.847 163.495Z" fill="#7BAEED"/>
</g>
<g filter="url(#filter34_b_19_939)">
<path d="M522.504 139.225V150.091L478.79 192.206L478.735 182.443L522.504 139.225Z" fill="#000200"/>
</g>
<g filter="url(#filter35_b_19_939)">
<path d="M314.578 369.38C302.746 374.124 289.701 376.744 276.021 377.02C275.276 377.048 274.532 377.048 273.787 377.048C231.534 377.048 195.322 351.288 179.932 314.606C179.932 314.606 179.932 275.305 222.102 278.173L295.548 294.556C323.155 305.836 339.565 352.915 340.282 354.184C331.595 361.437 327.044 364.361 314.578 369.38Z" fill="white"/>
</g>
<g filter="url(#filter36_b_19_939)">
<path d="M273.787 378.178C232.209 378.178 194.958 353.398 178.884 315.047C178.832 314.918 178.801 314.753 178.801 314.606C178.801 314.477 178.807 313.296 179.007 311.449C179.264 309.081 179.714 306.692 180.346 304.35C181.217 301.116 182.412 298.075 183.898 295.311C185.743 291.877 188.046 288.858 190.743 286.337C192.412 284.778 194.253 283.391 196.215 282.217C198.177 281.042 200.311 280.049 202.558 279.263C204.808 278.476 207.23 277.878 209.757 277.484C212.289 277.089 214.993 276.889 217.795 276.889C219.218 276.889 220.694 276.94 222.185 277.042L295.796 293.452C297.865 294.294 299.957 295.37 302.011 296.652C304.054 297.926 306.11 299.434 308.122 301.133C312.133 304.52 316.095 308.767 319.901 313.758C323.701 318.742 327.392 324.531 330.872 330.965C334.374 337.437 337.707 344.646 340.779 352.391L340.789 352.416C341.058 353.089 341.221 353.496 341.303 353.66C341.413 353.893 341.448 354.161 341.403 354.415C341.356 354.678 341.222 354.91 341.027 355.066C332.367 362.292 327.65 365.354 315.019 370.428C302.926 375.276 289.814 377.875 276.049 378.15C275.276 378.178 274.519 378.178 273.787 378.178ZM217.809 279.139C207.159 279.139 198.581 282.117 192.315 287.991C189.929 290.226 187.866 292.903 186.183 295.948C184.809 298.434 183.679 301.179 182.824 304.108C182.186 306.296 181.709 308.552 181.405 310.816C181.161 312.642 181.103 313.94 181.09 314.413C184.977 323.62 190.17 332.158 196.524 339.789C202.756 347.272 210.029 353.796 218.141 359.179C226.254 364.563 235.091 368.729 244.406 371.562C253.908 374.451 263.793 375.916 273.787 375.916C273.988 375.924 274.197 375.928 274.426 375.928C274.945 375.928 275.477 375.908 275.992 375.889C289.475 375.613 302.317 373.071 314.164 368.332C320.469 365.796 324.488 363.905 328.037 361.806C329.821 360.751 331.501 359.634 333.324 358.291C334.951 357.092 336.68 355.723 338.931 353.853L338.928 353.847C338.848 353.658 338.764 353.464 338.683 353.218C326.52 322.576 311.054 302.115 295.134 295.604L221.854 279.276C220.482 279.185 219.121 279.139 217.809 279.139Z" fill="#000200"/>
</g>
<g filter="url(#filter37_b_19_939)">
<path d="M250.399 208.919C223.508 214.049 213.442 227.729 216.862 245.656C220.281 263.583 221.357 264.465 221.357 264.465C217.165 266.92 216.558 270.092 216.999 272.464C217.606 275.69 220.64 279.221 227.204 278.752L232.389 298.113L276.627 308.124C281.675 306.635 287.329 304.346 291.217 301.009C302.415 291.301 296.016 267.554 287.853 228.225C285.288 215.869 277.289 203.789 250.399 208.919Z" fill="white"/>
</g>
<g filter="url(#filter38_b_19_939)">
<path d="M275.524 308.428C275.331 307.822 275.69 307.187 276.296 307.022C282.53 305.174 287.301 302.857 290.445 300.127C300.098 291.798 295.906 272.023 288.983 239.285C288.239 235.81 287.494 232.197 286.694 228.446C283.302 212.064 271.47 206.024 250.564 210.023C225.715 214.767 214.407 227.012 217.937 245.436C220.888 260.853 222.047 263.445 222.24 263.776C222.405 263.997 222.488 264.273 222.46 264.549C222.433 264.907 222.212 265.266 221.909 265.459C218.103 267.693 217.744 270.396 218.103 272.271C218.654 275.139 221.33 278.063 227.121 277.622C227.728 277.566 228.307 278.035 228.335 278.67C228.39 279.304 227.921 279.856 227.287 279.883C219.978 280.407 216.558 276.325 215.869 272.685C215.483 270.699 215.565 267.003 219.923 264.025C218.93 261.432 217.523 255.365 215.731 245.877C211.98 226.295 224.225 212.753 250.178 207.789C272.27 203.569 285.315 210.354 288.983 227.978C289.756 231.728 290.528 235.341 291.245 238.816C298.333 272.381 302.608 292.653 291.962 301.864C288.57 304.815 283.522 307.27 276.958 309.228C276.848 309.256 276.738 309.256 276.627 309.256C276.131 309.256 275.69 308.925 275.524 308.428Z" fill="#000200"/>
</g>
<g filter="url(#filter39_b_19_939)">
<path d="M250.399 208.892C223.508 214.022 213.442 227.702 216.862 245.629C220.281 263.556 220.281 263.556 220.281 263.556L223.812 263.142C226.515 262.287 228.307 262.094 230.486 261.791C232.196 261.543 233.382 262.26 233.161 260.522C232.941 258.785 232.748 257.047 232.555 255.337C236.057 253.958 239.174 251.476 240.939 248.139C242.704 244.719 241.601 239.809 237.105 239.809C236.168 239.809 235.781 240.747 236.112 241.519C236.885 243.34 236.912 245.16 236.361 246.732C235.781 248.139 234.651 249.269 233.106 249.959C232.858 250.069 232.692 250.262 232.61 250.511C232.444 250.621 232.279 250.704 232.113 250.786C231.534 243.698 231.7 237.355 234.127 233.411C246.262 233.852 258.011 229.301 266.809 220.697C271.305 220.31 275.524 220.283 278.917 220.586C281.95 220.917 283.716 217.304 281.702 215.043C276.324 209.113 266.947 205.748 250.399 208.892Z" fill="#000200"/>
</g>
<g filter="url(#filter40_b_19_939)">
<path d="M273.097 264.769C273.014 264.134 273.456 263.555 274.062 263.472C276.186 263.169 277.841 262.369 278.503 261.321C278.889 260.714 278.944 260.052 278.696 259.253C278.144 257.515 274.062 257.046 272.132 257.129C271.525 257.101 271.056 256.715 270.973 256.136L269.539 245.794C269.457 245.159 269.898 244.58 270.505 244.497C271.111 244.415 271.691 244.856 271.801 245.463L273.097 254.84C275.248 254.923 279.909 255.447 280.875 258.563C281.316 259.997 281.178 261.349 280.433 262.507C279.385 264.162 277.234 265.32 274.366 265.706C274.311 265.734 274.283 265.761 274.228 265.761C273.676 265.761 273.18 265.348 273.097 264.769Z" fill="#000200"/>
</g>
<g filter="url(#filter41_b_19_939)">
<path d="M281.923 250.455C282.006 253.379 286.584 253.241 286.474 250.317L286.391 248.028C286.308 245.105 281.73 245.243 281.84 248.166L281.923 250.455Z" fill="#000200"/>
</g>
<g filter="url(#filter42_b_19_939)">
<path d="M251.557 255.392C251.64 258.315 256.218 258.177 256.108 255.254L256.025 252.965C255.943 250.014 251.364 250.179 251.475 253.102L251.557 255.392Z" fill="#000200"/>
</g>
<g filter="url(#filter43_b_19_939)">
<path d="M257.212 275.443C256.936 274.009 254.647 274.312 254.95 275.746C255.557 278.807 258.508 280.131 261.404 280.186C262.838 280.186 263.141 277.925 261.68 277.925C259.942 277.897 257.598 277.428 257.212 275.443Z" fill="#000200"/>
</g>
<g filter="url(#filter44_b_19_939)">
<path d="M260.41 233.245C269.346 230.653 278.393 228.446 287.494 226.681C284.571 214.877 276.159 203.983 250.399 208.92C223.508 214.05 213.442 227.729 216.862 245.656C217.027 246.677 217.22 247.615 217.413 248.525C230.376 240.83 246.234 237.327 260.41 233.245Z" fill="white"/>
</g>
<g filter="url(#filter45_b_19_939)">
<path d="M217.413 249.683C217.224 249.683 217.066 249.646 216.944 249.572C216.628 249.44 216.368 249.116 216.282 248.745L215.731 245.849C215.265 243.42 215.043 241.046 215.07 238.794C215.096 236.555 215.369 234.382 215.881 232.335C216.391 230.296 217.151 228.334 218.139 226.501C219.125 224.673 220.362 222.931 221.816 221.324C223.269 219.716 224.975 218.204 226.885 216.831C228.798 215.454 230.963 214.183 233.319 213.053C235.685 211.918 238.3 210.897 241.093 210.02C243.902 209.137 246.959 208.377 250.178 207.761C254.4 206.951 258.347 206.541 261.91 206.541C263.71 206.541 265.449 206.646 267.079 206.853C268.707 207.059 270.272 207.374 271.729 207.787C273.185 208.2 274.574 208.723 275.857 209.342C277.14 209.96 278.353 210.692 279.462 211.516C280.571 212.34 281.607 213.28 282.541 214.308C283.475 215.337 284.333 216.484 285.091 217.717C285.85 218.95 286.529 220.304 287.111 221.74C287.693 223.178 288.193 224.738 288.597 226.378C288.679 226.678 288.627 227.008 288.459 227.26C288.303 227.521 288.038 227.698 287.714 227.757C279.137 229.423 270.062 231.622 260.741 234.293C258.251 235.02 255.664 235.73 253.24 236.389L253.198 236.4C241.104 239.734 228.598 243.181 218.02 249.462C217.819 249.613 217.626 249.683 217.413 249.683ZM262.01 208.837C260.316 208.837 258.486 208.939 256.57 209.14C254.704 209.336 252.693 209.633 250.592 210.023C238.221 212.384 229.152 216.615 223.636 222.599C218.116 228.586 216.208 236.27 217.965 245.435L218.213 246.732C228.762 240.794 240.869 237.461 252.578 234.238C255.387 233.474 257.737 232.826 260.079 232.142C269.043 229.553 277.784 227.409 286.06 225.771C285.662 224.361 285.183 223.021 284.637 221.789C284.091 220.556 283.462 219.397 282.767 218.343C282.072 217.288 281.292 216.308 280.448 215.431C279.603 214.554 278.67 213.754 277.675 213.053C276.68 212.352 275.595 211.731 274.448 211.206C273.302 210.681 272.062 210.238 270.763 209.888C269.465 209.539 268.07 209.274 266.618 209.099C265.167 208.925 263.616 208.837 262.01 208.837Z" fill="#000200"/>
</g>
<g filter="url(#filter46_b_19_939)">
<path d="M258.232 376.937C257.68 376.661 257.459 375.972 257.735 375.393C257.79 375.31 262.093 366.898 269.595 347.178C274.973 333.112 281.04 317.144 277.924 310.993C277.317 309.807 276.352 309.035 275.028 308.676C256.77 303.685 253.322 291.025 251.281 283.468C250.62 281.014 249.93 278.476 249.103 278.476C248.799 278.449 248.523 278.559 248.303 278.973C246.593 282.117 249.958 294.225 255.832 302.774C256.191 303.298 256.053 304.015 255.529 304.374C255.005 304.733 254.288 304.595 253.929 304.071C248.386 296.017 243.725 282.558 246.262 277.897C246.869 276.766 247.862 276.187 249.13 276.215C251.64 276.27 252.412 279.056 253.46 282.889C255.391 289.977 258.618 301.864 275.607 306.498C277.593 307.049 279.055 308.208 279.937 310C283.523 317.061 277.51 332.781 271.718 348.033C264.161 367.891 259.804 376.385 259.749 376.468C259.583 376.854 259.169 377.075 258.756 377.075C258.59 377.075 258.397 377.047 258.232 376.937Z" fill="#000200"/>
</g>
<g filter="url(#filter47_b_19_939)">
<path d="M246.979 302.112C241.325 293.59 236.995 279.717 237.74 275.194C238.319 271.774 240.056 271.223 241.049 271.195C243.863 271.03 246.979 275.277 247.806 279.028C247.944 279.635 247.558 280.241 246.951 280.379C246.345 280.517 245.738 280.131 245.6 279.524C244.855 276.215 242.263 273.374 241.132 273.484C240.663 273.484 240.222 274.284 240.029 275.58C239.422 279.138 243.338 292.432 248.91 300.871C249.268 301.395 249.103 302.112 248.579 302.443C248.386 302.581 248.165 302.636 247.944 302.636C247.586 302.636 247.2 302.443 246.979 302.112Z" fill="#000200"/>
</g>
<g filter="url(#filter48_b_19_939)">
<path d="M239.615 301.395C234.182 293.479 231.286 280.765 231.286 277.317C231.286 274.504 231.783 270.891 234.099 269.65C235.533 268.878 237.326 269.181 239.395 270.56C239.919 270.919 240.057 271.608 239.726 272.132C239.367 272.656 238.678 272.794 238.154 272.463C237.243 271.857 236.002 271.25 235.203 271.664C234.21 272.188 233.603 274.366 233.575 277.317C233.575 280.186 236.278 292.486 241.491 300.099C241.849 300.623 241.711 301.34 241.187 301.671C240.994 301.836 240.774 301.891 240.553 301.891C240.194 301.891 239.836 301.726 239.615 301.395Z" fill="#000200"/>
</g>
<g filter="url(#filter49_b_19_939)">
<path d="M219.123 362.485C218.571 362.209 218.351 361.519 218.627 360.94L220.585 357.106C226.459 345.688 240.194 318.908 237.85 314.164C232.996 304.291 229.3 291.135 227.7 285.509L227.314 284.13C224.942 275.8 225.025 270.698 227.618 268.933C229.217 267.83 231.451 268.271 233.878 270.147C234.375 270.533 234.485 271.25 234.099 271.746C233.713 272.243 232.996 272.353 232.499 271.967C230.955 270.781 229.603 270.367 228.914 270.836C228.5 271.112 226.542 273.07 229.521 283.523L229.907 284.902C231.479 290.473 235.147 303.491 239.891 313.171C242.511 318.522 232.803 338.324 222.626 358.182L220.667 362.016C220.474 362.374 220.061 362.595 219.647 362.595C219.482 362.595 219.288 362.567 219.123 362.485Z" fill="#000200"/>
</g>
<g filter="url(#filter50_b_19_939)">
<path d="M216.889 256.523L213.497 245.904C213.497 245.904 268.078 225.964 288.432 224.695L290.997 234.569C272.049 234.597 216.889 256.523 216.889 256.523Z" fill="white"/>
</g>
<g filter="url(#filter51_b_19_939)">
<path d="M216.862 257.653C216.677 257.653 216.514 257.617 216.366 257.543C216.089 257.404 215.868 257.153 215.759 256.853L212.367 246.235C212.273 245.954 212.292 245.652 212.422 245.387C212.552 245.12 212.777 244.921 213.056 244.828C213.189 244.779 227.106 239.664 243.915 234.351C253.147 231.433 261.355 229.059 268.312 227.294C276.95 225.103 283.682 223.848 288.322 223.564C288.34 223.563 288.358 223.562 288.376 223.562C288.884 223.562 289.381 223.939 289.508 224.419L292.073 234.293C292.161 234.646 292.087 235.026 291.88 235.285C291.655 235.566 291.324 235.727 290.97 235.727C286.747 235.733 280.272 236.876 271.725 239.125C264.877 240.926 256.69 243.438 247.39 246.59C242.805 248.144 235.446 250.706 226.421 254.091C220.783 256.206 217.306 257.585 217.276 257.598C217.169 257.624 217.004 257.653 216.862 257.653ZM287.55 225.881C283.171 226.261 277 227.458 269.21 229.439C262.829 231.061 255.318 233.22 246.883 235.854C233.377 240.073 221.05 244.393 214.904 246.593L217.579 255.005C222.497 253.082 235.455 248.104 249.531 243.418C257.839 240.652 265.235 238.421 271.513 236.788C279.16 234.799 285.215 233.681 289.508 233.465L287.55 225.881Z" fill="#000200"/>
</g>
<g filter="url(#filter52_b_19_939)">
<path d="M248.386 240.912C247.172 241.712 248.634 243.449 249.847 242.65C251.254 241.739 252.799 241.078 254.315 240.443C255.694 239.919 254.729 237.851 253.378 238.402C251.64 239.092 249.985 239.892 248.386 240.912Z" fill="#000200"/>
</g>
<g filter="url(#filter53_b_19_939)">
<path d="M282.806 228.501C281.537 227.784 280.185 229.604 281.454 230.349C282.861 231.149 284.378 231.618 285.812 232.307C287.163 232.914 287.991 230.79 286.667 230.156C285.398 229.549 284.019 229.191 282.806 228.501Z" fill="#000200"/>
</g>
<g filter="url(#filter54_b_19_939)">
<path d="M228.721 343.427C228.252 343.013 228.197 342.296 228.611 341.828C229.024 341.359 229.742 341.303 230.21 341.717C243.09 352.97 261.072 356.638 267.278 354.156C267.857 353.935 268.519 354.211 268.767 354.79C269.015 355.369 268.712 356.031 268.133 356.279C266.699 356.831 264.713 357.134 262.369 357.134C253.543 357.134 239.56 352.887 228.721 343.427Z" fill="#000200"/>
</g>
<g filter="url(#filter55_b_19_939)">
<path d="M220.282 264.852C220.061 264.272 220.364 263.611 220.944 263.39C221.275 263.28 228.969 260.439 232.224 259.86C232.858 259.749 233.437 260.163 233.548 260.77C233.658 261.404 233.244 261.983 232.638 262.094C229.576 262.645 221.826 265.486 221.743 265.541C221.605 265.569 221.468 265.596 221.357 265.596C220.888 265.596 220.447 265.32 220.282 264.852Z" fill="#000200"/>
</g>
<g filter="url(#filter56_b_19_939)">
<path d="M300.374 372.937L302.277 357.686Z" fill="#000200"/>
</g>
<g filter="url(#filter57_b_19_939)">
<path d="M300.236 374.069C299.602 373.986 299.161 373.407 299.243 372.8L301.146 357.549C301.229 356.914 301.781 356.501 302.415 356.556C303.049 356.638 303.491 357.218 303.408 357.824L301.505 373.076C301.45 373.655 300.953 374.069 300.374 374.069C300.319 374.069 300.291 374.069 300.236 374.069Z" fill="#000200"/>
</g>
<g filter="url(#filter58_b_19_939)">
<path d="M213.359 357.769C213.8 357.328 213.773 356.61 213.331 356.169C213.276 356.114 207.843 350.57 211.153 334.491C211.291 333.885 210.877 333.278 210.27 333.14C209.663 333.002 209.057 333.416 208.919 334.022C206.409 346.213 208.643 352.86 210.325 355.838C211.318 356.5 212.311 357.162 213.304 357.796C213.331 357.769 213.331 357.769 213.359 357.769Z" fill="#000200"/>
</g>
<g filter="url(#filter59_b_19_939)">
<path d="M201.003 305.807V321.749H104.639L63.71 286.915V270.395" fill="white"/>
</g>
<g filter="url(#filter60_b_19_939)">
<path d="M104.639 322.907C104.363 322.907 104.115 322.797 103.894 322.631L62.9655 287.797C62.7172 287.577 62.5518 287.273 62.5518 286.915V270.394C62.5518 269.76 63.0758 269.264 63.6825 269.264C64.2893 269.264 64.8133 269.788 64.8133 270.394V286.391L105.025 320.618H199.845V305.807C199.845 305.173 200.369 304.676 200.976 304.676C201.583 304.676 202.107 305.2 202.107 305.807V321.776C202.162 322.383 201.638 322.907 201.004 322.907H104.639Z" fill="#000200"/>
</g>
<g filter="url(#filter61_b_19_939)">
<path d="M172.072 270.395L201.003 305.807L103.508 308.124L63.71 270.395H172.072Z" fill="white"/>
</g>
<g filter="url(#filter62_b_19_939)">
<path d="M103.508 309.255C103.206 309.255 102.931 309.147 102.736 308.951L62.9377 271.222C62.6079 270.892 62.4971 270.393 62.6619 269.981C62.8253 269.545 63.2368 269.264 63.7102 269.264H172.072C172.39 269.264 172.728 269.422 172.955 269.677L201.914 305.09C202.184 305.415 202.249 305.88 202.079 306.276C201.878 306.678 201.477 306.938 201.059 306.938L103.508 309.255ZM66.5784 271.525L103.949 306.966L198.659 304.704L171.52 271.525H66.5784Z" fill="#000200"/>
</g>
<g filter="url(#filter63_b_19_939)">
<path d="M116.554 297.533C116.203 297.533 115.881 297.382 115.671 297.12L103.178 282.006C102.907 281.681 102.842 281.216 103.012 280.82C103.177 280.435 103.565 280.158 103.977 280.13C104.291 280.109 105.44 280.041 107.052 280.041C109.431 280.041 112.919 280.192 116.02 280.914C119.646 281.757 121.895 283.173 122.704 285.122C123.278 286.496 123.361 287.977 122.952 289.524C122.622 290.77 121.974 292.062 121.025 293.365C119.338 295.682 117.301 297.22 117.216 297.285C117.058 297.443 116.817 297.533 116.554 297.533ZM106.933 282.334C106.766 282.334 106.598 282.335 106.432 282.337L116.719 294.775C117.641 293.942 118.935 292.627 119.856 291.093C120.995 289.199 121.257 287.487 120.636 286.005C120.363 285.345 119.74 284.757 118.784 284.257C117.925 283.808 116.792 283.428 115.418 283.126C113.095 282.615 110.081 282.334 106.934 282.334L106.933 282.334Z" fill="#000200"/>
</g>
<g filter="url(#filter64_b_19_939)">
<path d="M136.825 294.086L128.523 281.371C128.302 281.04 128.275 280.599 128.468 280.213C128.661 279.854 129.02 279.606 129.433 279.606L141.403 279.082C142.037 279.055 142.561 279.551 142.589 280.185C142.617 280.82 142.12 281.344 141.486 281.371L131.529 281.813L138.369 292.293L152.821 291.135C153.455 291.079 154.007 291.548 154.062 292.183C154.117 292.817 153.649 293.369 153.014 293.424L137.873 294.637C137.845 294.61 137.818 294.61 137.79 294.61C137.404 294.61 137.045 294.417 136.825 294.086Z" fill="#000200"/>
</g>
<g filter="url(#filter65_b_19_939)">
<path d="M161.206 292.431C160.82 292.431 160.461 292.238 160.268 291.935L151.966 279.551C151.608 279.027 151.746 278.31 152.27 277.979C152.794 277.621 153.511 277.758 153.842 278.282L161.812 290.169H176.347C176.981 290.169 177.478 290.693 177.478 291.3C177.505 291.907 176.981 292.431 176.347 292.431H161.206Z" fill="#000200"/>
</g>
<g filter="url(#filter66_b_19_939)">
<path d="M131.226 285.26C131.171 284.626 131.64 284.074 132.274 284.019L141.376 283.219C142.037 283.164 142.561 283.633 142.617 284.267C142.672 284.902 142.203 285.453 141.569 285.508L132.467 286.308C132.44 286.308 132.384 286.308 132.357 286.308C131.778 286.308 131.281 285.867 131.226 285.26Z" fill="#000200"/>
</g>
<g filter="url(#filter67_b_19_939)">
<path d="M103.508 308.124L104.639 321.749L63.71 286.915V270.395L103.508 308.124Z" fill="#000200"/>
</g>
<defs>
<filter id="filter0_b_19_939" x="69.3089" y="164.944" width="384.962" height="278.653" filterUnits="userSpaceOnUse" color-interpolation-filters="sRGB">
<feFlood flood-opacity="0" result="BackgroundImageFix"/>
<feGaussianBlur in="BackgroundImageFix" stdDeviation="1.379"/>
<feComposite in2="SourceAlpha" operator="in" result="effect1_backgroundBlur_19_939"/>
<feBlend mode="normal" in="SourceGraphic" in2="effect1_backgroundBlur_19_939" result="shape"/>
</filter>
<filter id="filter1_b_19_939" x="104.556" y="330.353" width="36.2401" height="7.77772" filterUnits="userSpaceOnUse" color-interpolation-filters="sRGB">
<feFlood flood-opacity="0" result="BackgroundImageFix"/>
<feGaussianBlur in="BackgroundImageFix" stdDeviation="1.379"/>
<feComposite in2="SourceAlpha" operator="in" result="effect1_backgroundBlur_19_939"/>
<feBlend mode="normal" in="SourceGraphic" in2="effect1_backgroundBlur_19_939" result="shape"/>
</filter>
<filter id="filter2_b_19_939" x="118.208" y="345.413" width="27.1386" height="7.77772" filterUnits="userSpaceOnUse" color-interpolation-filters="sRGB">
<feFlood flood-opacity="0" result="BackgroundImageFix"/>
<feGaussianBlur in="BackgroundImageFix" stdDeviation="1.379"/>
<feComposite in2="SourceAlpha" operator="in" result="effect1_backgroundBlur_19_939"/>
<feBlend mode="normal" in="SourceGraphic" in2="effect1_backgroundBlur_19_939" result="shape"/>
</filter>
<filter id="filter3_b_19_939" x="339.759" y="119.118" width="56.9525" height="7.77772" filterUnits="userSpaceOnUse" color-interpolation-filters="sRGB">
<feFlood flood-opacity="0" result="BackgroundImageFix"/>
<feGaussianBlur in="BackgroundImageFix" stdDeviation="1.379"/>
<feComposite in2="SourceAlpha" operator="in" result="effect1_backgroundBlur_19_939"/>
<feBlend mode="normal" in="SourceGraphic" in2="effect1_backgroundBlur_19_939" result="shape"/>
</filter>
<filter id="filter4_b_19_939" x="333.498" y="103.922" width="49.5062" height="7.77772" filterUnits="userSpaceOnUse" color-interpolation-filters="sRGB">
<feFlood flood-opacity="0" result="BackgroundImageFix"/>
<feGaussianBlur in="BackgroundImageFix" stdDeviation="1.379"/>
<feComposite in2="SourceAlpha" operator="in" result="effect1_backgroundBlur_19_939"/>
<feBlend mode="normal" in="SourceGraphic" in2="effect1_backgroundBlur_19_939" result="shape"/>
</filter>
<filter id="filter5_b_19_939" x="407.619" y="87.8016" width="16.1232" height="20.2299" filterUnits="userSpaceOnUse" color-interpolation-filters="sRGB">
<feFlood flood-opacity="0" result="BackgroundImageFix"/>
<feGaussianBlur in="BackgroundImageFix" stdDeviation="1.379"/>
<feComposite in2="SourceAlpha" operator="in" result="effect1_backgroundBlur_19_939"/>
<feBlend mode="normal" in="SourceGraphic" in2="effect1_backgroundBlur_19_939" result="shape"/>
</filter>
<filter id="filter6_b_19_939" x="461.638" y="201.946" width="14.2555" height="12.8568" filterUnits="userSpaceOnUse" color-interpolation-filters="sRGB">
<feFlood flood-opacity="0" result="BackgroundImageFix"/>
<feGaussianBlur in="BackgroundImageFix" stdDeviation="1.379"/>
<feComposite in2="SourceAlpha" operator="in" result="effect1_backgroundBlur_19_939"/>
<feBlend mode="normal" in="SourceGraphic" in2="effect1_backgroundBlur_19_939" result="shape"/>
</filter>
<filter id="filter7_b_19_939" x="102.432" y="152.269" width="21.3192" height="18.3685" filterUnits="userSpaceOnUse" color-interpolation-filters="sRGB">
<feFlood flood-opacity="0" result="BackgroundImageFix"/>
<feGaussianBlur in="BackgroundImageFix" stdDeviation="1.379"/>
<feComposite in2="SourceAlpha" operator="in" result="effect1_backgroundBlur_19_939"/>
<feBlend mode="normal" in="SourceGraphic" in2="effect1_backgroundBlur_19_939" result="shape"/>
</filter>
<filter id="filter8_b_19_939" x="156.489" y="229.881" width="12.7973" height="12.7973" filterUnits="userSpaceOnUse" color-interpolation-filters="sRGB">
<feFlood flood-opacity="0" result="BackgroundImageFix"/>
<feGaussianBlur in="BackgroundImageFix" stdDeviation="1.379"/>
<feComposite in2="SourceAlpha" operator="in" result="effect1_backgroundBlur_19_939"/>
<feBlend mode="normal" in="SourceGraphic" in2="effect1_backgroundBlur_19_939" result="shape"/>
</filter>
<filter id="filter9_b_19_939" x="228.831" y="378.729" width="12.7973" height="12.7973" filterUnits="userSpaceOnUse" color-interpolation-filters="sRGB">
<feFlood flood-opacity="0" result="BackgroundImageFix"/>
<feGaussianBlur in="BackgroundImageFix" stdDeviation="1.379"/>
<feComposite in2="SourceAlpha" operator="in" result="effect1_backgroundBlur_19_939"/>
<feBlend mode="normal" in="SourceGraphic" in2="effect1_backgroundBlur_19_939" result="shape"/>
</filter>
<filter id="filter10_b_19_939" x="291.079" y="157.096" width="12.7973" height="12.7973" filterUnits="userSpaceOnUse" color-interpolation-filters="sRGB">
<feFlood flood-opacity="0" result="BackgroundImageFix"/>
<feGaussianBlur in="BackgroundImageFix" stdDeviation="1.379"/>
<feComposite in2="SourceAlpha" operator="in" result="effect1_backgroundBlur_19_939"/>
<feBlend mode="normal" in="SourceGraphic" in2="effect1_backgroundBlur_19_939" result="shape"/>
</filter>
<filter id="filter11_b_19_939" x="372.716" y="318.991" width="12.7973" height="12.7973" filterUnits="userSpaceOnUse" color-interpolation-filters="sRGB">
<feFlood flood-opacity="0" result="BackgroundImageFix"/>
<feGaussianBlur in="BackgroundImageFix" stdDeviation="1.379"/>
<feComposite in2="SourceAlpha" operator="in" result="effect1_backgroundBlur_19_939"/>
<feBlend mode="normal" in="SourceGraphic" in2="effect1_backgroundBlur_19_939" result="shape"/>
</filter>
<filter id="filter12_b_19_939" x="246.731" y="176.624" width="112.968" height="69.0883" filterUnits="userSpaceOnUse" color-interpolation-filters="sRGB">
<feFlood flood-opacity="0" result="BackgroundImageFix"/>
<feGaussianBlur in="BackgroundImageFix" stdDeviation="1.379"/>
<feComposite in2="SourceAlpha" operator="in" result="effect1_backgroundBlur_19_939"/>
<feBlend mode="normal" in="SourceGraphic" in2="effect1_backgroundBlur_19_939" result="shape"/>
</filter>
<filter id="filter13_b_19_939" x="169.314" y="170.832" width="208.919" height="208.974" filterUnits="userSpaceOnUse" color-interpolation-filters="sRGB">
<feFlood flood-opacity="0" result="BackgroundImageFix"/>
<feGaussianBlur in="BackgroundImageFix" stdDeviation="1.379"/>
<feComposite in2="SourceAlpha" operator="in" result="effect1_backgroundBlur_19_939"/>
<feBlend mode="normal" in="SourceGraphic" in2="effect1_backgroundBlur_19_939" result="shape"/>
</filter>
<filter id="filter14_b_19_939" x="333.477" y="252.599" width="26.6776" height="31.476" filterUnits="userSpaceOnUse" color-interpolation-filters="sRGB">
<feFlood flood-opacity="0" result="BackgroundImageFix"/>
<feGaussianBlur in="BackgroundImageFix" stdDeviation="1.379"/>
<feComposite in2="SourceAlpha" operator="in" result="effect1_backgroundBlur_19_939"/>
<feBlend mode="normal" in="SourceGraphic" in2="effect1_backgroundBlur_19_939" result="shape"/>
</filter>
<filter id="filter15_b_19_939" x="204.218" y="192.718" width="24.1571" height="35.8666" filterUnits="userSpaceOnUse" color-interpolation-filters="sRGB">
<feFlood flood-opacity="0" result="BackgroundImageFix"/>
<feGaussianBlur in="BackgroundImageFix" stdDeviation="1.379"/>
<feComposite in2="SourceAlpha" operator="in" result="effect1_backgroundBlur_19_939"/>
<feBlend mode="normal" in="SourceGraphic" in2="effect1_backgroundBlur_19_939" result="shape"/>
</filter>
<filter id="filter16_b_19_939" x="141.375" y="142.948" width="264.796" height="264.796" filterUnits="userSpaceOnUse" color-interpolation-filters="sRGB">
<feFlood flood-opacity="0" result="BackgroundImageFix"/>
<feGaussianBlur in="BackgroundImageFix" stdDeviation="1.379"/>
<feComposite in2="SourceAlpha" operator="in" result="effect1_backgroundBlur_19_939"/>
<feBlend mode="normal" in="SourceGraphic" in2="effect1_backgroundBlur_19_939" result="shape"/>
</filter>
<filter id="filter17_b_19_939" x="168.155" y="169.728" width="211.236" height="211.208" filterUnits="userSpaceOnUse" color-interpolation-filters="sRGB">
<feFlood flood-opacity="0" result="BackgroundImageFix"/>
<feGaussianBlur in="BackgroundImageFix" stdDeviation="1.379"/>
<feComposite in2="SourceAlpha" operator="in" result="effect1_backgroundBlur_19_939"/>
<feBlend mode="normal" in="SourceGraphic" in2="effect1_backgroundBlur_19_939" result="shape"/>
</filter>
<filter id="filter18_b_19_939" x="324.176" y="378.728" width="145.374" height="49.3129" filterUnits="userSpaceOnUse" color-interpolation-filters="sRGB">
<feFlood flood-opacity="0" result="BackgroundImageFix"/>
<feGaussianBlur in="BackgroundImageFix" stdDeviation="1.379"/>
<feComposite in2="SourceAlpha" operator="in" result="effect1_backgroundBlur_19_939"/>
<feBlend mode="normal" in="SourceGraphic" in2="effect1_backgroundBlur_19_939" result="shape"/>
</filter>
<filter id="filter19_b_19_939" x="323.055" y="377.608" width="147.598" height="51.6195" filterUnits="userSpaceOnUse" color-interpolation-filters="sRGB">
<feFlood flood-opacity="0" result="BackgroundImageFix"/>
<feGaussianBlur in="BackgroundImageFix" stdDeviation="1.379"/>
<feComposite in2="SourceAlpha" operator="in" result="effect1_backgroundBlur_19_939"/>
<feBlend mode="normal" in="SourceGraphic" in2="effect1_backgroundBlur_19_939" result="shape"/>
</filter>
<filter id="filter20_b_19_939" x="324.176" y="374.288" width="145.374" height="38.309" filterUnits="userSpaceOnUse" color-interpolation-filters="sRGB">
<feFlood flood-opacity="0" result="BackgroundImageFix"/>
<feGaussianBlur in="BackgroundImageFix" stdDeviation="1.379"/>
<feComposite in2="SourceAlpha" operator="in" result="effect1_backgroundBlur_19_939"/>
<feBlend mode="normal" in="SourceGraphic" in2="effect1_backgroundBlur_19_939" result="shape"/>
</filter>
<filter id="filter21_b_19_939" x="323.025" y="373.13" width="147.621" height="40.598" filterUnits="userSpaceOnUse" color-interpolation-filters="sRGB">
<feFlood flood-opacity="0" result="BackgroundImageFix"/>
<feGaussianBlur in="BackgroundImageFix" stdDeviation="1.379"/>
<feComposite in2="SourceAlpha" operator="in" result="effect1_backgroundBlur_19_939"/>
<feBlend mode="normal" in="SourceGraphic" in2="effect1_backgroundBlur_19_939" result="shape"/>
</filter>
<filter id="filter22_b_19_939" x="353.521" y="404.792" width="116.029" height="23.2504" filterUnits="userSpaceOnUse" color-interpolation-filters="sRGB">
<feFlood flood-opacity="0" result="BackgroundImageFix"/>
<feGaussianBlur in="BackgroundImageFix" stdDeviation="1.379"/>
<feComposite in2="SourceAlpha" operator="in" result="effect1_backgroundBlur_19_939"/>
<feBlend mode="normal" in="SourceGraphic" in2="effect1_backgroundBlur_19_939" result="shape"/>
</filter>
<filter id="filter23_b_19_939" x="378.866" y="379.789" width="50.2609" height="20.6176" filterUnits="userSpaceOnUse" color-interpolation-filters="sRGB">
<feFlood flood-opacity="0" result="BackgroundImageFix"/>
<feGaussianBlur in="BackgroundImageFix" stdDeviation="1.379"/>
<feComposite in2="SourceAlpha" operator="in" result="effect1_backgroundBlur_19_939"/>
<feBlend mode="normal" in="SourceGraphic" in2="effect1_backgroundBlur_19_939" result="shape"/>
</filter>
<filter id="filter24_b_19_939" x="377.367" y="387.208" width="19.3544" height="16.7006" filterUnits="userSpaceOnUse" color-interpolation-filters="sRGB">
<feFlood flood-opacity="0" result="BackgroundImageFix"/>
<feGaussianBlur in="BackgroundImageFix" stdDeviation="1.379"/>
<feComposite in2="SourceAlpha" operator="in" result="effect1_backgroundBlur_19_939"/>
<feBlend mode="normal" in="SourceGraphic" in2="effect1_backgroundBlur_19_939" result="shape"/>
</filter>
<filter id="filter25_b_19_939" x="314.495" y="136.467" width="210.766" height="58.4975" filterUnits="userSpaceOnUse" color-interpolation-filters="sRGB">
<feFlood flood-opacity="0" result="BackgroundImageFix"/>
<feGaussianBlur in="BackgroundImageFix" stdDeviation="1.379"/>
<feComposite in2="SourceAlpha" operator="in" result="effect1_backgroundBlur_19_939"/>
<feBlend mode="normal" in="SourceGraphic" in2="effect1_backgroundBlur_19_939" result="shape"/>
</filter>
<filter id="filter26_b_19_939" x="313.392" y="135.336" width="213.001" height="60.7592" filterUnits="userSpaceOnUse" color-interpolation-filters="sRGB">
<feFlood flood-opacity="0" result="BackgroundImageFix"/>
<feGaussianBlur in="BackgroundImageFix" stdDeviation="1.379"/>
<feComposite in2="SourceAlpha" operator="in" result="effect1_backgroundBlur_19_939"/>
<feBlend mode="normal" in="SourceGraphic" in2="effect1_backgroundBlur_19_939" result="shape"/>
</filter>
<filter id="filter27_b_19_939" x="314.495" y="133.626" width="210.766" height="51.5746" filterUnits="userSpaceOnUse" color-interpolation-filters="sRGB">
<feFlood flood-opacity="0" result="BackgroundImageFix"/>
<feGaussianBlur in="BackgroundImageFix" stdDeviation="1.379"/>
<feComposite in2="SourceAlpha" operator="in" result="effect1_backgroundBlur_19_939"/>
<feBlend mode="normal" in="SourceGraphic" in2="effect1_backgroundBlur_19_939" result="shape"/>
</filter>
<filter id="filter28_b_19_939" x="313.367" y="132.491" width="213.02" height="53.8402" filterUnits="userSpaceOnUse" color-interpolation-filters="sRGB">
<feFlood flood-opacity="0" result="BackgroundImageFix"/>
<feGaussianBlur in="BackgroundImageFix" stdDeviation="1.379"/>
<feComposite in2="SourceAlpha" operator="in" result="effect1_backgroundBlur_19_939"/>
<feBlend mode="normal" in="SourceGraphic" in2="effect1_backgroundBlur_19_939" result="shape"/>
</filter>
<filter id="filter29_b_19_939" x="441.86" y="144.079" width="49.8646" height="18.5336" filterUnits="userSpaceOnUse" color-interpolation-filters="sRGB">
<feFlood flood-opacity="0" result="BackgroundImageFix"/>
<feGaussianBlur in="BackgroundImageFix" stdDeviation="1.379"/>
<feComposite in2="SourceAlpha" operator="in" result="effect1_backgroundBlur_19_939"/>
<feBlend mode="normal" in="SourceGraphic" in2="effect1_backgroundBlur_19_939" result="shape"/>
</filter>
<filter id="filter30_b_19_939" x="400.628" y="140.824" width="22.0089" height="12.0248" filterUnits="userSpaceOnUse" color-interpolation-filters="sRGB">
<feFlood flood-opacity="0" result="BackgroundImageFix"/>
<feGaussianBlur in="BackgroundImageFix" stdDeviation="1.379"/>
<feComposite in2="SourceAlpha" operator="in" result="effect1_backgroundBlur_19_939"/>
<feBlend mode="normal" in="SourceGraphic" in2="effect1_backgroundBlur_19_939" result="shape"/>
</filter>
<filter id="filter31_b_19_939" x="371.779" y="160.572" width="73.1974" height="13.1283" filterUnits="userSpaceOnUse" color-interpolation-filters="sRGB">
<feFlood flood-opacity="0" result="BackgroundImageFix"/>
<feGaussianBlur in="BackgroundImageFix" stdDeviation="1.379"/>
<feComposite in2="SourceAlpha" operator="in" result="effect1_backgroundBlur_19_939"/>
<feBlend mode="normal" in="SourceGraphic" in2="effect1_backgroundBlur_19_939" result="shape"/>
</filter>
<filter id="filter32_b_19_939" x="379.998" y="143.858" width="25.0429" height="12.2455" filterUnits="userSpaceOnUse" color-interpolation-filters="sRGB">
<feFlood flood-opacity="0" result="BackgroundImageFix"/>
<feGaussianBlur in="BackgroundImageFix" stdDeviation="1.379"/>
<feComposite in2="SourceAlpha" operator="in" result="effect1_backgroundBlur_19_939"/>
<feBlend mode="normal" in="SourceGraphic" in2="effect1_backgroundBlur_19_939" result="shape"/>
</filter>
<filter id="filter33_b_19_939" x="344.089" y="156.655" width="31.2206" height="9.59804" filterUnits="userSpaceOnUse" color-interpolation-filters="sRGB">
<feFlood flood-opacity="0" result="BackgroundImageFix"/>
<feGaussianBlur in="BackgroundImageFix" stdDeviation="1.379"/>
<feComposite in2="SourceAlpha" operator="in" result="effect1_backgroundBlur_19_939"/>
<feBlend mode="normal" in="SourceGraphic" in2="effect1_backgroundBlur_19_939" result="shape"/>
</filter>
<filter id="filter34_b_19_939" x="475.977" y="136.467" width="49.2855" height="58.4975" filterUnits="userSpaceOnUse" color-interpolation-filters="sRGB">
<feFlood flood-opacity="0" result="BackgroundImageFix"/>
<feGaussianBlur in="BackgroundImageFix" stdDeviation="1.379"/>
<feComposite in2="SourceAlpha" operator="in" result="effect1_backgroundBlur_19_939"/>
<feBlend mode="normal" in="SourceGraphic" in2="effect1_backgroundBlur_19_939" result="shape"/>
</filter>
<filter id="filter35_b_19_939" x="177.174" y="275.265" width="165.866" height="104.54" filterUnits="userSpaceOnUse" color-interpolation-filters="sRGB">
<feFlood flood-opacity="0" result="BackgroundImageFix"/>
<feGaussianBlur in="BackgroundImageFix" stdDeviation="1.379"/>
<feComposite in2="SourceAlpha" operator="in" result="effect1_backgroundBlur_19_939"/>
<feBlend mode="normal" in="SourceGraphic" in2="effect1_backgroundBlur_19_939" result="shape"/>
</filter>
<filter id="filter36_b_19_939" x="176.043" y="274.131" width="168.137" height="106.806" filterUnits="userSpaceOnUse" color-interpolation-filters="sRGB">
<feFlood flood-opacity="0" result="BackgroundImageFix"/>
<feGaussianBlur in="BackgroundImageFix" stdDeviation="1.379"/>
<feComposite in2="SourceAlpha" operator="in" result="effect1_backgroundBlur_19_939"/>
<feBlend mode="normal" in="SourceGraphic" in2="effect1_backgroundBlur_19_939" result="shape"/>
</filter>
<filter id="filter37_b_19_939" x="213.46" y="204.951" width="86.5277" height="105.931" filterUnits="userSpaceOnUse" color-interpolation-filters="sRGB">
<feFlood flood-opacity="0" result="BackgroundImageFix"/>
<feGaussianBlur in="BackgroundImageFix" stdDeviation="1.379"/>
<feComposite in2="SourceAlpha" operator="in" result="effect1_backgroundBlur_19_939"/>
<feBlend mode="normal" in="SourceGraphic" in2="effect1_backgroundBlur_19_939" result="shape"/>
</filter>
<filter id="filter38_b_19_939" x="212.309" y="203.816" width="88.83" height="108.198" filterUnits="userSpaceOnUse" color-interpolation-filters="sRGB">
<feFlood flood-opacity="0" result="BackgroundImageFix"/>
<feGaussianBlur in="BackgroundImageFix" stdDeviation="1.379"/>
<feComposite in2="SourceAlpha" operator="in" result="effect1_backgroundBlur_19_939"/>
<feBlend mode="normal" in="SourceGraphic" in2="effect1_backgroundBlur_19_939" result="shape"/>
</filter>
<filter id="filter39_b_19_939" x="213.46" y="204.932" width="71.8602" height="61.3812" filterUnits="userSpaceOnUse" color-interpolation-filters="sRGB">
<feFlood flood-opacity="0" result="BackgroundImageFix"/>
<feGaussianBlur in="BackgroundImageFix" stdDeviation="1.379"/>
<feComposite in2="SourceAlpha" operator="in" result="effect1_backgroundBlur_19_939"/>
<feBlend mode="normal" in="SourceGraphic" in2="effect1_backgroundBlur_19_939" result="shape"/>
</filter>
<filter id="filter40_b_19_939" x="266.771" y="241.729" width="17.1122" height="26.7904" filterUnits="userSpaceOnUse" color-interpolation-filters="sRGB">
<feFlood flood-opacity="0" result="BackgroundImageFix"/>
<feGaussianBlur in="BackgroundImageFix" stdDeviation="1.379"/>
<feComposite in2="SourceAlpha" operator="in" result="effect1_backgroundBlur_19_939"/>
<feBlend mode="normal" in="SourceGraphic" in2="effect1_backgroundBlur_19_939" result="shape"/>
</filter>
<filter id="filter41_b_19_939" x="279.08" y="243.145" width="10.1532" height="12.1928" filterUnits="userSpaceOnUse" color-interpolation-filters="sRGB">
<feFlood flood-opacity="0" result="BackgroundImageFix"/>
<feGaussianBlur in="BackgroundImageFix" stdDeviation="1.379"/>
<feComposite in2="SourceAlpha" operator="in" result="effect1_backgroundBlur_19_939"/>
<feBlend mode="normal" in="SourceGraphic" in2="effect1_backgroundBlur_19_939" result="shape"/>
</filter>
<filter id="filter42_b_19_939" x="248.715" y="248.071" width="10.1532" height="12.2035" filterUnits="userSpaceOnUse" color-interpolation-filters="sRGB">
<feFlood flood-opacity="0" result="BackgroundImageFix"/>
<feGaussianBlur in="BackgroundImageFix" stdDeviation="1.379"/>
<feComposite in2="SourceAlpha" operator="in" result="effect1_backgroundBlur_19_939"/>
<feBlend mode="normal" in="SourceGraphic" in2="effect1_backgroundBlur_19_939" result="shape"/>
</filter>
<filter id="filter43_b_19_939" x="252.164" y="271.749" width="13.2318" height="11.1957" filterUnits="userSpaceOnUse" color-interpolation-filters="sRGB">
<feFlood flood-opacity="0" result="BackgroundImageFix"/>
<feGaussianBlur in="BackgroundImageFix" stdDeviation="1.379"/>
<feComposite in2="SourceAlpha" operator="in" result="effect1_backgroundBlur_19_939"/>
<feBlend mode="normal" in="SourceGraphic" in2="effect1_backgroundBlur_19_939" result="shape"/>
</filter>
<filter id="filter44_b_19_939" x="213.46" y="204.943" width="76.7924" height="46.3392" filterUnits="userSpaceOnUse" color-interpolation-filters="sRGB">
<feFlood flood-opacity="0" result="BackgroundImageFix"/>
<feGaussianBlur in="BackgroundImageFix" stdDeviation="1.379"/>
<feComposite in2="SourceAlpha" operator="in" result="effect1_backgroundBlur_19_939"/>
<feBlend mode="normal" in="SourceGraphic" in2="effect1_backgroundBlur_19_939" result="shape"/>
</filter>
<filter id="filter45_b_19_939" x="212.309" y="203.783" width="79.0839" height="48.6576" filterUnits="userSpaceOnUse" color-interpolation-filters="sRGB">
<feFlood flood-opacity="0" result="BackgroundImageFix"/>
<feGaussianBlur in="BackgroundImageFix" stdDeviation="1.379"/>
<feComposite in2="SourceAlpha" operator="in" result="effect1_backgroundBlur_19_939"/>
<feBlend mode="normal" in="SourceGraphic" in2="effect1_backgroundBlur_19_939" result="shape"/>
</filter>
<filter id="filter46_b_19_939" x="242.794" y="273.456" width="40.9813" height="106.377" filterUnits="userSpaceOnUse" color-interpolation-filters="sRGB">
<feFlood flood-opacity="0" result="BackgroundImageFix"/>
<feGaussianBlur in="BackgroundImageFix" stdDeviation="1.379"/>
<feComposite in2="SourceAlpha" operator="in" result="effect1_backgroundBlur_19_939"/>
<feBlend mode="normal" in="SourceGraphic" in2="effect1_backgroundBlur_19_939" result="shape"/>
</filter>
<filter id="filter47_b_19_939" x="234.898" y="268.432" width="16.9608" height="36.9623" filterUnits="userSpaceOnUse" color-interpolation-filters="sRGB">
<feFlood flood-opacity="0" result="BackgroundImageFix"/>
<feGaussianBlur in="BackgroundImageFix" stdDeviation="1.379"/>
<feComposite in2="SourceAlpha" operator="in" result="effect1_backgroundBlur_19_939"/>
<feBlend mode="normal" in="SourceGraphic" in2="effect1_backgroundBlur_19_939" result="shape"/>
</filter>
<filter id="filter48_b_19_939" x="228.528" y="266.476" width="15.9203" height="38.1732" filterUnits="userSpaceOnUse" color-interpolation-filters="sRGB">
<feFlood flood-opacity="0" result="BackgroundImageFix"/>
<feGaussianBlur in="BackgroundImageFix" stdDeviation="1.379"/>
<feComposite in2="SourceAlpha" operator="in" result="effect1_backgroundBlur_19_939"/>
<feBlend mode="normal" in="SourceGraphic" in2="effect1_backgroundBlur_19_939" result="shape"/>
</filter>
<filter id="filter49_b_19_939" x="215.75" y="265.579" width="27.3319" height="99.7738" filterUnits="userSpaceOnUse" color-interpolation-filters="sRGB">
<feFlood flood-opacity="0" result="BackgroundImageFix"/>
<feGaussianBlur in="BackgroundImageFix" stdDeviation="1.379"/>
<feComposite in2="SourceAlpha" operator="in" result="effect1_backgroundBlur_19_939"/>
<feBlend mode="normal" in="SourceGraphic" in2="effect1_backgroundBlur_19_939" result="shape"/>
</filter>
<filter id="filter50_b_19_939" x="210.739" y="221.937" width="83.016" height="37.3432" filterUnits="userSpaceOnUse" color-interpolation-filters="sRGB">
<feFlood flood-opacity="0" result="BackgroundImageFix"/>
<feGaussianBlur in="BackgroundImageFix" stdDeviation="1.379"/>
<feComposite in2="SourceAlpha" operator="in" result="effect1_backgroundBlur_19_939"/>
<feBlend mode="normal" in="SourceGraphic" in2="effect1_backgroundBlur_19_939" result="shape"/>
</filter>
<filter id="filter51_b_19_939" x="209.55" y="220.804" width="85.3173" height="39.6058" filterUnits="userSpaceOnUse" color-interpolation-filters="sRGB">
<feFlood flood-opacity="0" result="BackgroundImageFix"/>
<feGaussianBlur in="BackgroundImageFix" stdDeviation="1.379"/>
<feComposite in2="SourceAlpha" operator="in" result="effect1_backgroundBlur_19_939"/>
<feBlend mode="normal" in="SourceGraphic" in2="effect1_backgroundBlur_19_939" result="shape"/>
</filter>
<filter id="filter52_b_19_939" x="245.172" y="235.552" width="12.5717" height="10.0619" filterUnits="userSpaceOnUse" color-interpolation-filters="sRGB">
<feFlood flood-opacity="0" result="BackgroundImageFix"/>
<feGaussianBlur in="BackgroundImageFix" stdDeviation="1.379"/>
<feComposite in2="SourceAlpha" operator="in" result="effect1_backgroundBlur_19_939"/>
<feBlend mode="normal" in="SourceGraphic" in2="effect1_backgroundBlur_19_939" result="shape"/>
</filter>
<filter id="filter53_b_19_939" x="278.187" y="225.579" width="11.9066" height="9.59413" filterUnits="userSpaceOnUse" color-interpolation-filters="sRGB">
<feFlood flood-opacity="0" result="BackgroundImageFix"/>
<feGaussianBlur in="BackgroundImageFix" stdDeviation="1.379"/>
<feComposite in2="SourceAlpha" operator="in" result="effect1_backgroundBlur_19_939"/>
<feBlend mode="normal" in="SourceGraphic" in2="effect1_backgroundBlur_19_939" result="shape"/>
</filter>
<filter id="filter54_b_19_939" x="225.574" y="338.68" width="46.0385" height="21.2123" filterUnits="userSpaceOnUse" color-interpolation-filters="sRGB">
<feFlood flood-opacity="0" result="BackgroundImageFix"/>
<feGaussianBlur in="BackgroundImageFix" stdDeviation="1.379"/>
<feComposite in2="SourceAlpha" operator="in" result="effect1_backgroundBlur_19_939"/>
<feBlend mode="normal" in="SourceGraphic" in2="effect1_backgroundBlur_19_939" result="shape"/>
</filter>
<filter id="filter55_b_19_939" x="217.451" y="257.084" width="18.872" height="11.2709" filterUnits="userSpaceOnUse" color-interpolation-filters="sRGB">
<feFlood flood-opacity="0" result="BackgroundImageFix"/>
<feGaussianBlur in="BackgroundImageFix" stdDeviation="1.379"/>
<feComposite in2="SourceAlpha" operator="in" result="effect1_backgroundBlur_19_939"/>
<feBlend mode="normal" in="SourceGraphic" in2="effect1_backgroundBlur_19_939" result="shape"/>
</filter>
<filter id="filter56_b_19_939" x="297.616" y="354.928" width="7.41884" height="20.768" filterUnits="userSpaceOnUse" color-interpolation-filters="sRGB">
<feFlood flood-opacity="0" result="BackgroundImageFix"/>
<feGaussianBlur in="BackgroundImageFix" stdDeviation="1.379"/>
<feComposite in2="SourceAlpha" operator="in" result="effect1_backgroundBlur_19_939"/>
<feBlend mode="normal" in="SourceGraphic" in2="effect1_backgroundBlur_19_939" result="shape"/>
</filter>
<filter id="filter57_b_19_939" x="296.475" y="353.793" width="9.70058" height="23.0346" filterUnits="userSpaceOnUse" color-interpolation-filters="sRGB">
<feFlood flood-opacity="0" result="BackgroundImageFix"/>
<feGaussianBlur in="BackgroundImageFix" stdDeviation="1.379"/>
<feComposite in2="SourceAlpha" operator="in" result="effect1_backgroundBlur_19_939"/>
<feBlend mode="normal" in="SourceGraphic" in2="effect1_backgroundBlur_19_939" result="shape"/>
</filter>
<filter id="filter58_b_19_939" x="205.035" y="330.355" width="11.3998" height="30.1996" filterUnits="userSpaceOnUse" color-interpolation-filters="sRGB">
<feFlood flood-opacity="0" result="BackgroundImageFix"/>
<feGaussianBlur in="BackgroundImageFix" stdDeviation="1.379"/>
<feComposite in2="SourceAlpha" operator="in" result="effect1_backgroundBlur_19_939"/>
<feBlend mode="normal" in="SourceGraphic" in2="effect1_backgroundBlur_19_939" result="shape"/>
</filter>
<filter id="filter59_b_19_939" x="60.952" y="267.637" width="142.809" height="56.8695" filterUnits="userSpaceOnUse" color-interpolation-filters="sRGB">
<feFlood flood-opacity="0" result="BackgroundImageFix"/>
<feGaussianBlur in="BackgroundImageFix" stdDeviation="1.379"/>
<feComposite in2="SourceAlpha" operator="in" result="effect1_backgroundBlur_19_939"/>
<feBlend mode="normal" in="SourceGraphic" in2="effect1_backgroundBlur_19_939" result="shape"/>
</filter>
<filter id="filter60_b_19_939" x="59.7938" y="266.506" width="145.075" height="59.1596" filterUnits="userSpaceOnUse" color-interpolation-filters="sRGB">
<feFlood flood-opacity="0" result="BackgroundImageFix"/>
<feGaussianBlur in="BackgroundImageFix" stdDeviation="1.379"/>
<feComposite in2="SourceAlpha" operator="in" result="effect1_backgroundBlur_19_939"/>
<feBlend mode="normal" in="SourceGraphic" in2="effect1_backgroundBlur_19_939" result="shape"/>
</filter>
<filter id="filter61_b_19_939" x="60.952" y="267.637" width="142.809" height="43.2455" filterUnits="userSpaceOnUse" color-interpolation-filters="sRGB">
<feFlood flood-opacity="0" result="BackgroundImageFix"/>
<feGaussianBlur in="BackgroundImageFix" stdDeviation="1.379"/>
<feComposite in2="SourceAlpha" operator="in" result="effect1_backgroundBlur_19_939"/>
<feBlend mode="normal" in="SourceGraphic" in2="effect1_backgroundBlur_19_939" result="shape"/>
</filter>
<filter id="filter62_b_19_939" x="59.8284" y="266.506" width="145.102" height="45.5072" filterUnits="userSpaceOnUse" color-interpolation-filters="sRGB">
<feFlood flood-opacity="0" result="BackgroundImageFix"/>
<feGaussianBlur in="BackgroundImageFix" stdDeviation="1.379"/>
<feComposite in2="SourceAlpha" operator="in" result="effect1_backgroundBlur_19_939"/>
<feBlend mode="normal" in="SourceGraphic" in2="effect1_backgroundBlur_19_939" result="shape"/>
</filter>
<filter id="filter63_b_19_939" x="100.16" y="277.283" width="25.8046" height="23.0082" filterUnits="userSpaceOnUse" color-interpolation-filters="sRGB">
<feFlood flood-opacity="0" result="BackgroundImageFix"/>
<feGaussianBlur in="BackgroundImageFix" stdDeviation="1.379"/>
<feComposite in2="SourceAlpha" operator="in" result="effect1_backgroundBlur_19_939"/>
<feBlend mode="normal" in="SourceGraphic" in2="effect1_backgroundBlur_19_939" result="shape"/>
</filter>
<filter id="filter64_b_19_939" x="125.581" y="276.323" width="31.2435" height="21.0726" filterUnits="userSpaceOnUse" color-interpolation-filters="sRGB">
<feFlood flood-opacity="0" result="BackgroundImageFix"/>
<feGaussianBlur in="BackgroundImageFix" stdDeviation="1.379"/>
<feComposite in2="SourceAlpha" operator="in" result="effect1_backgroundBlur_19_939"/>
<feBlend mode="normal" in="SourceGraphic" in2="effect1_backgroundBlur_19_939" result="shape"/>
</filter>
<filter id="filter65_b_19_939" x="149.009" y="275.021" width="31.2284" height="20.1674" filterUnits="userSpaceOnUse" color-interpolation-filters="sRGB">
<feFlood flood-opacity="0" result="BackgroundImageFix"/>
<feGaussianBlur in="BackgroundImageFix" stdDeviation="1.379"/>
<feComposite in2="SourceAlpha" operator="in" result="effect1_backgroundBlur_19_939"/>
<feBlend mode="normal" in="SourceGraphic" in2="effect1_backgroundBlur_19_939" result="shape"/>
</filter>
<filter id="filter66_b_19_939" x="128.464" y="280.457" width="16.9154" height="8.60976" filterUnits="userSpaceOnUse" color-interpolation-filters="sRGB">
<feFlood flood-opacity="0" result="BackgroundImageFix"/>
<feGaussianBlur in="BackgroundImageFix" stdDeviation="1.379"/>
<feComposite in2="SourceAlpha" operator="in" result="effect1_backgroundBlur_19_939"/>
<feBlend mode="normal" in="SourceGraphic" in2="effect1_backgroundBlur_19_939" result="shape"/>
</filter>
<filter id="filter67_b_19_939" x="60.952" y="267.637" width="46.4447" height="56.8695" filterUnits="userSpaceOnUse" color-interpolation-filters="sRGB">
<feFlood flood-opacity="0" result="BackgroundImageFix"/>
<feGaussianBlur in="BackgroundImageFix" stdDeviation="1.379"/>
<feComposite in2="SourceAlpha" operator="in" result="effect1_backgroundBlur_19_939"/>
<feBlend mode="normal" in="SourceGraphic" in2="effect1_backgroundBlur_19_939" result="shape"/>
</filter>
</defs>
</svg>
