<svg xmlns="http://www.w3.org/2000/svg" xmlns:xlink="http://www.w3.org/1999/xlink" viewBox="0 0 139.816 57.808"><defs><style>.cls-1{fill:none;}.cls-2{clip-path:url(#clip-path);}.cls-3{fill:#fff;}</style><clipPath id="clip-path" transform="translate(0)"><rect class="cls-1" width="139.816" height="57.808"/></clipPath></defs><title>logo_besharp </title><g id="Livello_2" data-name="Livello 2"><g id="Livello_1-2" data-name="Livello 1"><g id="Disegno_5" data-name="Disegno 5"><g class="cls-2"><g class="cls-2"><path class="cls-3" d="M137.171,24.338a10.287,10.287,0,0,0-10.218-2.692,6.051,6.051,0,0,0-8.381-6.73c-.475.205-.792.568-1.286.734-2.051-4.63-5.751-8.32-11.93-8.749a13.5,13.5,0,0,0-8.2,2.142,13.2,13.2,0,0,0-4.895,5.506c-1.412-1.312-4.907-1.72-6.914-.856a14.481,14.481,0,0,0-9.483-9.484A15.01,15.01,0,0,0,61.427,7.33C58.235,3.241,53.212-.473,45.642.049a17.562,17.562,0,0,0-9.911,3.916c-.882.706-1.584,1.5-2.387,2.08C29.606,4.2,24.789,5.633,22.332,7.819a10.626,10.626,0,0,0-3.3,6.791,6.816,6.816,0,0,0-10.156,7.4,9.745,9.745,0,0,0-6.241,2.815A9.43,9.43,0,0,0,0,31.313a9.245,9.245,0,0,0,8.811,9.422,10.419,10.419,0,0,0,4.03-.572.4.4,0,0,0-.109-.789.414.414,0,0,0-.128.021l-.04.017A8.286,8.286,0,0,1,8.933,40,8.615,8.615,0,0,1,3.488,25.072a8.639,8.639,0,0,1,6.3-2.325c-1.331-4.173,1.2-8.09,5.261-8.382a6.2,6.2,0,0,1,4.711,1.775c-.2-5.787,3.758-9.928,8.994-10.217a8.913,8.913,0,0,1,4.834,1.1C36.891,3.459,41.241.337,48.212.783c6.221.4,10.385,3.831,13.154,7.648A14.148,14.148,0,0,1,75.621,4.882a13.687,13.687,0,0,1,9.239,9.851c2.241-1.382,6.218-.757,7.648.917C94.59,11.279,98.646,7.2,105.356,7.7c6.316.467,9.784,4.209,11.625,9.238a5.617,5.617,0,0,1,7.953-.122,5.5,5.5,0,0,1,.857,6.057c-.012.049-.062.061-.062.122a9.093,9.093,0,0,1,4.711-1.04,9.22,9.22,0,0,1,8.627,9.116,8.974,8.974,0,0,1-8.565,9.117,9.989,9.989,0,0,1-1.107,0v0a.474.474,0,0,0-.055,0,.375.375,0,0,0-.392.354.361.361,0,0,0,.252.331,1.014,1.014,0,0,0,.263.045,9.776,9.776,0,0,0,10.339-9.36,9.891,9.891,0,0,0-2.63-7.22" transform="translate(0)"/><path class="cls-3" d="M15.042,39.786V19.1q0-.462.4-.462a.334.334,0,0,1,.247.154.494.494,0,0,1,.123.308V29.257a7.5,7.5,0,0,1,2.663-3.017A6.85,6.85,0,0,1,22.308,25.1,6.967,6.967,0,0,1,27.5,27.3a7.347,7.347,0,0,1,2.14,5.311,7.447,7.447,0,0,1-2.14,5.341,6.916,6.916,0,0,1-5.187,2.232,6.842,6.842,0,0,1-3.833-1.139,7.53,7.53,0,0,1-2.663-2.986v3.725a.408.408,0,0,1-.108.277.336.336,0,0,1-.262.123.353.353,0,0,1-.4-.4m.77-7.45v.277a6.713,6.713,0,0,0,1.909,4.8,6.311,6.311,0,0,0,9.22,0,6.69,6.69,0,0,0,1.924-4.8,6.584,6.584,0,0,0-1.924-4.772,6.177,6.177,0,0,0-4.572-1.97,6.244,6.244,0,0,0-4.556,1.893,6.535,6.535,0,0,0-2,4.572" transform="translate(0)"/><path class="cls-3" d="M45.551,32.058v.124c-.041.246-.165.369-.37.369H31.759v.093A6.592,6.592,0,0,0,33.683,37.4a6.326,6.326,0,0,0,4.634,2.017,6.1,6.1,0,0,0,3.124-.832,6.414,6.414,0,0,0,2.294-2.247.346.346,0,0,1,.538-.093.33.33,0,0,1,.108.524,7.534,7.534,0,0,1-2.6,2.478,6.786,6.786,0,0,1-3.463.94,6.988,6.988,0,0,1-5.142-2.233,7.581,7.581,0,0,1,0-10.652,6.8,6.8,0,0,1,5.064-2.2,6.973,6.973,0,0,1,5.018,2,7.393,7.393,0,0,1,2.294,4.956M42.626,27.6a6.389,6.389,0,0,0-8.666,0,6.6,6.6,0,0,0-2.171,4.218H44.781A6.629,6.629,0,0,0,42.626,27.6" transform="translate(0)"/><path class="cls-3" d="M60.482,33.629q0-2.34-5.418-3.356H55a17.409,17.409,0,0,1-4.156-1.293,5.881,5.881,0,0,1-2.571-2.139,5.03,5.03,0,0,1-.815-2.694,5.247,5.247,0,0,1,2.355-4.4,9.12,9.12,0,0,1,8.2-1.262,11.809,11.809,0,0,1,2.109.862q.693.4,1.832,1.139a1.619,1.619,0,0,1,.662,1.016,1.5,1.5,0,0,1-.216,1.185,1.537,1.537,0,0,1-1,.678,1.515,1.515,0,0,1-1.2-.231,16.412,16.412,0,0,0-2.571-1.478,5.882,5.882,0,0,0-2.386-.492,5.455,5.455,0,0,0-3.324.954,2.616,2.616,0,0,0-1.293,2.032,1.563,1.563,0,0,0,.246.892q.861,1.418,4.649,2.125h.061a19.456,19.456,0,0,1,4.249,1.293q3.816,1.878,3.817,5.172a5.575,5.575,0,0,1-2.525,4.7,9.649,9.649,0,0,1-5.818,1.831,12.752,12.752,0,0,1-7.881-3.078A1.552,1.552,0,0,1,46.859,36a1.512,1.512,0,0,1,.323-1.17,1.564,1.564,0,0,1,1.078-.569,1.454,1.454,0,0,1,1.17.354,9.191,9.191,0,0,0,5.88,2.371,6.126,6.126,0,0,0,3.741-1.063,2.933,2.933,0,0,0,1.431-2.293" transform="translate(0)"/><path class="cls-3" d="M67.67,39.694a1.708,1.708,0,0,1-2.4,0,1.612,1.612,0,0,1-.508-1.2V20.329a1.682,1.682,0,0,1,1.693-1.693,1.689,1.689,0,0,1,1.216.492,1.61,1.61,0,0,1,.508,1.2v5.357a7.048,7.048,0,0,1,3.3-.893,6.44,6.44,0,0,1,4.741,1.986,6.516,6.516,0,0,1,1.97,4.756v6.958a1.694,1.694,0,1,1-3.387,0V31.535a3.17,3.17,0,0,0-.969-2.324,3.319,3.319,0,0,0-2.355-1,3.226,3.226,0,0,0-2.309,1,3.308,3.308,0,0,0-.986,2.324v6.958a1.608,1.608,0,0,1-.508,1.2" transform="translate(0)"/><path class="cls-3" d="M80.816,37.939a8.074,8.074,0,0,1,0-10.883,6.844,6.844,0,0,1,5.218-2.263,6.946,6.946,0,0,1,4.095,1.355,1.919,1.919,0,0,1,.585-.97,1.534,1.534,0,0,1,1.062-.385,1.5,1.5,0,0,1,1.108.493,1.623,1.623,0,0,1,.477,1.169v12.1a1.573,1.573,0,0,1-.477,1.154,1.524,1.524,0,0,1-1.108.478,1.576,1.576,0,0,1-1.062-.37,1.835,1.835,0,0,1-.585-.955,6.958,6.958,0,0,1-4.095,1.325,6.865,6.865,0,0,1-5.218-2.248M82,32.505a4.524,4.524,0,0,0,1.124,3.125,3.694,3.694,0,0,0,2.893,1.262,3.789,3.789,0,0,0,2.925-1.262A4.435,4.435,0,0,0,90.1,32.52a4.514,4.514,0,0,0-1.17-3.14,3.765,3.765,0,0,0-2.91-1.293,3.692,3.692,0,0,0-2.878,1.278A4.551,4.551,0,0,0,82,32.505" transform="translate(0)"/><path class="cls-3" d="M99.426,26.64a4.986,4.986,0,0,1,1.94-1.339,5.731,5.731,0,0,1,2.247-.493,2.133,2.133,0,0,1,1.493.478,1.506,1.506,0,0,1,.477,1.123,1.606,1.606,0,0,1-.477,1.155,1.549,1.549,0,0,1-1.155.492q-2.862,0-4.525,4.649v5.849a1.55,1.55,0,0,1-.493,1.155,1.64,1.64,0,0,1-1.185.478,1.588,1.588,0,0,1-1.17-.478,1.569,1.569,0,0,1-.477-1.155V26.425a1.52,1.52,0,0,1,.477-1.139,1.618,1.618,0,0,1,1.17-.462,1.671,1.671,0,0,1,1.185.462,1.5,1.5,0,0,1,.493,1.139Z" transform="translate(0)"/><path class="cls-3" d="M109.2,45.466a1.638,1.638,0,0,1-1.2.508,1.592,1.592,0,0,1-1.185-.508,1.615,1.615,0,0,1-.492-1.154V26.425a1.576,1.576,0,0,1,.477-1.155,1.554,1.554,0,0,1,1.139-.477,1.8,1.8,0,0,1,1.139.37,1.429,1.429,0,0,1,.57.892,7.534,7.534,0,0,1,4.187-1.262,7.033,7.033,0,0,1,5.264,2.279,7.6,7.6,0,0,1,2.186,5.449,7.441,7.441,0,0,1-2.186,5.4,7.1,7.1,0,0,1-5.264,2.231,6.875,6.875,0,0,1-4.126-1.262v5.419a1.589,1.589,0,0,1-.508,1.154m7.527-16.055a3.884,3.884,0,0,0-2.924-1.262,3.811,3.811,0,0,0-2.909,1.278,4.5,4.5,0,0,0-1.186,3.186,3.808,3.808,0,0,0,1.2,2.986,3.732,3.732,0,0,0,2.879,1.293,3.873,3.873,0,0,0,2.924-1.293,4.318,4.318,0,0,0,1.216-3.064,4.57,4.57,0,0,0-1.2-3.124" transform="translate(0)"/><path class="cls-3" d="M123.669,39.74a2.2,2.2,0,0,1-.661-1.617,2.252,2.252,0,0,1,.661-1.631,2.177,2.177,0,0,1,1.617-.677,2.313,2.313,0,0,1,2.309,2.308,2.176,2.176,0,0,1-.678,1.617,2.247,2.247,0,0,1-1.631.662,2.2,2.2,0,0,1-1.617-.662" transform="translate(0)"/><path class="cls-3" d="M29.2,51.665a.329.329,0,0,1,.169-.277.623.623,0,0,1,.358-.116.293.293,0,0,1,.312.2l1.732,4.818,1.393-4.4a.273.273,0,0,1,.3-.2.277.277,0,0,1,.3.23L35.1,56.38l1.773-4.9c.026-.137.125-.2.3-.2a.662.662,0,0,1,.359.109.327.327,0,0,1,.169.284.359.359,0,0,1-.055.2l-2.11,5.724a.323.323,0,0,1-.352.216.275.275,0,0,1-.276-.2L33.49,53.2,32.1,57.531a.385.385,0,0,1-.737.006l-2.111-5.669a.444.444,0,0,1-.054-.2" transform="translate(0)"/><path class="cls-3" d="M38.713,55.224V53.708a2.364,2.364,0,0,1,.758-1.752,2.614,2.614,0,0,1,3.606-.033,2.311,2.311,0,0,1,.751,1.76,1.723,1.723,0,0,1-.088.608.563.563,0,0,1-.284.324,1.355,1.355,0,0,1-.358.122,3.018,3.018,0,0,1-.447.027H39.593v.5a1.581,1.581,0,0,0,.575,1.279,2.234,2.234,0,0,0,1.482.48,2.2,2.2,0,0,0,.8-.135,2.336,2.336,0,0,0,.528-.271.551.551,0,0,1,.29-.135.333.333,0,0,1,.264.142.446.446,0,0,1,.115.278c0,.189-.193.385-.581.588a3.1,3.1,0,0,1-1.448.3,3.068,3.068,0,0,1-2.1-.711,2.352,2.352,0,0,1-.812-1.86m.88-1.11H42.3a1.119,1.119,0,0,0,.541-.087.415.415,0,0,0,.136-.37,1.681,1.681,0,0,0-.481-1.184,1.593,1.593,0,0,0-1.211-.51,1.645,1.645,0,0,0-1.2.484,1.56,1.56,0,0,0-.494,1.156Z" transform="translate(0)"/><path class="cls-3" d="M48.023,57.348V51.624a.282.282,0,0,1,.122-.23.493.493,0,0,1,.311-.095.468.468,0,0,1,.3.1.285.285,0,0,1,.121.233v.631a2,2,0,0,1,1.8-1.042,1.921,1.921,0,0,1,1.164.376,2.2,2.2,0,0,1,.757.99,2.5,2.5,0,0,1,.894-1.018,2.162,2.162,0,0,1,2.76.342,2.517,2.517,0,0,1,.677,1.841v3.6a.315.315,0,0,1-.129.244.477.477,0,0,1-.318.108.456.456,0,0,1-.3-.108.314.314,0,0,1-.129-.243V53.758a1.678,1.678,0,0,0-.466-1.255,1.493,1.493,0,0,0-1.076-.46,1.546,1.546,0,0,0-1.1.466,1.6,1.6,0,0,0-.479,1.2v3.658c0,.226-.149.338-.447.338s-.433-.112-.433-.338V53.717a1.672,1.672,0,0,0-.453-1.194,1.448,1.448,0,0,0-1.09-.48,1.556,1.556,0,0,0-1.116.466,1.657,1.657,0,0,0-.48,1.249v3.591a.311.311,0,0,1-.136.243.484.484,0,0,1-.311.108.456.456,0,0,1-.3-.108.315.315,0,0,1-.129-.244" transform="translate(0)"/><path class="cls-3" d="M58.212,56.009a1.517,1.517,0,0,1,.806-1.48,5.253,5.253,0,0,1,2.347-.415h.69V53.8a2.1,2.1,0,0,0-.392-1.269,1.393,1.393,0,0,0-1.2-.537,2.422,2.422,0,0,0-.981.192,5.04,5.04,0,0,1-.467.192.289.289,0,0,1-.257-.146.569.569,0,0,1-.095-.32q0-.257.582-.473a3.523,3.523,0,0,1,1.245-.217,2.238,2.238,0,0,1,1.86.738,2.907,2.907,0,0,1,.588,1.874v3.518a.311.311,0,0,1-.121.25.469.469,0,0,1-.312.1.419.419,0,0,1-.29-.1.317.317,0,0,1-.115-.25v-.595A2.669,2.669,0,0,1,60.053,57.8a1.925,1.925,0,0,1-1.326-.454,1.678,1.678,0,0,1-.515-1.332m.88-.082a1.053,1.053,0,0,0,.324.846,1.269,1.269,0,0,0,.853.277,1.876,1.876,0,0,0,1.211-.473,1.292,1.292,0,0,0,.575-.947v-.866h-.568a8.654,8.654,0,0,0-.913.04,4.2,4.2,0,0,0-.738.149,1.065,1.065,0,0,0-.555.352.985.985,0,0,0-.189.622" transform="translate(0)"/><path class="cls-3" d="M64.667,57.348V47.7a.281.281,0,0,1,.122-.23.489.489,0,0,1,.311-.095.519.519,0,0,1,.317.095.279.279,0,0,1,.129.23v6.59l3.3-2.936a.363.363,0,0,1,.507.047.383.383,0,0,1,.142.291.306.306,0,0,1-.094.244l-1.989,1.745,2.34,3.423a.446.446,0,0,1,.055.19.431.431,0,0,1-.149.3.456.456,0,0,1-.325.149.318.318,0,0,1-.27-.163l-2.274-3.342-1.245,1.1v2.016a.315.315,0,0,1-.129.244.474.474,0,0,1-.317.108.459.459,0,0,1-.3-.108.314.314,0,0,1-.128-.244" transform="translate(0)"/><path class="cls-3" d="M70.486,55.224V53.708a2.363,2.363,0,0,1,.757-1.752,2.615,2.615,0,0,1,3.607-.033,2.314,2.314,0,0,1,.751,1.76,1.746,1.746,0,0,1-.088.608.566.566,0,0,1-.284.324,1.361,1.361,0,0,1-.359.122,3,3,0,0,1-.447.027H71.365v.5a1.584,1.584,0,0,0,.575,1.279,2.235,2.235,0,0,0,1.482.48,2.2,2.2,0,0,0,.805-.135,2.314,2.314,0,0,0,.528-.271.554.554,0,0,1,.291-.135.335.335,0,0,1,.264.142.451.451,0,0,1,.115.278c0,.189-.195.385-.582.588a3.1,3.1,0,0,1-1.448.3,3.064,3.064,0,0,1-2.1-.711,2.349,2.349,0,0,1-.812-1.86m.879-1.11h2.707a1.124,1.124,0,0,0,.541-.087.415.415,0,0,0,.135-.37,1.68,1.68,0,0,0-.48-1.184,1.594,1.594,0,0,0-1.211-.51,1.646,1.646,0,0,0-1.2.484,1.564,1.564,0,0,0-.494,1.156Z" transform="translate(0)"/><path class="cls-3" d="M79.971,57.348V48.133q0-.326.447-.325t.446.325v9.215a.3.3,0,0,1-.135.257.53.53,0,0,1-.311.1.52.52,0,0,1-.318-.1.3.3,0,0,1-.129-.257" transform="translate(0)"/><path class="cls-3" d="M82.177,48.221a.484.484,0,0,1,.088-.286.286.286,0,0,1,.25-.127h5.426a.292.292,0,0,1,.25.12.458.458,0,0,1,.088.28.507.507,0,0,1-.088.3.286.286,0,0,1-.25.127h-2.26v8.714a.3.3,0,0,1-.135.257.53.53,0,0,1-.311.1.522.522,0,0,1-.318-.1.3.3,0,0,1-.129-.257V48.634H82.515a.3.3,0,0,1-.244-.12.459.459,0,0,1-.094-.293" transform="translate(0)"/><path class="cls-3" d="M92.2,57.348V51.624a.285.285,0,0,1,.122-.23.493.493,0,0,1,.311-.095.466.466,0,0,1,.3.1.286.286,0,0,1,.122.232V52.3a2.119,2.119,0,0,1,.717-.767,1.924,1.924,0,0,1,1.1-.316h.473a.32.32,0,0,1,.244.124.438.438,0,0,1,0,.578.319.319,0,0,1-.244.123h-.473a1.7,1.7,0,0,0-1.245.548,1.935,1.935,0,0,0-.541,1.424v3.334a.315.315,0,0,1-.128.243.481.481,0,0,1-.319.108.456.456,0,0,1-.3-.108.315.315,0,0,1-.129-.244" transform="translate(0)"/><path class="cls-3" d="M96.7,55.251V51.638a.3.3,0,0,1,.128-.23.479.479,0,0,1,.318-.109.468.468,0,0,1,.3.109.3.3,0,0,1,.135.229v3.6a1.7,1.7,0,0,0,.5,1.2,1.608,1.608,0,0,0,2.381,0,1.7,1.7,0,0,0,.5-1.2V51.623a.276.276,0,0,1,.135-.229.531.531,0,0,1,.312-.095.5.5,0,0,1,.3.095.279.279,0,0,1,.129.23v3.627a2.442,2.442,0,0,1-.765,1.779A2.567,2.567,0,0,1,96.7,55.251" transform="translate(0)"/><path class="cls-3" d="M103.556,57.348V51.624a.274.274,0,0,1,.122-.236.516.516,0,0,1,.311-.089.446.446,0,0,1,.284.1.286.286,0,0,1,.122.233v.631a1.967,1.967,0,0,1,.7-.74,2.026,2.026,0,0,1,1.11-.3,2.274,2.274,0,0,1,1.692.744,2.486,2.486,0,0,1,.717,1.787v3.6a.3.3,0,0,1-.136.257.526.526,0,0,1-.311.1.507.507,0,0,1-.3-.1.3.3,0,0,1-.136-.256V53.758a1.68,1.68,0,0,0-.5-1.188,1.586,1.586,0,0,0-1.19-.527,1.563,1.563,0,0,0-1.123.473,1.652,1.652,0,0,0-.488,1.242v3.591a.31.31,0,0,1-.135.243.484.484,0,0,1-.311.108.451.451,0,0,1-.311-.108.319.319,0,0,1-.122-.244" transform="translate(0)"/><path class="cls-3" d="M110.038,57.112a.719.719,0,0,1,.17-.488.547.547,0,0,1,.431-.2.533.533,0,0,1,.413.2.709.709,0,0,1,.176.48.7.7,0,0,1-.176.466.535.535,0,0,1-.413.2.544.544,0,0,1-.431-.2.7.7,0,0,1-.17-.473" transform="translate(0)"/></g></g></g></g></g></svg>