<svg xmlns="http://www.w3.org/2000/svg" width="605.8736" height="195.6191" viewBox="0 0 605.8736 195.6191"><defs><style>.cls-1{fill:#584293;}.cls-2{fill:#a4d6d5;}.cls-3{fill:#4da7de;}.cls-4{fill:#fff;}</style></defs><g id="Livello_2" data-name="Livello 2"><g id="Livello_1-2" data-name="Livello 1"><polygon class="cls-1" points="135.716 0 90.094 71.905 57.687 122.99 0 122.99 32.407 71.905 78.029 0 135.716 0"/><polygon class="cls-2" points="149.817 71.905 117.409 122.99 57.687 122.99 90.094 71.905 149.817 71.905"/><polygon class="cls-3" points="117.409 122.99 71.336 195.619 11.613 195.619 57.687 122.99 117.409 122.99"/><path class="cls-4" d="M186.2964,37.7949h19.1455v86.8906h53.9014v16.2H186.2964Z"/><path class="cls-4" d="M338.2827,107.4551h-61.707a21.3791,21.3791,0,0,0,8.4678,13.7695q6.8481,5.0816,17.01,5.081,12.958,0,21.3545-8.5419l9.8672,11.34a33.2285,33.2285,0,0,1-13.4013,9.5732,53.1,53.1,0,0,1-41.0889-1.915,37.1053,37.1053,0,0,1-15.2432-14.3584,40.5319,40.5319,0,0,1-5.375-20.8389,41.1411,41.1411,0,0,1,5.2276-20.6924,37.1049,37.1049,0,0,1,14.5068-14.3593,42.33,42.33,0,0,1,20.9121-5.1543,41.2591,41.2591,0,0,1,20.5449,5.081,35.9943,35.9943,0,0,1,14.1377,14.2862,43.314,43.314,0,0,1,5.0811,21.28Q338.5767,103.9219,338.2827,107.4551ZM283.8648,81.3135a21.9944,21.9944,0,0,0-7.4366,13.9179h44.6231a21.7186,21.7186,0,0,0-7.2158-13.8437,21.9491,21.9491,0,0,0-15.0225-5.3018A22.2142,22.2142,0,0,0,283.8648,81.3135Z"/><path class="cls-4" d="M403.3023,69.68q9.2021,8.3217,9.2051,25.11v46.0957h-17.378v-9.5722a21.418,21.418,0,0,1-9.6465,7.8789,37.7332,37.7332,0,0,1-15.0957,2.7246,37.0025,37.0025,0,0,1-15.4638-3.02,23.869,23.869,0,0,1-10.2354-8.3945,21.2926,21.2926,0,0,1-3.6074-12.1494,20.8222,20.8222,0,0,1,7.8789-17.0107q7.8765-6.4059,24.8154-6.4063h20.3233V93.7588q0-8.2471-4.9336-12.666-4.9365-4.4181-14.6533-4.418a42.3169,42.3169,0,0,0-13.0342,2.0625A32.0513,32.0513,0,0,0,350.6529,84.48l-7.2168-13.4013a44.7185,44.7185,0,0,1,14.875-7.2168A66.2179,66.2179,0,0,1,376.72,61.3584Q394.0962,61.3584,403.3023,69.68Zm-16.7891,55.6689a17.2251,17.2251,0,0,0,7.585-9.0576V107.16H375.1q-15.9053,0-15.9052,10.4571a9.3819,9.3819,0,0,0,3.9765,7.9521q3.9756,2.9474,11.0449,2.9453A23.7594,23.7594,0,0,0,386.5132,125.3486Z"/><path class="cls-4" d="M492.8433,66.3662a36.1216,36.1216,0,0,1,14.2109,14.1377,42.1149,42.1149,0,0,1,5.1553,21.0605,42.5167,42.5167,0,0,1-5.1553,21.1328,35.9687,35.9687,0,0,1-14.2109,14.212,41.7431,41.7431,0,0,1-20.5449,5.0078q-15.9053,0-25.1836-10.6035V169.457H428.7056V62.2422H446.231v10.31a28.4627,28.4627,0,0,1,11.2666-8.3945,38.0623,38.0623,0,0,1,14.8008-2.7988A41.7636,41.7636,0,0,1,492.8433,66.3662Zm-5.8916,53.0176q6.5523-6.772,6.5537-17.8194t-6.5537-17.82A22.2568,22.2568,0,0,0,470.2368,76.97a23.6884,23.6884,0,0,0-11.93,3.0195,21.8278,21.8278,0,0,0-8.3946,8.6153,26.3647,26.3647,0,0,0-3.0927,12.96,26.357,26.357,0,0,0,3.0927,12.96,21.8086,21.8086,0,0,0,8.3946,8.6152,23.6674,23.6674,0,0,0,11.93,3.0186Q480.3986,126.1582,486.9517,119.3838Z"/><path class="cls-4" d="M586.5074,66.3662a36.1222,36.1222,0,0,1,14.2109,14.1377,42.116,42.116,0,0,1,5.1553,21.0605,42.5178,42.5178,0,0,1-5.1553,21.1328,35.9694,35.9694,0,0,1-14.2109,14.212,41.7435,41.7435,0,0,1-20.545,5.0078q-15.9053,0-25.1836-10.6035V169.457H522.37V62.2422H539.895v10.31a28.4634,28.4634,0,0,1,11.2666-8.3945,38.0623,38.0623,0,0,1,14.8008-2.7988A41.764,41.764,0,0,1,586.5074,66.3662Zm-5.8917,53.0176q6.5523-6.772,6.5538-17.8194,0-11.0463-6.5538-17.82A22.2565,22.2565,0,0,0,563.9009,76.97a23.6891,23.6891,0,0,0-11.93,3.0195,21.8275,21.8275,0,0,0-8.3945,8.6153,26.3647,26.3647,0,0,0-3.0928,12.96,26.357,26.357,0,0,0,3.0928,12.96,21.8084,21.8084,0,0,0,8.3945,8.6152,23.6681,23.6681,0,0,0,11.93,3.0186Q574.0625,126.1582,580.6157,119.3838Z"/></g></g></svg>